<svg width="0" height="0" style="position:absolute"><symbol id="btn-add-breakpoint" viewBox="0 0 20 20"><mask id="aaa"><path fill-rule="evenodd" d="M7 12V7.62l3.5-4.083L14 7.62V15h-4v1h5V7.25l-3.841-4.482L10.5 2l-.659.768L6 7.25V12h1Zm-3 3h2v-2h1v2h2v1H7v2H6v-2H4v-1Zm4-1V8.297l2.5-3 2.5 3V14H8Z" clip-rule="evenodd"/></mask><path fill-rule="evenodd" d="M7 12V7.62l3.5-4.083L14 7.62V15h-4v1h5V7.25l-3.841-4.482L10.5 2l-.659.768L6 7.25V12h1Zm-3 3h2v-2h1v2h2v1H7v2H6v-2H4v-1Zm4-1V8.297l2.5-3 2.5 3V14H8Z" clip-rule="evenodd"/><path d="m7 7.62-.76-.65-.24.28v.37h1ZM7 12v1h1v-1H7Zm3.5-8.463.76-.651L10.5 2l-.76.886.76.65ZM14 7.62h1v-.37l-.24-.28-.76.65ZM14 15v1h1v-1h-1Zm-4 0v-1H9v1h1Zm0 1H9v1h1v-1Zm5 0v1h1v-1h-1Zm0-8.75h1v-.37l-.24-.28-.76.65Zm-3.841-4.482-.76.651.76-.65ZM10.5 2l.76-.65-.76-.887-.76.886.76.651Zm-.659.768.76.651-.76-.65ZM6 7.25l-.76-.65-.24.28v.37h1ZM6 12H5v1h1v-1Zm0 3v1h1v-1H6Zm-2 0v-1H3v1h1Zm2-2v-1H5v1h1Zm1 0h1v-1H7v1Zm0 2H6v1h1v-1Zm2 0h1v-1H9v1Zm0 1v1h1v-1H9Zm-2 0v-1H6v1h1Zm0 2v1h1v-1H7Zm-1 0H5v1h1v-1Zm0-2h1v-1H6v1Zm-2 0H3v1h1v-1Zm4-7.703-.768-.64L7 7.935v.362h1ZM8 14H7v1h1v-1Zm2.5-8.703.768-.64-.768-.922-.768.922.768.64Zm2.5 3h1v-.362l-.232-.278-.768.64ZM13 14v1h1v-1h-1ZM6 7.62V12h2V7.62H6Zm3.74-4.734-3.5 4.083 1.52 1.302 3.5-4.084-1.52-1.301Zm5.02 4.083-3.5-4.083-1.52 1.301 3.5 4.084 1.52-1.302ZM15 15V7.62h-2V15h2Zm-5 1h4v-2h-4v2Zm1 0v-1H9v1h2Zm3-1h-4v2h4v-2Zm1 0h-1v2h1v-2Zm-1 0v1h2v-1h-2Zm0-7.75V15h2V7.25h-2Zm-3.6-3.83 3.84 4.48 1.52-1.3-3.842-4.482-1.519 1.301Zm-.66-.77.66.77 1.518-1.302-.659-.769-1.518 1.302Zm.86.77.66-.77-1.52-1.3-.658.768 1.519 1.301ZM6.76 7.9l3.84-4.48-1.518-1.302-3.841 4.481 1.518 1.302ZM7 12V7.25H5V12h2Zm0-1H6v2h1v-2Zm-1 3H4v2h2v-2Zm1 1v-2H5v2h2Zm-1-1h1v-2H6v2Zm0-1v2h2v-2H6Zm3 1H7v2h2v-2Zm1 2v-1H8v1h2Zm-3 1h2v-2H7v2Zm-1-1v2h2v-2H6Zm1 1H6v2h1v-2Zm0 1v-2H5v2h2Zm-3-1h2v-2H4v2Zm-1-2v1h2v-1H3Zm4-6.703V14h2V8.297H7Zm2.732-3.64-2.5 3 1.536 1.28 2.5-3-1.536-1.28Zm4.036 3-2.5-3-1.536 1.28 2.5 3 1.536-1.28ZM14 14V8.297h-2V14h2Zm-6 1h5v-2H8v2Z" mask="url(#aaa)"/></symbol><symbol id="btn-add-text" viewBox="0 0 20 20"><path d="M5 3h1v2h2v1H6v2H5V6H3V5h2V3z"/><path fill-rule="evenodd" d="M5 9h1v7h8V7h-2a1 1 0 0 1-1-1V4H7V3h4.586a1 1 0 0 1 .707.293l2.414 2.414a1 1 0 0 1 .293.707V16a1 1 0 0 1-1 1H6a1 1 0 0 1-1-1V9zm7-4.598L13.6 6H12V4.402z" clip-rule="evenodd"/></symbol><symbol id="btn-addcell" viewBox="0 0 20 20"><path fill-rule="evenodd" d="M5 3h1v2h2v1H6v2H5V6H3V5h2V3Zm7 4h-2v2h2V7Zm0-1H9v3H6v7h10V6h-4Zm0 7v2h-2v-2h2Zm3-1h-2v-2h2v2Zm-5 0h2v-2h-2v2Zm3 1h2v2h-2v-2Zm-4 2v-2H7v2h2Zm0-5v2H7v-2h2Zm6-1V7h-2v2h2Z" clip-rule="evenodd"/></symbol><symbol id="btn-advanced-ratio" viewBox="0 0 20 20"><path d="M7 6a4 4 0 1 0 0 8h2v-1H7a3 3 0 1 1 0-6h2V6H7Zm6 0a4 4 0 1 1 0 8h-2v-1h2a3 3 0 1 0 0-6h-2V6h2Z"/><path d="M13 9H7v2h6V9Z"/></symbol><symbol id="btn-align-bottom" viewBox="0 0 20 20"><path fill-rule="evenodd" d="M10 5v6.293l1.146-1.147.707.708-2 2-.146.146H15v1H4v-1h5.293l-.147-.146-2-2 .708-.708L9 11.293V5h1ZM4 15h11v1H4v-1Z" clip-rule="evenodd"/></symbol><symbol id="btn-align-center" viewBox="0 0 20 20"><path fill-rule="evenodd" d="M4 5h12v1H4V5Zm3 2h6v1H7V7Zm8 2H5v1h10V9Zm-8 2h6v1H7v-1Zm6 2H7v1h6v-1Zm-9 2h12v1H4v-1Z" clip-rule="evenodd"/></symbol><symbol id="btn-align-just" viewBox="0 0 20 20"><path fill-rule="evenodd" d="M4 5h12v1H4V5Zm12 2H4v1h12V7ZM4 9h12v1H4V9Zm12 2H4v1h12v-1ZM4 13h12v1H4v-1Zm0 2h12v1H4v-1Z" clip-rule="evenodd"/></symbol><symbol id="btn-align-left" viewBox="0 0 20 20"><path fill-rule="evenodd" d="M4 5h12v1H4V5Zm0 2h7v1H4V7Zm10 2H4v1h10V9ZM4 11h7v1H4v-1Zm7 2H4v1h7v-1Zm-7 2h12v1H4v-1Z" clip-rule="evenodd"/></symbol><symbol id="btn-align-middle" viewBox="0 0 20 20"><path fill-rule="evenodd" d="M10 4v3.293l1.146-1.147.707.708-2 2L9.708 9H15v1H4V9h5.293l-.147-.146-2-2 .708-.708L9 7.293V4h1ZM7.146 14.146l2-2L9.293 12H4v-1h11v1H9.707l.147.146 2 2-.708.708L10 13.707V17H9v-3.293l-1.146 1.147-.708-.707Z" clip-rule="evenodd"/></symbol><symbol id="btn-align-right" viewBox="0 0 20 20"><path fill-rule="evenodd" d="M4 5h12v1H4V5Zm5 2h7v1H9V7Zm7 2H6v1h10V9Zm-7 2h7v1H9v-1Zm7 2H9v1h7v-1ZM4 15h12v1H4v-1Z" clip-rule="evenodd"/></symbol><symbol id="btn-align-top" viewBox="0 0 20 20"><path fill-rule="evenodd" d="M4 6V5h11v1H4Zm0 1v1h5.293l-.147.147-2 2 .708.707L9 9.707V16h1V9.707l1.146 1.147.707-.707-2-2L9.708 8H15V7H4Z" clip-rule="evenodd"/></symbol><symbol id="btn-arrange-back" viewBox="0 0 20 20"><path fill-rule="evenodd" d="M8 4H4v4h4V4ZM4 3a1 1 0 0 0-1 1v4a1 1 0 0 0 1 1h4a1 1 0 0 0 1-1V4a1 1 0 0 0-1-1H4Zm2 10v-3h4v4H7a1 1 0 0 1-1-1Zm4-3V6h3a1 1 0 0 1 1 1v3h-4Zm1 2a1 1 0 0 1 1-1h4a1 1 0 0 1 1 1v4a1 1 0 0 1-1 1h-4a1 1 0 0 1-1-1v-4Zm1 0h4v4h-4v-4Z" clip-rule="evenodd"/></symbol><symbol id="btn-arrange-backward" viewBox="0 0 20 20"><path fill-rule="evenodd" d="M3 4a1 1 0 0 1 1-1h7a1 1 0 0 1 1 1v3H7v5H4a1 1 0 0 1-1-1V4Zm6 5h7v7H9V9ZM8 9a1 1 0 0 1 1-1h7a1 1 0 0 1 1 1v7a1 1 0 0 1-1 1H9a1 1 0 0 1-1-1V9Z" clip-rule="evenodd"/></symbol><symbol id="btn-arrange-forward" viewBox="0 0 20 20"><path fill-rule="evenodd" d="M4 3a1 1 0 0 0-1 1v7a1 1 0 0 0 1 1h7a1 1 0 0 0 1-1V4a1 1 0 0 0-1-1H4Zm4 13v-3h1v3h7V9h-3V8h3a1 1 0 0 1 1 1v7a1 1 0 0 1-1 1H9a1 1 0 0 1-1-1Z" clip-rule="evenodd"/></symbol><symbol id="btn-arrange-front" viewBox="0 0 20 20"><path fill-rule="evenodd" d="M4 4h4v1h1V4a1 1 0 0 0-1-1H4a1 1 0 0 0-1 1v4a1 1 0 0 0 1 1h1V8H4V4Zm2 3a1 1 0 0 1 1-1h6a1 1 0 0 1 1 1v6a1 1 0 0 1-1 1H7a1 1 0 0 1-1-1V7Zm5 9v-1h1v1h4v-4h-1v-1h1a1 1 0 0 1 1 1v4a1 1 0 0 1-1 1h-4a1 1 0 0 1-1-1Z" clip-rule="evenodd"/></symbol><symbol id="btn-arrow-down" viewBox="0 0 20 20"><path fill-rule="evenodd" d="m10 13.707.354-.353 5.5-5.5-.707-.708L10 12.293 4.854 7.146l-.708.708 5.5 5.5.354.353Z" clip-rule="evenodd"/></symbol><symbol id="btn-arrow-up" viewBox="0 0 20 20"><path fill-rule="evenodd" d="m10 6.293.354.354 5.5 5.5-.707.707L10 7.707l-5.146 5.147-.708-.707 5.5-5.5.354-.354Z" clip-rule="evenodd"/></symbol><symbol id="btn-autocorrect" viewBox="0 0 20 20"><path d="M16 4h-6l-5 7h4l-4 7 11-9h-5l5-5Z"/></symbol><symbol id="btn-bold" viewBox="0 0 20 20"><path d="M6 5h3.11c1.418 0 2.445.203 3.083.608.643.401.964 1.042.964 1.921 0 .597-.141 1.087-.424 1.47a1.663 1.663 0 0 1-1.114.69v.069c.634.141 1.09.405 1.367.793.283.387.424.902.424 1.545 0 .911-.33 1.622-.991 2.133-.656.51-1.55.771-2.68.771H6V5Zm2 3.958h1.35c.574 0 .989-.089 1.244-.267.26-.177.39-.471.39-.881 0-.383-.142-.657-.424-.82-.278-.17-.72-.254-1.327-.254H8v2.222Zm0 1.682v2.604h1.5c.583 0 1.014-.111 1.292-.335.278-.223.417-.565.417-1.025 0-.83-.592-1.244-1.777-1.244H8Z"/></symbol><symbol id="btn-bold(ru)" viewBox="0 0 20 20"><path d="M7 10 4 5h2l3 4.9V5h2v4.9L14 5h2l-3 5 3 5h-2l-3-5v5H9v-5l-3 5H4l3-5Z"/></symbol><symbol id="btn-border-all" viewBox="0 0 20 20"><path fill-rule="evenodd" d="M16 11v5h-5v-5h5Zm0-1V5h-5v5h5Zm-6-5H5v5h5V5Zm-5 6v5h5v-5H5ZM4 4h13v13H4V4Z" clip-rule="evenodd"/></symbol><symbol id="btn-border-bottom" viewBox="0 0 20 20"><path d="M4 17v-1h13v1H4Z"/><path fill-rule="evenodd" d="M4 5V4h1v1H4Zm2-1v1h1V4H6Zm2 1V4h1v1H8Zm2-1v1h1V4h-1Zm2 1V4h1v1h-1Zm2-1v1h1V4h-1Zm2 0v1h1V4h-1Zm-2 7v-1h1v1h-1Zm-2-1v1h1v-1h-1Zm-4 1v-1h1v1H8Zm-2-1v1h1v-1H6Zm10-4v1h1V6h-1Zm0 3V8h1v1h-1Zm0 1v1h1v-1h-1Zm0 3v-1h1v1h-1Zm0 1v1h1v-1h-1ZM4 7V6h1v1H4Zm0 1v1h1V8H4Zm0 3v-1h1v1H4Zm0 1v1h1v-1H4Zm0 3v-1h1v1H4Zm6-9v1h1V6h-1Zm0 3V8h1v1h-1Zm0 1v1h1v-1h-1Zm0 3v-1h1v1h-1Zm0 1v1h1v-1h-1Z" clip-rule="evenodd" opacity=".4"/></symbol><symbol id="btn-border-diagdown" viewBox="0 0 20 20"><path fill-rule="evenodd" d="M5 4v1H4V4h1Zm2 0v1H6V4h1Zm2 1V4H8v1h1Zm4-1v1h-1V4h1Zm2 1V4h-1v1h1Zm2-1v1h-1V4h1ZM5 17v-1H4v1h1Zm2-1v1H6v-1h1Zm2 1v-1H8v1h1Zm2-13v1h-1V4h1Zm0 13v-1h-1v1h1Zm2-1v1h-1v-1h1Zm2 1v-1h-1v1h1Zm2-1v1h-1v-1h1ZM5 7V6H4v1h1Zm0 1v1H4V8h1Zm0 5v-1H4v1h1Zm0 1v1H4v-1h1Zm12-7V6h-1v1h1Zm0 1v1h-1V8h1ZM5 11v-1H4v1h1Zm12-1v1h-1v-1h1Zm0 3v-1h-1v1h1Zm0 1v1h-1v-1h1Z" clip-rule="evenodd" opacity=".4"/><path fill-rule="evenodd" d="m4.146 4.854 12 12 .707-.707-12-12-.707.707Z" clip-rule="evenodd"/></symbol><symbol id="btn-border-diagup" viewBox="0 0 20 20"><path fill-rule="evenodd" d="M4 4v1h1V4H4Zm2 1V4h1v1H6Zm2-1v1h1V4H8Zm4 1V4h1v1h-1Zm2-1v1h1V4h-1Zm2 0v1h1V4h-1Zm0 13v-1h1v1h-1Zm-2-1v1h1v-1h-1Zm-2 1v-1h1v1h-1ZM10 4v1h1V4h-1Zm0 13v-1h1v1h-1Zm-2-1v1h1v-1H8Zm-2 1v-1h1v1H6Zm-2-1v1h1v-1H4Zm12-9V6h1v1h-1Zm0 1v1h1V8h-1Zm0 5v-1h1v1h-1Zm0 1v1h1v-1h-1ZM4 7V6h1v1H4Zm0 1v1h1V8H4Zm12 3v-1h1v1h-1ZM4 10v1h1v-1H4Zm0 3v-1h1v1H4Zm0 1v1h1v-1H4Z" clip-rule="evenodd" opacity=".4"/><path fill-rule="evenodd" d="m16.854 4.854-12 12-.708-.707 12-12 .708.707Z" clip-rule="evenodd"/></symbol><symbol id="btn-border-inside" viewBox="0 0 20 20"><path fill-rule="evenodd" d="M4 5h1V4H4v1Zm0 2h1V6H4v1Zm1 2H4V8h1v1Zm-1 4h1v-1H4v1Zm1 2H4v-1h1v1Zm-1 2h1v-1H4v1ZM17 5h-1V4h1v1Zm-1 2h1V6h-1v1Zm1 2h-1V8h1v1Zm-1 4h1v-1h-1v1Zm1 2h-1v-1h1v1Zm-1 2h1v-1h-1v1ZM7 5H6V4h1v1Zm1 0h1V4H8v1Zm5 0h-1V4h1v1Zm1 0h1V4h-1v1ZM7 17H6v-1h1v1Zm1 0h1v-1H8v1Zm5 0h-1v-1h1v1Zm1 0h1v-1h-1v1Z" clip-rule="evenodd" opacity=".4"/><path d="M17 11H4v-1h13v1Z"/><path d="M11 17h-1V4h1v13Z"/></symbol><symbol id="btn-border-insidehor" viewBox="0 0 20 20"><path d="M4 11v-1h13v1H4Z"/><path fill-rule="evenodd" d="M4 4v1h1V4H4Zm2 1V4h1v1H6Zm2-1v1h1V4H8Zm4 1V4h1v1h-1Zm2-1v1h1V4h-1Zm2 0v1h1V4h-1Zm0 13v-1h1v1h-1Zm-2-1v1h1v-1h-1Zm-2 1v-1h1v1h-1ZM10 4v1h1V4h-1Zm0 13v-1h1v1h-1Zm-2-1v1h1v-1H8Zm-2 1v-1h1v1H6Zm-2-1v1h1v-1H4Zm12-9V6h1v1h-1Zm0 1v1h1V8h-1Zm0 5v-1h1v1h-1Zm0 1v1h1v-1h-1ZM4 7V6h1v1H4Zm0 1v1h1V8H4Zm0 5v-1h1v1H4Zm0 1v1h1v-1H4Z" clip-rule="evenodd" opacity=".4"/></symbol><symbol id="btn-border-insidevert" viewBox="0 0 20 20"><path fill-rule="evenodd" d="M4 5h1V4H4v1Zm0 2h1V6H4v1Zm1 2H4V8h1v1Zm-1 4h1v-1H4v1Zm1 2H4v-1h1v1Zm-1 2h1v-1H4v1ZM17 5h-1V4h1v1Zm-1 2h1V6h-1v1Zm1 2h-1V8h1v1ZM4 11h1v-1H4v1Zm13 0h-1v-1h1v1Zm-1 2h1v-1h-1v1Zm1 2h-1v-1h1v1Zm-1 2h1v-1h-1v1ZM7 5H6V4h1v1Zm1 0h1V4H8v1Zm5 0h-1V4h1v1Zm1 0h1V4h-1v1ZM7 17H6v-1h1v1Zm1 0h1v-1H8v1Zm5 0h-1v-1h1v1Zm1 0h1v-1h-1v1Z" clip-rule="evenodd" opacity=".4"/><path d="M11 17h-1V4h1v13Z"/></symbol><symbol id="btn-border-left" viewBox="0 0 20 20"><path d="M4 4h1v13H4V4Z"/><path fill-rule="evenodd" d="M16 4h1v1h-1V4Zm1 2h-1v1h1V6Zm-1 2h1v1h-1V8Zm1 2h-1v1h1v-1Zm-1 2h1v1h-1v-1Zm1 2h-1v1h1v-1Zm0 2h-1v1h1v-1Zm-7-2h1v1h-1v-1Zm1-2h-1v1h1v-1Zm-1-4h1v1h-1V8Zm1-2h-1v1h1V6Zm4 10h-1v1h1v-1Zm-3 0h1v1h-1v-1Zm-1 0h-1v1h1v-1Zm-3 0h1v1H8v-1Zm-1 0H6v1h1v-1Zm7-12h1v1h-1V4Zm-1 0h-1v1h1V4Zm-3 0h1v1h-1V4ZM9 4H8v1h1V4ZM6 4h1v1H6V4Zm9 6h-1v1h1v-1Zm-3 0h1v1h-1v-1Zm-1 0h-1v1h1v-1Zm-3 0h1v1H8v-1Zm-1 0H6v1h1v-1Z" clip-rule="evenodd" opacity=".4"/></symbol><symbol id="btn-border-no" viewBox="0 0 20 20"><path fill-rule="evenodd" d="M5 5H4V4h1v1Zm0 2H4V6h1v1ZM4 9h1V8H4v1Zm1 2H4v-1h1v1Zm-1 2h1v-1H4v1Zm1 2H4v-1h1v1Zm5-8h1V6h-1v1Zm1 2h-1V8h1v1Zm-1 4h1v-1h-1v1Zm1 2h-1v-1h1v1Zm-7 2h1v-1H4v1ZM17 5h-1V4h1v1Zm-1 2h1V6h-1v1Zm1 2h-1V8h1v1Zm-1 2h1v-1h-1v1Zm1 2h-1v-1h1v1Zm-1 2h1v-1h-1v1Zm1 2h-1v-1h1v1ZM6 5h1V4H6v1Zm3 0H8V4h1v1Zm1 0h1V4h-1v1Zm3 0h-1V4h1v1Zm1 0h1V4h-1v1ZM7 17H6v-1h1v1Zm1 0h1v-1H8v1Zm3 0h-1v-1h1v1Zm1 0h1v-1h-1v1Zm3 0h-1v-1h1v1Zm-9-6h1v-1H6v1Zm3 0H8v-1h1v1Zm1 0h1v-1h-1v1Zm3 0h-1v-1h1v1Zm1 0h1v-1h-1v1Z" clip-rule="evenodd" opacity=".4"/></symbol><symbol id="btn-border-out" viewBox="0 0 20 20"><path fill-rule="evenodd" d="M10 6h1v1h-1V6Zm0 2h1v1h-1V8Zm1 2h-1v1h1v-1Zm-1 2h1v1h-1v-1Zm1 2h-1v1h1v-1Zm-4-4v1H6v-1h1Zm2 1v-1H8v1h1Zm4-1v1h-1v-1h1Zm2 1v-1h-1v1h1Z" clip-rule="evenodd" opacity=".4"/><path fill-rule="evenodd" d="M16 16V5H5v11h11Zm1-12H4v13h13V4Z" clip-rule="evenodd"/></symbol><symbol id="btn-border-right" viewBox="0 0 20 20"><path fill-rule="evenodd" d="M4 5h1V4H4v1Zm0 2h1V6H4v1Zm1 2H4V8h1v1Zm-1 2h1v-1H4v1Zm1 2H4v-1h1v1Zm-1 2h1v-1H4v1Zm7-8h-1V6h1v1Zm-1 2h1V8h-1v1Zm1 4h-1v-1h1v1Zm-1 2h1v-1h-1v1Zm-5 2H4v-1h1v1ZM6 5h1V4H6v1Zm3 0H8V4h1v1Zm1 0h1V4h-1v1Zm3 0h-1V4h1v1Zm1 0h1V4h-1v1ZM7 17H6v-1h1v1Zm1 0h1v-1H8v1Zm3 0h-1v-1h1v1Zm1 0h1v-1h-1v1Zm3 0h-1v-1h1v1Zm-9-6h1v-1H6v1Zm3 0H8v-1h1v1Zm1 0h1v-1h-1v1Zm3 0h-1v-1h1v1Zm1 0h1v-1h-1v1Z" clip-rule="evenodd" opacity=".4"/><path d="M17 17h-1V4h1v13Z"/></symbol><symbol id="btn-border-top" viewBox="0 0 20 20"><path fill-rule="evenodd" d="M5 7V6H4v1h1Zm0 1v1H4V8h1Zm2 2v1H6v-1h1Zm-2 7v-1H4v1h1Zm2 0v-1H6v1h1Zm2-1v1H8v-1h1Zm2 1v-1h-1v1h1Zm2-1v1h-1v-1h1Zm2 1v-1h-1v1h1Zm-6-6v-1H8v1h1Zm4-1v1h-1v-1h1Zm2 1v-1h-1v1h1Zm2 5v1h-1v-1h1ZM5 15v-1H4v1h1Zm0-3v1H4v-1h1Zm0-1v-1H4v1h1Zm12 3v1h-1v-1h1Zm0-1v-1h-1v1h1Zm0-3v1h-1v-1h1Zm0-1V8h-1v1h1Zm0-3v1h-1V6h1Zm-6 9v-1h-1v1h1Zm0-3v1h-1v-1h1Zm0-1v-1h-1v1h1Zm0-3v1h-1V8h1Zm0-1V6h-1v1h1Z" clip-rule="evenodd" opacity=".4"/><path d="M17 4v1H4V4h13Z"/></symbol><symbol id="btn-cc-plaintext" viewBox="0 0 20 20"><path fill-rule="evenodd" d="M3 8h14v1H3V8Zm0 2h14v1H3v-1Zm8 2H3v1h8v-1Z" clip-rule="evenodd"/></symbol><symbol id="btn-cc-remove" viewBox="0 0 20 20"><path fill-rule="evenodd" d="M8 4a1 1 0 0 1 1-1h3a1 1 0 0 1 1 1v1h2.5a.5.5 0 0 1 0 1H15v10a1 1 0 0 1-1 1H7a1 1 0 0 1-1-1V6h-.5a.5.5 0 0 1 0-1H8V4Zm4 0v1H9V4h3ZM7 6h7v10H7V6Zm2 1H8v8h1V7Zm1 0h1v8h-1V7Zm3 0h-1v8h1V7Z" clip-rule="evenodd"/></symbol><symbol id="btn-cc-richtext" viewBox="0 0 20 20"><path fill-rule="evenodd" d="M17 5H3v1h14V5ZM9 7H3v1h6V7ZM3 9h6v1H3V9Zm6 2H3v1h6v-1Zm-6 2h6v1H3v-1Zm0 2v1h14v-1H3Zm8-7h5v3.293l-1.5-1.5L11.293 13H11V8Zm5 5h-3.293l1.793-1.793 1.5 1.5V13Zm-5.707 1H10V7h7v7h-6.707Zm2.207-4a.5.5 0 1 0 0-1 .5.5 0 0 0 0 1Z" clip-rule="evenodd"/></symbol><symbol id="btn-change-case" viewBox="0 0 20 20"><path d="M9.51 12H5.44l-1.25 3H3L7 5h1l4 10h-1.22l-1.27-3Zm-3.65-1h3.29L7.5 6.5 5.86 11ZM17 15l-1-.006v-.495c-.5.5-1 .5-1.388.5-.505 0-.9-.15-1.187-.453-.283-.302-.425-.703-.425-1.203 0-1.242.5-1.844 1.671-2.103L16 11c0-.974-.438-1.228-.854-1.228-.61 0-1.652.228-1.652.228v-.463A2.87 2.87 0 0 1 15.215 9C16.405 9 17 9.712 17 11.138v3.861Zm-1-3-1.032.156c-.376.06-.66.166-.85.32-.136.108-.287.415-.287.8 0 .28.087.509.262.688.178.175.413.263.707.263.402 0 .733-.159.994-.476.263-.32.206-.692.206-1.18v-.572Z"/></symbol><symbol id="btn-clearstyle" viewBox="0 0 20 20"><path fill-rule="evenodd" d="M6.414 16A2 2 0 0 1 5 15.414l-1.5-1.5a2 2 0 0 1 0-2.828L10.086 4.5a2 2 0 0 1 2.828 0L15.5 7.086a2 2 0 0 1 0 2.828L10.414 15H15v1H6.414ZM9 15l4-4-4-4-4.794 4.794a1 1 0 0 0 0 1.414l1.5 1.5a1 1 0 0 0 .707.293H9Zm3.207-9.793a1 1 0 0 0-1.414 0L9.708 6.292l4 4 1.085-1.085a1 1 0 0 0 0-1.414l-2.586-2.586Z" clip-rule="evenodd"/></symbol><symbol id="btn-close" viewBox="0 0 20 20"><path fill-rule="evenodd" d="m4.81 5.707 4.486 4.485-4.433 4.433.707.707 4.433-4.433 4.432 4.433.708-.707-4.433-4.433 4.485-4.485L14.488 5l-4.485 4.485L5.518 5l-.707.707Z" clip-rule="evenodd"/></symbol><symbol id="btn-collapse-all" viewBox="0 0 20 20"><path fill-rule="evenodd" d="M4 5h1v1H4V5Zm2 0h11v1H6V5Zm.884 2.68L6.5 7.219l-.384.46-2.5 3 .768.64L6 9.382V16h1V9.38l1.616 1.94.768-.64-2.5-3Z" clip-rule="evenodd"/></symbol><symbol id="btn-colorschemas" viewBox="0 0 20 20"><path fill-rule="evenodd" d="M16 4H4v12h12V4ZM3 3v14h14V3H3Z" clip-rule="evenodd"/><path d="M4 4h6v6H4z" opacity=".2"/><path d="M4 10h6v6H4z" opacity=".4"/><path d="M10 10h6v6h-6z" opacity=".6"/></symbol><symbol id="btn-columns-left" viewBox="0 0 20 20"><path fill-rule="evenodd" d="M7 5H4v1h3V5Zm0 2H4v1h3V7ZM4 9h3v1H4V9Zm3 2H4v1h3v-1Zm-3 2h3v1H4v-1Zm3 2H4v1h3v-1ZM9 5h7v1H9V5Zm7 2H9v1h7V7ZM9 9h7v1H9V9Zm7 2H9v1h7v-1Zm-7 2h7v1H9v-1Zm7 2H9v1h7v-1Z" clip-rule="evenodd"/></symbol><symbol id="btn-columns-one" viewBox="0 0 20 20"><path fill-rule="evenodd" d="M16 5H4v1h12V5Zm0 2H4v1h12V7ZM4 9h12v1H4V9Zm12 2H4v1h12v-1ZM4 13h12v1H4v-1Zm12 2H4v1h12v-1Z" clip-rule="evenodd"/></symbol><symbol id="btn-columns-right" viewBox="0 0 20 20"><path fill-rule="evenodd" d="M11 5H4v1h7V5Zm2 0h3v1h-3V5Zm0 2h3v1h-3V7Zm3 2h-3v1h3V9Zm-3 2h3v1h-3v-1Zm3 2h-3v1h3v-1Zm-3 2h3v1h-3v-1ZM4 7h7v1H4V7Zm7 2H4v1h7V9Zm-7 2h7v1H4v-1Zm7 2H4v1h7v-1Zm-7 2h7v1H4v-1Z" clip-rule="evenodd"/></symbol><symbol id="btn-columns-three" viewBox="0 0 20 20"><path fill-rule="evenodd" d="M7 5H4v1h3V5Zm0 2H4v1h3V7ZM4 9h3v1H4V9Zm3 2H4v1h3v-1Zm-3 2h3v1H4v-1Zm3 2H4v1h3v-1ZM8 5h3v1H8V5Zm3 2H8v1h3V7ZM8 9h3v1H8V9Zm3 2H8v1h3v-1Zm-3 2h3v1H8v-1Zm3 2H8v1h3v-1Zm1-10h3v1h-3V5Zm3 2h-3v1h3V7Zm-3 2h3v1h-3V9Zm3 2h-3v1h3v-1Zm-3 2h3v1h-3v-1Zm3 2h-3v1h3v-1Z" clip-rule="evenodd"/></symbol><symbol id="btn-columns-two" viewBox="0 0 20 20"><path fill-rule="evenodd" d="M9 5H4v1h5V5Zm0 2H4v1h5V7ZM4 9h5v1H4V9Zm5 2H4v1h5v-1Zm-5 2h5v1H4v-1Zm5 2H4v1h5v-1Zm2-10h5v1h-5V5Zm5 2h-5v1h5V7Zm-5 2h5v1h-5V9Zm5 2h-5v1h5v-1Zm-5 2h5v1h-5v-1Zm5 2h-5v1h5v-1Z" clip-rule="evenodd"/></symbol><symbol id="btn-contents" viewBox="0 0 20 20"><path d="M13 3H3v1h10V3Zm-3 3H3v1h7V6ZM3 9h10v1H3V9Zm10 6H3v1h10v-1Zm3 0h1v1h-1v-1Zm1-3h-1v1h1v-1Zm-1-3h1v1h-1V9Zm1-3h-1v1h1V6Zm-1-3h1v1h-1V3Zm-6 9H3v1h7v-1Z"/></symbol><symbol id="btn-copy" viewBox="0 0 20 20"><path fill-rule="evenodd" d="M4 5h8v2h1V5a1 1 0 0 0-1-1H4a1 1 0 0 0-1 1v7a1 1 0 0 0 1 1h2v-1H4V5Zm7 1H5v1h6V6ZM8 9v7h8V9H8Zm0-1a1 1 0 0 0-1 1v7a1 1 0 0 0 1 1h8a1 1 0 0 0 1-1V9a1 1 0 0 0-1-1H8ZM6 8H5v1h1V8Zm-1 2h1v1H5v-1Zm10 1v-1H9v1h6Zm0 1v1H9v-1h6Zm0 3v-1H9v1h6Z" clip-rule="evenodd"/></symbol><symbol id="btn-copystyle" viewBox="0 0 20 20"><path fill-rule="evenodd" d="M7 4h8v3H7V4ZM6 4a1 1 0 0 1 1-1h8a1 1 0 0 1 1 1v3a1 1 0 0 1-1 1H7a1 1 0 0 1-1-1V6H5v3h6v2h1v6H9v-6h1v-1H5a1 1 0 0 1-1-1V6a1 1 0 0 1 1-1h1V4Z" clip-rule="evenodd"/></symbol><symbol id="btn-cut" viewBox="0 0 20 20"><path fill-rule="evenodd" d="M8 6.5c0 .484-.138.936-.376 1.319l2.778 1.604 6.678-3.856a1 1 0 0 1 1.366.366L11.402 10l7.044 4.067a1 1 0 0 1-1.366.366l-6.678-3.856-2.778 1.604a2.5 2.5 0 1 1-.712-.744L9.402 10l-2.49-1.437A2.5 2.5 0 1 1 8 6.5zm-1 0a1.5 1.5 0 1 1-3 0 1.5 1.5 0 0 1 3 0zm0 7a1.5 1.5 0 1 1-3 0 1.5 1.5 0 0 1 3 0z" clip-rule="evenodd"/></symbol><symbol id="btn-decfont" viewBox="0 0 20 20"><path fill-rule="evenodd" d="m13.5 7.5 2-2.5h-4l2 2.5Zm-3.434 4.966L11.05 15H12L8.894 7h-.772L5 15h.929l.972-2.534h3.165ZM8.862 9.163l.918 2.47H7.225l.93-2.47c.147-.417.26-.8.34-1.15.126.455.248.838.367 1.15Z" clip-rule="evenodd"/></symbol><symbol id="btn-decoffset" viewBox="0 0 20 20"><path fill-rule="evenodd" d="M16 5H4v1h12V5Zm0 2h-6v1h6V7Zm-6 2h6v1h-6V9Zm6 2h-6v1h6v-1Zm-6 2h6v1h-6v-1Zm-6 2v1h12v-1H4Zm3.354-6.646L5.707 10H9v1H5.707l1.647 1.646-.707.708-2.5-2.5-.354-.354.354-.354 2.5-2.5.707.708Z" clip-rule="evenodd"/></symbol><symbol id="btn-delcell" viewBox="0 0 20 20"><path fill-rule="evenodd" d="M8 6V5H3v1h5Zm4 1h-2v2h2V7Zm0-1H9v3H6v7h10V6h-4Zm0 7v2h-2v-2h2Zm3-1h-2v-2h2v2Zm-5 0h2v-2h-2v2Zm3 1h2v2h-2v-2Zm-4 2v-2H7v2h2Zm0-5v2H7v-2h2Zm6-1V7h-2v2h2Z" clip-rule="evenodd"/></symbol><symbol id="btn-demote" viewBox="0 0 20 20"><path fill-rule="evenodd" d="m14.38 10.175.278.325-.278.325-3 3.5-.76-.65L12.913 11H4v-1h8.913L10.62 7.325l.76-.65 3 3.5Z" clip-rule="evenodd"/></symbol><symbol id="btn-developer" viewBox="0 0 20 20"><path d="m9.015 16 2.75-11h-1.03l-2.75 11h1.03Zm-5.558-5.5 2.897-2.9-.708-.706L2.043 10.5l3.603 3.603.708-.707L3.457 10.5Zm10.897-3.605 3.603 3.605-3.603 3.603-.707-.707 2.896-2.896-2.896-2.9.707-.706Z"/></symbol><symbol id="btn-distribute-columns" viewBox="0 0 20 20"><path fill-rule="evenodd" d="M10 11h5v5h-5v-5Zm-1 0H4v5h5v-5Zm-6-1h13v7H3v-7Z" clip-rule="evenodd" opacity=".4"/><path fill-rule="evenodd" d="M4 3H3v2H2v1h1v3h1V6h5v3h1V6h5v3h1V6h1V5h-1V3h-1v2h-5V3H9v2H4V3Z" clip-rule="evenodd"/></symbol><symbol id="btn-distribute-rows" viewBox="0 0 20 20"><path fill-rule="evenodd" d="M9 10v5H4v-5h5Zm0-1V4H4v5h5Zm1-6v13H3V3h7Z" clip-rule="evenodd" opacity=".4"/><mask id="gqpath-2-inside-1_534_12046"><path fill-rule="evenodd" d="M15 3V2h-1v1h-3v1h3v5h-3v1h3v5h-3v1h3v1h1v-1h2v-1h-2v-5h2V9h-2V4h2V3h-2Z" clip-rule="evenodd"/></mask><path fill-rule="evenodd" d="M15 3V2h-1v1h-3v1h3v5h-3v1h3v5h-3v1h3v1h1v-1h2v-1h-2v-5h2V9h-2V4h2V3h-2Z" clip-rule="evenodd"/><path d="M15 2h1V1h-1v1Zm0 1h-1v1h1V3Zm-1-1V1h-1v1h1Zm0 1v1h1V3h-1Zm-3 0V2h-1v1h1Zm0 1h-1v1h1V4Zm3 0h1V3h-1v1Zm0 5v1h1V9h-1Zm-3 0V8h-1v1h1Zm0 1h-1v1h1v-1Zm3 0h1V9h-1v1Zm0 5v1h1v-1h-1Zm-3 0v-1h-1v1h1Zm0 1h-1v1h1v-1Zm3 0h1v-1h-1v1Zm0 1h-1v1h1v-1Zm1 0v1h1v-1h-1Zm0-1v-1h-1v1h1Zm2 0v1h1v-1h-1Zm0-1h1v-1h-1v1Zm-2 0h-1v1h1v-1Zm0-5V9h-1v1h1Zm2 0v1h1v-1h-1Zm0-1h1V8h-1v1Zm-2 0h-1v1h1V9Zm0-5V3h-1v1h1Zm2 0v1h1V4h-1Zm0-1h1V2h-1v1Zm-3-1v1h2V2h-2Zm0 1h1V1h-1v2Zm1 0V2h-2v1h2Zm-4 1h3V2h-3v2Zm1 0V3h-2v1h2Zm2-1h-3v2h3V3Zm1 6V4h-2v5h2Zm-4 1h3V8h-3v2Zm1 0V9h-2v1h2Zm2-1h-3v2h3V9Zm1 6v-5h-2v5h2Zm-1-1h-3v2h3v-2Zm-4 1v1h2v-1h-2Zm1 2h3v-2h-3v2Zm4 0v-1h-2v1h2Zm0-1h-1v2h1v-2Zm-1 0v1h2v-1h-2Zm1 1h2v-2h-2v2Zm3-1v-1h-2v1h2Zm-1-2h-2v2h2v-2Zm-3-4v5h2v-5h-2Zm3-1h-2v2h2V9Zm-1 0v1h2V9h-2Zm-1 1h2V8h-2v2Zm-1-6v5h2V4h-2Zm3-1h-2v2h2V3Zm-1 0v1h2V3h-2Zm-1 1h2V2h-2v2Z" mask="url(#gqpath-2-inside-1_534_12046)"/></symbol><symbol id="btn-download" viewBox="0 0 20 20"><path fill-rule="evenodd" d="M10 2h1v11.293l4.646-4.647.707.708-5.5 5.5-.353.353-.354-.353-5.5-5.5.708-.708L10 13.293V2Zm7 14H4v1h13v-1Z" clip-rule="evenodd"/></symbol><symbol id="btn-dropcap-inmargin" viewBox="0 0 20 20"><path fill-rule="evenodd" d="M7.906 9H9L7.005 4H5.94L4 9h1.067l.412-1.136H7.47L7.906 9ZM6.46 5.166l.687 1.856h-1.36l.673-1.856ZM10 4h6v1h-6V4Zm0 2h6v1h-6V6Zm6 2h-6v1h6V8Zm-6 2h6v1h-6v-1Zm6 2h-6v1h6v-1Zm-6 2h6v1h-6v-1Z" clip-rule="evenodd"/></symbol><symbol id="btn-dropcap-intext" viewBox="0 0 20 20"><path fill-rule="evenodd" d="M10 4h6v1h-6V4Zm0 2h6v1h-6V6Zm6 2h-6v1h6V8Zm0 2v1H4v-1h12Zm0 3v-1H4v1h12Zm0 1v1H4v-1h12ZM7.906 9H9L7.005 4H5.94L4 9h1.067l.412-1.136H7.47L7.906 9ZM6.46 5.166l.687 1.856h-1.36l.673-1.856Z" clip-rule="evenodd"/></symbol><symbol id="btn-edit" viewBox="0 0 20 20"><path fill-rule="evenodd" d="m12 5 3 3 2-2V5l-2-2h-1l-2 2ZM3 17v-3l8-8 3 3-8 8H3Z" clip-rule="evenodd"/></symbol><symbol id="btn-edit-points" viewBox="0 0 20 20"><path d="M13 3h4v4h-1.89l-1.2 6h-1.02l1.2-6H13V5.91l-6 1.2V6.09l6-1.2V3Zm1 1v2h2V4h-2ZM4 6h2v2H4V6Zm0 8h2v2H4v-2Zm8 0v2h2v-2h-2ZM6 9H5v4h1V9Zm5 5v1H7v-1h4Z"/></symbol><symbol id="btn-embed_" viewBox="0 0 20 20"><path d="m7.854 5.354-.707-.708L2.293 9.5l4.854 4.854.707-.707L3.707 9.5l4.147-4.146Zm4.292 0 .708-.708L17.707 9.5l-4.853 4.854-.707-.707L16.293 9.5l-4.146-4.146Z"/></symbol><symbol id="btn-equation" viewBox="0 0 20 20"><path d="M4.607 13.61 6.304 4H18v1H7.15L5.04 17.083l-.99-.018-.67-5.136H2v-1h2.257l.35 2.682Z"/><path d="M12.352 9.742a3.265 3.265 0 0 0-.579-.812l-2.085.367v.281c.156-.01.294-.015.414-.015.375 0 .658.07.851.21.193.141.35.38.469.72.026.072.2.741.523 2.007-.13.292-.406.766-.828 1.422-.422.656-.755 1.083-1 1.281-.099.084-.18.125-.242.125-.073 0-.177-.06-.313-.18-.187-.166-.364-.25-.53-.25a.573.573 0 0 0-.423.172.583.583 0 0 0-.171.43c0 .193.062.346.187.461a.845.845 0 0 0 .57.227c.297 0 .604-.13.922-.391.49-.406 1.14-1.315 1.953-2.727.344 1.547.57 2.422.68 2.625.172.328.404.493.695.493.198 0 .44-.115.727-.344a4.892 4.892 0 0 0 1.25-1.531l-.274-.141a3.062 3.062 0 0 1-.734.937c-.146.12-.273.18-.383.18-.068 0-.135-.039-.203-.117-.068-.083-.15-.33-.25-.742l-.64-2.688c.447-.776.833-1.3 1.156-1.57.172-.146.32-.219.445-.219.083 0 .248.042.492.125.125.047.242.07.352.07a.73.73 0 0 0 .5-.195c.078-.073.117-.208.117-.406a.563.563 0 0 0-.203-.438c-.13-.12-.307-.18-.531-.18-.151 0-.29.027-.414.079-.198.083-.428.24-.688.469-.26.224-.482.46-.664.71l-.688 1.032c-.213-.797-.367-1.29-.46-1.477Z"/></symbol><symbol id="btn-expand-all" viewBox="0 0 20 20"><path fill-rule="evenodd" d="M5 5H4v1h1V5Zm12 3h-7v1h7V8ZM6 5h11v1H6V5Zm11 6h-7v1h7v-1Zm-7 3h7v1h-7v-1ZM7 8H6v6.619l-1.616-1.94-.768.64 2.5 3 .384.462.384-.461 2.5-3-.768-.64L7 14.619v-6.62Z" clip-rule="evenodd"/></symbol><symbol id="btn-eyedropper" viewBox="0 0 20 20"><path fill-rule="evenodd" d="M13.182 4.49a2 2 0 1 1 2.828 2.83l-2.828 2.827 1.414 1.414-.707.707-1.414-1.414-4.243 4.243-2.121.707-.707.707-.707.708-.707-.708-.707-.707.707-.707.707-.707.707-2.121 4.242-4.243-1.414-1.414.707-.707 1.415 1.414 2.828-2.828ZM5.645 14.705l.633-1.897 4.076-4.076 1.414 1.415-4.076 4.075-1.897.633-.224.074.074-.224Z" clip-rule="evenodd"/></symbol><symbol id="btn-favorite" viewBox="0 0 20 20"><path d="M11.889 8.111 10 2 8.111 8.111H2l4.944 3.777L5.056 18 10 14.223 14.944 18l-1.888-6.111L18 8.11h-6.111Zm3.155 1-3.15 2.406 1.171 3.79L10 12.963l-3.065 2.342 1.17-3.789L4.956 9.11H8.85L10 5.387l1.15 3.724h3.894Z"/></symbol><symbol id="btn-field" viewBox="0 0 20 20"><path fill-rule="evenodd" d="M3 6h14v8H3V6ZM2 5h16v10H2V5Zm5 2H4v1h1v4H4v1h3v-1H6V8h1V7Z" clip-rule="evenodd"/></symbol><symbol id="btn-firstitem" viewBox="0 0 20 20"><path d="M7 4H6v12h1V4Zm1.293 6 5.853 5.854.707-.707L9.707 10l5.146-5.146-.707-.708L8.293 10Z"/></symbol><symbol id="btn-fixed-field" viewBox="0 0 20 20"><path fill-rule="evenodd" d="M4 4H3v1h1V4Zm0 10V6H2V3h3v2h10V3h3v3h-2v8h2v3h-3v-2H5v2H2v-3h2Zm12 1v1h1v-1h-1Zm-1-1V6H5v8h10ZM3 15h1v1H3v-1ZM16 5h1V4h-1v1ZM9 7H6v1h1v4H6v1h3v-1H8V8h1V7Z" clip-rule="evenodd"/></symbol><symbol id="btn-flip-hor" viewBox="0 0 20 20"><path fill-rule="evenodd" d="M10 17V3L3 17h7Zm8 0L11 3v14h7Zm-1.618-1L12 7.236V16h4.382Z" clip-rule="evenodd"/></symbol><symbol id="btn-flip-vert" viewBox="0 0 20 20"><path fill-rule="evenodd" d="M17 2 3 9h14V2Zm-1 1.618L7.236 8H16V3.618ZM17 10H3l14 7v-7Z" clip-rule="evenodd"/></symbol><symbol id="btn-fontcolor" viewBox="0 0 20 20"><path d="m13.642 15-1.404-3.168H7.716L6.327 15H5L9.46 5h1.103L15 15h-1.358Zm-1.813-4.21-1.312-3.086a15.1 15.1 0 0 1-.525-1.437 11.79 11.79 0 0 1-.486 1.437L8.18 10.79h3.65Z"/></symbol><symbol id="btn-goback" viewBox="0 0 20 20"><path fill-rule="evenodd" d="M11 6h6c.55 0 1 .45 1 1v9c0 .55-.45 1-1 1H3c-.55 0-1-.45-1-1V5c0-.55.45-1 1-1h7c.55 0 1 .45 1 1v1ZM3 5v11h14V7h-7V5H3Zm7.354 9.354-.708-.707 1.672-1.672H6v-1h5.268L9.646 9.354l.708-.708 2.853 2.854-2.853 2.854Z" clip-rule="evenodd"/></symbol><symbol id="btn-hand-tool" viewBox="0 0 20 20"><path d="M13 10a.5.5 0 0 0 1 0h-1Zm-2 0a.5.5 0 0 0 1 0h-1Zm-2 0a.5.5 0 0 0 1 0H9Zm-1.5 1.5-.354.354A.5.5 0 0 0 8 11.5h-.5Zm-3.306-.568.449-.22-.45.22Zm1.594-1.144-.353.354.353-.354ZM13 8v2h1V8h-1Zm1 0V4.5h-1V8h1Zm-3-3v5h1V5h-1Zm1 0V3.5h-1V5h1ZM9 3.5V6h1V3.5H9ZM9 6v4h1V6H9Zm-2-.5v6h1v-6H7Zm.854 5.646L6.142 9.435l-.707.707 1.711 1.712.708-.708ZM11 4.5V5h1v-.5h-1ZM10 6v-.5H9V6h1Zm3 1.5V8h1v-.5h-1Zm-9.256 3.651c.635 1.3 1.513 2.985 2.609 4.35C7.435 16.848 8.823 18 10.5 18v-1c-1.202 0-2.333-.836-3.368-2.125-1.02-1.271-1.857-2.87-2.49-4.163l-.898.44ZM10.5 18c1.368 0 2.442-.294 3.265-.874.825-.582 1.343-1.413 1.67-2.387.325-.967.467-2.097.53-3.31.063-1.216.047-2.552.039-3.931l-1 .006c.008 1.393.024 2.693-.037 3.873-.061 1.18-.198 2.204-.48 3.044-.28.833-.693 1.461-1.299 1.888-.607.428-1.46.691-2.688.691v1Zm4-12A1.5 1.5 0 0 0 13 7.5h1a.5.5 0 0 1 .5-.5V6ZM10 5.5A1.5 1.5 0 0 0 8.5 4v1a.5.5 0 0 1 .5.5h1ZM5.092 9c-1.097 0-1.833 1.158-1.348 2.151l.899-.439a.5.5 0 0 1 .45-.712V9Zm1.05.435A1.484 1.484 0 0 0 5.092 9v1c.129 0 .252.051.343.142l.707-.707ZM10.5 2A1.5 1.5 0 0 0 9 3.5h1a.5.5 0 0 1 .5-.5V2ZM12 3.5A1.5 1.5 0 0 0 10.5 2v1a.5.5 0 0 1 .5.5h1Zm.5-.5A1.5 1.5 0 0 0 11 4.5h1a.5.5 0 0 1 .5-.5V3ZM14 4.5A1.5 1.5 0 0 0 12.5 3v1a.5.5 0 0 1 .5.5h1Zm-6 1a.5.5 0 0 1 .5-.5V4A1.5 1.5 0 0 0 7 5.5h1ZM14.5 7c.275 0 .502.224.504.504l1-.006A1.506 1.506 0 0 0 14.5 6v1Z" opacity=".8"/></symbol><symbol id="btn-hide-password" viewBox="0 0 20 20"><path d="m5.354 15.354 10-10-.707-.708-10 10 .707.708ZM10 6c.321 0 .638.018.948.052L10 7c-2.527 0-4.689 1.23-5.842 3 .361.554.821 1.055 1.36 1.482l-.711.712A7.125 7.125 0 0 1 3 10c1.243-2.365 3.91-4 7-4Zm5.841 4c-1.152 1.769-3.314 3-5.84 3l-.949.948c.31.034.627.052.948.052 3.09 0 5.757-1.635 7-4a7.126 7.126 0 0 0-1.806-2.193l-.712.711c.539.427.999.928 1.36 1.482Z"/></symbol><symbol id="btn-highlight" viewBox="0 0 20 20"><path fill-rule="evenodd" d="m15.914 2.5.586.586a2 2 0 0 1 0 2.828L9.914 12.5a2.001 2.001 0 0 1-2.296.382L6.5 14h-3l2.618-2.618A2 2 0 0 1 6.5 9.086L13.086 2.5a2 2 0 0 1 2.828 0Zm-.707.707a1 1 0 0 0-1.414 0l-.44.44 2 2 .44-.44a1 1 0 0 0 0-1.414l-.586-.586Zm-8 6.586 5.44-5.44 2 2-5.44 5.44a1 1 0 0 1-1.414 0l-.586-.586a1 1 0 0 1 0-1.414Z" clip-rule="evenodd"/></symbol><symbol id="btn-home" viewBox="0 0 20 20"><path fill-rule="evenodd" d="M7 11h5v5h-1v-4H8v4H7v-5Z" clip-rule="evenodd"/><path fill-rule="evenodd" d="m9.499 2.355.315.257 8 6.5-.63.776L16 8.926l-.001 6.574v.5H12v-1h2.999L15 8.114l-5.501-4.47L4 8.112 3.999 15H7v1H2.999V8.924l-1.185.964-.63-.776 8-6.5.315-.257Z" clip-rule="evenodd"/></symbol><symbol id="btn-ic-doclang" viewBox="0 0 20 20"><path fill-rule="evenodd" d="M16.502 13A6.48 6.48 0 0 0 17 10.5a6.48 6.48 0 0 0-.498-2.5h-1.929c.277.782.427 1.624.427 2.5a7.47 7.47 0 0 1-.427 2.5h1.929ZM14 10.5a6.48 6.48 0 0 0-.498-2.5H11v5h2.502A6.48 6.48 0 0 0 14 10.5ZM15.978 7h-1.843a7.536 7.536 0 0 0-2.8-2.947A6.5 6.5 0 0 1 15.977 7Zm-3 0A6.535 6.535 0 0 0 11 5.022V7h1.978ZM11 14h1.978A6.536 6.536 0 0 1 11 15.978V14Zm4.978 0a6.5 6.5 0 0 1-4.643 2.947 7.537 7.537 0 0 0 2.8-2.947h1.843ZM10 13V8H7.498A6.48 6.48 0 0 0 7 10.5c0 .886.177 1.73.498 2.5H10Zm-3.573 0H4.498A6.48 6.48 0 0 1 4 10.5c0-.886.177-1.73.498-2.5h1.929A7.488 7.488 0 0 0 6 10.5c0 .877.15 1.718.427 2.5Zm1.595-6H10V5.022A6.535 6.535 0 0 0 8.022 7Zm1.644-2.947A6.5 6.5 0 0 0 5.022 7h1.843a7.535 7.535 0 0 1 2.8-2.947ZM6.865 14a7.536 7.536 0 0 0 2.8 2.947A6.5 6.5 0 0 1 5.022 14h1.843ZM10 15.978V14H8.022A6.535 6.535 0 0 0 10 15.978Zm8-5.478a7.5 7.5 0 1 1-15 0 7.5 7.5 0 0 1 15 0Z" clip-rule="evenodd"/></symbol><symbol id="btn-ic-docspell" viewBox="0 0 20 20"><path fill-rule="evenodd" d="M7 5H4.293L3 6.293V11h1V9h2v2h1V5ZM6 8V6H4.707L4 6.707V8h2Zm5.207-3H8v6h3.207l.793-.793V7.793l-.293-.293.293-.293V5.793L11.207 5ZM9 10V8h1.793l.207.207v1.586l-.207.207H9Zm1.793-3H9V6h1.793l.207.207v.586L10.793 7Z" clip-rule="evenodd"/><path d="M13.793 5 13 5.793v4.414l.446.446c.275-.238.54-.455.793-.653h-.032L14 9.793V6.207L14.207 6h1.586l.207.207V7h1V5.793L16.207 5h-2.414Z"/><path d="M8.5 12.5s2 2 3 4.5c2-4 6.5-8 6.5-8s-2.5.5-6.5 5c-1.5-1.5-3-1.5-3-1.5Z"/></symbol><symbol id="btn-ic-docspell(ru)" viewBox="0 0 20 20"><path fill-rule="evenodd" d="M3.293 4H6v6H5V8H3v2H2V5.293L3.293 4ZM5 5v2H3V5.707L3.707 5H5Zm7.5 11c-1-2.5-3-4.5-3-4.5s1.5 0 3 1.5c4-4.5 6.5-5 6.5-5s-4.5 4-6.5 8Zm-2-12v1H8v1h2.25l.75.746V9.25l-.75.75H7V4h3.5ZM8 9h2V7H8v2Zm8-4.25v.5l-.5.75.5.746V9l-.75 1H12V4h3.25l.75.75ZM13 9h2V7h-2v2Zm2-3V5h-2v1h2Z" clip-rule="evenodd"/></symbol><symbol id="btn-ic-options" viewBox="0 0 20 20"><path fill-rule="evenodd" d="M17 6H3v1h14V6Zm0 4H3v1h14v-1ZM3 14h14v1H3v-1Z" clip-rule="evenodd"/></symbol><symbol id="btn-ic-review" viewBox="0 0 20 20"><path fill-rule="evenodd" d="M4 3h10v2h1V3a1 1 0 0 0-1-1H4a1 1 0 0 0-1 1v14a1 1 0 0 0 1 1h10a1 1 0 0 0 1-1v-3h-1v3H4V3Zm8 3H5v1h7V6Zm-2 2H5v1h5V8Zm-5 2h3v1H5v-1Zm2 2H5v1h2v-1Zm9.354-6.354L16 5.293l-.354.353-6.5 6.5-.353.354.353.354.25.25L8 14.5h1.5l.862-.431.284.284.354.354.354-.354 6.5-6.5.353-.353-.353-.354-1.5-1.5ZM11 13.293l-.793-.793L14 8.707l.793.793L11 13.293Zm4.5-4.5L14.707 8 16 6.707l.793.793L15.5 8.793Z" clip-rule="evenodd"/></symbol><symbol id="btn-ic-zoomtopage" viewBox="0 0 20 20"><path fill-rule="evenodd" d="M16 10.707V17h-5.293l2.147-2.146-.707-.707L11 15.293V12h-1v3.293l-1.146-1.146-.708.707L10.293 17H5v-6.293l2.146 2.147.708-.707L6.707 11H9v-1H6.707l1.147-1.146-.708-.708L5 10.293V4h5.293L8.146 6.146l.708.708L10 5.707V9h1V5.707l1.146 1.147.707-.708L10.707 4H16v6.293l-2.146-2.147-.707.708L14.293 10H12v1h2.293l-1.146 1.146.707.707L16 10.707ZM16 3a1 1 0 0 1 1 1v13a1 1 0 0 1-1 1H5a1 1 0 0 1-1-1V4a1 1 0 0 1 1-1h11Z" clip-rule="evenodd"/></symbol><symbol id="btn-ic-zoomtowidth" viewBox="0 0 20 20"><path fill-rule="evenodd" d="M2 5h1v11H2V5Zm10.646 7.646.707.707 2.854-2.853-2.854-2.854-.707.707L14.293 10H5.707l1.647-1.646-.708-.708L3.793 10.5l2.853 2.854.708-.708L5.707 11h8.586l-1.647 1.646ZM18 5h-1v11h1V5Z" clip-rule="evenodd"/></symbol><symbol id="btn-in-favorite" viewBox="0 0 20 20"><path d="m10 2 1.889 6.111H18l-4.944 3.777L14.944 18 10 14.223 5.056 18l1.888-6.111L2 8.11h6.111L10 2Z"/></symbol><symbol id="btn-incfont" viewBox="0 0 20 20"><path fill-rule="evenodd" d="m13.5 3.5-2 2.5h4l-2-2.5Zm-2.986 8.332L11.778 15H13L9.007 5h-.993L4 15h1.194l1.25-3.168h4.07ZM8.965 7.704l1.18 3.086H6.862l1.195-3.086c.19-.522.335-1.001.437-1.437a16.3 16.3 0 0 0 .472 1.437Z" clip-rule="evenodd"/></symbol><symbol id="btn-incoffset" viewBox="0 0 20 20"><path fill-rule="evenodd" d="M16 5H4v1h12V5Zm0 2h-6v1h6V7Zm-6 2h6v1h-6V9Zm6 2h-6v1h6v-1Zm-6 2h6v1h-6v-1Zm-6 2v1h12v-1H4Zm1.646-2.354L7.293 11H4v-1h3.293L5.646 8.354l.708-.708 2.5 2.5.353.354-.353.354-2.5 2.5-.708-.707Z" clip-rule="evenodd"/></symbol><symbol id="btn-inserthyperlink" viewBox="0 0 20 20"><path fill-rule="evenodd" d="m10.884 5.87 2.122-2.122a2 2 0 0 1 2.828 0l.707.707a2 2 0 0 1 0 2.829L14.42 9.405a2 2 0 0 1-1.932.518l-.776.776a3.001 3.001 0 0 0 3.415-.587l2.121-2.121a3 3 0 0 0 0-4.243l-.707-.707a3 3 0 0 0-4.242 0l-2.122 2.121a3.001 3.001 0 0 0-.586 3.415l.776-.775a2 2 0 0 1 .517-1.932Zm-7.07 7.07 2.12-2.12a2 2 0 0 1 1.933-.518l.775-.776a3.001 3.001 0 0 0-3.414.586l-2.122 2.122a3 3 0 0 0 0 4.242l.707.707a3 3 0 0 0 4.243 0l2.121-2.12c.924-.925 1.12-2.3.587-3.416l-.776.776a2 2 0 0 1-.518 1.932l-2.12 2.121a2 2 0 0 1-2.828 0l-.708-.707a2 2 0 0 1 0-2.828Zm2.822 1.41 7.778-7.779-.707-.707-7.778 7.778.707.708Z" clip-rule="evenodd"/></symbol><symbol id="btn-italic" viewBox="0 0 20 20"><path fill-rule="evenodd" d="M8 5h5v1h-2l-1.977 8H11v1H6v-1h2.045l1.978-8H8V5Z" clip-rule="evenodd"/></symbol><symbol id="btn-italic(ru)" viewBox="0 0 20 20"><path d="M12.3 15h-1.267l-2.96-4.959L7.093 15H6L7.989 5h1.094L8.11 9.87 12.642 5H14l-4.743 5 3.044 5Z"/></symbol><symbol id="btn-lastitem" viewBox="0 0 20 20"><path d="M14 4h-1v12h1V4Zm-2.293 6-5.853 5.854-.708-.707L10.293 10 5.146 4.854l.708-.708L11.707 10Z"/></symbol><symbol id="btn-latex" viewBox="0 0 20 20"><path d="M3 9.403c.377-.01.683-.11.919-.299a1.39 1.39 0 0 0 .477-.794c.079-.335.12-.908.125-1.719.005-.81.02-1.345.044-1.602.045-.408.125-.736.243-.984.122-.247.272-.444.448-.59.177-.15.402-.264.676-.342.187-.049.49-.073.912-.073h.411v1.144h-.228c-.51 0-.847.092-1.014.276-.166.18-.25.586-.25 1.217 0 1.272-.027 2.076-.08 2.41-.089.52-.24.921-.456 1.203-.21.281-.544.531-1 .75.54.223.929.566 1.169 1.027.245.457.367 1.207.367 2.25 0 .948.01 1.511.03 1.69.039.331.137.562.294.693.161.13.475.196.94.196h.228V17h-.411c-.48 0-.828-.039-1.044-.116a1.736 1.736 0 0 1-.779-.547c-.206-.247-.34-.563-.404-.947-.059-.383-.09-1.012-.096-1.886-.005-.874-.046-1.479-.125-1.814a1.394 1.394 0 0 0-.477-.794c-.236-.194-.542-.296-.919-.306V9.403Zm14 0v1.187c-.377.01-.686.112-.926.306a1.411 1.411 0 0 0-.47.794c-.079.33-.12.9-.125 1.712-.005.81-.02 1.345-.044 1.602-.045.413-.128.74-.25.984a1.689 1.689 0 0 1-.441.59c-.177.15-.402.264-.676.342-.187.053-.49.08-.912.08h-.411v-1.144h.228c.51 0 .847-.092 1.014-.276.166-.18.25-.588.25-1.224 0-1.214.022-1.984.066-2.31.078-.538.235-.968.47-1.288.235-.326.569-.578 1-.758-.564-.267-.96-.62-1.19-1.056-.231-.442-.346-1.185-.346-2.23 0-.946-.013-1.512-.037-1.696-.034-.326-.132-.551-.294-.678-.157-.13-.468-.196-.934-.196h-.227V3h.411c.48 0 .828.039 1.044.117.314.106.573.286.779.539.206.252.338.57.397.954.064.383.098 1.012.103 1.886.005.874.046 1.479.125 1.814.078.33.235.593.47.787.24.194.549.296.926.306Z"/></symbol><symbol id="btn-linear-equation" viewBox="0 0 20 20"><path d="M9.646 5.146a.5.5 0 0 1 .708 0l2 2a.5.5 0 0 1-.708.708L10 6.207 8.354 7.854a.5.5 0 1 1-.708-.708l2-2Z"/><path fill-rule="evenodd" d="M7.485 13.696a5.245 5.245 0 0 1-.87.776 2.94 2.94 0 0 1-.833.407 3.28 3.28 0 0 1-.92.121c-.322 0-.6-.05-.833-.152a1.674 1.674 0 0 1-.582-.424 1.797 1.797 0 0 1-.337-.643 2.878 2.878 0 0 1-.11-.813c0-.433.078-.896.233-1.39a4.06 4.06 0 0 1 .717-1.334 3.26 3.26 0 0 1 1.146-.916A3.173 3.173 0 0 1 6.517 9c.494 0 .864.1 1.11.297.248.198.373.508.373.928 0 .688-.327 1.204-.98 1.548-.65.343-1.616.515-2.899.515a3.983 3.983 0 0 0-.073.789c0 .425.084.734.251.928.167.19.441.285.821.285.376 0 .717-.08 1.023-.242.307-.162.627-.411.962-.747l.38.395Zm-3.26-1.923a8.51 8.51 0 0 0 .987-.061c.286-.04.531-.093.735-.158.205-.069.374-.15.509-.243s.24-.194.319-.303a.987.987 0 0 0 .165-.352c.033-.125.049-.255.049-.388 0-.247-.06-.439-.178-.576-.114-.142-.286-.213-.514-.213-.286 0-.568.103-.846.31a2.86 2.86 0 0 0-.73.825c-.208.343-.373.73-.496 1.159Z" clip-rule="evenodd"/><path d="M14.532 11.874c.86-.845 1.682-1.7 2.468-2.566L16.878 9h-1.732l-.067.308c.26.033.39.165.39.395a.99.99 0 0 1-.043.289 1.38 1.38 0 0 1-.152.313 3.903 3.903 0 0 1-.377.477 9.422 9.422 0 0 1-.566.584L13.523 9h-1.514l-.067.308a.955.955 0 0 1 .371.087.63.63 0 0 1 .231.189c.069.08.14.194.213.345.073.146.168.362.286.646l.577 1.4A54.491 54.491 0 0 0 11 14.693l.116.307h1.732l.067-.307c-.142-.026-.243-.07-.304-.132a.37.37 0 0 1-.085-.258c0-.083.008-.165.024-.244.02-.08.06-.174.122-.283.06-.109.166-.25.316-.427.15-.18.304-.347.462-.502.162-.159.292-.282.389-.37L14.684 15h1.514l.066-.307a1.303 1.303 0 0 1-.346-.082.861.861 0 0 1-.219-.17 1.813 1.813 0 0 1-.243-.376c-.09-.176-.209-.448-.359-.816l-.565-1.375Z"/></symbol><symbol id="btn-linespace" viewBox="0 0 20 20"><path fill-rule="evenodd" d="m3.646 6.647 2.5-2.5.354-.354.354.354 2.5 2.5-.708.707L7 5.707v8.586l1.646-1.646.708.707-2.5 2.5-.354.353-.354-.353-2.5-2.5.708-.707L6 14.293V5.707L4.354 7.354l-.708-.707ZM17 5h-7v1h7V5Zm-7 3h7v1h-7V8Zm7 3h-7v1h7v-1Zm-7 3h7v1h-7v-1Z" clip-rule="evenodd"/></symbol><symbol id="btn-lock" viewBox="0 0 20 20"><path fill-rule="evenodd" d="M10 2c2.21 0 4 1.343 4 3v2a2 2 0 0 1 2 2v6a2 2 0 0 1-2 2H6a2 2 0 0 1-2-2V9a2 2 0 0 1 2-2V5c0-1.657 1.79-3 4-3ZM7 5v2h6V5c0-.443-.237-.92-.772-1.321C11.694 3.278 10.91 3 10 3c-.91 0-1.694.278-2.228.679C7.237 4.079 7 4.557 7 5Zm6 3h1a1 1 0 0 1 1 1v6a1 1 0 0 1-1 1H6a1 1 0 0 1-1-1V9a1 1 0 0 1 1-1h7Zm-1 3a2 2 0 0 1-1 1.732V15H9v-2.268A2 2 0 0 1 10 9a2 2 0 0 1 2 2Z" clip-rule="evenodd"/></symbol><symbol id="btn-mailmerge" viewBox="0 0 20 20"><path fill-rule="evenodd" d="M3.707 6 9.5 11.793 15.293 6H3.707ZM3 6.707v7.586L6.793 10.5 3 6.707ZM15.293 15H3.707L7.5 11.207l2 2 2-2L15.293 15Zm.707-.707V6.707L12.207 10.5 16 14.293ZM2 6a1 1 0 0 1 1-1h13a1 1 0 0 1 1 1v9a1 1 0 0 1-1 1H3a1 1 0 0 1-1-1V6Z" clip-rule="evenodd"/></symbol><symbol id="btn-menu-about" viewBox="0 0 20 20"><path fill-rule="evenodd" d="M10.5 17a6.5 6.5 0 1 0 0-13 6.5 6.5 0 0 0 0 13Zm0 1a7.5 7.5 0 1 0 0-15 7.5 7.5 0 0 0 0 15Zm.5-9v5h-1V9h1Zm0-1V7h-1v1h1Z" clip-rule="evenodd"/></symbol><symbol id="btn-menu-chart" viewBox="0 0 20 20"><path fill-rule="evenodd" d="M14 4h2v12h-2V4Zm-1 0a1 1 0 0 1 1-1h2a1 1 0 0 1 1 1v12a1 1 0 0 1-1 1h-2a1 1 0 0 1-1-1V4Zm-2 5H9v7h2V9ZM9 8a1 1 0 0 0-1 1v7a1 1 0 0 0 1 1h2a1 1 0 0 0 1-1V9a1 1 0 0 0-1-1H9Zm-3 5H4v3h2v-3Zm-2-1a1 1 0 0 0-1 1v3a1 1 0 0 0 1 1h2a1 1 0 0 0 1-1v-3a1 1 0 0 0-1-1H4Z" clip-rule="evenodd"/></symbol><symbol id="btn-menu-chat" viewBox="0 0 20 20"><path fill-rule="evenodd" d="M3 14.667 5 13v-1h-.362l-.278.232L3 13.365V5h12v2h1V5a1 1 0 0 0-1-1H3a1 1 0 0 0-1 1v10.5l1-.833ZM14 16H7a1 1 0 0 1-1-1V9a1 1 0 0 1 1-1h10a1 1 0 0 1 1 1v9l-4-2Zm3 .382L14.236 15H7V9h10v7.382ZM10 12a1 1 0 1 1-2 0 1 1 0 0 1 2 0Zm2 1a1 1 0 1 0 0-2 1 1 0 0 0 0 2Zm4-1a1 1 0 1 1-2 0 1 1 0 0 1 2 0Z" clip-rule="evenodd"/></symbol><symbol id="btn-menu-comments" viewBox="0 0 20 20"><path fill-rule="evenodd" d="M7.5 16.086 5.414 14H3V4h14v10H9.586L7.5 16.086ZM5 15l2.5 2.5L10 15h7a1 1 0 0 0 1-1V4a1 1 0 0 0-1-1H3a1 1 0 0 0-1 1v10a1 1 0 0 0 1 1h2Zm0-9h10v1H5V6Zm0 2h10v1H5V8Zm7 2H5v1h7v-1Z" clip-rule="evenodd"/></symbol><symbol id="btn-menu-header" viewBox="0 0 20 20"><path fill-rule="evenodd" d="M5 3h10v14H5V3ZM4 3a1 1 0 0 1 1-1h10a1 1 0 0 1 1 1v14a1 1 0 0 1-1 1H5a1 1 0 0 1-1-1V3Zm10 1H6v2h8V4Zm0 10H6v2h8v-2Z" clip-rule="evenodd"/></symbol><symbol id="btn-menu-image" viewBox="0 0 20 20"><path fill-rule="evenodd" d="M8 6.5a1.5 1.5 0 1 1-3 0 1.5 1.5 0 0 1 3 0Zm-1 0a.5.5 0 1 1-1 0 .5.5 0 0 1 1 0Z" clip-rule="evenodd"/><path fill-rule="evenodd" d="M4 3a1 1 0 0 0-1 1v12a1 1 0 0 0 1 1h12a1 1 0 0 0 1-1V4a1 1 0 0 0-1-1H4Zm12 1H4v9.293l2.5-2.5 2 2 4-4 3.5 3.5V4ZM4 16v-1.293l2.5-2.5 2 2 4-4 3.5 3.5V16H4Z" clip-rule="evenodd"/></symbol><symbol id="btn-menu-navigation" viewBox="0 0 20 20"><path fill-rule="evenodd" d="M13 5H4v1h9V5Zm2 3H6v1h9V8Zm-7 3h9v1H8v-1Zm5 3H4v1h9v-1Z" clip-rule="evenodd"/></symbol><symbol id="btn-menu-search" viewBox="0 0 20 20"><path fill-rule="evenodd" d="M13 8.5a4.5 4.5 0 1 1-9 0 4.5 4.5 0 0 1 9 0Zm-.98 4.227a5.5 5.5 0 1 1 .707-.707l4.127 4.127-.707.707-4.127-4.127Z" clip-rule="evenodd"/></symbol><symbol id="btn-menu-shape" viewBox="0 0 20 20"><path fill-rule="evenodd" d="M11 4H4v7h2v1H3V3h9v3h-1V4Zm5 8a4 4 0 1 1-8 0 4 4 0 0 1 8 0Zm1 0a5 5 0 1 1-10 0 5 5 0 0 1 10 0Z" clip-rule="evenodd"/></symbol><symbol id="btn-menu-signature" viewBox="0 0 20 20"><path fill-rule="evenodd" d="M4.404 2.205a4.951 4.951 0 0 0-.535-.634c-.157-.152-.344-.297-.559-.36a.713.713 0 0 0-.742.193c-.16.17-.226.394-.26.57-.07.37-.056.88 0 1.444.056.578.163 1.262.302 2.004.133.712.299 1.484.484 2.279-.05.092-.1.184-.152.275a18.402 18.402 0 0 1-1.537 2.267 19.156 19.156 0 0 1-.717.857l-.042.046-.01.01-.002.004a.5.5 0 1 0 .733.68v-.001l.004-.004.013-.014.047-.052c.04-.045.099-.11.172-.195a20.351 20.351 0 0 0 1.83-2.47l.176.687c-.783 1.04-1.607 2.697-1.095 4.826l.002.01.003.01c.265.927.639 1.627 1.063 2.096.414.46.933.755 1.468.702.577-.058.959-.496 1.105-1.05.143-.54.087-1.24-.18-2.043a76.997 76.997 0 0 1-1.27-4.314c.146-.168.284-.312.403-.43.056.1.12.226.195.376l.015.03c.113.226.258.516.417.715a.919.919 0 0 0 .428.317.658.658 0 0 0 .386.003.722.722 0 0 0 .305-.185c.335-.335.492-.81.606-1.152l.014-.044c.04-.12.077-.227.112-.321l.045.118c.037.095.09.215.165.32.069.096.22.27.478.302.27.032.47-.114.58-.223l.975-.976.001-.001.015-.015.002-.002.002-.001v-.001l.003-.003.002-.001a.5.5 0 1 0-.708-.707l-.001.001-.004.004-.003.003-.67.67a5.536 5.536 0 0 0-.099-.28 1.508 1.508 0 0 0-.165-.32.695.695 0 0 0-.478-.301c-.27-.033-.47.113-.58.223-.335.335-.492.81-.606 1.151l-.014.044a5.68 5.68 0 0 1-.177.481 12.89 12.89 0 0 1-.152-.297l-.015-.03c-.113-.226-.258-.516-.417-.715a.917.917 0 0 0-.428-.317.657.657 0 0 0-.386-.003.723.723 0 0 0-.305.186l-.088.086-.15.147c-.088-.35-.174-.7-.256-1.048.39-.78.714-1.624.859-2.466.186-1.081.082-2.2-.605-3.157l-.002-.004ZM1 11.5l.367.34L1 11.5Zm3.025-6.304c-.054.317-.14.639-.25.962a45.063 45.063 0 0 1-.182-.92 22.976 22.976 0 0 1-.29-1.918c-.04-.398-.05-.71-.037-.936.092.1.202.235.329.41.482.671.587 1.492.43 2.402Zm-.541 9.177c-.318-1.333.002-2.441.472-3.286a73.224 73.224 0 0 0 1.07 3.571c.232.697.238 1.186.162 1.472-.072.275-.19.305-.238.31-.09.01-.32-.038-.626-.376-.293-.326-.605-.873-.84-1.691Zm14.198-9.402-2.865-1.654-6.06 10.496-1.048 5.124 3.913-3.47 4.021-6.965.466.269L14.244 12l.866.5 2.365-4.096-1.332-.77 1.539-2.664Zm-1.366.366-1.039 1.799-1.132-.654 1.038-1.799 1.133.654Zm-1.539 2.665-1.132-.654-3.731 6.462 1.132.654 3.731-6.462ZM9.29 16.198l.292-1.425.796.46-1.088.965Z" clip-rule="evenodd"/></symbol><symbol id="btn-menu-support" viewBox="0 0 20 20"><path fill-rule="evenodd" d="M8 7H2v5h3v3h1v-3h2l4 4V3L8 7Zm3-1.586L8.414 8H3v3h5.414L11 13.586V5.414Zm2 9.379a5.502 5.502 0 0 0 0-10.586v1.05a4.502 4.502 0 0 1 0 8.487v1.049ZM15 9.5a3.5 3.5 0 0 1-2 3.163V11.5c.607-.456 1-1.182 1-2 0-.818-.393-1.544-1-2V6.337A3.5 3.5 0 0 1 15 9.5Z" clip-rule="evenodd"/></symbol><symbol id="btn-menu-table" viewBox="0 0 20 20"><path fill-rule="evenodd" d="M18 7V6a1 1 0 0 0-1-1H3a1 1 0 0 0-1 1v9a1 1 0 0 0 1 1h14a1 1 0 0 0 1-1V7Zm-5 8h4v-2h-4v2Zm0-3v-2h4v2h-4Zm-1 0H8v-2h4v2Zm-4 1h4v2H8v-2Zm-1-1v-2H3v2h4Zm-4 1v2h4v-2H3Zm10-4h4V7h-4v2Zm-1-2v2H8V7h4ZM7 7v2H3V7h4Z" clip-rule="evenodd"/></symbol><symbol id="btn-menu-textart" viewBox="0 0 20 20"><path fill-rule="evenodd" d="M8 3h3V2H4v1h3v9h1V3Zm5.879 8.836H15V7.283c0-1.74-.823-2.611-2.468-2.611-.898 0-1.69.219-2.379.656v1.149c.68-.575 1.44-.862 2.284-.862.961 0 1.442.595 1.442 1.784l-2.099.294c-1.54.215-2.31.976-2.31 2.284 0 .61.196 1.1.588 1.47.396.368.943.553 1.64.553.948 0 1.666-.42 2.154-1.258h.027v1.094ZM12.19 8.527l1.689-.232v.697c0 .597-.182 1.092-.547 1.484-.36.387-.818.58-1.374.58-.406 0-.731-.106-.978-.32a1.083 1.083 0 0 1-.362-.841c0-.47.132-.796.397-.978.264-.187.656-.317 1.175-.39Zm-6.747 9.204C5.99 16.684 7.396 15 10 15s4.011 1.684 4.556 2.731l.887-.462C14.798 16.029 13.11 14 10 14c-3.11 0-4.798 2.03-5.443 3.269l.886.462Z" clip-rule="evenodd"/></symbol><symbol id="btn-menu-thumbs" viewBox="0 0 20 20"><path fill-rule="evenodd" d="M15 4H5v13h10V4ZM4 3v15h12V3H4Zm9 3H7v3h6V6ZM7 5a1 1 0 0 0-1 1v3a1 1 0 0 0 1 1h6a1 1 0 0 0 1-1V6a1 1 0 0 0-1-1H7Zm0 7h6v3H7v-3Zm-1 0a1 1 0 0 1 1-1h6a1 1 0 0 1 1 1v3a1 1 0 0 1-1 1H7a1 1 0 0 1-1-1v-3Z" clip-rule="evenodd"/></symbol><symbol id="btn-merge-cells" viewBox="0 0 20 20"><path fill-rule="evenodd" d="M10 6H5v1h5V6Zm0-1H4v11h13V5h-7Zm6 8V8H5v5h11Zm-6 1H5v1h5v-1Zm1 1h5v-1h-5v1Zm5-8V6h-5v1h5Z" clip-rule="evenodd"/></symbol><symbol id="btn-more-vertical" viewBox="0 0 20 20"><path d="M10 7a1 1 0 1 1 0-2 1 1 0 0 1 0 2zm0 4a1 1 0 1 1 0-2 1 1 0 0 1 0 2zm-1 3a1 1 0 1 0 2 0 1 1 0 0 0-2 0z"/></symbol><symbol id="btn-multilevels" viewBox="0 0 20 20"><path fill-rule="evenodd" d="M17 5H7v1h10V5Zm0 5h-7v1h7v-1Zm-5 5h5v1h-5v-1Z" clip-rule="evenodd"/><path d="M4 7h1V3H3v1h1v3Zm5 10h1v-2H9v2Zm0-3h1v-1H9v1Zm-1.5-3.5a1 1 0 1 1-2 0 1 1 0 0 1 2 0Z"/></symbol><symbol id="btn-multilevels-rtl" viewBox="0 0 20 20"><path d="M13 5H3v1h10V5Zm-3 5H3v1h7v-1Zm-2 5H3v1h5v-1Zm8-8h1V3h-2v1h1v3Z"/><path fill-rule="evenodd" d="M11 14h-1v-1h1v1Zm0 3h-1v-2h1v2Z" clip-rule="evenodd"/><path d="M14.5 10.5a1 1 0 1 1-2 0 1 1 0 0 1 2 0Z"/></symbol><symbol id="btn-nextitem" viewBox="0 0 20 20"><path d="M13.707 10 7.854 4.146l-.708.708L12.293 10l-5.147 5.146.708.708L13.707 10Z"/></symbol><symbol id="btn-numbering" viewBox="0 0 20 20"><path fill-rule="evenodd" d="M5 7h1V3H4v1h1v3Zm3-2h8v1H8V5Zm0 5h8v1H8v-1Zm8 5H8v1h8v-1Zm-9-4v1H4v-1l2-2H4V8h2l1 1-2 2h2Zm-3 6v-1h2l-.5-1 .5-1H4v-1h2l1 1-.5 1 .5 1-1 1H4Z" clip-rule="evenodd"/></symbol><symbol id="btn-numbering-rtl" viewBox="0 0 20 20"><path fill-rule="evenodd" d="M15 7h-1V4h-1V3h2v4Zm1 4v1h-3v-1l2-2h-2V8h2l1 1-2 2h2Zm-3 5v1h2l1-1-.5-1 .5-1-1-1h-2v1h2l-.5 1 .5 1h-2ZM4 5h8v1H4V5Zm0 5h8v1H4v-1Zm8 5H4v1h8v-1Z" clip-rule="evenodd"/></symbol><symbol id="btn-page-landscape" viewBox="0 0 20 20"><path fill-rule="evenodd" d="M4 6v8h12V9h-2a1 1 0 0 1-1-1V6H4Zm10 .414V8h1.586L14 6.414ZM16 15a1 1 0 0 0 1-1V8.414a1 1 0 0 0-.293-.707l-2.414-2.414A1 1 0 0 0 13.586 5H4a1 1 0 0 0-1 1v8a1 1 0 0 0 1 1h12Z" clip-rule="evenodd"/></symbol><symbol id="btn-page-portrait" viewBox="0 0 20 20"><path fill-rule="evenodd" d="M14 16H6V4h5v2a1 1 0 0 0 1 1h2v9Zm-.414-10L12 4.414V6h1.586ZM5 4a1 1 0 0 1 1-1h5.586a1 1 0 0 1 .707.293l2.414 2.414a1 1 0 0 1 .293.707V16a1 1 0 0 1-1 1H6a1 1 0 0 1-1-1V4Z" clip-rule="evenodd"/></symbol><symbol id="btn-paracolor" viewBox="0 0 20 20"><path fill-rule="evenodd" d="m9.646 8.354-2-2-3.439 3.439a1 1 0 0 0 0 1.414l2.586 2.586a1 1 0 0 0 1.414 0l4.586-4.586a1 1 0 0 0 0-1.414l-2.586-2.586a1 1 0 0 0-1.414 0l-.44.44 2 2-.707.707ZM3.5 9.086l3.44-3.44-2.294-2.292.707-.708L7.646 4.94l.44-.439a2 2 0 0 1 2.828 0L13.5 7.086a2 2 0 0 1 0 2.828L8.914 14.5a2 2 0 0 1-2.828 0L3.5 11.914a2 2 0 0 1 0-2.828ZM16 13.5a1.5 1.5 0 1 1-3 0c0-.828 1.5-2.5 1.5-2.5s1.5 1.672 1.5 2.5Z" clip-rule="evenodd"/></symbol><symbol id="btn-paragraph" viewBox="0 0 20 20"><path fill-rule="evenodd" d="M8.5 11c.17 0 .337-.012.5-.035V16h1V5h2v11h1V5h1V4H8.5a3.5 3.5 0 1 0 0 7Z" clip-rule="evenodd"/></symbol><symbol id="btn-paste" viewBox="0 0 20 20"><path fill-rule="evenodd" d="M6 3h6v1h2a1 1 0 0 1 1 1v2h-1V5h-2v1H6V5H4v7h2v1H4a1 1 0 0 1-1-1V5a1 1 0 0 1 1-1h2V3Zm10 13V9H8v7h8ZM8 8a1 1 0 0 0-1 1v7a1 1 0 0 0 1 1h8a1 1 0 0 0 1-1V9a1 1 0 0 0-1-1H8Zm1 3v-1h6v1H9Zm6 1H9v1h6v-1Zm-6 3v-1h6v1H9Z" clip-rule="evenodd"/></symbol><symbol id="btn-previtem" viewBox="0 0 20 20"><path d="m6.293 10 5.853-5.854.708.708L7.707 10l5.147 5.146-.707.708L6.292 10Z"/></symbol><symbol id="btn-print" viewBox="0 0 20 20"><path fill-rule="evenodd" d="M6 4h8v2H6V4ZM5 6V4a1 1 0 0 1 1-1h8a1 1 0 0 1 1 1v2h2a1 1 0 0 1 1 1v6a1 1 0 0 1-1 1h-2v2a1 1 0 0 1-1 1H6a1 1 0 0 1-1-1v-2H3a1 1 0 0 1-1-1V7a1 1 0 0 1 1-1h2Zm0 7v-2a1 1 0 0 1 1-1h8a1 1 0 0 1 1 1v2h2V7H3v6h2Zm0-5H4v1h1V8Zm9 3H6v5h8v-5Zm-7 1h6v1H7v-1Zm6 2H7v1h6v-1Z" clip-rule="evenodd"/></symbol><symbol id="btn-print-preview" viewBox="0 0 20 20"><path fill-rule="evenodd" d="M6 15H4V3h5v2a1 1 0 0 0 1 1h2v2h1V5.414a1 1 0 0 0-.293-.707l-2.414-2.414A1 1 0 0 0 9.586 2H4a1 1 0 0 0-1 1v12a1 1 0 0 0 1 1h2v-1Zm5.586-10L10 3.414V5h1.586ZM10 10h5v1h-5v-1Zm-1 1v-1a1 1 0 0 1 1-1h5a1 1 0 0 1 1 1v1h1a1 1 0 0 1 1 1v4a1 1 0 0 1-1 1h-1v1a1 1 0 0 1-1 1h-5a1 1 0 0 1-1-1v-1H8a1 1 0 0 1-1-1v-4a1 1 0 0 1 1-1h1Zm8 5h-1a1 1 0 0 0-1-1h-5a1 1 0 0 0-1 1H8v-4h9v4Zm-2 2v-2h-5v2h5Zm-5-5H9v1h1v-1Z" clip-rule="evenodd"/></symbol><symbol id="btn-professional-equation" viewBox="0 0 20 20"><path fill-rule="evenodd" d="M15.355 4.916A41.964 41.964 0 0 0 17 3.205L16.919 3h-1.155l-.045.205c.173.022.26.11.26.264a.65.65 0 0 1-.029.192.924.924 0 0 1-.101.21 2.593 2.593 0 0 1-.251.317 6.306 6.306 0 0 1-.377.39L14.68 3h-1.008l-.045.205c.108.008.19.028.247.059a.41.41 0 0 1 .154.125c.046.053.094.13.142.23.049.098.112.242.19.431l.386.933A36.366 36.366 0 0 0 13 6.795l.077.205h1.155l.045-.205a.367.367 0 0 1-.203-.088.246.246 0 0 1-.057-.171c0-.056.006-.11.016-.164a.815.815 0 0 1 .082-.188c.04-.072.11-.167.21-.284.1-.12.203-.232.308-.335.108-.106.195-.188.26-.247L15.456 7h1.009l.045-.205a.868.868 0 0 1-.231-.054.575.575 0 0 1-.146-.113 1.212 1.212 0 0 1-.162-.251 7.908 7.908 0 0 1-.24-.544l-.376-.917ZM9.507 16.032c.5-.348 1.022-.823 1.566-1.423l-.683-.723c-.603.615-1.18 1.071-1.732 1.368a3.826 3.826 0 0 1-1.842.445c-.684 0-1.176-.175-1.478-.523-.301-.356-.452-.923-.452-1.702 0-.519.044-1 .132-1.446 2.31 0 4.048-.315 5.217-.945C11.412 10.453 12 9.507 12 8.247c0-.771-.224-1.339-.673-1.702C10.886 6.182 10.221 6 9.331 6c-.905 0-1.757.2-2.559.6A5.931 5.931 0 0 0 4.71 8.28a7.488 7.488 0 0 0-1.29 2.447c-.28.905-.42 1.754-.42 2.547 0 .534.066 1.03.199 1.49.132.453.334.846.606 1.18.28.326.629.585 1.048.778.42.185.92.278 1.5.278a5.81 5.81 0 0 0 1.654-.222c.5-.149 1-.397 1.5-.746Zm-2.525-5.06c-.508.066-1.1.104-1.776.11.22-.785.518-1.493.893-2.123.383-.638.82-1.142 1.313-1.513.5-.378 1.007-.567 1.522-.567.412 0 .72.13.926.389.213.252.32.604.32 1.057 0 .244-.03.482-.088.711-.052.223-.15.438-.298.646a2.3 2.3 0 0 1-.573.556c-.243.17-.548.319-.916.444a8.152 8.152 0 0 1-1.323.29Z" clip-rule="evenodd"/></symbol><symbol id="btn-promote" viewBox="0 0 20 20"><path fill-rule="evenodd" d="m5.62 10.18-.278.326.279.326 3 3.5.759-.651-2.299-2.682h8.92v-1H7.092L9.38 7.332l-.76-.651-3 3.5Z" clip-rule="evenodd"/></symbol><symbol id="btn-quick-print" viewBox="0 0 20 20"><path fill-rule="evenodd" d="M6 4h8v2H6V4ZM5 6V4a1 1 0 0 1 1-1h8a1 1 0 0 1 1 1v2h2a1 1 0 0 1 1 1v3.671A4.5 4.5 0 0 1 11.671 17H6a1 1 0 0 1-1-1v-2H3a1 1 0 0 1-1-1V7a1 1 0 0 1 1-1h2Zm12 1v2.758A4.479 4.479 0 0 0 14.5 9a4.481 4.481 0 0 0-2.829 1H6a1 1 0 0 0-1 1v2H3V7h14ZM6 11h4.758A4.478 4.478 0 0 0 10 13.5c0 .925.28 1.785.758 2.5H6v-5ZM4 8h1v1H4V8Zm10.5 9a3.5 3.5 0 1 0 0-7 3.5 3.5 0 0 0 0 7Zm2.048-5.497.794.882-3.046 4.089-.335-.372-.003.004-2.008-2.23.743-.669 1.523 1.297 2.332-3Z" clip-rule="evenodd"/></symbol><symbol id="btn-redo" viewBox="0 0 20 20"><path d="M9.1 7c2 0 4.1 1.3 5.4 2.5L17 7v7h-7l2.5-2.5c-.8-1.3-2.6-2.4-4.3-2.4-2.5 0-5.4 1.7-5.7 4.1.4-3.5 3-6.2 6.6-6.2Z"/></symbol><symbol id="btn-remove-breakpoint" viewBox="0 0 20 20"><path fill-rule="evenodd" d="M7 12V7.857l3.5-4.278L14 7.857V15h-4v1h5V7.5l-3.854-4.71L10.5 2l-.646.79L6 7.5V12h1Zm1.146 5.854L6.5 16.207l-1.646 1.647-.708-.707L5.793 15.5l-1.647-1.646.708-.707L6.5 14.793l1.646-1.646.708.707L7.207 15.5l1.647 1.646-.708.708Z" clip-rule="evenodd"/></symbol><symbol id="btn-rotate-270" viewBox="0 0 20 20"><path fill-rule="evenodd" d="m5.707 6 1.647-1.646-.707-.708-2.5 2.5-.354.354.354.354 2.5 2.5.707-.708L5.707 7H6a8.998 8.998 0 0 1 9 9h1a10.012 10.012 0 0 0-.761-3.827A10 10 0 0 0 6 6h-.293Z" clip-rule="evenodd"/></symbol><symbol id="btn-rotate-90" viewBox="0 0 20 20"><path fill-rule="evenodd" d="m14.293 6-1.647-1.646.707-.708 2.5 2.5.354.354-.354.354-2.5 2.5-.707-.708L14.293 7H14a8.999 8.999 0 0 0-9 9H4a10.003 10.003 0 0 1 9-9.95A10.1 10.1 0 0 1 14 6h.293Z" clip-rule="evenodd"/></symbol><symbol id="btn-rotate-down" viewBox="0 0 20 20"><path d="m10.938 15.114 1.442-1.623.62.697-2.19 2.464-.31.348-.31-.348L8 14.188l.62-.697 1.442 1.623V3h.876v12.114Z"/></symbol><symbol id="btn-rotate-up" viewBox="0 0 20 20"><path d="M10.938 4.886 12.38 6.51l.62-.697-2.19-2.464L10.5 3l-.31.348L8 5.812l.62.697 1.442-1.623V17h.876V4.886Z"/></symbol><symbol id="btn-rotate-y-clockwise" viewBox="0 0 20 20"><path fill-rule="evenodd" d="M6 5.707 4.354 7.354l-.708-.707 2.5-2.5.354-.354.354.354 2.5 2.5-.708.707L7 5.707V6a9 9 0 0 0 9 9v1a10.012 10.012 0 0 1-3.827-.761A10 10 0 0 1 6 6v-.293Z" clip-rule="evenodd"/></symbol><symbol id="btn-rotate-y-counterclockwise" viewBox="0 0 20 20"><path fill-rule="evenodd" d="m14 14.293 1.646-1.647.707.707-2.5 2.5-.353.354-.354-.354-2.5-2.5.707-.707L13 14.293V14a8.99 8.99 0 0 0-.685-3.444A8.999 8.999 0 0 0 4 5V4a9.998 9.998 0 0 1 10 10v.293Z" clip-rule="evenodd"/></symbol><symbol id="btn-rows-and-columns" viewBox="0 0 20 20"><g fill-rule="evenodd" clip-rule="evenodd" opacity=".8"><path d="M18 3H2v13h16V3ZM7 4H3v3h4V4Zm1 0h4v3H8V4Zm9 0h-4v3h4V4ZM3 8h4v3H3V8Zm9 0H8v3h4V8Zm1 0h4v3h-4V8Zm-6 4H3v3h4v-3Zm1 0h4v3H8v-3Zm9 0h-4v3h4v-3Z"/><path d="M8 4h4v3H8V4Zm0 4h4v3H8V8Zm4 4H8v3h4v-3Z" opacity=".6"/><path d="M7 4H3v3h4V4Zm10 0h-4v3h4V4Z" opacity=".2"/></g></symbol><symbol id="btn-save" viewBox="0 0 20 20"><path fill-rule="evenodd" d="M14 15h1V6.414L12.586 4H12v3H6V4H4v11h1v-5a1 1 0 0 1 1-1h7a1 1 0 0 1 1 1v5Zm-1 1h2a1 1 0 0 0 1-1V6.414a1 1 0 0 0-.293-.707l-2.414-2.414A1 1 0 0 0 12.586 3H4a1 1 0 0 0-1 1v11a1 1 0 0 0 1 1h9Zm0-1v-5H6v5h7ZM10 4h1v2h-1V4Z" clip-rule="evenodd"/></symbol><symbol id="btn-save-coauth" viewBox="0 0 20 20"><path fill-rule="evenodd" d="M15 9V6.414L12.586 4H12v3H6V4H4v11h1v-5a1 1 0 0 1 1-1h5v1H6v5h3v1H4a1 1 0 0 1-1-1V4a1 1 0 0 1 1-1h8.586a1 1 0 0 1 .707.293l2.414 2.414a1 1 0 0 1 .293.707V9h-1Zm-4-5h-1v2h1V4Z" clip-rule="evenodd"/><path fill-rule="evenodd" d="M17 14a3 3 0 1 0-4 2.83v1.044A4.002 4.002 0 0 1 14 10a4 4 0 0 1 2.645 7H18v1h-3v-3h1v1.236c.614-.55 1-1.348 1-2.236Z" clip-rule="evenodd"/></symbol><symbol id="btn-select" viewBox="0 0 28 28"><path fill-rule="evenodd" d="M22 17 8 3v20l4.5-3.5L15 25l5-2.5-3-5.5h5zm-3.374 5.069L15.316 16h4.27L9 5.414v15.541l3.886-3.022 2.595 5.709 3.145-1.573z" clip-rule="evenodd"/></symbol><symbol id="btn-select-all" viewBox="0 0 20 20"><path d="M3 3h2v1H3V3zm0 3h1v2H3V6zm0 4h1v2H3v-2zm0 4h1v2H3v-2zm3 2v-1h2v1H6zM7 3h2v1H7V3zm4 0h2v1h-2V3zm4 0h2v1h-2V3zm1 3h1v2h-1V6z"/><path fill-rule="evenodd" d="M17.707 14 10 6.293v11.414l2.363-2.363 1.943 3.886 2.339-1.559-1.836-3.67h2.898zM11 15.293V8.707L15.293 13H13.19l2.164 4.329-.661.441-2.057-4.114L11 15.293z" clip-rule="evenodd"/></symbol><symbol id="btn-select-range" viewBox="0 0 20 20"><path fill-rule="evenodd" d="M3 3v13h15V3H3Zm14 1h-6v5h6V4Zm0 6h-6v5h6v-5Zm-7-1V4H4v5h6Zm-6 1v5h6v-5H4Z" clip-rule="evenodd"/></symbol><symbol id="btn-select-tool" viewBox="0 0 20 20"><path fill-rule="evenodd" d="M16 12 6 2v14l3-2.5 2 4.5 3.5-1.5L12 12h4Zm-2.912 4.017L10.3 11h3.285L7 4.414v9.451l2.376-1.98 2.137 4.807 1.575-.675Z" clip-rule="evenodd"/></symbol><symbol id="btn-setmarkers" viewBox="0 0 20 20"><path fill-rule="evenodd" d="M5.5 7a1.5 1.5 0 1 0 0-3 1.5 1.5 0 0 0 0 3Zm0 5a1.5 1.5 0 1 0 0-3 1.5 1.5 0 0 0 0 3ZM7 15.5a1.5 1.5 0 1 1-3 0 1.5 1.5 0 0 1 3 0ZM8 5h8v1H8V5Zm8 5H8v1h8v-1Zm-8 5h8v1H8v-1Z" clip-rule="evenodd"/></symbol><symbol id="btn-setmarkers-rtl" viewBox="0 0 20 20"><path fill-rule="evenodd" d="M14.5 7a1.5 1.5 0 1 0 0-3 1.5 1.5 0 0 0 0 3Zm0 5a1.5 1.5 0 1 0 0-3 1.5 1.5 0 0 0 0 3Zm1.5 3.5a1.5 1.5 0 1 1-3 0 1.5 1.5 0 0 1 3 0ZM4 5h8v1H4V5Zm0 5h8v1H4v-1Zm8 5H4v1h8v-1Z" clip-rule="evenodd"/></symbol><symbol id="btn-settings" viewBox="0 0 20 20"><path fill-rule="evenodd" d="M10.07 13a3 3 0 1 0 0-6 3 3 0 0 0 0 6zm2-3a2 2 0 1 1-4 0 2 2 0 0 1 4 0z" clip-rule="evenodd"/><path fill-rule="evenodd" d="m15.483 14.732 1.447-2.431c.112-.198.09-.351-.067-.46l-1.514-1.15a5.19 5.19 0 0 0 .034-.691c0-.307-.012-.537-.034-.69l1.514-1.15c.157-.11.18-.263.067-.46l-1.447-2.432c-.09-.154-.235-.198-.437-.132l-1.783.69a5.537 5.537 0 0 0-1.21-.69l-.27-1.84c-.045-.197-.157-.296-.336-.296H8.553c-.179 0-.291.099-.336.296l-.27 1.84c-.335.132-.74.362-1.21.69l-1.783-.69c-.202-.066-.348-.022-.437.132L3.07 7.7c-.112.197-.09.35.067.46l1.514 1.15a5.188 5.188 0 0 0-.033.69c0 .307.01.537.033.69l-1.514 1.15c-.157.11-.18.263-.067.46l1.447 2.432c.09.154.235.198.437.132l1.783-.69c.381.285.785.515 1.21.69l.27 1.84c.045.197.157.296.336.296h2.893c.18 0 .292-.099.337-.296l.27-1.84c.335-.132.74-.362 1.21-.69l1.783.69c.202.066.348.022.437-.132zm-1.124-4.187-.085.584 1.508 1.146-.871 1.464-1.784-.69-.436.305c-.44.306-.77.488-1.003.578l-.541.212L10.875 16h-1.75l-.27-1.844-.527-.217a4.54 4.54 0 0 1-.993-.566l-.443-.332-1.803.698-.87-1.464 1.507-1.146-.085-.584A4.377 4.377 0 0 1 5.618 10c0-.296.011-.466.023-.545l.085-.584-1.508-1.146.871-1.464 1.783.69.437-.305c.44-.306.77-.487 1.003-.578l.541-.212L9.125 4h1.75l.27 1.844.527.217c.346.142.676.33.993.566l.443.332 1.803-.698.87 1.464-1.507 1.146.085.584c.012.079.024.25.024.545 0 .296-.012.466-.024.545z" clip-rule="evenodd"/></symbol><symbol id="btn-shape-align-bottom" viewBox="0 0 20 20"><path fill-rule="evenodd" d="M8 4v9H6V4h2Zm1 9a1 1 0 0 1-1 1H6a1 1 0 0 1-1-1V4a1 1 0 0 1 1-1h2a1 1 0 0 1 1 1v9Zm5-5v5h-2V8h2Zm1 5a1 1 0 0 1-1 1h-2a1 1 0 0 1-1-1V8a1 1 0 0 1 1-1h2a1 1 0 0 1 1 1v5Zm2 3v1H3v-1h14Z" clip-rule="evenodd"/></symbol><symbol id="btn-shape-align-center" viewBox="0 0 20 20"><path fill-rule="evenodd" d="M10 3H9v2H7a1 1 0 0 0-1 1v2a1 1 0 0 0 1 1h2v2H4a1 1 0 0 0-1 1v2a1 1 0 0 0 1 1h5v2h1v-2h5a1 1 0 0 0 1-1v-2a1 1 0 0 0-1-1h-5V9h2a1 1 0 0 0 1-1V6a1 1 0 0 0-1-1h-2V3Zm2 3H7v2h5V6Zm3 6H4v2h11v-2Z" clip-rule="evenodd"/></symbol><symbol id="btn-shape-align-left" viewBox="0 0 20 20"><path fill-rule="evenodd" d="M4 3H3v14h1V3Zm7 3H7v2h4V6ZM7 5a1 1 0 0 0-1 1v2a1 1 0 0 0 1 1h4a1 1 0 0 0 1-1V6a1 1 0 0 0-1-1H7Zm9 7H7v2h9v-2Zm-9-1a1 1 0 0 0-1 1v2a1 1 0 0 0 1 1h9a1 1 0 0 0 1-1v-2a1 1 0 0 0-1-1H7Z" clip-rule="evenodd"/></symbol><symbol id="btn-shape-align-middle" viewBox="0 0 20 20"><path fill-rule="evenodd" d="M8 16V5H6v11h2ZM9 5a1 1 0 0 0-1-1H6a1 1 0 0 0-1 1v5H3v1h2v5a1 1 0 0 0 1 1h2a1 1 0 0 0 1-1v-5h2v2a1 1 0 0 0 1 1h2a1 1 0 0 0 1-1v-2h2v-1h-2V8a1 1 0 0 0-1-1h-2a1 1 0 0 0-1 1v2H9V5Zm5 8V8h-2v5h2Z" clip-rule="evenodd"/></symbol><symbol id="btn-shape-align-right" viewBox="0 0 20 20"><path fill-rule="evenodd" d="M16 3h1v14h-1V3ZM8 6h5v2H8V6Zm5-1a1 1 0 0 1 1 1v2a1 1 0 0 1-1 1H8a1 1 0 0 1-1-1V6a1 1 0 0 1 1-1h5Zm-9 7h9v2H4v-2Zm9-1a1 1 0 0 1 1 1v2a1 1 0 0 1-1 1H4a1 1 0 0 1-1-1v-2a1 1 0 0 1 1-1h9Z" clip-rule="evenodd"/></symbol><symbol id="btn-shape-align-top" viewBox="0 0 20 20"><path fill-rule="evenodd" d="M3 4V3h14v1H3Zm3 8V7h2v5H6ZM5 7a1 1 0 0 1 1-1h2a1 1 0 0 1 1 1v5a1 1 0 0 1-1 1H6a1 1 0 0 1-1-1V7Zm7 9V7h2v9h-2Zm-1-9a1 1 0 0 1 1-1h2a1 1 0 0 1 1 1v9a1 1 0 0 1-1 1h-2a1 1 0 0 1-1-1V7Z" clip-rule="evenodd"/></symbol><symbol id="btn-shape-distribute-hor" viewBox="0 0 20 20"><path fill-rule="evenodd" d="M2 3h1v14H2V3Zm16 0h-1v14h1V3ZM8 14V6H6v8h2Zm0 1a1 1 0 0 0 1-1V6a1 1 0 0 0-1-1H6a1 1 0 0 0-1 1v8a1 1 0 0 0 1 1h2Zm6-3V8h-2v4h2Zm0 1a1 1 0 0 0 1-1V8a1 1 0 0 0-1-1h-2a1 1 0 0 0-1 1v4a1 1 0 0 0 1 1h2Z" clip-rule="evenodd"/></symbol><symbol id="btn-shape-distribute-vert" viewBox="0 0 20 20"><path fill-rule="evenodd" d="M17 2v1H3V2h14Zm-5 4H8v2h4V6Zm1 0a1 1 0 0 0-1-1H8a1 1 0 0 0-1 1v2a1 1 0 0 0 1 1h4a1 1 0 0 0 1-1V6Zm1 6H6v2h8v-2Zm1 0a1 1 0 0 0-1-1H6a1 1 0 0 0-1 1v2a1 1 0 0 0 1 1h8a1 1 0 0 0 1-1v-2Zm2 6v-1H3v1h14Z" clip-rule="evenodd"/></symbol><symbol id="btn-shape-group" viewBox="0 0 20 20"><path fill-rule="evenodd" d="M3 5V3h2v2H3Zm3 6h1v1H6a1 1 0 0 1-1-1V6a1 1 0 0 1 1-1h5a1 1 0 0 1 1 1v1h-1V6H6v5Zm-3 4v2h2v-2H3ZM15 5V3h2v2h-2Zm0 10v2h2v-2h-2ZM9 9h5v5H9V9ZM8 9a1 1 0 0 1 1-1h5a1 1 0 0 1 1 1v5a1 1 0 0 1-1 1H9a1 1 0 0 1-1-1V9Z" clip-rule="evenodd"/></symbol><symbol id="btn-shape-ungroup" viewBox="0 0 20 20"><path fill-rule="evenodd" d="M3 5V3h2v2H3Zm3 12v-2h2v2H6Zm-3-5v2h2v-2H3Zm14-4h-2V6h2v2Zm-5-5v2h2V3h-2Zm3 14v-2h2v2h-2Zm-1-8H9v5h5V9ZM9 8a1 1 0 0 0-1 1v5a1 1 0 0 0 1 1h5a1 1 0 0 0 1-1V9a1 1 0 0 0-1-1H9Zm2-2H6v5h1v1H6a1 1 0 0 1-1-1V6a1 1 0 0 1 1-1h5a1 1 0 0 1 1 1v1h-1V6Z" clip-rule="evenodd"/></symbol><symbol id="btn-share" viewBox="0 0 20 20"><path d="M16 5a2 2 0 0 1-3.377 1.45L7.908 9.397a2 2 0 0 1 0 1.206l4.715 2.947a2 2 0 1 1-.53.848L7.376 11.45a2 2 0 1 1 0-2.9l4.715-2.947A2 2 0 1 1 16 5Z"/></symbol><symbol id="btn-sheet-view" viewBox="0 0 20 20"><path fill-rule="evenodd" d="M9.93 13a6.991 6.991 0 0 1-5.746-3A6.991 6.991 0 0 1 9.93 7a6.991 6.991 0 0 1 5.745 3 6.991 6.991 0 0 1-5.745 3Zm0-7a7.997 7.997 0 0 1 6.93 4 7.997 7.997 0 0 1-6.93 4A7.997 7.997 0 0 1 3 10a7.997 7.997 0 0 1 6.93-4Zm0 6a2 2 0 1 0 0-4 2 2 0 0 0 0 4Z" clip-rule="evenodd"/></symbol><symbol id="btn-small-wrap-behind" viewBox="0 0 20 20"><path fill-rule="evenodd" d="M18 2H2v1h16V2ZM2 4h16v1H2V4Zm16 2H2v1h16V6ZM2 8h16v1H2V8Zm16 2H2v1h16v-1ZM2 12h16v1H2v-1Zm16 2H2v1h16v-1Zm0 2H2v1h16v-1Z" clip-rule="evenodd" opacity=".4"/><path fill-rule="evenodd" d="m5 5 .001.118.001.05s.041.349.12.832h3.476a5.983 5.983 0 0 0-.842-1H5Zm7.294 0a6.36 6.36 0 0 0-.785 1h3.378c.069-.483.1-.832.1-.832 0-.036.002-.08.005-.132L14.994 5h-2.7Zm2.15 3c.107-.302.196-.651.27-1h-3.758a7.66 7.66 0 0 0-.396 1h3.884ZM5.576 8a9.673 9.673 0 0 1-.266-1h3.868c.192.389.33.742.41 1H5.576Zm8.048 1H7.437l-.053.029c-.27.147-.762.417-1.089.971h3.283a.214.214 0 0 0 .014-.053L9.59 10h.81l-.002-.045a.3.3 0 0 0 .008.045h3.158c-.39-.614-.977-.876-1.234-.938.07 0 .157.006.253.013.297.02.693.049 1.041-.075Zm-6.23 0H6.368c.38.13.8.066 1.026 0Zm3.036-1c-.05-.198-.15-.398-.355-.398-.204 0-.305.2-.354.398h.709Zm-4.462 3.3c0-.104.005-.204.015-.3h3.42a7.305 7.305 0 0 1-.164 1H6.002a7.269 7.269 0 0 1-.034-.7Zm4.027.196c-.182 0-.284-.22-.34-.496h.68c-.057.275-.159.496-.34.496Zm.675.504a7.295 7.295 0 0 1-.165-1h3.41c.016.125.025.258.025.398a7.3 7.3 0 0 1-.025.602H10.67Zm3.092 1h-2.785c.141.372.303.71.472 1h1.993c.127-.29.236-.63.32-1Zm-4.83 0H6.17c.09.372.204.711.333 1H8.46c.169-.29.33-.628.472-1Z" clip-rule="evenodd"/></symbol><symbol id="btn-small-wrap-infront" viewBox="0 0 20 20"><path fill-rule="evenodd" d="M18 2H2v1h16V2ZM2 4h16v1H2V4Zm16 2H2v1h16V6ZM2 8h16v1H2V8Zm16 2H2v1h16v-1ZM2 12h16v1H2v-1Zm16 2H2v1h16v-1Zm0 2H2v1h16v-1Z" clip-rule="evenodd" opacity=".4"/><path d="M14.101 8.673c.644-.78.886-3.505.886-3.505 0-.292.16-1.168-.644-1.168-2.416 0-3.865 3.894-3.865 4.38 0 0 0-.778-.403-.778s-.403.779-.403.779c0-.487-1.449-4.284-3.945-4.284-.805 0-.725.876-.725 1.071 0 0 .322 2.726.886 3.505.483.584 1.369.389 1.61.292-.322.194-1.53.681-1.53 2.336 0 1.947.806 3.699 1.45 3.699.725 0 2.013-2.336 2.013-4.575 0-.195.16-.39.16-.487 0 0-.08 1.558.404 1.558.483 0 .402-1.558.402-1.558 0 .097.08.195.08.487 0 2.239 1.289 4.575 2.014 4.575.724 0 1.45-1.752 1.45-3.602 0-1.655-1.209-2.239-1.611-2.336.402 0 1.288.195 1.771-.39Z"/></symbol><symbol id="btn-small-wrap-inline" viewBox="0 0 20 20"><path fill-rule="evenodd" d="M2 2h16v1H2V2Zm13 12h3v1h-3v-1ZM2 16h16v1H2v-1Zm3-2H2v1h3v-1Zm9.987-8.832s-.242 2.726-.886 3.505c-.398.48-1.069.433-1.518.402-.096-.007-.182-.013-.253-.013.402.097 1.61.681 1.61 2.336 0 1.85-.725 3.602-1.45 3.602-.724 0-2.012-2.336-2.012-4.575 0-.185-.033-.292-.056-.37-.012-.039-.021-.07-.024-.1.007.167.05 1.54-.403 1.54-.462 0-.41-1.421-.403-1.548-.004.04-.03.093-.06.155-.046.095-.101.209-.101.323C9.43 12.664 8.143 15 7.418 15c-.644 0-1.45-1.752-1.45-3.7 0-1.496.989-2.037 1.416-2.271.045-.025.084-.046.114-.064-.241.097-1.127.292-1.61-.292-.564-.78-.886-3.505-.886-3.505v-.05c-.007-.262-.024-1.02.725-1.02 2.496 0 3.945 3.796 3.945 4.283 0 0 0-.78.403-.78s.403.78.403.78c0-.487 1.45-4.381 3.865-4.381.706 0 .669.673.65 1.036a2.615 2.615 0 0 0-.006.132Z" clip-rule="evenodd"/></symbol><symbol id="btn-small-wrap-square" viewBox="0 0 20 20"><path fill-rule="evenodd" d="M2 2h16v1H2V2Zm16 2h-2v1h2V4Zm-2 2h2v1h-2V6Zm2 2h-2v1h2V8Zm-2 2h2v1h-2v-1Zm2 2h-2v1h2v-1Zm-2 2h2v1h-2v-1ZM2 16h16v1H2v-1Zm0-2h2v1H2v-1Zm2-2H2v1h2v-1Zm-2-2h2v1H2v-1Zm2-2H2v1h2V8ZM2 6h2v1H2V6Zm2-2H2v1h2V4Zm10.987 1.168s-.242 2.726-.886 3.505c-.398.48-1.069.433-1.518.402-.096-.007-.182-.013-.253-.013.402.097 1.61.681 1.61 2.336 0 1.85-.725 3.602-1.45 3.602-.724 0-2.012-2.336-2.012-4.575 0-.185-.033-.292-.056-.37-.012-.039-.021-.07-.024-.1.007.167.05 1.54-.403 1.54-.462 0-.41-1.421-.403-1.548-.004.04-.03.093-.06.155-.046.095-.101.209-.101.323C9.43 12.664 8.143 15 7.418 15c-.644 0-1.45-1.752-1.45-3.7 0-1.496.989-2.037 1.416-2.271.045-.025.084-.046.114-.064-.241.097-1.127.292-1.61-.292-.564-.78-.886-3.505-.886-3.505v-.05c-.007-.262-.024-1.02.725-1.02 2.496 0 3.945 3.796 3.945 4.283 0 0 0-.78.403-.78s.403.78.403.78c0-.487 1.45-4.381 3.865-4.381.706 0 .669.673.65 1.036a2.615 2.615 0 0 0-.006.132Z" clip-rule="evenodd"/></symbol><symbol id="btn-small-wrap-through" viewBox="0 0 20 20"><path fill-rule="evenodd" d="M2 2h16v1H2V2Zm14 2h2v1h-2V4Zm2 2h-2v1h2V6Zm-2.5 2H18v1h-2.5V8Zm2.5 2h-3v1h3v-1Zm-3 2h3v1h-3v-1Zm3 2h-3.5v1H18v-1ZM2 16h16v1H2v-1Zm3.5-2H2v1h3.5v-1ZM2 12h3v1H2v-1Zm3-2H2v1h3v-1ZM2 8h2.5v1H2V8Zm2-2H2v1h2V6ZM2 4h2v1H2V4Zm9 0H9v1h2V4ZM9 14h2v1H9v-1Zm5.987-8.832s-.242 2.726-.886 3.505c-.398.48-1.069.433-1.518.402-.096-.007-.182-.013-.253-.013.402.097 1.61.681 1.61 2.336 0 1.85-.725 3.602-1.45 3.602-.724 0-2.012-2.336-2.012-4.575 0-.185-.033-.292-.056-.37-.012-.039-.021-.07-.024-.1.007.167.05 1.54-.403 1.54-.462 0-.41-1.421-.403-1.548-.004.04-.03.093-.06.155-.046.095-.101.209-.101.323C9.43 12.664 8.143 15 7.418 15c-.644 0-1.45-1.752-1.45-3.7 0-1.496.989-2.037 1.416-2.271.045-.025.084-.046.114-.064-.241.097-1.127.292-1.61-.292-.564-.78-.886-3.505-.886-3.505v-.05c-.007-.262-.024-1.02.725-1.02 2.496 0 3.945 3.796 3.945 4.283 0 0 0-.78.403-.78s.403.78.403.78c0-.487 1.45-4.381 3.865-4.381.706 0 .669.673.65 1.036a2.615 2.615 0 0 0-.006.132Z" clip-rule="evenodd"/></symbol><symbol id="btn-small-wrap-tight" viewBox="0 0 20 20"><path fill-rule="evenodd" d="M2 2h16v1H2V2Zm14 2h2v1h-2V4Zm2 2h-2v1h2V6Zm-2.5 2H18v1h-2.5V8Zm2.5 2h-3v1h3v-1Zm-3 2h3v1h-3v-1Zm3 2h-3.5v1H18v-1ZM2 16h16v1H2v-1Zm3.5-2H2v1h3.5v-1ZM2 12h3v1H2v-1Zm3-2H2v1h3v-1ZM2 8h2.5v1H2V8Zm2-2H2v1h2V6ZM2 4h2v1H2V4Zm12.987 1.168s-.242 2.726-.886 3.505c-.398.48-1.069.433-1.518.402-.096-.007-.182-.013-.253-.013.402.097 1.61.681 1.61 2.336 0 1.85-.725 3.602-1.45 3.602-.724 0-2.012-2.336-2.012-4.575 0-.185-.033-.292-.056-.37-.012-.039-.021-.07-.024-.1.007.167.05 1.54-.403 1.54-.462 0-.41-1.421-.403-1.548-.004.04-.03.093-.06.155-.046.095-.101.209-.101.323C9.43 12.664 8.143 15 7.418 15c-.644 0-1.45-1.752-1.45-3.7 0-1.496.989-2.037 1.416-2.271.045-.025.084-.046.114-.064-.241.097-1.127.292-1.61-.292-.564-.78-.886-3.505-.886-3.505v-.05c-.007-.262-.024-1.02.725-1.02 2.496 0 3.945 3.796 3.945 4.283 0 0 0-.78.403-.78s.403.78.403.78c0-.487 1.45-4.381 3.865-4.381.706 0 .669.673.65 1.036a2.615 2.615 0 0 0-.006.132Z" clip-rule="evenodd"/></symbol><symbol id="btn-small-wrap-topandbottom" viewBox="0 0 20 20"><path fill-rule="evenodd" d="M2 2h16v1H2V2Zm0 14h16v1H2v-1ZM14.987 5.168s-.242 2.726-.886 3.505c-.398.48-1.069.433-1.518.402-.096-.007-.182-.013-.253-.013.402.097 1.61.681 1.61 2.336 0 1.85-.725 3.602-1.45 3.602-.724 0-2.012-2.336-2.012-4.575 0-.185-.033-.292-.056-.37-.012-.039-.021-.07-.024-.1.007.167.05 1.54-.403 1.54-.462 0-.41-1.421-.403-1.548-.004.04-.03.093-.06.155-.046.095-.101.209-.101.323C9.43 12.664 8.143 15 7.418 15c-.644 0-1.45-1.752-1.45-3.7 0-1.496.989-2.037 1.416-2.271.045-.025.084-.046.114-.064-.241.097-1.127.292-1.61-.292-.564-.78-.886-3.505-.886-3.505v-.05c-.007-.262-.024-1.02.725-1.02 2.496 0 3.945 3.796 3.945 4.283 0 0 0-.78.403-.78s.403.78.403.78c0-.487 1.45-4.381 3.865-4.381.706 0 .669.673.65 1.036a2.615 2.615 0 0 0-.006.132Z" clip-rule="evenodd"/></symbol><symbol id="btn-smart-cycle" viewBox="0 0 20 20"><path fill-rule="evenodd" d="M14.799 7a5.985 5.985 0 0 0-4.473-2A5.998 5.998 0 0 0 5.13 8H4a7 7 0 0 1 11.326-1.899V4h1v4h-4V7H14.8Zm-9.271 7A5.985 5.985 0 0 0 10 16c2.22 0 4.16-1.207 5.197-3h1.13A7 7 0 0 1 5 14.899V17H4v-4h4v1H5.528ZM16 10h-1v1h1v-1Zm-1-1h-1v3h3V9h-2ZM4 10h1v1H4v-1ZM3 9h3v3H3V9Z" clip-rule="evenodd"/></symbol><symbol id="btn-smart-hierarchy" viewBox="0 0 20 20"><path fill-rule="evenodd" d="M14 5H5v3h9V5ZM5 4H4v5h5v2H3v3H2v3h3v-3H4v-2h5v2H8v3h3v-3h-1v-2h5v2h-1v3h3v-3h-1v-3h-6V9h5V4H5ZM3 15h1v1H3v-1Zm7 0H9v1h1v-1Zm6 0h-1v1h1v-1Z" clip-rule="evenodd"/></symbol><symbol id="btn-smart-list" viewBox="0 0 20 20"><path fill-rule="evenodd" d="M3 4h1v1H3V4ZM2 3h3v3H2V3Zm6 1h9v1H8V4ZM7 3h11v3H7V3ZM4 9H3v1h1V9ZM3 8H2v3h3V8H3Zm5 1h9v1H8V9ZM7 8h11v3H7V8Zm-3 6H3v1h1v-1Zm-1-1H2v3h3v-3H3Zm5 1h9v1H8v-1Zm-1-1h11v3H7v-3Z" clip-rule="evenodd"/></symbol><symbol id="btn-smart-matrix" viewBox="0 0 20 20"><path fill-rule="evenodd" d="M3 3h6v3H6v3H3V3Zm10 3v3h3V3h-6v3h3Zm-7 7v-3H3v6h6v-3H6Zm3 4H2V2h15v15H9Zm7-7h-3v3h-1V7H7v5h5v1h-2v3h6v-6Z" clip-rule="evenodd"/></symbol><symbol id="btn-smart-process" viewBox="0 0 20 20"><path fill-rule="evenodd" d="M10.82 10.5 5 4.484V8H3v5h2v3.515l5.82-6.015ZM6 9V7l3.5 3.5L6 14v-2H4V9h2Zm11.82 1.5L12 4.484V8h-2l1 1h2V7l3.5 3.5L13 14v-2h-2l-1 1h2v3.515l5.82-6.015Z" clip-rule="evenodd"/></symbol><symbol id="btn-smart-pyramid" viewBox="0 0 20 20"><path fill-rule="evenodd" d="M12 5H8v3h4V5ZM7 5v3H5v4H3v5h14v-5h-2V8h-2V4H7v1Zm7 7V9H6v3h8Zm-9 1H4v3h12v-3H5Z" clip-rule="evenodd"/></symbol><symbol id="btn-smart-relationship" viewBox="0 0 20 20"><path fill-rule="evenodd" d="M10 12c.291 0 .576-.031.85-.09a3.992 3.992 0 0 0-.85-1.556c-.39.443-.685.972-.85 1.556.274.059.558.09.85.09Zm-1.794-.424c.209-.706.57-1.346 1.044-1.884a4.015 4.015 0 0 0-3.1-.602 4.01 4.01 0 0 0 2.056 2.486ZM10 9a4.978 4.978 0 0 0-3-1c-.342 0-.676.034-.999.1L6 8a4 4 0 1 1 7.999.1A5.024 5.024 0 0 0 13 8a4.978 4.978 0 0 0-3 1Zm4.983-.591a5 5 0 1 0-9.967 0A5.001 5.001 0 1 0 10 17a5 5 0 1 0 4.983-8.592Zm-1.133.681a4.016 4.016 0 0 0-3.1.602 4.992 4.992 0 0 1 1.044 1.884A4.01 4.01 0 0 0 13.85 9.09Zm.944.334a4 4 0 1 1-4.044 6.884 4.98 4.98 0 0 0 1.233-3.717 5.013 5.013 0 0 0 2.811-3.167ZM10 15.646a3.985 3.985 0 0 0 .999-2.746A5.019 5.019 0 0 1 9 12.9v.1c0 1.014.378 1.94 1 2.646Zm-.75.662a4.98 4.98 0 0 1-1.234-3.717 5.013 5.013 0 0 1-2.81-3.167 4 4 0 1 0 4.044 6.884Z" clip-rule="evenodd"/></symbol><symbol id="btn-sorting" viewBox="0 0 20 20"><path d="M4 8h9v1H4zm0-3h12v1H4zm0 6h6v1H4zm0 3h3v1H4z"/></symbol><symbol id="btn-strikeout" viewBox="0 0 20 20"><path fill-rule="evenodd" d="M12.087 14.281c.609-.479.913-1.146.913-2.002 0-.495-.105-.921-.314-1.278H16v-1h-4.452a8.719 8.719 0 0 0-1.176-.517c-.596-.217-1.04-.414-1.33-.592-.288-.182-.492-.379-.614-.592-.121-.217-.182-.495-.182-.832 0-.456.165-.814.495-1.07.33-.258.79-.387 1.376-.387.744 0 1.51.169 2.296.506l.346-.985C11.963 5.177 11.09 5 10.143 5c-.908 0-1.639.222-2.19.665-.553.444-.83 1.04-.83 1.79 0 .714.19 1.293.568 1.737.256.296.624.566 1.105.809H4v1h7.076c.279.17.479.357.6.56.135.212.202.487.202.824 0 .51-.187.91-.56 1.198-.374.284-.931.426-1.67.426-.452 0-.909-.05-1.37-.147A6.773 6.773 0 0 1 7 13.463v1.091c.609.297 1.478.446 2.609.446 1.043 0 1.87-.24 2.478-.719Z" clip-rule="evenodd"/></symbol><symbol id="btn-strikeout(ru)" viewBox="0 0 20 20"><path fill-rule="evenodd" d="M9 15h1v-4h4v-1h-4V6h3V5H6v1h3v4H5v1h4v4Z" clip-rule="evenodd"/></symbol><symbol id="btn-subscript" viewBox="0 0 20 20"><path fill-rule="evenodd" d="M10.514 11.832 11.778 15H13L9.007 5h-.993L4 15h1.194l1.25-3.168h4.07ZM8.965 7.704l1.18 3.086H6.862l1.195-3.086c.19-.522.335-1.001.437-1.437a16.3 16.3 0 0 0 .472 1.437ZM14.012 16H17v-.701h-1.863v-.038l.55-.477c.367-.31.622-.548.766-.715a1.9 1.9 0 0 0 .322-.488c.07-.16.105-.331.105-.513a.946.946 0 0 0-.17-.556 1.107 1.107 0 0 0-.476-.377 1.745 1.745 0 0 0-.708-.135c-.202 0-.386.019-.55.057a1.982 1.982 0 0 0-.453.156 3.21 3.21 0 0 0-.523.35l.491.537c.17-.129.333-.229.489-.299a1.16 1.16 0 0 1 .482-.105c.158 0 .284.039.377.116.096.077.143.195.143.353a.765.765 0 0 1-.064.308 1.378 1.378 0 0 1-.21.323 9.844 9.844 0 0 1-.623.623l-1.073 1.001V16Z" clip-rule="evenodd"/></symbol><symbol id="btn-superscript" viewBox="0 0 20 20"><path fill-rule="evenodd" d="M13.012 7H16v-.701h-1.863V6.26l.55-.477c.367-.31.622-.548.766-.715a1.9 1.9 0 0 0 .322-.488c.07-.16.105-.331.105-.513a.946.946 0 0 0-.17-.556 1.108 1.108 0 0 0-.476-.377A1.745 1.745 0 0 0 14.526 3c-.202 0-.386.019-.55.057a1.979 1.979 0 0 0-.453.156 3.211 3.211 0 0 0-.523.35l.491.537c.17-.129.333-.229.489-.299a1.16 1.16 0 0 1 .482-.105c.158 0 .284.039.377.116.096.077.143.195.143.353a.765.765 0 0 1-.064.308 1.378 1.378 0 0 1-.21.323 9.815 9.815 0 0 1-.623.623L13.012 6.42V7Zm-2.498 4.832L11.778 15H13L9.007 5h-.993L4 15h1.194l1.25-3.168h4.07ZM8.965 7.704l1.18 3.086H6.862l1.195-3.086c.19-.522.335-1.001.437-1.437a16.3 16.3 0 0 0 .472 1.437Z" clip-rule="evenodd"/></symbol><symbol id="btn-table-to-text" viewBox="0 0 20 20"><path fill-rule="evenodd" d="M6 4h10v11h-6v1h6a1 1 0 0 0 1-1V4a1 1 0 0 0-1-1H6a1 1 0 0 0-1 1v6h1V4Z" clip-rule="evenodd"/><path fill-rule="evenodd" d="M4 10.085V9.05A2.5 2.5 0 0 0 4.5 14h2.788l-1.142 1.14.708.707 2.353-2.353-2.353-2.354-.708.707 1.147 1.147V13H4.5a1.5 1.5 0 0 1-.5-2.915Z" clip-rule="evenodd"/><path d="M14 12h-4v1h4v-1Zm0-2h-4v1h4v-1Zm0-2H8v1h6V8Zm0-2H8v1h6V6Z"/></symbol><symbol id="btn-text" viewBox="0 0 20 20"><path d="M3.5 4.5h2v2h-2zm0 10h2v2h-2zm11-10h2v2h-2zm0 10h2v2h-2zM9 9h2v5H9zm4-2v2H7V7zM6 5h8v1H6zm0 10h8v1H6zM5 7v7H4V7zm11 0v7h-1V7z"/></symbol><symbol id="btn-text-orient-hor" viewBox="0 0 20 20"><path fill-rule="evenodd" d="M7.927 9.01h1.1L7.022 4h-1.07L4 9.01h1.073l.414-1.137H7.49l.437 1.138ZM6.475 5.17l.69 1.86H5.798l.677-1.86ZM11.995 4H9.99v5.01h1.706c.645-.004 1.052-.015 1.22-.033.269-.03.495-.109.677-.236.184-.13.33-.302.434-.516a1.49 1.49 0 0 0 .16-.667c0-.29-.082-.541-.245-.755-.165-.214-.4-.366-.705-.455.217-.098.388-.245.513-.44a1.16 1.16 0 0 0 .192-.647 1.13 1.13 0 0 0-.154-.584 1.274 1.274 0 0 0-.387-.42 1.272 1.272 0 0 0-.522-.206A5.562 5.562 0 0 0 11.994 4Zm-.992 1.993V4.834h.581c.476 0 .764.006.865.017.168.02.295.08.38.178a.54.54 0 0 1 .13.376.532.532 0 0 1-.151.393.666.666 0 0 1-.407.178 9.13 9.13 0 0 1-.735.017h-.663Zm0 2.173v-1.34h.817c.46 0 .759.025.895.072a.618.618 0 0 1 .318.23.65.65 0 0 1 .11.382.62.62 0 0 1-.144.428.623.623 0 0 1-.366.198c-.098.02-.329.03-.693.03h-.937Zm4.151 4.698-2 2-.707-.707L13.604 13H4v-1h9.583l-1.136-1.136.707-.707L14.997 12H15v.003l.154.154.354.354-.354.353Z" clip-rule="evenodd"/></symbol><symbol id="btn-text-orient-rdown" viewBox="0 0 20 20"><path fill-rule="evenodd" d="M7 5v9.293l1.146-1.147.708.708-2 2-.354.353-.354-.353-2-2 .708-.708L6 14.293V5h1Zm3 3.927v1.1l5.01-2.006v-1.07L10 5v1.073l1.138.414V8.49L10 8.927Zm3.842-1.452-1.86.69V6.798l1.86.677Zm1.169 5.528V11H10v1.706c.004.644.015 1.051.033 1.22.03.269.108.494.236.676.13.185.302.33.516.435.217.107.439.16.667.16.29 0 .54-.082.755-.246.214-.164.366-.399.455-.704.098.216.245.387.44.513.197.127.412.191.647.191.216 0 .41-.051.584-.154a1.251 1.251 0 0 0 .626-.909 5.62 5.62 0 0 0 .05-.885Zm-1.993-.991h1.159v.58c0 .477-.006.765-.017.865-.02.17-.08.296-.178.38a.539.539 0 0 1-.376.13.531.531 0 0 1-.393-.15.666.666 0 0 1-.178-.407 8.916 8.916 0 0 1-.017-.735v-.663Zm-2.174 0h1.34v.817c0 .46-.024.758-.072.895a.618.618 0 0 1-.229.318.654.654 0 0 1-.382.11.617.617 0 0 1-.428-.144.623.623 0 0 1-.198-.366c-.02-.098-.03-.33-.03-.694v-.936Z" clip-rule="evenodd"/></symbol><symbol id="btn-text-orient-rup" viewBox="0 0 20 20"><path fill-rule="evenodd" d="m6.854 5.147 2 2-.708.707L7 6.707V16H6V6.707L4.854 7.854l-.708-.707 2-2 .354-.354.354.354ZM10 7.997V10h5.01V8.294c-.004-.644-.015-1.051-.033-1.22a1.434 1.434 0 0 0-.236-.677 1.336 1.336 0 0 0-.516-.434 1.487 1.487 0 0 0-.667-.16c-.29 0-.541.082-.755.246-.214.164-.366.399-.455.704a1.165 1.165 0 0 0-.44-.513 1.16 1.16 0 0 0-.647-.191 1.12 1.12 0 0 0-.584.154 1.274 1.274 0 0 0-.42.386 1.272 1.272 0 0 0-.206.523 5.573 5.573 0 0 0-.05.885Zm1.993.991h-1.159v-.58c0-.477.006-.765.017-.866a.567.567 0 0 1 .178-.379.539.539 0 0 1 .376-.13c.162 0 .293.05.393.15a.666.666 0 0 1 .178.407c.011.096.017.341.017.735v.663Zm2.174 0h-1.34v-.817c0-.46.024-.758.072-.895a.618.618 0 0 1 .229-.318.654.654 0 0 1 .382-.11.62.62 0 0 1 .428.144c.104.094.17.216.198.366.02.098.03.33.03.694v.936Zm.844 3.085v-1.1L10 12.977v1.07L15.01 16v-1.073l-1.138-.414V12.51l1.138-.437Zm-3.842 1.452 1.86-.69v1.367l-1.86-.677Z" clip-rule="evenodd"/></symbol><symbol id="btn-text-vertical" viewBox="0 0 20 20"><path d="M15.5 3.5v2h-2v-2zm-10 0v2h-2v-2zm10 11v2h-2v-2zm-10 0v2h-2v-2zM11 9v2H6V9zm2 4h-2V7h2zM6 4h7v1H6zm0 11h7v1H6zM5 6v8H4V6zm10 0v8h-1V6z"/></symbol><symbol id="btn-thumbnail-big" viewBox="0 0 20 20"><path d="M15.5 2.5v15h-11v-15z"/></symbol><symbol id="btn-thumbnail-small" viewBox="0 0 20 20"><path d="M13.5 5.5v9h-7v-9z"/></symbol><symbol id="btn-to-columns" viewBox="0 0 20 20"><path d="M3 10h5v1H3zm0 2h5v1H3zm0 2h5v1H3zm9-4h3v1h-3zm0 4h3v1h-3z"/><path fill-rule="evenodd" d="M16 9h-5v3h5V9Zm-6 0v8h7V8h-7v1Zm6 7v-3h-5v3h5Z" clip-rule="evenodd"/><path d="M13 3v3h-3v1h4V3h-1Z"/><path fill-rule="evenodd" d="M12.682 7a3.35 3.35 0 0 0-6.664 0H5.014a4.35 4.35 0 0 1 8.672 0h-1.004Z" clip-rule="evenodd"/></symbol><symbol id="btn-tree-caret" viewBox="0 0 20 20"><path d="M6.5 8h6l-3 3-3-3Z"/></symbol><symbol id="btn-underline" viewBox="0 0 20 20"><path fill-rule="evenodd" d="M14 10.395V5h-1v5.5c0 .825-.407 1.395-.868 1.839-.461.44-1.118.659-1.971.659-.895 0-1.832-.253-2.293-.693-.461-.44-.868-1.09-.868-1.91V5H6v5.335c0 1.13.332 2.017.996 2.663.669.646 1.87 1.002 3.088 1.002s2.175-.32 2.871-.962c.697-.64 1.045-1.522 1.045-2.643ZM15 15H5v1h10v-1Z" clip-rule="evenodd"/></symbol><symbol id="btn-underline(ru)" viewBox="0 0 20 20"><path d="M13 14h-1V9.166c-.63.224-1.336.549-1.762.678-.426.13-1.772.114-2.237 0-.465-.114-.892-.276-1.366-.678-.47-.402-.614-1.001-.614-1.759V4h1v3.28c0 .512.121.91.388 1.156.27.245.747.522 1.269.578.521.056 1.339-.017 1.747-.141.409-.124.86-.388 1.575-.621V4h1v10Zm-8 1h9v1H5v-1Z"/></symbol><symbol id="btn-undo" viewBox="0 0 20 20"><path d="M10.9 7c-2 0-4.1 1.3-5.4 2.5L3 7v7h7l-2.5-2.5c.8-1.3 2.6-2.4 4.3-2.4 2.5 0 5.4 1.7 5.7 4.1-.4-3.5-3-6.2-6.6-6.2Z"/></symbol><symbol id="btn-unicode" viewBox="0 0 20 20"><path d="M8 17H7l5-14h1L8 17Z"/></symbol><symbol id="btn-update" viewBox="0 0 20 20"><path fill-rule="evenodd" d="M10 16a6.002 6.002 0 0 0 5.917-5h1.012A7.001 7.001 0 0 1 3 10a7 7 0 0 1 12-4.899V3h1v4h-4V6h2.472A6 6 0 1 0 10 16Zm7-6v-.035.07V10Z" clip-rule="evenodd"/></symbol><symbol id="btn-user" viewBox="0 0 20 20"><path fill-rule="evenodd" d="M10 17a6.98 6.98 0 0 0 5.05-2.152 9.805 9.805 0 0 0-.991-.667C13.044 13.584 11.632 13 10 13c-1.632 0-3.043.584-4.059 1.181-.399.235-.733.47-.99.667A6.98 6.98 0 0 0 10 17Zm4.566-3.681c.455.268.834.536 1.124.76a7 7 0 1 0-11.38 0c.29-.224.669-.492 1.124-.76C6.544 12.666 8.132 12 10 12c1.868 0 3.457.666 4.566 1.319ZM10 18a8 8 0 1 0 0-16 8 8 0 0 0 0 16Zm2-10a2 2 0 1 1-4 0 2 2 0 0 1 4 0Zm1 0a3 3 0 1 1-6 0 3 3 0 0 1 6 0Z" clip-rule="evenodd"/></symbol><symbol id="btn-users" viewBox="0 0 20 20"><path fill-rule="evenodd" d="M7 4c1.103 0 2 .897 2 2 0 1.09-.91 2-2 2.001-1.103 0-2-.897-2-2.001 0-1.103.897-2 2-2Zm0-1C5.366 3 4 4.366 4 6s1.366 3 3 3 3-1.366 3-3-1.366-3-3-3Zm0 8c4.185 0 4.909 1.935 5 2.309v1.692H2v-1.688C2.1 12.906 2.841 11 7 11Zm0-1c-5.477 0-6 3.212-6 3.212v2.789h12v-2.789S12.477 10 7 10Zm7.5 0a2.5 2.5 0 1 0 0-5 2.5 2.5 0 0 0 0 5Zm-.5 3c-.117-.787-.486-1.373-.99-1.984 1.99 0 5.99 0 5.99 2.722v2.263h-5V13Z" clip-rule="evenodd"/></symbol><symbol id="btn-users-share" viewBox="0 0 20 20"><path fill-rule="evenodd" d="M7 4c1.103 0 2 .897 2 2 0 1.09-.91 2-2 2.001-1.103 0-2-.897-2-2.001 0-1.103.897-2 2-2Zm0-1C5.366 3 4 4.366 4 6s1.366 3 3 3 3-1.366 3-3-1.366-3-3-3Zm0 8c4.185 0 4.909 1.935 5 2.309v1.692H2v-1.688C2.1 12.906 2.841 11 7 11Zm0-1c-5.477 0-6 3.212-6 3.212v2.789h12v-2.789S12.477 10 7 10Zm7.5 0a2.5 2.5 0 1 0 0-5 2.5 2.5 0 0 0 0 5Zm-.5 3c-.117-.787-.486-1.373-.99-1.984 1.99 0 5.99 0 5.99 2.722v2.263h-5V13Z" clip-rule="evenodd"/></symbol><symbol id="btn-word-count" viewBox="0 0 20 20"><path d="M4 3h12v1H4zm0 3h12v1H4zm0 3h8v1H4zm10 6h1v1h-2v1h2l1-1v-1l-.5-.5.5-.5v-1l-1-1h-2v1h2v1h-1v1Zm-3 2v-1H9l2-2v-1l-1-1H8v1h2v1l-2 2v1h3Zm-6 0h1v-5H4v1h1v4Z"/></symbol><symbol id="btn-zoomdown" viewBox="0 0 20 20"><path d="M15 10v1H5v-1z"/></symbol><symbol id="btn-zoomup" viewBox="0 0 20 20"><path fill-rule="evenodd" d="M11 5h-1v5H5v1h5v5h1v-5h5v-1h-5V5Z" clip-rule="evenodd"/></symbol></svg>