<svg xmlns="http://www.w3.org/2000/svg" width="28" height="28" fill="none"><path fill="#0E8A26" fill-rule="evenodd" d="M16.764 11.998C15.83 9.003 14.913 6.002 14 3c-.913 3.002-1.83 6.003-2.764 8.998H3.002c2.227 1.617 4.455 3.232 6.685 4.846-.888 2.72-1.789 5.437-2.692 8.153l.006-.004A3113.59 3113.59 0 0 0 14 19.959c2.331 1.68 4.663 3.36 6.999 5.034l.006.004c-.903-2.716-1.804-5.433-2.692-8.153 2.23-1.614 4.459-3.229 6.685-4.846h-8.234ZM13.995 8.16l-.011.038a688.37 688.37 0 0 1-1.477 4.805H8.075c1.199.87 2.398 1.74 3.598 2.608A852.845 852.845 0 0 1 10.225 20l.002-.002c1.258-.901 2.513-1.805 3.768-2.71 1.255.905 2.51 1.809 3.767 2.71l.003.002c-.486-1.462-.97-2.924-1.448-4.389 1.2-.868 2.4-1.737 3.598-2.608h-4.432c-.5-1.6-.989-3.202-1.477-4.805l-.011-.038Z" clip-rule="evenodd" opacity=".5"/><path fill="#0E8A26" fill-rule="evenodd" d="M14 2c-.4 0-.801.23-.951.691l-.027.089c-1.05 3.451-1.82 5.969-2.522 8.218H3.002c-.969 0-1.372 1.24-.588 1.809a3884 3884 0 0 0 6.096 4.42c-.671 2.056-1.445 4.392-2.466 7.461-.3.921.755 1.688 1.54 1.118 0 0 2.445-1.752 6.416-4.614a2768.6 2768.6 0 0 0 6.417 4.614c.784.57 1.838-.197 1.539-1.118-1.02-3.069-1.795-5.405-2.466-7.461 1.887-1.366 3.935-2.85 6.096-4.42.784-.57.38-1.81-.588-1.81L17.5 11c-.702-2.25-1.472-4.768-2.522-8.22l-.027-.088A.982.982 0 0 0 14 2Zm2.764 9.998C15.83 9.003 14.913 6.002 14 3c-.913 3.002-1.83 6.003-2.764 8.998H3.002c2.227 1.617 4.455 3.232 6.685 4.846-.888 2.72-1.789 5.437-2.692 8.153l.006-.004A3113.59 3113.59 0 0 0 14 19.959c2.331 1.68 4.663 3.36 6.999 5.034l.006.004c-.903-2.716-1.804-5.433-2.692-8.153 2.23-1.614 4.459-3.229 6.685-4.846h-8.234Z" clip-rule="evenodd"/><path fill="#0E8A26" d="m13.983 8.198.011-.038.012.038c.487 1.603.977 3.206 1.476 4.806h4.432c-1.198.87-2.398 1.74-3.598 2.608A846.35 846.35 0 0 0 17.765 20l-.004-.002c-1.257-.901-2.512-1.805-3.767-2.71-1.255.905-2.51 1.809-3.767 2.71l-.003.002a859.3 859.3 0 0 0 1.449-4.388c-1.2-.869-2.4-1.738-3.599-2.609h4.432c.5-1.6.99-3.202 1.477-4.805Z" opacity=".25"/><path fill="#0E8A26" fill-rule="evenodd" d="M21.956 24.688c.3.921-.755 1.688-1.54 1.118 0 0-2.445-1.752-6.416-4.614-3.97 2.862-6.417 4.614-6.417 4.614-.784.57-1.838-.197-1.539-1.118 1.02-3.069 1.795-5.405 2.466-7.461a3884 3884 0 0 1-6.096-4.42c-.784-.57-.38-1.81.588-1.81L10.5 11c.702-2.25 1.472-4.768 2.522-8.22l.027-.088c.15-.46.55-.691.951-.691.4 0 .801.23.951.691l.027.089c1.05 3.451 1.82 5.969 2.522 8.218h7.498c.969 0 1.372 1.24.588 1.809-2.161 1.57-4.209 3.054-6.096 4.42.671 2.056 1.445 4.392 2.466 7.461ZM14 3.001c.913 3.002 1.83 6.002 2.764 8.998l8.234-.001a4222.593 4222.593 0 0 1-6.685 4.846c.888 2.72 1.789 5.437 2.692 8.153A2346.429 2346.429 0 0 1 14 19.959c-2.331 1.68-4.663 3.36-7 5.034l-.005.004a1582 1582 0 0 0 2.692-8.153c-2.23-1.614-4.458-3.229-6.685-4.846h8.234C12.17 9.004 13.087 6.004 14 3.002Z" clip-rule="evenodd"/><path fill="#0E8A26" d="m5 18.708.005.006L5 20.516a.5.5 0 0 0 1 0v-3.014A.5.5 0 0 0 5.503 17l-3.019.006a.5.5 0 0 0 0 1l1.805-.002-2.279 2.279.707.707L5 18.708ZM19 7.292l-.005-.006L19 5.484a.5.5 0 0 0-1 0v3.014a.5.5 0 0 0 .497.502l3.019-.006a.5.5 0 0 0 0-1l-1.805.002 2.279-2.279-.707-.707L19 7.292Z"/></svg>