<svg xmlns="http://www.w3.org/2000/svg" width="28" height="28" fill="none"><path fill="#FF8E00" d="m14 3-.021.07c-1.05 3.452-1.82 5.973-2.524 8.226l-.22.702H3.003c2.16 1.57 4.208 3.053 6.094 4.418l.591.428-.226.693c-.672 2.057-1.446 4.394-2.466 7.46l.006-.004.444-.318a2152.706 2152.706 0 0 0 5.97-4.295l.584-.42V3Z" opacity=".5"/><path fill="#FF8E00" d="M13.049 2.691c.15-.46.55-.691.951-.691v1l-.021.07c-1.05 3.453-1.82 5.973-2.524 8.227l-.22.702-8.233-.001c2.16 1.57 4.208 3.053 6.094 4.418l.591.428-.226.693c-.672 2.058-1.446 4.394-2.466 7.46l.006-.004.444-.318a2152.706 2152.706 0 0 0 5.97-4.294l.585-.422v1.233c-3.97 2.862-6.417 4.614-6.417 4.614-.784.57-1.838-.197-1.539-1.118 1.02-3.069 1.795-5.405 2.466-7.461a3884 3884 0 0 1-6.096-4.42c-.784-.57-.38-1.81.588-1.81L10.5 11c.702-2.25 1.472-4.768 2.522-8.22l.027-.088Z"/><path fill="#4E80F5" d="M20.417 25.806S17.97 24.054 14 21.192v-1.233l.585.422a3422.77 3422.77 0 0 0 5.97 4.294l.45.322a1483.67 1483.67 0 0 1-2.466-7.46l-.226-.693.59-.428a3848.24 3848.24 0 0 0 6.095-4.418h-8.234l-.219-.701c-.703-2.254-1.474-4.774-2.524-8.226L14 3V2c.4 0 .801.23.951.691l.027.089c1.05 3.451 1.82 5.969 2.522 8.218h7.498c.969 0 1.372 1.24.588 1.809-2.161 1.57-4.209 3.054-6.096 4.42.671 2.056 1.445 4.392 2.466 7.461.3.921-.755 1.688-1.54 1.118Z"/><path fill="#4E80F5" d="m14 19.959.585.421a3322.506 3322.506 0 0 0 5.97 4.295l.45.322c-1.02-3.066-1.794-5.403-2.466-7.46l-.226-.693.59-.428c1.887-1.365 3.935-2.849 6.095-4.418h-8.234l-.219-.702c-.703-2.253-1.474-4.774-2.524-8.225L14 3v16.958Z" opacity=".5"/></svg>