<svg xmlns="http://www.w3.org/2000/svg" width="28" height="28" fill="none"><path fill="url(#paint0_linear_6428_64387)" fill-rule="evenodd" d="M13.049 2.691c.15-.46.55-.691.951-.691.4 0 .801.23.951.691l.027.089c1.05 3.451 1.82 5.969 2.522 8.218h7.498c.969 0 1.372 1.24.588 1.809-2.161 1.57-4.209 3.054-6.096 4.42.671 2.056 1.445 4.392 2.466 7.461.3.921-.755 1.688-1.54 1.118 0 0-2.445-1.752-6.416-4.614-3.97 2.862-6.417 4.614-6.417 4.614-.784.57-1.838-.197-1.539-1.118 1.02-3.069 1.795-5.405 2.466-7.461a3884 3884 0 0 1-6.096-4.42c-.784-.57-.38-1.81.588-1.81L10.5 11c.702-2.25 1.472-4.768 2.522-8.22l.027-.088Zm.951.31-.021.07c-1.05 3.452-1.82 5.972-2.524 8.226l-.22.702-8.233-.001c2.16 1.57 4.208 3.053 6.094 4.418l.591.428-.226.693c-.672 2.058-1.446 4.394-2.466 7.46l.006-.004.444-.318a2152.706 2152.706 0 0 0 5.97-4.294l.585-.422.585.422a3411.193 3411.193 0 0 0 5.97 4.294l.45.322c-1.02-3.066-1.794-5.402-2.466-7.46l-.226-.693.59-.428a3848.24 3848.24 0 0 0 6.095-4.418h-8.234l-.219-.701c-.703-2.254-1.474-4.774-2.524-8.226L14 3Z" clip-rule="evenodd"/><path fill="url(#paint1_linear_6428_64387)" d="M13.979 3.07 14 3l.021.07c1.05 3.452 1.82 5.973 2.524 8.226l.22.702h8.233c-2.16 1.569-4.208 3.053-6.094 4.418l-.591.428.226.693c.672 2.057 1.446 4.394 2.466 7.46l-.006-.005-.444-.317c-.29-.21-.72-.517-1.274-.915-1.108-.796-2.711-1.949-4.696-3.38L14 19.96l-.585.421c-1.985 1.431-3.588 2.585-4.696 3.38l-1.274.915-.444.318-.006.004c1.02-3.066 1.794-5.403 2.466-7.46l.226-.693-.59-.428a3811.265 3811.265 0 0 1-6.095-4.418h8.234l.219-.702c.703-2.253 1.474-4.774 2.524-8.225Z"/><defs><linearGradient id="paint0_linear_6428_64387" x1="6" x2="22" y1="12.5" y2="12.5" gradientUnits="userSpaceOnUse"><stop stop-color="#F23D3D"/><stop offset=".5" stop-color="#F23D3D" stop-opacity=".5"/><stop offset="1" stop-color="#F23D3D"/></linearGradient><linearGradient id="paint1_linear_6428_64387" x1="6" x2="22" y1="12.5" y2="12.5" gradientUnits="userSpaceOnUse"><stop stop-color="#F23D3D" stop-opacity=".5"/><stop offset=".5" stop-color="#F23D3D" stop-opacity=".03"/><stop offset="1" stop-color="#F23D3D" stop-opacity=".5"/></linearGradient></defs></svg>