<svg xmlns="http://www.w3.org/2000/svg" width="28" height="28" fill="none"><path fill="#000" fill-opacity=".8" fill-rule="evenodd" d="M15.5 10.245C14.63 7.15 12.719 5 10.5 5 7.462 5 5 9.03 5 14s2.462 9 5.5 9c2.219 0 4.13-2.15 5-5.245.87 3.095 2.781 5.245 5 5.245 3.038 0 5.5-4.03 5.5-9s-2.462-9-5.5-9c-2.219 0-4.13 2.15-5 5.245ZM15 14c0 2.332-.58 4.395-1.464 5.843C12.64 21.306 11.539 22 10.5 22s-2.14-.693-3.036-2.157C6.58 18.395 6 16.332 6 14s.58-4.395 1.464-5.843C8.36 6.693 9.461 6 10.5 6s2.14.693 3.036 2.157C14.42 9.605 15 11.668 15 14Zm1 0c0 2.332.58 4.395 1.464 5.843C18.36 21.306 19.461 22 20.5 22s2.14-.693 3.036-2.157C24.42 18.395 25 16.332 25 14s-.58-4.395-1.464-5.843C22.64 6.693 21.539 6 20.5 6s-2.14.693-3.036 2.157C16.58 9.605 16 11.668 16 14Z" clip-rule="evenodd"/><circle cx="5.5" cy="14.5" r="3.5" fill="#0E8A26"/></svg>