<svg xmlns="http://www.w3.org/2000/svg" width="28" height="28" fill="none"><path fill="#0E8A26" d="m8.685 3.973 3.182 3.182a.5.5 0 0 1 0 .707l-3.182 3.182a.5.5 0 0 1-.707-.707l2.329-2.329V8H7a3 3 0 0 0-3 3v4H3v-4a4 4 0 0 1 4-4h3.299l-2.32-2.32a.5.5 0 0 1 .706-.707Z"/><path fill="#0E8A26" fill-rule="evenodd" d="M7.524 13.345A.491.491 0 0 1 8 13c.2 0 .4.115.476.345.371 1.222.747 2.44 1.128 3.655h3.895a.5.5 0 0 1 .294.904 181.845 181.845 0 0 1-3.182 2.271c.447 1.39.901 2.78 1.363 4.168a.5.5 0 0 1-.77.56A3166.812 3166.812 0 0 1 8 22.605l-3.205 2.296a.5.5 0 0 1-.769-.559c.462-1.389.916-2.777 1.363-4.168a181.52 181.52 0 0 1-3.182-2.27.5.5 0 0 1 .294-.905h3.895c.381-1.215.757-2.433 1.128-3.655ZM7.131 18H4.047c.795.571 1.405 1.002 1.912 1.354l.609.422-.227.705c-.291.906-.585 1.812-.883 2.717l1.959-1.405.583-.418.583.418 1.96 1.405c-.298-.905-.593-1.81-.884-2.717l-.226-.705.608-.422c.507-.352 1.118-.783 1.912-1.354H8.87l-.22-.7c-.218-.697-.434-1.394-.649-2.092a454.78 454.78 0 0 1-.65 2.091L7.132 18Z" clip-rule="evenodd"/><path fill="#0E8A26" d="M4.047 18H7.13l.22-.7c.218-.697.434-1.394.65-2.091.214.697.43 1.394.649 2.09l.22.702h3.084c-.795.57-1.405 1.001-1.913 1.353l-.608.422.226.706c.292.905.586 1.81.883 2.716l-1.958-1.404-.584-.42-.583.42-1.959 1.404c.298-.905.592-1.81.883-2.716l.227-.706-.609-.422c-.507-.352-1.117-.783-1.912-1.354Zm7.753-5.3c1.3-.9 2.4-1.7 3.3-2.4l.6-.4-1.4-4.4L18 8.2l.5-.5c.728-.463 1.455-1.013 2.297-1.65.433-.327.895-.677 1.404-1.05l-.3.849c-.469 1.325-.869 2.457-1.2 3.451l-.2.7 3.7 2.7h-4.6l-.2.7c-.26.715-.52 1.515-.808 2.4-.155.476-.317.976-.492 1.5a36.422 36.422 0 0 1-.5-1.498c-.221-.687-.483-1.502-.8-2.402l-.2-.7h-4.8Z" opacity=".5"/><path fill="#0E8A26" fill-rule="evenodd" d="M22.593 3.554a.645.645 0 0 1 .773 0 .646.646 0 0 1 .238.735l-.02.058a778.746 778.746 0 0 0-1.84 5.345l3.987 2.9c.515.375.25 1.19-.387 1.19-1.756-.002-3.42-.005-4.95-.01a987.102 987.102 0 0 0-1.577 4.921c-.197.606-1.054.605-1.25 0 0 0-.623-1.878-1.626-4.936-3.219-.015-5.197-.03-5.197-.03-.637 0-.9-.816-.385-1.19 1.73-1.236 3.045-2.179 4.197-3.012-.475-1.456-.99-3.038-1.53-4.708-.197-.606.497-1.11 1.012-.735l3.986 2.902a782.785 782.785 0 0 0 4.52-3.394l.049-.036ZM15.099 10.3c-.9.7-2 1.5-3.3 2.4h4.8l.2.7c.318.9.58 1.715.8 2.402.195.612.359 1.121.5 1.498.175-.524.337-1.024.492-1.5.288-.884.548-1.685.808-2.4l.2-.7h4.6L20.5 10l.2-.7c.331-.994.731-2.126 1.2-3.451L22.2 5c-.509.373-.971.723-1.403 1.05-.843.637-1.57 1.187-2.297 1.65l-.5.5-3.7-2.7 1.4 4.4-.6.4Z" clip-rule="evenodd"/></svg>