<svg xmlns="http://www.w3.org/2000/svg" width="28" height="28" fill="none"><path fill="#000" fill-opacity=".8" d="M13.049 2.691c.15-.46.55-.691.951-.691.4 0 .801.23.951.691l.027.089c1.05 3.451 1.82 5.969 2.522 8.218h7.498c.969 0 1.372 1.24.588 1.809-2.161 1.57-4.209 3.054-6.096 4.42.671 2.056 1.445 4.392 2.466 7.461.3.921-.755 1.688-1.54 1.118 0 0-2.445-1.752-6.416-4.614-3.97 2.862-6.417 4.614-6.417 4.614-.784.57-1.838-.197-1.539-1.118 1.02-3.069 1.795-5.405 2.466-7.461a3884 3884 0 0 1-6.096-4.42c-.784-.57-.38-1.81.588-1.81l6.998.001V11h1.547c-.03.1-.062.198-.092.296l-.22.703-8.233-.001c2.16 1.57 4.208 3.053 6.094 4.418l.591.428-.226.693c-.672 2.058-1.446 4.394-2.466 7.46l.006-.004.444-.318a2152.706 2152.706 0 0 0 5.97-4.294l.585-.422.585.422a3411.193 3411.193 0 0 0 5.97 4.294l.45.322c-1.02-3.066-1.794-5.402-2.466-7.46l-.226-.693.59-.428a3848.24 3848.24 0 0 0 6.095-4.418h-8.234l-.219-.701c-.703-2.254-1.474-4.774-2.524-8.226L14 3l-.021.07C13.535 4.53 13.14 5.823 12.78 7h-1.046c.384-1.253.806-2.639 1.287-4.22l.027-.089Z"/><path fill="#0E8A26" d="M17 5.5a3.5 3.5 0 1 1-7 0 3.5 3.5 0 0 1 7 0Z"/><path fill="#F23D3D" d="M12 10.5a3.5 3.5 0 1 1-7 0 3.5 3.5 0 0 1 7 0Z"/></svg>