<svg xmlns="http://www.w3.org/2000/svg" width="28" height="28" fill="none"><path fill="#FF8E00" fill-rule="evenodd" d="M12 2.5c.975 9.127-.625 10.733-10 9 1.654 3.7 2.954 4.296 7 6-.382 3.841-.776 6.032-2.5 8.5 3.56-.947 4.482-1.673 8-5.5.274.169.537.328.792.483C17.31 22.207 18.825 23.126 21.5 26c.526-4.021.702-5.778-2.5-10 2.45-3.54 4.017-4.446 7-5-3.156-2.166-5.376-1.943-9-1.5-.349-2.302-1.744-3.891-5-7ZM3.8 12.8c1.13 1.788 2.347 2.336 5.072 3.562l.002.001.526.237.7.3-.1.7-.05.438c-.275 2.4-.501 4.375-1.35 6.262 1.6-.7 2.7-1.8 5.1-4.4l.6-.6 1.5.9.415.259h.001c1.433.89 2.75 1.707 4.484 3.441.2-2.5-.1-4-2.5-7.2l-.4-.7.4-.6c1.8-2.6 3.2-3.9 5.2-4.7-1.778-.691-3.459-.505-6.103-.21l-.097.01-1 .1-.1-1c-.2-1.5-1-2.7-2.8-4.5.2 3.1-.2 5.4-1.6 6.7-1.7 1.5-4.3 1.6-7.9 1Z" clip-rule="evenodd"/><path fill="#FF8E00" d="M8.873 16.362C6.148 15.137 4.93 14.59 3.8 12.8c3.6.6 6.2.5 7.9-1 1.4-1.3 1.8-3.6 1.6-6.7 1.8 1.8 2.6 3 2.8 4.5l.1 1 1-.1.097-.01c2.644-.295 4.325-.481 6.103.21-2 .8-3.4 2.1-5.2 4.7l-.4.6.4.7c2.4 3.2 2.7 4.7 2.5 7.2-1.734-1.733-3.051-2.551-4.484-3.44a162.13 162.13 0 0 1-.416-.26l-1.5-.9-.6.6c-2.4 2.6-3.5 3.7-5.1 4.4.849-1.887 1.075-3.862 1.35-6.262L10 17.6l.1-.7-.7-.3-.528-.238Z" opacity=".03"/><path fill="#000" fill-opacity=".8" fill-rule="evenodd" d="m17 18-2.5-7h-1L11 18h1l.714-2h2.572L16 18h1Zm-2.071-3L14 12.4l-.929 2.6h1.858Z" clip-rule="evenodd"/></svg>