<svg xmlns="http://www.w3.org/2000/svg" width="28" height="28" fill="none"><g fill="#FF8E00" opacity=".5"><path d="M11.222 8.67 8.485 6.694c-.786-.567-1.838.202-1.536 1.122l1.044 3.182H10.5c.231-.739.47-1.507.722-2.328Zm-4.489 7.27-2.488 1.787c-.787.565-.391 1.807.578 1.813l2.923.015c.272-.825.525-1.595.764-2.328L6.733 15.94Zm5.46 6.554.829 2.726.027.09c.15.46.55.69.95.69.401 0 .803-.23.952-.69l.027-.09.829-2.726L14 21.192l-1.807 1.302Zm8.061-2.939 2.923-.015c.97-.006 1.365-1.248.578-1.813l-2.488-1.787-1.777 1.287c.24.733.492 1.503.764 2.328Zm-.248-8.557H17.5c-.231-.739-.47-1.507-.722-2.328l2.738-1.976c.785-.567 1.837.202 1.535 1.122l-1.044 3.182Z"/></g><path fill="#FF8E00" fill-rule="evenodd" d="M13.049 2.691c.15-.46.55-.691.951-.691.4 0 .801.23.951.691l.027.089c1.05 3.451 1.82 5.969 2.522 8.218h7.498c.969 0 1.372 1.24.588 1.809-2.161 1.57-4.209 3.054-6.096 4.42.671 2.056 1.445 4.392 2.466 7.461.3.921-.755 1.688-1.54 1.118 0 0-2.445-1.752-6.416-4.614-3.97 2.862-6.417 4.614-6.417 4.614-.784.57-1.838-.197-1.539-1.118 1.02-3.069 1.795-5.405 2.466-7.461a3884 3884 0 0 1-6.096-4.42c-.784-.57-.38-1.81.588-1.81L10.5 11c.702-2.25 1.472-4.768 2.522-8.22l.027-.088Zm.951.31-.021.07c-1.05 3.452-1.82 5.972-2.524 8.226l-.22.702-8.233-.001c2.16 1.57 4.208 3.053 6.094 4.418l.591.428-.226.693c-.672 2.058-1.446 4.394-2.466 7.46l.006-.004.444-.318a2152.706 2152.706 0 0 0 5.97-4.294l.585-.422.585.422a3411.193 3411.193 0 0 0 5.97 4.294l.45.322c-1.02-3.066-1.794-5.402-2.466-7.46l-.226-.693.59-.428a3848.24 3848.24 0 0 0 6.095-4.418h-8.234l-.219-.701c-.703-2.254-1.474-4.774-2.524-8.226L14 3Z" clip-rule="evenodd"/><path fill="url(#paint0_radial_6428_64139)" d="M13.979 3.07 14 3l.021.07c1.05 3.452 1.82 5.973 2.524 8.226l.22.702h8.233c-2.16 1.569-4.208 3.053-6.094 4.418l-.591.428.226.693c.672 2.057 1.446 4.394 2.466 7.46l-.006-.005-.444-.317c-.29-.21-.72-.517-1.274-.915-1.108-.796-2.711-1.949-4.696-3.38L14 19.96l-.585.421c-1.985 1.431-3.588 2.585-4.696 3.38l-1.274.915-.444.318-.006.004c1.02-3.066 1.794-5.403 2.466-7.46l.226-.693-.59-.428a3811.265 3811.265 0 0 1-6.095-4.418h8.234l.219-.702c.703-2.253 1.474-4.774 2.524-8.225Z"/><defs><radialGradient id="paint0_radial_6428_64139" cx="0" cy="0" r="1" gradientTransform="matrix(0 -6 9.0035 0 14 16)" gradientUnits="userSpaceOnUse"><stop stop-color="#FF8E00" stop-opacity=".03"/><stop offset=".337" stop-color="#FF8E00" stop-opacity=".17"/><stop offset=".665" stop-color="#FF8E00" stop-opacity=".33"/><stop offset="1" stop-color="#FF8E00" stop-opacity=".5"/></radialGradient></defs></svg>