<svg xmlns="http://www.w3.org/2000/svg" width="28" height="28" fill="none"><path fill="#FF8E00" fill-rule="evenodd" d="M9.215 3.125a.9.9 0 0 1 .513-.949.9.9 0 0 1 1.061.196l.058.063c2.235 2.44 3.87 4.22 5.341 5.804l6.207-2.97c.802-.384 1.626.483 1.203 1.264a3537.436 3537.436 0 0 1-3.296 6.073c1.37 1.436 2.936 3.063 4.996 5.2.613.643.043 1.695-.831 1.534 0 0-2.719-.481-7.139-1.278-2.153 3.942-3.484 6.36-3.484 6.36-.423.782-1.6.565-1.716-.316-.371-2.944-.656-5.184-.914-7.152-2.103-.383-4.386-.8-6.796-1.245-.874-.16-1.032-1.346-.23-1.73l6.207-2.968c-.31-2.14-.67-4.53-1.168-7.802l-.012-.084ZM4.8 14.8c2.3.4 4.5.8 6.5 1.2l.7.1.1.7c.162 1.023.294 2.133.445 3.393.129 1.08.27 2.269.455 3.607.123-.204.396-.709.805-1.466.593-1.097 1.472-2.723 2.595-4.734l.3-.6.7.1c3.6.7 6.1 1.1 6.9 1.2-2-2-3.5-3.6-4.8-5l-.5-.5.3-.6c1-1.8 2.1-3.8 3.2-5.8L16 9.5l-.5-.5c-.983-1.124-2.066-2.297-3.385-3.728-.559-.606-1.16-1.258-1.815-1.972.364 2.33.623 4.184.852 5.83.085.614.167 1.2.248 1.77l.1.7-6.7 3.2Z" clip-rule="evenodd"/><path fill="#FF8E00" fill-rule="evenodd" d="m8.973 19.84 1.977 5.864-.947.32-1.978-5.864.948-.32ZM18.3 23.4l-3.507 2.617-.598-.801 3.507-2.617.598.802Z" clip-rule="evenodd"/><path fill="#FF8E00" d="M11.3 16c-2-.4-4.2-.8-6.5-1.2l6.7-3.2-.1-.7-.248-1.77c-.229-1.646-.487-3.5-.851-5.83.654.714 1.255 1.366 1.814 1.971 1.32 1.431 2.402 2.605 3.386 3.729l.5.5 6.5-3.1c-1.1 2-2.2 4-3.2 5.8l-.3.6.5.5c1.3 1.4 2.8 3 4.8 5-.8-.1-3.3-.5-6.9-1.2l-.7-.1-.3.6c-1.124 2.01-2.003 3.637-2.596 4.733a58.72 58.72 0 0 1-.804 1.467 192.483 192.483 0 0 1-.456-3.608 93.31 93.31 0 0 0-.444-3.392l-.1-.7-.7-.1Z" opacity=".5"/></svg>