<svg xmlns="http://www.w3.org/2000/svg" width="28" height="28" fill="none"><path fill="#000" fill-rule="evenodd" d="M13.071 15H4v8h21v-8h-8.929v3h-3v-3Zm1 0v2h1v-2h-1Z" clip-rule="evenodd" opacity=".4"/><path fill="#000" fill-rule="evenodd" d="M25 6H4v8h9v1H4v8h21v-8h-9v-1h9V6ZM4 5a1 1 0 0 0-1 1v17a1 1 0 0 0 1 1h21a1 1 0 0 0 1-1V6a1 1 0 0 0-1-1H4Z" clip-rule="evenodd"/><path fill="#000" fill-rule="evenodd" d="m18.07 12.536-.707.707-2.293-2.293V17h-1v-6.121l-2.364 2.364-.707-.707 2.829-2.829.707-.707.707.707 2.828 2.829Z" clip-rule="evenodd"/></svg>