<svg xmlns="http://www.w3.org/2000/svg" width="28" height="28" fill="none"><path fill="#000" fill-rule="evenodd" d="m20.652 14.841-.086.584.47.357 1.787 1.358-1.625 2.732-2.175-.842-.497-.192-.437.304c-.64.448-1.144.728-1.521.875l-.542.212-.084.575L15.621 23h-3.242l-.321-2.196-.082-.564-.527-.216a6.912 6.912 0 0 1-1.512-.863l-.443-.33-.517.199-2.175.842-1.625-2.732 1.787-1.358.47-.357-.086-.584A6.574 6.574 0 0 1 7.311 14c0-.427.016-.697.037-.841l.086-.584-.47-.357-1.787-1.358 1.625-2.732 2.175.842.497.192.437-.304c.64-.448 1.145-.728 1.521-.875l.542-.212.084-.575L12.379 5h3.242l.321 2.196.082.564.527.216a6.912 6.912 0 0 1 1.512.863l.444.33.516-.199 2.175-.842 1.625 2.732-1.787 1.358-.47.357.086.584c.02.144.037.414.037.841s-.016.697-.037.841Zm1.181 5.92 2.067-3.475c.16-.281.128-.5-.096-.657l-2.163-1.643c.032-.22.048-.548.048-.986 0-.438-.016-.767-.048-.986l2.163-1.643c.224-.157.256-.376.096-.657l-2.067-3.475c-.128-.219-.336-.281-.624-.187l-2.547.986a7.915 7.915 0 0 0-1.73-.986l-.385-2.63c-.064-.281-.224-.422-.48-.422h-4.133c-.257 0-.417.14-.481.423l-.384 2.629c-.481.187-1.058.516-1.73.986L6.79 7.052c-.288-.094-.496-.032-.624.187L4.1 10.714c-.16.281-.128.5.096.657l2.163 1.643c-.032.22-.048.548-.048.986 0 .438.016.767.048.986l-2.163 1.643c-.224.157-.256.376-.096.657l2.067 3.475c.128.219.336.281.624.187l2.547-.986a7.914 7.914 0 0 0 1.73.986l.385 2.63c.064.281.224.422.48.422h4.134c.256 0 .416-.14.48-.422l.384-2.63c.481-.187 1.058-.516 1.73-.986l2.548.986c.288.094.496.032.624-.187Zm1.2-9.548v-.001.002-.001Zm-18.067.001v-.001l.001-.001v.002Zm0 5.573.001.001v-.002.001Zm18.067.001v-.002.002ZM14 17a3 3 0 1 0 0-6 3 3 0 0 0 0 6Zm2-3a2 2 0 1 1-4 0 2 2 0 0 1 4 0Z" clip-rule="evenodd"/></svg>