<svg xmlns="http://www.w3.org/2000/svg" width="28" height="28" fill="none"><path fill="#000" fill-rule="evenodd" d="M24 5H4v17h20V5zM4 4a1 1 0 0 0-1 1v17a1 1 0 0 0 1 1h20a1 1 0 0 0 1-1V5a1 1 0 0 0-1-1H4z" clip-rule="evenodd"/><path fill="#000" d="M24 22H4V5h10v8h10v9z" opacity=".4"/><path fill="url(#a)" d="m24 7-10 6h10V7z"/><defs><linearGradient id="a" x1="21" x2="21" y1="13" y2="7" gradientUnits="userSpaceOnUse"><stop stop-opacity=".4"/><stop offset="1" stop-opacity="0"/></linearGradient></defs></svg>