<svg xmlns="http://www.w3.org/2000/svg" width="28" height="28" fill="none"><path fill="#000" fill-rule="evenodd" d="M22.71 10.418c.595.594.595 1.57 0 2.164L20 15.293 13.707 9l2.754-2.754a1.464 1.464 0 0 1 2.078 0l4.172 4.172ZM13 9.708 19.293 16l-4.995 4.995H8.702l-2.413-2.413a1.537 1.537 0 0 1 0-2.164l6.71-6.71Zm1.702 12.297H8.298l-.145-.144-2.557-2.558a2.561 2.561 0 0 1 0-3.607l10.172-10.17a2.44 2.44 0 0 1 3.464 0l4.171 4.172c.99.99.99 2.616 0 3.607l-7.691 7.691H22v1.01h-7.298Z" clip-rule="evenodd"/></svg>