<svg xmlns="http://www.w3.org/2000/svg" width="28" height="28" fill="none"><path fill="#000" fill-rule="evenodd" d="M12.785 4.04a.3.3 0 0 0-.41.11l-4.078 7.064a.5.5 0 0 0 .183.683l.556.322-2.095 5.22a.5.5 0 0 0 .214.62l.49.282-2.22 3.912a.5.5 0 0 0 .434.747h5.402a.5.5 0 0 0 .39-.186l1.19-1.473.49.284a.5.5 0 0 0 .644-.125l3.473-4.425.558.322a.5.5 0 0 0 .683-.183l4.078-7.064a.3.3 0 0 0-.11-.41l-.346-.2a.3.3 0 0 0-.41.11l-3.828 6.631-.176-.101a.204.204 0 0 0-.023-.016l-8.261-4.77a.202.202 0 0 0-.025-.012l-.175-.1L13.24 4.65a.3.3 0 0 0-.11-.41l-.346-.2Zm-2.874 8.684 6.663 3.846-3.118 3.972-5.426-3.133 1.881-4.685Z" clip-rule="evenodd"/></svg>