<svg xmlns="http://www.w3.org/2000/svg" width="28" height="28" fill="none"><path fill="#000" d="m14.518 10.224-.177.638h-1.442l-1.086 4.22c-.48 1.86-.964 3.299-1.452 4.316-.69 1.436-1.435 2.427-2.231 2.974-.606.419-1.211.628-1.817.628-.395 0-.73-.116-1.007-.348A.763.763 0 0 1 5 22.025c0-.206.086-.387.257-.541a.881.881 0 0 1 .612-.222c.178 0 .329.055.454.164a.5.5 0 0 1 .178.377c0 .141-.07.273-.208.395-.105.09-.158.158-.158.203 0 .058.024.103.07.136.059.044.151.067.276.067.283 0 .583-.087.899-.26.309-.175.585-.435.829-.783.244-.341.474-.837.691-1.487.092-.27.34-1.162.74-2.675l1.719-6.537H9.64l.138-.638c.546 0 .928-.035 1.145-.106.218-.077.415-.219.593-.425.184-.212.421-.605.71-1.178.389-.773.76-1.371 1.116-1.796.488-.573.998-1.001 1.53-1.284.54-.29 1.048-.435 1.521-.435.5 0 .902.126 1.205.377.303.244.454.511.454.801a.783.783 0 0 1-.81.802.734.734 0 0 1-.503-.174.547.547 0 0 1-.188-.415c0-.103.043-.229.129-.377.085-.155.128-.258.128-.31 0-.09-.03-.157-.089-.202-.085-.064-.21-.096-.375-.096-.415 0-.787.128-1.116.386-.44.341-.836.875-1.185 1.603-.177.38-.503 1.323-.977 2.83h1.451Z"/><path fill="#000" d="M17.658 9.992c.323.335.566.67.73 1.005.12.232.314.84.583 1.825l.87-1.275c.23-.309.51-.602.839-.879.329-.283.618-.476.869-.579.157-.064.332-.097.523-.097.283 0 .507.074.671.223a.69.69 0 0 1 .257.54c0 .245-.05.412-.148.502a.933.933 0 0 1-.632.242c-.138 0-.286-.029-.444-.087-.31-.103-.517-.155-.622-.155-.158 0-.346.09-.563.27-.408.336-.895.983-1.462 1.942l.81 3.322c.125.508.23.814.316.917.086.097.171.145.257.145.138 0 .3-.074.484-.222.362-.296.671-.683.928-1.159l.345.174a6.076 6.076 0 0 1-1.58 1.893c-.361.283-.668.424-.918.424-.368 0-.661-.202-.879-.608-.138-.25-.424-1.332-.858-3.245-1.027 1.745-1.85 2.869-2.469 3.37-.401.323-.79.483-1.165.483a1.08 1.08 0 0 1-.72-.28.727.727 0 0 1-.238-.57.733.733 0 0 1 .75-.744c.211.001.435.104.672.31.171.148.303.222.395.222.079 0 .18-.051.306-.154.31-.245.73-.773 1.264-1.584.533-.811.882-1.397 1.046-1.757-.408-1.565-.628-2.392-.661-2.482-.151-.419-.349-.715-.592-.889-.244-.173-.603-.26-1.077-.26-.151 0-.326.006-.523.019v-.348l2.636-.454Z"/></svg>