<svg xmlns="http://www.w3.org/2000/svg" width="28" height="28" fill="none"><path fill="#000" fill-rule="evenodd" d="M2 3h8v1H2V3Zm0 10h8v1H2v-1ZM19 3h-7v1h7V3Zm-7 2h7v1h-7V5Zm7 2h-7v1h7V7Zm-7 2h7v1h-7V9Zm7 2h-7v1h7v-1Zm-7 2h7v1h-7v-1Zm7 2h-7v1h7v-1Zm-7 2h7v1h-7v-1Zm7 2h-7v1h7v-1Z" clip-rule="evenodd"/><path fill="#000" fill-rule="evenodd" d="M21 3h4v1h-4V3Zm0 2h4v1h-4V5Zm4 2h-4v1h4V7Zm-4 2h4v1h-4V9Zm4 2h-4v1h4v-1Zm-4 2h4v1h-4v-1Zm4 2h-4v1h4v-1Zm-4 2h4v1h-4v-1Zm4 2h-4v1h4v-1Z" clip-rule="evenodd" opacity=".4"/></svg>