<svg xmlns="http://www.w3.org/2000/svg" width="28" height="28" fill="none"><path fill="#000" fill-rule="evenodd" d="M16 4h2v1h-2V4Zm1 13.707V20h-1v-4h4v1h-2.293l4.646 4.646-.707.707L17 17.707ZM21 4h-2v1h2V4Zm2 3h1v2h-1V7Zm-1-3h2v2h-1V5h-1V4Zm1 6h1v2h-1v-2Zm1 3h-1v2h1v-2Zm-1 3h1v2h-1v-2Zm1 3h-1v2h1v-2ZM4 16h1v2H4v-2Zm1 3H4v2h1v-2Zm14 4h2v1h-2v-1Zm4-1h1v2h-2v-1h1v-1Zm-7 1h2v1h-2v-1Zm-1 1v-1h-2v1h2Zm-5-1h2v1h-2v-1Zm-1 0H7v1h2v-1Zm-4-1H4v2h2v-1H5v-1Zm5-17h4v4h-4V5Zm0 5h4v4h-4v-4ZM9 5v4H5V5h4Zm0 5H5v4h4v-4ZM4 9v6h11V4H4v5Z" clip-rule="evenodd"/></svg>