<svg xmlns="http://www.w3.org/2000/svg" width="28" height="28" fill="none"><path fill="#000" fill-rule="evenodd" d="m21.5 11.207-2.354-2.353.707-.708L21 9.293V7.5a.5.5 0 0 0-.5-.5H18V6h2.5A1.5 1.5 0 0 1 22 7.5v1.793l1.146-1.147.707.708-2.353 2.353ZM16 7H5v14h5v1H5a1 1 0 0 1-1-1V7a1 1 0 0 1 1-1h11a1 1 0 0 1 1 1v4h-1V7ZM7 9h7v1H7V9Zm0 3h3v1H7v-1Zm3 3H7v1h3v-1Zm-3 3h3v1H7v-1Zm17-5v9a1 1 0 0 1-1 1H12a1 1 0 0 1-1-1v-9a1 1 0 0 1 1-1h11a1 1 0 0 1 1 1Zm-1 9h-5v-2h5v2Zm-5-5v2h5v-2h-5Zm-6 0h5v2h-5v-2Zm5 5h-5v-2h5v2Zm6-6h-5v-2h5v2Zm-6 0v-2h-5v2h5Z" clip-rule="evenodd"/></svg>