<svg width="0" height="0" style="position:absolute"><symbol id="btn-allow-edit-ranges" viewBox="0 0 28 28"><path fill-rule="evenodd" d="m16.857 8.286-5.714 5.715H9v-2.143l5.714-5.714 2.143 2.142Zm-1.429-2.857L17.57 7.57l1.428-1.428v-.714L17.571 4h-.715l-1.428 1.429Z" clip-rule="evenodd"/><path fill-rule="evenodd" d="M11 8H6a1 1 0 0 0-1 1v11a1 1 0 0 0 1 1h17a1 1 0 0 0 1-1V9a1 1 0 0 0-1-1h-4v1h4v3h-9v4H6v-3h2v-1H6V9h5V8Zm3 9v3H6v-3h8Zm9-4v3h-8v-3h8Zm-8 7v-3h8v3h-8Z" clip-rule="evenodd"/></symbol><symbol id="btn-audio" viewBox="0 0 28 28"><path fill-rule="evenodd" d="M10.325 17a1 1 0 0 1 .624.22L15 20.46V7.54l-4.05 3.24a1 1 0 0 1-.625.22H6v6h4.325Zm0 1H5.5a.5.5 0 0 1-.5-.5v-7a.5.5 0 0 1 .5-.5h4.825l4.863-3.89A.5.5 0 0 1 16 6.5v15a.5.5 0 0 1-.812.39L10.325 18Zm7.912-7.925a.5.5 0 0 1 .688.162A7.099 7.099 0 0 1 20 14c0 1.378-.417 2.68-1.073 3.76a.5.5 0 1 1-.854-.52c.57-.94.927-2.063.927-3.24a6.1 6.1 0 0 0-.925-3.237.5.5 0 0 1 .162-.688Zm1.633-3.911a.5.5 0 0 0-.74.672C20.932 8.818 22 11.293 22 14c0 2.686-1.088 5.188-2.871 7.165a.5.5 0 0 0 .742.67C21.798 19.698 23 16.964 23 14c0-2.982-1.18-5.691-3.13-7.836Z" clip-rule="evenodd"/></symbol><symbol id="btn-autosum" viewBox="0 0 28 28"><path fill-rule="evenodd" d="M6.566 5H21v4h-1V6H8.434l5.678 8.517L8.5 22H20v-3h1v4H6.5l6.388-8.517L6.566 5Z" clip-rule="evenodd"/></symbol><symbol id="btn-big-colorschemas" viewBox="0 0 28 28"><path fill-rule="evenodd" d="M23 5H5v18h18V5ZM4 4v20h20V4H4Z" clip-rule="evenodd"/><path d="M5 5h9v9H5z" opacity=".2"/><path d="M5 14h9v9H5z" opacity=".4"/><path d="M14 14h9v9h-9z" opacity=".6"/></symbol><symbol id="btn-big-menu-comments" viewBox="0 0 28 28"><path d="M8 9h12v1H8V9Zm0 3h12v1H8v-1Zm6 3H8v1h6v-1Z"/><path fill-rule="evenodd" d="m6.5 21 3 3 3-3H23a2 2 0 0 0 2-2V7a2 2 0 0 0-2-2H5a2 2 0 0 0-2 2v12a2 2 0 0 0 2 2h1.5Zm3 1.586L6.914 20H5a1 1 0 0 1-1-1V7a1 1 0 0 1 1-1h18a1 1 0 0 1 1 1v12a1 1 0 0 1-1 1H12.086L9.5 22.586Z" clip-rule="evenodd"/></symbol><symbol id="btn-big-menu-navigation" viewBox="0 0 28 28"><path d="M18 8H5v1h13V8Zm3 4H8v1h13v-1Zm-10 4h13v1H11v-1Zm7 4H5v1h13v-1Z"/></symbol><symbol id="btn-big-named-range" viewBox="0 0 28 28"><path fill-rule="evenodd" d="M25 8H8.476l-4.279 6.5 4.28 6.5H25V8Zm1 0a1 1 0 0 0-1-1H8.476a1 1 0 0 0-.835.45l-4.279 6.5a1 1 0 0 0 0 1.1l4.28 6.5a1 1 0 0 0 .834.45H25a1 1 0 0 0 1-1V8ZM8.5 15.25a.75.75 0 1 0 0-1.5.75.75 0 0 0 0 1.5Zm0 1a1.75 1.75 0 1 0 0-3.5 1.75 1.75 0 0 0 0 3.5ZM22 11h-7v1h7v-1Zm-7 3h7v1h-7v-1Zm7 3h-7v1h7v-1Z" clip-rule="evenodd"/></symbol><symbol id="btn-big-pivot-sum" viewBox="0 0 28 28"><path fill-rule="evenodd" d="M9 4H4v5h5V4ZM8 5H5v3h3V5Zm1 7H4v12h5V12Zm-1 1H5v10h3V13Zm4-4h12V4H12v5Zm1-4v3h10V5H13Z" clip-rule="evenodd"/><path d="M25 15.288v.005l.002-.002-.002-.003Z"/><path d="m24.295 15.998-2.293-2.294L22 16a6 6 0 0 1-6 6h-2.293L16 24.293l-.707.707-3.503-3.503 3.5-3.5.708.708-2.294 2.293L16 21a5 5 0 0 0 5-5v-2.293L18.707 16 18 15.293l3.503-3.503 3.5 3.5-.708.708Z"/></symbol><symbol id="btn-big-remove-duplicates" viewBox="0 0 28 28"><g opacity=".4"><path d="M3 7h7v3H3V7Zm15 0h7v3h-7V7Zm-8 8H3v3h7v-3Z"/></g><path d="M4 8h5v1H4V8Zm5 4H4v1h5v-1Zm-5 8h5v1H4v-1Zm5-4H4v1h5v-1Z"/><path fill-rule="evenodd" d="M11 6H2v17h9V6Zm-1 1H3v3h7V7Zm0 7H3v-3h7v3Zm-7 8v-3h7v3H3Zm0-7h7v3H3v-3Z" clip-rule="evenodd"/><path d="M24 8h-5v1h5V8Zm0 4h-5v1h5v-1Z"/><path fill-rule="evenodd" d="M17 23h9V6h-9v17Zm8-16h-7v3h7V7Zm0 7h-7v-3h7v3Zm-7 8v-3h7v3h-7Zm7-7v3h-7v-3h7Z" clip-rule="evenodd"/><path d="m16.207 14.5-2.353-2.354-.708.708L14.293 14H12v1h2.293l-1.147 1.146.708.708 2.353-2.354Z"/></symbol><symbol id="btn-big-slicer" viewBox="0 0 28 28"><path fill-rule="evenodd" d="M5 4a1 1 0 0 1 1-1h15a1 1 0 0 1 1 1v10h-1V4H6v18h12v1H6a1 1 0 0 1-1-1V4Zm15 9v1H8v1h4.5l1 1H7v-3h13Zm0-4H7v3h13V9Zm-1 1H8v1h11v-1ZM7 5h13v3H7V5Zm1 1h11v1H8V6Zm11 14-5-5h12l-5 5v6l-2-1v-5Z" clip-rule="evenodd"/></symbol><symbol id="btn-big-text" viewBox="0 0 28 28"><path fill-rule="evenodd" d="M3 7h1v14H3v3h3v-1h16v1h3v-3h-1V7h1V4h-3v1H6V4H3v3zm2 0h1V6h16v1h1v14h-1v1H6v-1H5V7zm10 12h-2v-8h-3V9h8v2h-3v8zM4 5h1v1H4V5zm1 17H4v1h1v-1zm18 0h1v1h-1v-1zm1-17h-1v1h1V5z" clip-rule="evenodd"/></symbol><symbol id="btn-big-text-vertical" viewBox="0 0 28 28"><path d="M9 15v-2h8v-3h2v8h-2v-3H9Z"/><path fill-rule="evenodd" d="M4 3h3v1h14V3h3v3h-1v16h1v3h-3v-1H7v1H4v-3h1V6H4V3Zm2 1v1H5V4h1Zm0 2v16h1v1h14v-1h1V6h-1V5H7v1H6Zm17-1V4h-1v1h1ZM6 24v-1H5v1h1Zm17-1v1h-1v-1h1Z" clip-rule="evenodd"/></symbol><symbol id="btn-blank-rows" viewBox="0 0 28 28"><path fill-rule="evenodd" d="M10 3H2v1h8V3Zm0 12H2v1h8v-1Z" clip-rule="evenodd"/><path fill-rule="evenodd" d="M12 3h7v1h-7V3Zm7 2h-7v1h7V5Zm6 0h-4v1h4V5Zm0-2h-4v1h4V3ZM12 7h7v1h-7V7Zm13 0h-4v1h4V7ZM12 9h7v1h-7V9Zm13 0h-4v1h4V9Zm-13 2h7v1h-7v-1Zm13 0h-4v1h4v-1Zm-13 4h7v1h-7v-1Zm13 0h-4v1h4v-1Zm-13 2h7v1h-7v-1Zm13 0h-4v1h4v-1Zm-13 2h7v1h-7v-1Zm13 0h-4v1h4v-1Zm-13 2h7v1h-7v-1Zm13 0h-4v1h4v-1Zm-13 2h7v1h-7v-1Zm13 0h-4v1h4v-1Z" clip-rule="evenodd" opacity=".4"/></symbol><symbol id="btn-calculation" viewBox="0 0 28 28"><path fill-rule="evenodd" d="M6 4h16v20H6V4ZM5 4a1 1 0 0 1 1-1h16a1 1 0 0 1 1 1v20a1 1 0 0 1-1 1H6a1 1 0 0 1-1-1V4Zm3 3h12v2H8V7ZM7 7a1 1 0 0 1 1-1h12a1 1 0 0 1 1 1v2a1 1 0 0 1-1 1H8a1 1 0 0 1-1-1V7Zm3 6H8v1h2v-1Zm-2-1a1 1 0 0 0-1 1v1a1 1 0 0 0 1 1h2a1 1 0 0 0 1-1v-1a1 1 0 0 0-1-1H8Zm5 1h2v1h-2v-1Zm-1 0a1 1 0 0 1 1-1h2a1 1 0 0 1 1 1v1a1 1 0 0 1-1 1h-2a1 1 0 0 1-1-1v-1Zm8 0h-2v1h2v-1Zm-2-1a1 1 0 0 0-1 1v1a1 1 0 0 0 1 1h2a1 1 0 0 0 1-1v-1a1 1 0 0 0-1-1h-2ZM8 17h2v1H8v-1Zm-1 0a1 1 0 0 1 1-1h2a1 1 0 0 1 1 1v1a1 1 0 0 1-1 1H8a1 1 0 0 1-1-1v-1Zm8 0h-2v1h2v-1Zm-2-1a1 1 0 0 0-1 1v1a1 1 0 0 0 1 1h2a1 1 0 0 0 1-1v-1a1 1 0 0 0-1-1h-2Zm5 1h2v5h-2v-5Zm-1 0a1 1 0 0 1 1-1h2a1 1 0 0 1 1 1v5a1 1 0 0 1-1 1h-2a1 1 0 0 1-1-1v-5Zm-2 4h-2v1h2v-1Zm-2-1a1 1 0 0 0-1 1v1a1 1 0 0 0 1 1h2a1 1 0 0 0 1-1v-1a1 1 0 0 0-1-1h-2Zm-5 1h2v1H8v-1Zm-1 0a1 1 0 0 1 1-1h2a1 1 0 0 1 1 1v1a1 1 0 0 1-1 1H8a1 1 0 0 1-1-1v-1Z" clip-rule="evenodd"/></symbol><symbol id="btn-cell-group" viewBox="0 0 28 28"><path fill-rule="evenodd" d="M22 6h-8v3h8V6Zm-9 0v16h10V5H13v1Zm9 11h-8v-3h8v3Zm-8 1h8v3h-8v-3Zm8-5v-3h-8v3h8ZM8 10v2h2v2H8v2H6v-2H4v-2h2v-2h2Zm4-5H7v3h1V6h4V5ZM7 22h5v-1H8v-3H7v4Z" clip-rule="evenodd"/></symbol><symbol id="btn-cell-ungroup" viewBox="0 0 28 28"><path fill-rule="evenodd" d="M12 5H7v5H4v7h3v5h5v-1H8v-4h3v-7H8V6h4V5ZM7 16h3v-4.293L5.707 16H7Zm-2-5h4.293L5 15.293V11Zm17-5h-8v3h8V6Zm-9 0v16h10V5H13v1Zm9 11h-8v-3h8v3Zm-8 1h8v3h-8v-3Zm8-5v-3h-8v3h8Z" clip-rule="evenodd"/></symbol><symbol id="btn-columns" viewBox="0 0 28 28"><path fill-rule="evenodd" d="M17 6a5.003 5.003 0 0 0-5.913-1.62A5 5 0 0 0 8.1 8h1.026a3.999 3.999 0 0 1 7.337-1H14v1h4V4h-1v2Zm5 6h-7v3h7v-3Zm-8 0v12h9V11h-9v1Zm8 7v-3h-7v3h7Zm-7 1v3h7v-3h-7Zm6-7h-5v1h5v-1ZM5 14h6v1H5v-1Zm0 2h6v1H5v-1Zm6 2H5v1h6v-1Zm-6 2h6v1H5v-1Zm11-3h5v1h-5v-1Zm5 4h-5v1h5v-1Z" clip-rule="evenodd"/></symbol><symbol id="btn-compare" viewBox="0 0 28 28"><path fill-rule="evenodd" d="M12 4h11v15h-5v1h5a1 1 0 0 0 1-1V4a1 1 0 0 0-1-1H12a1 1 0 0 0-1 1v4h1V4Zm9 12h-3v-1h3v1Zm0-3h-3v-1h3v1Zm0-3h-3V9h3v1Zm0-4h-7v1h7V6ZM5 10h11v15H5V10Zm-1 0a1 1 0 0 1 1-1h11a1 1 0 0 1 1 1v15a1 1 0 0 1-1 1H5a1 1 0 0 1-1-1V10Zm10 2H7v1h7v-1Zm-7 3h7v1H7v-1Zm7 3H7v1h7v-1Zm-7 3h7v1H7v-1Z" clip-rule="evenodd"/></symbol><symbol id="btn-custom-sort" viewBox="0 0 28 28"><path fill-rule="evenodd" d="M23 5H5v18h18V5ZM6 6v1h16V6H6Zm16 16V8H6v14h16Zm-11-1.996h-1v-8.293l-1.293 1.293L8 12.297l2.5-2.5.379.37L13 12.29l-.707.707L11 11.703v8.301ZM17 10h1v8.293L19.293 17l.707.707-2.5 2.5-.379-.37L15 17.714l.707-.707L17 18.3V10Z" clip-rule="evenodd"/></symbol><symbol id="btn-data-validation" viewBox="0 0 28 28"><path fill-rule="evenodd" d="M18.762 8.8 18 10.55 20.286 13c2.398-3.463 3.256-4.377 5.067-6.31h.001L26 6c-1.524 0-4.444 2.8-5.714 4.55L18.762 8.8ZM21.5 21c.51 0 .983-.152 1.379-.414l-3.465-3.465A2.5 2.5 0 0 0 21.5 21Zm-1.379-4.586 3.465 3.465a2.5 2.5 0 0 0-3.464-3.464ZM21.5 22a3.5 3.5 0 1 0 0-7 3.5 3.5 0 0 0 0 7ZM4 16h13v1H4v3h13v1H3v-5h1Zm0-8h13v1H4v3h13v1H3V8h1Z" clip-rule="evenodd"/></symbol><symbol id="btn-datetime" viewBox="0 0 28 28"><path fill-rule="evenodd" d="M6 4H5v1H4a1 1 0 0 0-1 1v11a1 1 0 0 0 1 1h7v-1H4V6h1v1h1V6h2v1h1V6h3v1h1V6h2v1h1V6h1v4h1V6a1 1 0 0 0-1-1h-1V4h-1v1h-2V4h-1v1H9V4H8v1H6V4ZM5 8h1v1H5V8Zm2 0h1v1H7V8Zm3 0H9v1h1V8Zm1 0h1v1h-1V8Zm3 0h-1v1h1V8Zm1 0h1v1h-1V8Zm-9 2H5v1h1v-1Zm1 0h1v1H7v-1Zm3 0H9v1h1v-1Zm1 0h1v1h-1v-1Zm3 0h-1v1h1v-1Zm1 0h1v1h-1v-1Zm-9 2H5v1h1v-1Zm1 0h1v1H7v-1Zm3 0H9v1h1v-1Zm1 0h1v1h-1v-1Zm-5 2H5v1h1v-1Zm1 0h1v1H7v-1Zm17 3.5a5.5 5.5 0 1 1-11 0 5.5 5.5 0 0 1 11 0Zm1 0a6.5 6.5 0 1 1-13 0 6.5 6.5 0 0 1 13 0Zm-6 .5h2v-1h-2v-4h-1v5h1Z" clip-rule="evenodd"/></symbol><symbol id="btn-day" viewBox="0 0 28 28"><path fill-rule="evenodd" d="M2 14h4.014a8.63 8.63 0 0 0 0 1H2v-1Zm6.853-5.854a8.734 8.734 0 0 0-.707.707L5.308 6.015l.707-.707 2.838 2.838ZM14.5 6a8.64 8.64 0 0 0-.5.014V2h1v4.014A8.63 8.63 0 0 0 14.5 6Zm6.354 2.853a8.549 8.549 0 0 0-.707-.707l2.838-2.838.707.707-2.838 2.838ZM23 14.5a8.63 8.63 0 0 0-.015-.5H27v1h-4.015a8.63 8.63 0 0 0 .015-.5Zm-2.854 6.354c.25-.222.486-.458.708-.707l2.838 2.838-.707.707-2.838-2.838ZM14.5 23c.168 0 .335-.005.5-.015V27h-1v-4.015c.165.01.332.015.5.015Zm-6.354-2.854c.222.25.458.486.707.708l-2.838 2.838-.707-.707 2.838-2.838ZM21 14.5a6.5 6.5 0 1 1-13 0 6.5 6.5 0 0 1 13 0Zm1 0a7.5 7.5 0 1 1-15 0 7.5 7.5 0 0 1 15 0Z" clip-rule="evenodd"/></symbol><symbol id="btn-edit-links" viewBox="0 0 28 28"><path fill-rule="evenodd" d="M16.5 16h-4a2.5 2.5 0 0 0 0 5h.5v1h-.5a3.5 3.5 0 1 1 0-7h4a3.5 3.5 0 1 1 0 7H16v-1h.5a2.5 2.5 0 0 0 0-5Zm5 8h-4a2.5 2.5 0 0 1 0-5h.5v-1h-.5a3.5 3.5 0 1 0 0 7h4a3.5 3.5 0 1 0 0-7H21v1h.5a2.5 2.5 0 0 1 0 5Z" clip-rule="evenodd"/><path fill-rule="evenodd" d="M13 24H6V4h8v5a1 1 0 0 0 1 1h5v6h1V9.414a1 1 0 0 0-.293-.707l-5.414-5.414A1 1 0 0 0 14.586 3H6a1 1 0 0 0-1 1v20a1 1 0 0 0 1 1h7v-1Zm2-19.586L19.586 9H15V4.414Z" clip-rule="evenodd"/></symbol><symbol id="btn-editheader" viewBox="0 0 28 28"><path fill-rule="evenodd" d="M22 24V4H6v20h16ZM6 3h16c.5 0 1 .4 1 1v20c0 .6-.4 1-1 1H6c-.6 0-1-.4-1-1V4c0-.6.4-1 1-1Zm15 2H7v3h14V5Zm0 15H7v3h14v-3Z" clip-rule="evenodd"/></symbol><symbol id="btn-eraser" viewBox="0 0 28 28"><path fill-rule="evenodd" d="M22.71 10.418c.595.594.595 1.57 0 2.164L20 15.293 13.707 9l2.754-2.754a1.464 1.464 0 0 1 2.078 0l4.172 4.172ZM13 9.708 19.293 16l-4.995 4.995H8.702l-2.413-2.413a1.537 1.537 0 0 1 0-2.164l6.71-6.71Zm1.702 12.297H8.298l-.145-.144-2.557-2.558a2.561 2.561 0 0 1 0-3.607l10.172-10.17a2.44 2.44 0 0 1 3.464 0l4.171 4.172c.99.99.99 2.616 0 3.607l-7.691 7.691H22v1.01h-7.298Z" clip-rule="evenodd"/></symbol><symbol id="btn-finance" viewBox="0 0 28 28"><path fill-rule="evenodd" d="M22 5h-4v1h2.293L14.5 11.793l-3-3-5.854 5.854.708.707 5.146-5.147 3 3 6.5-6.5V9h1V5Zm0 7h-4v1h4v-1Zm-4 2h4v1h-4v-1Zm-2 2h-4v1h4v-1Zm0 2h-4v1h4v-1Zm0 4h-4v1h4v-1Zm-4-2h4v1h-4v-1Zm-6 2h4v1H6v-1Zm0-2h4v1H6v-1Zm16 2h-4v1h4v-1Zm-4-2h4v1h-4v-1Zm4-2h-4v1h4v-1Zm-4-2h4v1h-4v-1Z" clip-rule="evenodd"/></symbol><symbol id="btn-freeze-panes" viewBox="0 0 28 28"><g opacity=".4"><path d="M4 7h20v2H4V7Z"/><path fill-rule="evenodd" d="M4 10h5v3h7v-3h1v3h7v1h-7v3h1v1h-1v3h-1v-3H9v3H4V10Zm5 7h7v-3H9v3Z" clip-rule="evenodd"/></g><path fill-rule="evenodd" d="M3 7a1 1 0 0 1 1-1h20a1 1 0 0 1 1 1v8h-1v-5H9v11h9v1H4a1 1 0 0 1-1-1V7Zm14 0h7v2h-7V7Zm-1 0H9v2h7V7ZM8 7H4v2h4V7Zm-4 3v3h4v-3H4Zm0 4v3h4v-3H4Zm0 4v3h4v-3H4Zm18-2h1v2.293l1.621-1.621.707.707L23.708 19H26v1h-2.293l1.621 1.621-.707.707L23 20.708V23h-1v-2.293l-1.621 1.621-.707-.707L21.292 20H19v-1h2.293l-1.621-1.621.707-.707L22 18.292V16Z" clip-rule="evenodd"/></symbol><symbol id="btn-func-math" viewBox="0 0 28 28"><path fill-rule="evenodd" d="M13 4h1v6h6v1h-6v6h-1v-6H7v-1h6V4Zm7 19v-1H7v1h13Z" clip-rule="evenodd"/></symbol><symbol id="btn-func-text" viewBox="0 0 28 28"><path d="M17.86 17.322h-7.733L7.47 24H6l7.655-19h.846L22 24h-1.497l-2.643-6.678Zm-7.251-1.191h6.808l-2.59-6.821a32.957 32.957 0 0 1-.781-2.226c-.235.828-.49 1.579-.768 2.252l-2.67 6.795Z"/></symbol><symbol id="btn-grand-totals" viewBox="0 0 28 28"><path fill-rule="evenodd" d="M20 2h-6v1h6V2Zm-8 2H5v1h7V4Zm0 10H2v1h10v-1Zm2-10h6v1h-6V4ZM2 2h10v1H2V2Zm10 4H5v1h7V6Zm2 0h6v1h-6V6Zm-2 2H5v1h7V8Zm2 0h6v1h-6V8Zm-2 2H5v1h7v-1Zm2 0h6v1h-6v-1Zm-2 6H5v1h7v-1Zm2 0h6v1h-6v-1Zm6-2h-6v1h6v-1ZM5 18h7v1H5v-1Zm15 0h-6v1h6v-1ZM5 20h7v1H5v-1Zm15 0h-6v1h6v-1Z" clip-rule="evenodd" opacity=".4"/><path fill-rule="evenodd" d="M26 2h-4v1h4V2Zm0 2h-4v1h4V4Zm-4 2h4v1h-4V6Zm4 2h-4v1h4V8Zm-4 2h4v1h-4v-1Zm4 6h-4v1h4v-1Zm-4-2h4v1h-4v-1ZM12 24H2v1h10v-1Zm2 0h6v1h-6v-1Zm12 0h-4v1h4v-1Zm-4-6h4v1h-4v-1Zm4 2h-4v1h4v-1Z" clip-rule="evenodd"/></symbol><symbol id="btn-highlighter-tool" viewBox="0 0 28 28"><path fill-rule="evenodd" d="M12.785 4.04a.3.3 0 0 0-.41.11l-4.078 7.064a.5.5 0 0 0 .183.683l.556.322-2.095 5.22a.5.5 0 0 0 .214.62l.49.282-2.22 3.912a.5.5 0 0 0 .434.747h5.402a.5.5 0 0 0 .39-.186l1.19-1.473.49.284a.5.5 0 0 0 .644-.125l3.473-4.425.558.322a.5.5 0 0 0 .683-.183l4.078-7.064a.3.3 0 0 0-.11-.41l-.346-.2a.3.3 0 0 0-.41.11l-3.828 6.631-.176-.101a.204.204 0 0 0-.023-.016l-8.261-4.77a.202.202 0 0 0-.025-.012l-.175-.1L13.24 4.65a.3.3 0 0 0-.11-.41l-.346-.2Zm-2.874 8.684 6.663 3.846-3.118 3.972-5.426-3.133 1.881-4.685Z" clip-rule="evenodd"/></symbol><symbol id="btn-ic-chat" viewBox="0 0 28 28"><path fill-rule="evenodd" d="M7 16h1v-1H6.667l-.267.2L4 17V7h16v3h1V7a1 1 0 0 0-1-1H4a1 1 0 0 0-1 1v12l1-.75L7 16Zm14 5H10a1 1 0 0 1-1-1v-8a1 1 0 0 1 1-1h14a1 1 0 0 1 1 1v12l-4-3Zm3 1-2.667-2H10v-8h14v10Zm-11-5a1 1 0 1 0 0-2 1 1 0 0 0 0 2Zm4 0a1 1 0 1 0 0-2 1 1 0 0 0 0 2Zm5-1a1 1 0 1 1-2 0 1 1 0 0 1 2 0Z" clip-rule="evenodd"/></symbol><symbol id="btn-ic-coedit" viewBox="0 0 28 28"><path fill-rule="evenodd" d="M10 3h12c.6 0 1 .4 1 1v5h-1V4H10V3Zm2 3h8v1h-8V6ZM8 16v-1h8v1H8Zm12-7h-7v1h7V9Zm-6 3h4v1h-4v-1Zm0 6H8v1h6v-1Zm-6 3h5v1H8v-1Zm14 3H6V9H5v15c0 .6.4 1 1 1h16c.6 0 1-.4 1-1v-6h-1v6Zm-5-1.9h-1.2l-.5-1.1 4.4-7.1 1.7 1.1-4.4 7.1Zm3.196-9.03 1.05-1.702 1.702 1.051-1.05 1.702-1.702-1.05Zm-7.696.13-.6 1h-1.2l-4-7.3 1.7-1 4.1 7.3ZM5.215 4.203l1.745-.977.978 1.745-1.745.977-.978-1.745Z" clip-rule="evenodd"/></symbol><symbol id="btn-ic-history" viewBox="0 0 28 28"><path fill-rule="evenodd" d="M14.493 23.095c4.75 0 8.602-3.848 8.602-8.595 0-4.747-3.851-8.595-8.601-8.595A8.586 8.586 0 0 0 7.883 9H11v1H6V5h1v3.654A9.492 9.492 0 0 1 14.493 5C19.743 5 24 9.253 24 14.5S19.744 24 14.493 24C9.412 24 5.26 20.014 5 15h.907a8.599 8.599 0 0 0 8.586 8.095ZM14 8h1v6h3v1h-4V8Z" clip-rule="evenodd"/></symbol><symbol id="btn-ic-protect" viewBox="0 0 28 28"><path fill-rule="evenodd" d="M21 12h-1V8.5C20 6 17.3 4 14 4S8 6 8 8.5V12H7c-1.1 0-2 .9-2 2v9c0 1.1.9 2 2 2h14c1.1 0 2-.9 2-2v-9c0-1.1-.9-2-2-2ZM9 8.5C9 6.6 11.3 5 14 5s5 1.6 5 3.5V12H9V8.5ZM22 23c0 .6-.4 1-1 1H7c-.6 0-1-.4-1-1v-9c0-.6.4-1 1-1h14c.6 0 1 .4 1 1v9Zm-9-4.268V22h2v-3.268A2 2 0 0 0 14 15a2 2 0 0 0-1 3.732Z" clip-rule="evenodd"/></symbol><symbol id="btn-ic-sharing" viewBox="0 0 28 28"><path fill-rule="evenodd" d="M14 10c0-1.7-1.3-3-3-3s-3 1.3-3 3 1.3 3 3 3 3-1.3 3-3Zm-7 0c0-2.2 1.8-4 4-4s4 1.8 4 4-1.8 4-4 4-4-1.8-4-4Zm10 9c-.1-.4-.9-3-6-3s-5.9 2.6-6 3v2h12v-2ZM4 19s.6-4 7-4 7 4 7 4v3H4v-3Zm15-3a3 3 0 1 0 0-6 3 3 0 0 0 0 6Zm0 6v-5c4 0 5 3 5 3v2h-5Z" clip-rule="evenodd"/></symbol><symbol id="btn-ic-signature" viewBox="0 0 28 28"><path fill-rule="evenodd" d="M8.606 4.653a5.618 5.618 0 0 0-.639-.766c-.174-.166-.406-.347-.68-.381a.694.694 0 0 0-.475.11.789.789 0 0 0-.274.326c-.097.207-.127.462-.135.7-.03.96.301 2.707.76 4.643.106.447.22.907.34 1.375a23.493 23.493 0 0 1-1.252 2.58 39.845 39.845 0 0 1-2.437 3.802 41.822 41.822 0 0 1-1.18 1.56l-.016.02-.004.005-.001.001a.5.5 0 1 0 .775.633l.006-.008.018-.023.07-.086.256-.326c.219-.283.527-.69.888-1.192a40.84 40.84 0 0 0 2.498-3.9c.274-.492.54-1 .785-1.515.171.633.347 1.267.523 1.888a6.026 6.026 0 0 0-.412.676c-.688 1.308-1.086 3.155-.607 5.182.216.97.675 1.943 1.196 2.736.51.778 1.126 1.452 1.693 1.755.275.147.664.271 1.037.093.385-.184.537-.583.586-.961.1-.757-.126-2.018-.75-3.893a147.78 147.78 0 0 1-1.64-5.37c.11-.122.219-.227.325-.313.322-.261.53-.29.608-.276.053.02.125.076.209.254.09.192.15.432.22.714l.005.02c.034.136.072.284.117.42.043.131.104.286.198.42a.81.81 0 0 0 .502.345.904.904 0 0 0 .615-.114 1.01 1.01 0 0 0 .389-.381c.084-.138.147-.295.199-.445.074-.219.142-.484.207-.743l.067-.258c.093-.352.193-.688.328-.978.095-.205.2-.37.317-.496l.01.038c.023.088.043.176.066.274.01.047.021.096.034.148.035.15.077.32.135.474.055.146.144.338.304.483.19.173.445.249.72.184.233-.055.443-.203.63-.375a.5.5 0 0 0-.68-.735l-.053.048a3.51 3.51 0 0 1-.083-.307l-.028-.121a9.847 9.847 0 0 0-.078-.328 2.147 2.147 0 0 0-.174-.471c-.079-.145-.233-.358-.513-.43-.286-.072-.539.042-.718.167l-.007.005c-.37.27-.615.646-.79 1.02a6.9 6.9 0 0 0-.387 1.145l-.079.305c-.062.243-.114.45-.175.628a2.28 2.28 0 0 1-.034.095 7.649 7.649 0 0 1-.068-.26l-.014-.052c-.062-.253-.144-.58-.277-.863-.144-.309-.392-.658-.838-.792l-.011-.003-.012-.003c-.53-.133-1.069.125-1.49.467l-.005.003c-.232-.832-.461-1.678-.675-2.505.225-.588.413-1.175.547-1.75.364-1.557.358-3.12-.49-4.319l-.002-.003ZM3 18.945l.388.316L3 18.945ZM8.124 8.748l-.03.126c-.429-1.83-.7-3.337-.692-4.134.108.121.238.283.391.495.601.851.67 2.062.331 3.513Zm.263 10.982c-.398-1.678-.104-3.203.426-4.307.576 1.968 1.11 3.673 1.413 4.58.624 1.875.774 2.94.708 3.447a.774.774 0 0 1-.038.17.69.69 0 0 1-.123-.054c-.345-.184-.849-.691-1.328-1.422-.47-.716-.873-1.58-1.057-2.408l-.001-.006ZM26.03 7.317l-3.464-2-7.79 13.494-1.268 6.196 4.732-4.196 5.29-9.164.866.5-2.5 4.33.866.5 3-5.196-1.732-1 2-3.464Zm-1.366.366-1.5 2.598-1.732-1 1.5-2.598 1.732 1Zm-2 3.464-1.732-1-5 8.66 1.732 1 5-8.66ZM15.09 22.268l.51-2.498 1.397.806-1.907 1.692Z" clip-rule="evenodd"/></symbol><symbol id="btn-img-align" viewBox="0 0 28 28"><path fill-rule="evenodd" d="M14 4h-1v3H9a1 1 0 0 0-1 1v4a1 1 0 0 0 1 1h4v3H5a1 1 0 0 0-1 1v4a1 1 0 0 0 1 1h8v3h1v-3h8a1 1 0 0 0 1-1v-4a1 1 0 0 0-1-1h-8v-3h4a1 1 0 0 0 1-1V8a1 1 0 0 0-1-1h-4V4Zm0 17h8v-4H5v4h9Zm0-9H9V8h9v4h-4Z" clip-rule="evenodd"/></symbol><symbol id="btn-img-bkwd" viewBox="0 0 28 28"><path fill-rule="evenodd" d="M4 5a1 1 0 0 1 1-1h12a1 1 0 0 1 1 1v4H9v9H5a1 1 0 0 1-1-1V5Zm6 6a1 1 0 0 1 1-1h12a1 1 0 0 1 1 1v12a1 1 0 0 1-1 1H11a1 1 0 0 1-1-1V11Zm1 0h12v12H11V11Z" clip-rule="evenodd"/></symbol><symbol id="btn-img-frwd" viewBox="0 0 28 28"><path fill-rule="evenodd" d="M17 18a1 1 0 0 0 1-1V5a1 1 0 0 0-1-1H5a1 1 0 0 0-1 1v12a1 1 0 0 0 1 1h12Zm-6 1v4h12V11h-4v-1h4a1 1 0 0 1 1 1v12a1 1 0 0 1-1 1H11a1 1 0 0 1-1-1v-4h1Z" clip-rule="evenodd"/></symbol><symbol id="btn-img-group" viewBox="0 0 28 28"><path fill-rule="evenodd" d="M6 4H4v2h2V4Zm16 0h2v2h-2V4Zm0 18h2v2h-2v-2ZM4 22h2v2H4v-2Zm17-9h-8v8h8v-8Zm-8-1a1 1 0 0 0-1 1v8a1 1 0 0 0 1 1h8a1 1 0 0 0 1-1v-8a1 1 0 0 0-1-1h-8Zm2-5H7v8h4v1H7a1 1 0 0 1-1-1V7a1 1 0 0 1 1-1h8a1 1 0 0 1 1 1v4h-1V7Z" clip-rule="evenodd"/></symbol><symbol id="btn-import-data" viewBox="0 0 28 28"><path fill-rule="evenodd" d="m21.5 11.207-2.354-2.353.707-.708L21 9.293V7.5a.5.5 0 0 0-.5-.5H18V6h2.5A1.5 1.5 0 0 1 22 7.5v1.793l1.146-1.147.707.708-2.353 2.353ZM16 7H5v14h5v1H5a1 1 0 0 1-1-1V7a1 1 0 0 1 1-1h11a1 1 0 0 1 1 1v4h-1V7ZM7 9h7v1H7V9Zm0 3h3v1H7v-1Zm3 3H7v1h3v-1Zm-3 3h3v1H7v-1Zm17-5v9a1 1 0 0 1-1 1H12a1 1 0 0 1-1-1v-9a1 1 0 0 1 1-1h11a1 1 0 0 1 1 1Zm-1 9h-5v-2h5v2Zm-5-5v2h5v-2h-5Zm-6 0h5v2h-5v-2Zm5 5h-5v-2h5v2Zm6-6h-5v-2h5v2Zm-6 0v-2h-5v2h5Z" clip-rule="evenodd"/></symbol><symbol id="btn-ins-formula" viewBox="0 0 28 28"><path d="m14.518 10.224-.177.638h-1.442l-1.086 4.22c-.48 1.86-.964 3.299-1.452 4.316-.69 1.436-1.435 2.427-2.231 2.974-.606.419-1.211.628-1.817.628-.395 0-.73-.116-1.007-.348A.763.763 0 0 1 5 22.025c0-.206.086-.387.257-.541a.881.881 0 0 1 .612-.222c.178 0 .329.055.454.164a.5.5 0 0 1 .178.377c0 .141-.07.273-.208.395-.105.09-.158.158-.158.203 0 .058.024.103.07.136.059.044.151.067.276.067.283 0 .583-.087.899-.26.309-.175.585-.435.829-.783.244-.341.474-.837.691-1.487.092-.27.34-1.162.74-2.675l1.719-6.537H9.64l.138-.638c.546 0 .928-.035 1.145-.106.218-.077.415-.219.593-.425.184-.212.421-.605.71-1.178.389-.773.76-1.371 1.116-1.796.488-.573.998-1.001 1.53-1.284.54-.29 1.048-.435 1.521-.435.5 0 .902.126 1.205.377.303.244.454.511.454.801a.783.783 0 0 1-.81.802.734.734 0 0 1-.503-.174.547.547 0 0 1-.188-.415c0-.103.043-.229.129-.377.085-.155.128-.258.128-.31 0-.09-.03-.157-.089-.202-.085-.064-.21-.096-.375-.096-.415 0-.787.128-1.116.386-.44.341-.836.875-1.185 1.603-.177.38-.503 1.323-.977 2.83h1.451Z"/><path d="M17.658 9.992c.323.335.566.67.73 1.005.12.232.314.84.583 1.825l.87-1.275c.23-.309.51-.602.839-.879.329-.283.618-.476.869-.579.157-.064.332-.097.523-.097.283 0 .507.074.671.223a.69.69 0 0 1 .257.54c0 .245-.05.412-.148.502a.933.933 0 0 1-.632.242c-.138 0-.286-.029-.444-.087-.31-.103-.517-.155-.622-.155-.158 0-.346.09-.563.27-.408.336-.895.983-1.462 1.942l.81 3.322c.125.508.23.814.316.917.086.097.171.145.257.145.138 0 .3-.074.484-.222.362-.296.671-.683.928-1.159l.345.174a6.076 6.076 0 0 1-1.58 1.893c-.361.283-.668.424-.918.424-.368 0-.661-.202-.879-.608-.138-.25-.424-1.332-.858-3.245-1.027 1.745-1.85 2.869-2.469 3.37-.401.323-.79.483-1.165.483a1.08 1.08 0 0 1-.72-.28.727.727 0 0 1-.238-.57.733.733 0 0 1 .75-.744c.211.001.435.104.672.31.171.148.303.222.395.222.079 0 .18-.051.306-.154.31-.245.73-.773 1.264-1.584.533-.811.882-1.397 1.046-1.757-.408-1.565-.628-2.392-.661-2.482-.151-.419-.349-.715-.592-.889-.244-.173-.603-.26-1.077-.26-.151 0-.326.006-.523.019v-.348l2.636-.454Z"/></symbol><symbol id="btn-insert-blank-line-after-each-item" viewBox="0 0 28 28"><path fill-rule="evenodd" d="M10 3H2v1h8V3Zm0 12H2v1h8v-1Zm2-12h7v1h-7V3Zm13 0h-4v1h4V3ZM12 7h7v1h-7V7Zm13 0h-4v1h4V7Zm-13 4h7v1h-7v-1Zm13 0h-4v1h4v-1Zm-13 4h7v1h-7v-1Zm13 0h-4v1h4v-1Zm-13 4h7v1h-7v-1Zm13 0h-4v1h4v-1Zm-13 4h7v1h-7v-1Zm13 0h-4v1h4v-1Z" clip-rule="evenodd"/></symbol><symbol id="btn-insertchart" viewBox="0 0 28 28"><path fill-rule="evenodd" d="M24 23h-4V6h4v17Zm1 0c0 .6-.4 1-1 1h-4c-.6 0-1-.4-1-1V6c0-.6.4-1 1-1h4c.6 0 1 .4 1 1v17Zm-13 0h4V12h-4v11Zm4 1c.6 0 1-.4 1-1V12c0-.6-.4-1-1-1h-4c-.6 0-1 .4-1 1v11c0 .6.4 1 1 1h4ZM4 23h4v-6H4v6Zm4 1c.6 0 1-.4 1-1v-6c0-.6-.4-1-1-1H4c-.6 0-1 .4-1 1v6c0 .6.4 1 1 1h4Z" clip-rule="evenodd"/></symbol><symbol id="btn-insertequation" viewBox="0 0 28 28"><path fill-rule="evenodd" d="M25 6H9.078L6.562 20.68 5.938 16H3v1h2.062l.942 7.066.989.018L9.922 7H25V6Zm-8.392 7.396a4.487 4.487 0 0 0-.795-1.118l-2.868.505v.387c.215-.014.405-.022.57-.022.515 0 .906.097 1.17.29.265.194.48.523.645.989.036.1.276 1.02.72 2.76-.18.401-.559 1.053-1.139 1.956-.58.902-1.038 1.49-1.375 1.761-.136.115-.247.172-.333.172-.1 0-.243-.082-.43-.247-.257-.23-.5-.344-.73-.344a.788.788 0 0 0-.58.237.801.801 0 0 0-.236.59c0 .265.085.477.257.634.237.208.498.312.785.312.408 0 .83-.18 1.267-.537.673-.559 1.569-1.809 2.686-3.75.472 2.128.784 3.33.934 3.61.237.451.555.677.956.677.272 0 .605-.158 1-.473a6.727 6.727 0 0 0 1.718-2.105l-.376-.194c-.28.53-.616.96-1.01 1.29-.2.164-.376.247-.526.247-.093 0-.186-.054-.28-.162-.092-.114-.207-.454-.343-1.02l-.88-3.696c.615-1.066 1.145-1.786 1.589-2.159.236-.2.44-.3.612-.3.115 0 .34.057.677.171.172.065.333.097.483.097.258 0 .487-.09.688-.269.107-.1.161-.286.161-.558a.774.774 0 0 0-.28-.602c-.178-.164-.422-.247-.73-.247a1.47 1.47 0 0 0-.57.108c-.271.114-.586.33-.944.644a5.81 5.81 0 0 0-.913.978l-.946 1.418c-.293-1.096-.505-1.773-.634-2.03Z" clip-rule="evenodd"/></symbol><symbol id="btn-inserthyperlink" viewBox="0 0 28 28"><path d="m14.866 7.635 2.97-2.97a3.2 3.2 0 0 1 4.526 0l.99.99a3.2 3.2 0 0 1 0 4.525l-2.97 2.97a3.2 3.2 0 0 1-3.308.763l-.766.765a4.202 4.202 0 0 0 4.78-.82l2.97-2.97a4.2 4.2 0 0 0 0-5.94l-.99-.99a4.2 4.2 0 0 0-5.939 0l-2.97 2.97a4.202 4.202 0 0 0-.82 4.78l.765-.765a3.2 3.2 0 0 1 .762-3.308Zm-9.899 9.899 2.97-2.97a3.2 3.2 0 0 1 3.308-.762l.765-.766a4.202 4.202 0 0 0-4.78.821l-2.97 2.97a4.2 4.2 0 0 0 0 5.94l.99.99a4.2 4.2 0 0 0 5.94 0l2.97-2.97a4.202 4.202 0 0 0 .82-4.781l-.766.765a3.2 3.2 0 0 1-.762 3.309l-2.97 2.97a3.2 3.2 0 0 1-4.525 0l-.99-.99a3.2 3.2 0 0 1 0-4.526Z"/><path d="m9.06 19.648 10.89-10.89-.708-.707-10.89 10.89.708.707Z"/></symbol><symbol id="btn-insertimage" viewBox="0 0 28 28"><path fill-rule="evenodd" d="M11 9a2 2 0 1 1-4 0 2 2 0 0 1 4 0Zm-1 0a1 1 0 1 1-2 0 1 1 0 0 1 2 0Z" clip-rule="evenodd"/><path fill-rule="evenodd" d="M5 4a1 1 0 0 0-1 1v18a1 1 0 0 0 1 1h18a1 1 0 0 0 1-1V5a1 1 0 0 0-1-1H5Zm18 1H5v14.293l3.5-3.5 2 2 6-6 6.5 6.5V5ZM5 23v-2.293l3.5-3.5 2 2 6-6 6.5 6.5V23H5Z" clip-rule="evenodd"/></symbol><symbol id="btn-insertshape" viewBox="0 0 28 28"><path fill-rule="evenodd" d="M17 5H5v12h3v1H4V4h14v4h-1V5Zm6 11.5a6.5 6.5 0 1 1-13 0 6.5 6.5 0 0 1 13 0Zm1 0a7.5 7.5 0 1 1-15 0 7.5 7.5 0 0 1 15 0Z" clip-rule="evenodd"/></symbol><symbol id="btn-inserttable" viewBox="0 0 28 28"><path fill-rule="evenodd" d="M4 6a1 1 0 0 0-1 1v14a1 1 0 0 0 1 1h20a1 1 0 0 0 1-1V7a1 1 0 0 0-1-1H4Zm20 11v-3h-6v3h6Zm-7 0h-6v-3h6v3Zm1-4h6v-3h-6v3Zm-1-3v3h-6v-3h6Zm0 8v3h-6v-3h6Zm1 3h6v-3h-6v3Zm-8-4v-3H4v3h6Zm0-4v-3H4v3h6Zm-6 5h6v3H4v-3Z" clip-rule="evenodd"/></symbol><symbol id="btn-logic" viewBox="0 0 28 28"><path d="M11.996 19v-.51c0-1.04.157-1.891.47-2.551.321-.66.91-1.367 1.764-2.12l1.156-1.004c.61-.516 1.045-1.028 1.307-1.536.263-.508.394-1.091.394-1.752 0-1.075-.356-1.93-1.067-2.564-.702-.635-1.629-.952-2.78-.952-.668 0-1.295.076-1.879.228a9.612 9.612 0 0 0-1.891.711L9 5.935c.931-.407 1.71-.678 2.336-.813a9.345 9.345 0 0 1 1.955-.203c1.549 0 2.768.419 3.656 1.257.889.83 1.333 1.972 1.333 3.428 0 .575-.076 1.079-.228 1.51a4.493 4.493 0 0 1-.648 1.206c-.27.364-.6.72-.99 1.067-.39.338-.82.706-1.295 1.104-.541.457-.96.876-1.257 1.257-.287.372-.499.766-.635 1.18-.126.415-.19 1.033-.19 1.854V19h-1.04Zm-.419 3.756c0-.83.339-1.244 1.016-1.244.694 0 1.04.414 1.04 1.244 0 .83-.346 1.244-1.04 1.244-.677 0-1.016-.415-1.016-1.244Z"/></symbol><symbol id="btn-lookup" viewBox="0 0 28 28"><path fill-rule="evenodd" d="M19 12a7 7 0 1 1-14 0 7 7 0 0 1 14 0Zm-1.708 6a8 8 0 1 1 .707-.707l5.855 5.854-.707.707-5.855-5.855Z" clip-rule="evenodd"/></symbol><symbol id="btn-more" viewBox="0 0 28 28"><path fill-rule="evenodd" d="M9 13.5a1.5 1.5 0 1 1-3 0 1.5 1.5 0 0 1 3 0Zm6 0a1.5 1.5 0 1 1-3 0 1.5 1.5 0 0 1 3 0Zm4.5 1.5a1.5 1.5 0 1 0 0-3 1.5 1.5 0 0 0 0 3Z" clip-rule="evenodd"/></symbol><symbol id="btn-night" viewBox="0 0 28 28"><path fill-rule="evenodd" d="M17 9c0 6.627-5.372 12-12 12h-.142A9.968 9.968 0 0 0 12 24c5.523 0 10-4.477 10-10 0-3.98-2.325-7.418-5.693-9.028C16.757 6.232 17 7.588 17 9Zm-1 0c0 6.075-4.925 11-11 11-.414 0-.822-.023-1.224-.067-.438-.049-.763.427-.493.777A10.982 10.982 0 0 0 12 25c6.075 0 11-4.925 11-11 0-4.845-3.131-8.958-7.48-10.425-.419-.141-.763.32-.575.719A10.956 10.956 0 0 1 16 9Z" clip-rule="evenodd"/></symbol><symbol id="btn-normal-view" viewBox="0 0 28 28"><path fill-rule="evenodd" d="M17 6h5v5h-5V6Zm-1 0h-5v5h5V6Zm-6 0H5v5h5V6Zm-5 6v5h5v-5H5Zm0 6v5h5v-5H5Zm6 5h5v-5h-5v5Zm6 0h5v-5h-5v5Zm5-6v-5h-5v5h5ZM4 6a1 1 0 0 1 1-1h17a1 1 0 0 1 1 1v17a1 1 0 0 1-1 1H5a1 1 0 0 1-1-1V6Zm7 6v5h5v-5h-5Z" clip-rule="evenodd" opacity=".5"/></symbol><symbol id="btn-page-break-preview" viewBox="0 0 28 28"><path fill-rule="evenodd" d="M23 23a1 1 0 0 1-1 1H5a1 1 0 0 1-1-1V6a1 1 0 0 1 1-1h17a1 1 0 0 1 1 1v17zM17 6h5v11h-5V6zm-1 0H5v11h11V6zM5 18v5h11v-5H5zm12 5h5v-5h-5v5z" clip-rule="evenodd"/><path d="M11 11V6h-1v5H5v1h5v5h1v-5h5v-1h-5z" opacity=".5"/></symbol><symbol id="btn-pagebreak" viewBox="0 0 28 28"><path fill-rule="evenodd" d="M22 3v9H6V3H5v9c0 .6.4 1 1 1h16c.6 0 1-.4 1-1V3h-1Zm-2 2H8v1h12V5ZM8 8h8v1H8V8Zm15 8h1v-1h-1v1Zm-2 0h1v-1h-1v1Zm-2 0h1v-1h-1v1Zm-2 0h1v-1h-1v1Zm-2 0h1v-1h-1v1Zm-2 0h1v-1h-1v1Zm-2 0h1v-1h-1v1Zm-2 0h1v-1H9v1Zm-2 0h1v-1H7v1Zm-2 0h1v-1H5v1Zm-2 0h1v-1H3v1Zm5 7v-1h12v1H8Zm14-4H6v6H5v-6c0-.6.4-1 1-1h16c.6 0 1 .4 1 1v6h-1v-6Z" clip-rule="evenodd"/></symbol><symbol id="btn-pagemargins" viewBox="0 0 28 28"><path fill-rule="evenodd" d="M21.988 3.99V7H20V4h-1v3H9V4H8v3H6.013V3.99h15.975ZM19 8H9v12h10V8Zm0 13v3h1v-3h1.988v3.01H6.011V21H8v3h1v-3h10Zm1-1V8h1.988v12H20ZM6.012 8H8v12H6.013V8Zm15.976-5H6.011A.997.997 0 0 0 5 3.99v20.02c0 .55.45.99 1.013.99h15.975A.997.997 0 0 0 23 24.01V3.99c0-.55-.45-.99-1.012-.99Z" clip-rule="evenodd"/></symbol><symbol id="btn-pageorient" viewBox="0 0 28 28"><path fill-rule="evenodd" d="M4 19V4h6v4a1 1 0 0 0 1 1h4v2h1V8.414a1 1 0 0 0-.293-.707l-4.414-4.414A1 1 0 0 0 10.586 3H4a1 1 0 0 0-1 1v15a1 1 0 0 0 1 1h3v-1H4Zm7-14v-.586L14.586 8H11V5Zm-2 8v11h15v-6h-4a1 1 0 0 1-1-1v-4H9Zm11 .414L23.586 17H20v-3.586ZM9 12a1 1 0 0 0-1 1v11a1 1 0 0 0 1 1h15a1 1 0 0 0 1-1v-6.586a1 1 0 0 0-.293-.707l-4.414-4.414a1 1 0 0 0-.707-.293H9Z" clip-rule="evenodd"/></symbol><symbol id="btn-pagesize" viewBox="0 0 28 28"><path fill-rule="evenodd" d="M10 3H9v3h1V5h12v1h1V3h-1v1H10V3ZM6 7H5v1h1v16H5v1h3v-1H7V8h1V7H6Zm4 1v16h12V13h-4a1 1 0 0 1-1-1V8h-7Zm8 .414L21.586 12H18V8.414ZM10 7a1 1 0 0 0-1 1v16a1 1 0 0 0 1 1h12a1 1 0 0 0 1-1V12.414a1 1 0 0 0-.293-.707l-4.414-4.414A1 1 0 0 0 17.586 7H10Z" clip-rule="evenodd"/></symbol><symbol id="btn-pen-tool" viewBox="0 0 28 28"><path fill-rule="evenodd" d="M16.087 3.05a.1.1 0 0 0-.137.037l-4.45 7.706v.001l-2.225 7.778a.199.199 0 0 0 .092.227l.068.04 3.925 2.266.068.04c.08.045.18.03.242-.035l5.624-5.816-.054-.031.055.031 4.45-7.707a.1.1 0 0 0-.037-.137l-.693-.4a.1.1 0 0 0-.137.037l-3.95 6.841-6.062-3.5 3.95-6.841a.1.1 0 0 0-.036-.137l-.693-.4Zm2.341 11.744-6.062-3.5-1.957 6.952 2.977 1.72 5.042-5.172Zm-8.763 4.179s-1.134 3.964-.268 4.464c.866.5 3.732-2.464 3.732-2.464l-3.464-2Z" clip-rule="evenodd"/></symbol><symbol id="btn-pivot-layout" viewBox="0 0 28 28"><path fill-rule="evenodd" d="M2 3h8v1H2V3Zm0 10h8v1H2v-1ZM19 3h-7v1h7V3Zm-7 2h7v1h-7V5Zm7 2h-7v1h7V7Zm-7 2h7v1h-7V9Zm7 2h-7v1h7v-1Zm-7 2h7v1h-7v-1Zm7 2h-7v1h7v-1Zm-7 2h7v1h-7v-1Zm7 2h-7v1h7v-1Z" clip-rule="evenodd"/><path fill-rule="evenodd" d="M21 3h4v1h-4V3Zm0 2h4v1h-4V5Zm4 2h-4v1h4V7Zm-4 2h4v1h-4V9Zm4 2h-4v1h4v-1Zm-4 2h4v1h-4v-1Zm4 2h-4v1h4v-1Zm-4 2h4v1h-4v-1Zm4 2h-4v1h4v-1Z" clip-rule="evenodd" opacity=".4"/></symbol><symbol id="btn-print-area" viewBox="0 0 28 28"><path fill-rule="evenodd" d="M6 3h2v1H6v2H5V4a1 1 0 0 1 1-1Zm14 1v2h-1V4h-2V3h2a1 1 0 0 1 1 1ZM5 18v2a1 1 0 0 0 1 1h2v-1H6v-2H5ZM15 3h-5v1h5V3Zm4 7V8h1v2h-1ZM5 8v3h1V8H5Zm0 8v-3h1v3H5Zm8-5a1 1 0 0 0-1 1v2h-2a1 1 0 0 0-1 1v6a1 1 0 0 0 1 1h2v2a1 1 0 0 0 1 1h8a1 1 0 0 0 1-1v-2h2a1 1 0 0 0 1-1v-6a1 1 0 0 0-1-1h-2v-2a1 1 0 0 0-1-1h-8Zm0 7a1 1 0 0 0-1 1v2h-2v-6h14v6h-2v-2a1 1 0 0 0-1-1h-8Zm8-4v-2h-8v2h8Zm-10 2h1v1h-1v-1Zm2 8v-5h8v5h-8Zm7-3v-1h-6v1h6Zm-6 2v-1h6v1h-6Z" clip-rule="evenodd"/></symbol><symbol id="btn-print-titles" viewBox="0 0 28 28"><g opacity=".4"><path d="M8 7V5H7v2h1Z"/><path fill-rule="evenodd" d="M8 8v2h3v1H8v2h3v1H8v2h3v1H3V8h1v2h3V8h1Zm-4 3v2h3v-2H4Zm0 5v-2h3v2H4Z" clip-rule="evenodd"/><path d="M11 10V8h1v2h-1Zm4 0V8h1v2h-1Zm-3-3h-1V5h1v2Zm9 7h-1v-2h1v2Z"/><path fill-rule="evenodd" d="M12 15v9h13v-9h-1v2h-3v-2h-1v2h-3v-2h-1v2h-3v-2h-1Zm1 5v-2h3v2h-3Zm0 1v2h3v-2h-3Zm4 0v2h3v-2h-3Zm4 0v2h3v-2h-3Zm3-1v-2h-3v2h3Zm-4 0h-3v-2h3v2Z" clip-rule="evenodd"/><path d="M16 14h1v-2h-1v2Z"/></g><path fill-rule="evenodd" d="M3 8V4h13v4H3Zm1-3h11v2H4V5Zm8 10v-4h13v4H12Zm1-3h11v2H13v-2Z" clip-rule="evenodd"/></symbol><symbol id="btn-protect-range" viewBox="0 0 28 28"><path fill-rule="evenodd" d="M18 13a1 1 0 0 1 1 1h-2a1 1 0 0 1 1-1Zm-2 1a2 2 0 1 1 4 0 1 1 0 0 1 1 1v3a1 1 0 0 1-1 1h-4a1 1 0 0 1-1-1v-3a1 1 0 0 1 1-1Zm4 1h-4v3h4v-3Z" clip-rule="evenodd"/><path fill-rule="evenodd" d="M11 9h6v2h1V8H4a1 1 0 0 0-1 1v8h11v-1h-3v-3h4v-1h-4V9ZM4 9h6v3H4V9Zm0 7v-3h6v3H4Z" clip-rule="evenodd"/><path fill-rule="evenodd" d="M24 9h-6v2h-1V8h7a1 1 0 0 1 1 1v11a1 1 0 0 1-1 1H4a1 1 0 0 1-1-1v-4h11v1h-3v3h13v-3h-2v-1h2v-3h-3v-1h3V9Zm-14 8H4v3h6v-3Z" clip-rule="evenodd" opacity=".4"/></symbol><symbol id="btn-protect-sheet" viewBox="0 0 28 28"><path d="M3 7h20v5h1V7a1 1 0 0 0-1-1H3a1 1 0 0 0-1 1v13a1 1 0 0 0 1 1h4a1 1 0 0 0 1-1v-1h10v-1H3V7z"/><path fill-rule="evenodd" d="M20 15.5v.5a1 1 0 0 0-1 1v4a1 1 0 0 0 1 1h5a1 1 0 0 0 1-1v-4a1 1 0 0 0-1-1v-.5a2.5 2.5 0 0 0-5 0zm4 .5v-.5a1.5 1.5 0 0 0-3 0v.5h3zm-4 1h5v4h-5v-4z" clip-rule="evenodd"/><path fill-rule="evenodd" d="M10 7H9v3H3v1h6v3H3v1h6v3h1v-3h6v3h1v-3h2v-1h-2v-3h6v-1h-6V7h-1v3h-6V7zm6 7v-3h-6v3h6z" clip-rule="evenodd" opacity=".4"/></symbol><symbol id="btn-protect-workbook" viewBox="0 0 28 28"><path d="M2 7.5A1.5 1.5 0 0 1 3.5 6H21v1H3.5a.5.5 0 0 0-.5.5V18H2V7.5z"/><path d="M4 9.5A1.5 1.5 0 0 1 5.5 8H23v1H5.5a.5.5 0 0 0-.5.5V20H4V9.5z"/><path d="M11 21v-1h7v-1H7v-8h17v3h1v-3a1 1 0 0 0-1-1H7a1 1 0 0 0-1 1v10a1 1 0 0 0 1 1h3a1 1 0 0 0 1-1z"/><path fill-rule="evenodd" d="M20 18v-.5a2.5 2.5 0 0 1 5 0v.5a1 1 0 0 1 1 1v4a1 1 0 0 1-1 1h-5a1 1 0 0 1-1-1v-4a1 1 0 0 1 1-1zm4-.5v.5h-3v-.5a1.5 1.5 0 0 1 3 0zm1 1.5h-5v4h5v-4z" clip-rule="evenodd"/><path fill-rule="evenodd" d="M13 11h-1v2H7v1h5v2H7v1h5v2h1v-2h6v-3h5v-1h-5v-2h-1v2h-5v-2zm5 5v-2h-5v2h5z" clip-rule="evenodd" opacity=".4"/></symbol><symbol id="btn-recent" viewBox="0 0 28 28"><path fill-rule="evenodd" d="M16.5 11 14 3l-2.5 8h-8l6 5.5L7 25l7-5.5 7 5.5-2.5-8.5 6-5.5h-8Zm5.43 1h-6.165L14 6.353 12.235 12H6.071l4.564 4.184-1.793 6.097L14 18.228l5.158 4.053-1.793-6.097L21.929 12Z" clip-rule="evenodd"/></symbol><symbol id="btn-rem-comment" viewBox="0 0 28 28"><path fill-rule="evenodd" d="M11 6a1 1 0 0 1 1-1h5a1 1 0 0 1 1 1v1h3.5a.5.5 0 0 1 0 1H21v15a1 1 0 0 1-1 1H9a1 1 0 0 1-1-1V8h-.5a.5.5 0 0 1 0-1H11V6Zm6 0v1h-5V6h5ZM9 8h11v15H9V8Zm3 2h-1v11h1V10Zm2 0h1v11h-1V10Zm4 0h-1v11h1V10Z" clip-rule="evenodd"/></symbol><symbol id="btn-remove-blank-line-after-each-item" viewBox="0 0 28 28"><path fill-rule="evenodd" d="M10 3H2v1h8V3Zm9 2h-7v1h7V5Zm-9 10H2v1h8v-1ZM21 5h4v1h-4V5Zm-9-2h7v1h-7V3Zm13 0h-4v1h4V3ZM12 7h7v1h-7V7Zm13 0h-4v1h4V7ZM12 9h7v1h-7V9Zm13 0h-4v1h4V9Zm-13 2h7v1h-7v-1Zm13 0h-4v1h4v-1Zm-13 4h7v1h-7v-1Zm13 0h-4v1h4v-1Zm-13 2h7v1h-7v-1Zm13 0h-4v1h4v-1Zm-13 2h7v1h-7v-1Zm13 0h-4v1h4v-1Zm-13 2h7v1h-7v-1Zm13 0h-4v1h4v-1Zm-13 2h7v1h-7v-1Zm13 0h-4v1h4v-1Z" clip-rule="evenodd"/></symbol><symbol id="btn-repeat-all-item-labels" viewBox="0 0 28 28"><path fill-rule="evenodd" d="M10 3H2v1h8V3Zm0 2H2v1h8V5Zm0 2H2v1h8V7ZM2 9h8v1H2V9Zm8 2H2v1h8v-1Zm-8 4h8v1H2v-1Zm8 2H2v1h8v-1Zm-8 2h8v1H2v-1Zm8 2H2v1h8v-1Zm-8 2h8v1H2v-1Z" clip-rule="evenodd"/><path fill-rule="evenodd" d="M12 3h7v1h-7V3Zm7 2h-7v1h7V5Zm6 0h-4v1h4V5Zm0-2h-4v1h4V3ZM12 7h7v1h-7V7Zm13 0h-4v1h4V7ZM12 9h7v1h-7V9Zm13 0h-4v1h4V9Zm-13 2h7v1h-7v-1Zm13 0h-4v1h4v-1Zm-13 4h7v1h-7v-1Zm13 0h-4v1h4v-1Zm-13 2h7v1h-7v-1Zm13 0h-4v1h4v-1Zm-13 2h7v1h-7v-1Zm13 0h-4v1h4v-1Zm-13 2h7v1h-7v-1Zm13 0h-4v1h4v-1Zm-13 2h7v1h-7v-1Zm13 0h-4v1h4v-1Z" clip-rule="evenodd" opacity=".4"/></symbol><symbol id="btn-resolve-all" viewBox="0 0 28 28"><path fill-rule="evenodd" d="M9.5 22.586 6.914 20H5a1 1 0 0 1-1-1V7a1 1 0 0 1 1-1h18a1 1 0 0 1 1 1v12a1 1 0 0 1-1 1H12.086L9.5 22.586ZM6.5 21l3 3 3-3H23a2 2 0 0 0 2-2V7a2 2 0 0 0-2-2H5a2 2 0 0 0-2 2v12a2 2 0 0 0 2 2h1.5Zm3.5-7.314L12.686 17 18 9.686 17.314 9l-4.628 6-2-2-.686.686Z" clip-rule="evenodd"/></symbol><symbol id="btn-scale" viewBox="0 0 28 28"><path fill-rule="evenodd" d="M16 4h2v1h-2V4Zm1 13.707V20h-1v-4h4v1h-2.293l4.646 4.646-.707.707L17 17.707ZM21 4h-2v1h2V4Zm2 3h1v2h-1V7Zm-1-3h2v2h-1V5h-1V4Zm1 6h1v2h-1v-2Zm1 3h-1v2h1v-2Zm-1 3h1v2h-1v-2Zm1 3h-1v2h1v-2ZM4 16h1v2H4v-2Zm1 3H4v2h1v-2Zm14 4h2v1h-2v-1Zm4-1h1v2h-2v-1h1v-1Zm-7 1h2v1h-2v-1Zm-1 1v-1h-2v1h2Zm-5-1h2v1h-2v-1Zm-1 0H7v1h2v-1Zm-4-1H4v2h2v-1H5v-1Zm5-17h4v4h-4V5Zm0 5h4v4h-4v-4ZM9 5v4H5V5h4Zm0 5H5v4h4v-4ZM4 9v6h11V4H4v5Z" clip-rule="evenodd"/></symbol><symbol id="btn-select" viewBox="0 0 28 28"><path d="m16.561 17.24 2.752 5.045-4.072 2.036-2.286-5.028-.262-.577-.5.39L8.5 21.977V4.208L20.793 16.5h-4.635l.403.74z" opacity=".8"/></symbol><symbol id="btn-select-pivot" viewBox="0 0 28 28"><path fill-rule="evenodd" d="M9 4H4v5h5V4ZM8 5H5v3h3V5Zm1 7H4v12h5V12Zm-1 1H5v10h3V13Zm4-4h12V4H12v5Zm1-4v3h10V5H13Z" clip-rule="evenodd"/><path d="M16.5 21.5v-9l6 6H20l2 4-1.5 1-2-4-2 2Z"/></symbol><symbol id="btn-sheet-view" viewBox="0 0 28 28"><path fill-rule="evenodd" d="M3.091 14c1.897 4.133 6.071 7 10.913 7 4.841 0 9.015-2.867 10.912-7-1.897-4.133-6.07-7-10.912-7A12.002 12.002 0 0 0 3.09 14Zm22.916 0c-1.959-4.698-6.595-8-12.003-8S3.959 9.302 2 14c1.96 4.698 6.596 8 12.004 8 5.408 0 10.044-3.302 12.003-8Z" clip-rule="evenodd"/><path d="M17.004 14a3 3 0 1 1-6 0 3 3 0 0 1 6 0Z"/><path fill-rule="evenodd" d="M14.004 21a7 7 0 1 0 0-14 7 7 0 0 0 0 14Zm0 1a8 8 0 1 0 0-16 8 8 0 0 0 0 16Z" clip-rule="evenodd"/></symbol><symbol id="btn-smart-art" viewBox="0 0 28 28"><path fill-rule="evenodd" d="M9.823 12.5 4.19 19H13v-3a1 1 0 0 1 1-1h6.427l1.833-2.5L17.493 6H4.19l5.633 6.5ZM2 5h16l5.5 7.5-1.833 2.5H24a1 1 0 0 1 1 1v7a1 1 0 0 1-1 1H14a1 1 0 0 1-1-1v-3H2l6.5-7.5L2 5Zm12 11v4h1v-1h1v1h1v-1h6v-1h-6v-1h6l1-1H14Zm9 2v-1l1-1v7H14v-3h9v-2Zm-7-1h-1v1h1v-1Zm0 4h-1v1h1v-1Zm7 0v1h-6v-1h6Z" clip-rule="evenodd"/></symbol><symbol id="btn-sparkline" viewBox="0 0 28 28"><path fill-rule="evenodd" d="M5 5h1v3h16V5h1v3h3v1h-3v10h3v1h-3v3h-1v-3H6v3H5v-3H2v-1h3V9H2V8h3V5Zm1 14h16V9H6v10Zm7.459-8.249.395.395 3.646 3.647 2.646-2.647.708.708-3 3-.354.353-.354-.353-3.605-3.605-3.65 4.563-.35.437-.395-.395-2-2 .708-.708 1.605 1.605 3.65-4.563.35-.437Z" clip-rule="evenodd"/></symbol><symbol id="btn-subtotals" viewBox="0 0 28 28"><path fill-rule="evenodd" d="M11 2H3v1h8V2Zm5 2H8v1h8V4Zm-5 12H3v1h8v-1Zm7-12h6v1h-6V4ZM8 6h8v1H8V6Zm16 0h-6v1h6V6ZM8 8h8v1H8V8Zm16 0h-6v1h6V8ZM8 10h8v1H8v-1Zm16 0h-6v1h6v-1ZM8 12h8v1H8v-1Zm16 0h-6v1h6v-1ZM8 18h8v1H8v-1Zm16 0h-6v1h6v-1ZM8 20h8v1H8v-1Zm16 0h-6v1h6v-1ZM8 22h8v1H8v-1Zm16 0h-6v1h6v-1ZM8 24h8v1H8v-1Zm16 0h-6v1h6v-1Z" clip-rule="evenodd" opacity=".4"/></symbol><symbol id="btn-symbol" viewBox="0 0 28 28"><path d="M24 14c0-5.5-4.5-10-10-10S4 8.5 4 14c0 3.3 1.6 6.2 4 8H4v2h8v-2h-.8c-3.3-1.2-5.7-4.3-5.7-8 0-4.7 3.8-8.5 8.5-8.5s8.5 3.8 8.5 8.5c0 3.7-2.4 6.8-5.7 8H16v2h8v-2h-4c2.4-1.7 4-4.7 4-8Z"/></symbol><symbol id="btn-textart" viewBox="0 0 28 28"><path fill-rule="evenodd" d="M10 18h1V5.994h4V5H6v1l4-.006V18Zm10.139-1.688.22 1.512H21V11.47c0-1.155-.26-2.004-.782-2.55-.516-.544-1.298-.816-2.347-.816-1.025 0-2.062.246-3.111.738l.325.756c.95-.493 1.866-.739 2.75-.739.821 0 1.416.232 1.785.695.37.463.554 1.148.554 2.056v.633l-1.82.053c-1.47.03-2.595.302-3.374.817-.774.516-1.16 1.24-1.16 2.171 0 .85.26 1.515.782 1.995.521.48 1.25.721 2.188.721.691 0 1.29-.126 1.793-.378.51-.258 1.005-.694 1.485-1.31h.07Zm-.888.027c-.586.58-1.389.87-2.408.87-.668 0-1.187-.164-1.556-.492-.363-.334-.545-.8-.545-1.398 0-.75.284-1.3.853-1.652.574-.357 1.532-.568 2.874-.633l1.67-.07v.94c0 1.037-.296 1.849-.888 2.435ZM7.424 24.265C8.186 23.045 10.207 21 14 21c3.793 0 5.814 2.046 6.576 3.265l.848-.53C20.519 22.288 18.207 20 14 20c-4.207 0-6.52 2.288-7.424 3.735l.848.53Z" clip-rule="evenodd"/></symbol><symbol id="btn-to-columns" viewBox="0 0 28 28"><path fill-rule="evenodd" d="M17 6a5.003 5.003 0 0 0-5.913-1.62A5 5 0 0 0 8.1 8h1.026a3.999 3.999 0 0 1 7.337-1H14v1h4V4h-1v2Zm5 6h-7v3h7v-3Zm-8 0v12h9V11h-9v1Zm8 7v-3h-7v3h7Zm-7 1v3h7v-3h-7Zm6-7h-5v1h5v-1ZM5 14h6v1H5v-1Zm0 2h6v1H5v-1Zm6 2H5v1h6v-1Zm-6 2h6v1H5v-1Zm11-3h5v1h-5v-1Zm5 4h-5v1h5v-1Z" clip-rule="evenodd"/></symbol><symbol id="btn-update" viewBox="0 0 28 28"><path fill-rule="evenodd" d="M13.507 23.095c-4.75 0-8.602-3.848-8.602-8.595 0-4.747 3.851-8.595 8.602-8.595A8.585 8.585 0 0 1 20.117 9H17v1h5V5h-1v3.654A9.492 9.492 0 0 0 13.507 5C8.257 5 4 9.253 4 14.5S8.256 24 13.507 24c5.082 0 9.233-3.986 9.493-9h-.907a8.6 8.6 0 0 1-8.586 8.095Z" clip-rule="evenodd"/></symbol><symbol id="btn-video" viewBox="0 0 28 28"><path fill-rule="evenodd" d="M3 7a1 1 0 0 1 1-1h20a1 1 0 0 1 1 1v14a1 1 0 0 1-1 1H4a1 1 0 0 1-1-1V7Zm3 0v2H4V7h2Zm0 5v-2H4v2h2Zm0 1v2H4v-2h2Zm0 5v-2H4v2h2Zm0 1v2H4v-2h2ZM24 9V7h-2v2h2Zm-2 4h2v2h-2v-2Zm2-1v-2h-2v2h2Zm0 4v2h-2v-2h2Zm0 5v-2h-2v2h2ZM21 7v14H7V7h14Zm-10 3v8l7-4-7-4Z" clip-rule="evenodd"/></symbol><symbol id="btn-watch-window" viewBox="0 0 28 28"><path fill-rule="evenodd" d="M25 3H3v19h5v-1H4V8h20v8h1V3zm-1 4H4V4h20v3z" clip-rule="evenodd"/><path fill-rule="evenodd" d="M13.854 15.854a.5.5 0 0 0-.708-.708L9.44 18.854a1.5 1.5 0 0 0-.44 1.06v3.244c0 .333.11.655.314.918l1.038 1.342a1.5 1.5 0 0 0 1.186.582h2.221a1.5 1.5 0 0 0 1.296-.744l.74-1.27A1.5 1.5 0 0 0 16 23.23V22h2v1.23c0 .265.07.526.204.755l.741 1.27a1.5 1.5 0 0 0 1.296.745h2.22a1.5 1.5 0 0 0 1.187-.582l1.038-1.342a1.5 1.5 0 0 0 .314-.918v-3.244a1.5 1.5 0 0 0-.44-1.06l-3.706-3.708a.5.5 0 0 0-.708.708l3.708 3.707a.5.5 0 0 1 .146.353V20h-4.5a1.5 1.5 0 0 0-1.415 1h-2.17a1.5 1.5 0 0 0-1.415-1H10v-.086a.5.5 0 0 1 .146-.353l3.708-3.707zM10 23.158V21h4.5a.5.5 0 0 1 .5.5v1.73a.5.5 0 0 1-.068.252l-.741 1.27a.5.5 0 0 1-.432.248h-2.22a.5.5 0 0 1-.396-.194l-1.038-1.342a.5.5 0 0 1-.105-.306zM19.5 21H24v2.158a.5.5 0 0 1-.105.306l-1.038 1.342a.5.5 0 0 1-.395.194H20.24a.5.5 0 0 1-.432-.248l-.74-1.27A.5.5 0 0 1 19 23.23V21.5a.5.5 0 0 1 .5-.5z" clip-rule="evenodd"/></symbol></svg>