<svg xmlns="http://www.w3.org/2000/svg" width="28" height="28" fill="none"><path fill="#0E8A26" d="M14 2c-.4 0-.801.23-.951.691l-.027.089-.691 2.27.015-.05h1.045l.588-1.93L14 3l.021.07L14.61 5h1.045l-.676-2.22-.027-.089A.982.982 0 0 0 14 2Zm-3.5 8.998c.152-.484.306-.982.466-1.498.333-1.078.69-2.24 1.088-3.544L12.041 6h1.045c-.306 1-.612 2-.92 3H11.12a1428.182 1428.182 0 0 1-.31 1h1.047c-.207.666-.413 1.333-.621 1.999l-8.234-.001L4.382 13H2.68l1.377 1h1.704c1.308.949 2.617 1.896 3.926 2.844l-.05.156h-1.44l.313.227a3884 3884 0 0 1-6.096-4.42c-.784-.57-.38-1.81.588-1.81L10.5 11ZM9.309 18H8.257l.253-.773c-.671 2.056-1.445 4.392-2.466 7.461-.3.921.755 1.688 1.54 1.118 0 0 2.445-1.752 6.416-4.614a2768.6 2768.6 0 0 0 6.417 4.614c.784.57 1.838-.197 1.539-1.118-.592-1.78-1.1-3.313-1.555-4.688H19.35c.55 1.666 1.102 3.332 1.656 4.997L21 24.993A3147.93 3147.93 0 0 1 14.057 20h-.114a3094.832 3094.832 0 0 1-6.942 4.993l-.006.004c.554-1.665 1.107-3.33 1.656-4.997H7.6l.33-1h1.05l.329-1Zm9.382 0 .329 1h1.051a864.06 864.06 0 0 1-.328-1H18.69Zm-.327-1h1.439c1.31-.948 2.695-1.952 4.14-3h-1.704c-1.308.949-2.617 1.896-3.926 2.844l.051.156Zm5.254-4h1.702l.266-.193c.784-.57.38-1.81-.588-1.81L17.5 11c-.102-.327-.206-.66-.31-.999h-1.047c.207.666.413 1.333.621 1.999l8.234-.001L23.618 13Zm-7.783-4h1.045c-.285-.924-.588-1.912-.92-3h-1.046c.306 1 .612 2 .92 3Z"/><g fill="#0E8A26" opacity=".5"><path d="m14 3-.021.07L13.39 5h1.218l-.588-1.93L14 3Zm.914 3h-1.828c-.306 1-.612 2-.92 3h3.668c-.308-1-.614-2-.92-3Zm1.229 4h-4.286c-.207.666-.413 1.333-.621 1.998H3.002L4.382 13h19.236l1.38-1.002h-8.234L16.144 10Zm6.097 4H5.76l3.927 2.844-.05.156h8.727l-.051-.156c1.31-.948 2.618-1.895 3.926-2.844Zm-3.549 4H9.31l-.329 1h10.04l-.329-1Zm.658 2h-5.292c2.312 1.667 4.625 3.332 6.942 4.993l.006.004c-.554-1.665-1.107-3.33-1.656-4.997Zm-5.406 0H8.651c-.55 1.666-1.102 3.332-1.656 4.997l.006-.004c2.317-1.66 4.63-3.326 6.942-4.993Z"/></g><g fill="#0E8A26" opacity=".03"><path d="m12.04 6 .306-1h3.307l.306 1H12.04Zm-1.23 4 .31-1h5.76l.309 1H10.81Zm-6.753 4L2.68 13h22.64c-.465.338-.925.67-1.378 1H4.057Zm4.2 4 .253-.773L8.197 17h11.605l-.313.227.253.773H8.257Zm-.659 2 .33-1h12.143l.33 1H7.598Z"/></g></svg>