<svg xmlns="http://www.w3.org/2000/svg" width="28" height="28" fill="none"><path fill="#F23D3D" fill-rule="evenodd" d="M15.939 2.248a.827.827 0 0 1 .978-.153c.3.153.512.48.448.882l-.014.077a995.96 995.96 0 0 0-1.26 7.129l5.623 2.873c.726.371.553 1.455-.253 1.582-2.221.348-4.326.677-6.264.977-.285 1.799-.6 3.847-1.011 6.54-.129.805-1.213.975-1.582.248 0 0-1.163-2.251-3.043-5.92-4.074.625-6.58 1.001-6.58 1.001-.805.127-1.302-.852-.725-1.428 1.942-1.91 3.417-3.365 4.709-4.65-.892-1.746-1.858-3.644-2.877-5.65-.37-.727.408-1.502 1.134-1.13L10.844 7.5c1.389-1.417 2.93-3.01 5.04-5.195l.055-.057ZM10.1 15.4l.3.6c1.4 2.7 2.4 4.7 2.8 5.5.4-2.5.7-4.4.9-6.1l.1-.7.7-.1c1.8-.3 3.7-.6 5.8-.9l-5.8-3 .1-.7c.19-1.197.418-2.433.686-3.883.158-.853.329-1.78.514-2.817-2 2-3.4 3.5-4.7 4.9l-.5.5-5.8-3C6.1 7.6 7 9.3 7.9 11l.3.6-.5.5c-1.2 1.2-2.6 2.6-4.4 4.3.39-.043 1.021-.143 1.856-.274 1.096-.172 2.541-.399 4.244-.626l.7-.1Z" clip-rule="evenodd"/><path fill="#F23D3D" d="M18.152 18.359c1.112 1.079 1.85 1.986 2.362 3.11.51 1.12.811 2.494.985 4.53h1.008c.325-1.996.667-3.36 1.158-4.364.485-.992 1.123-1.646 2.086-2.202l-.5-.866c-1.123.648-1.906 1.445-2.485 2.629a10.486 10.486 0 0 0-.679 1.88 10.31 10.31 0 0 0-.663-2.022c-.585-1.285-1.421-2.293-2.575-3.413l-.697.718Z"/><path fill="#F23D3D" d="m10.4 16-.3-.6-.7.1c-1.702.227-3.147.454-4.243.626-.835.131-1.467.23-1.856.274 1.8-1.7 3.2-3.1 4.4-4.3l.5-.5-.3-.6C7 9.3 6.1 7.6 5.2 5.7l5.8 3 .5-.5c1.3-1.4 2.7-2.9 4.7-4.9a456.944 456.944 0 0 1-.514 2.817C15.418 7.567 15.19 8.803 15 10l-.1.7 5.8 3c-2.1.3-4 .6-5.8.9l-.7.1-.1.7c-.2 1.7-.5 3.6-.9 6.1-.4-.8-1.4-2.8-2.8-5.5Z" opacity=".5"/></svg>