<svg xmlns="http://www.w3.org/2000/svg" width="28" height="28" fill="none"><path fill="#F23D3D" d="m11.693 1.968 3.182 3.182a.5.5 0 0 1 0 .707l-3.182 3.182a.5.5 0 0 1-.707-.707l2.329-2.329v-.008h-3.307a3 3 0 0 0-3 3v4h-1v-4a4 4 0 0 1 4-4h3.298l-2.32-2.32a.5.5 0 0 1 .707-.707Z"/><path fill="#F23D3D" fill-rule="evenodd" d="M10 9a.656.656 0 0 1 .634.46l.018.06c.583 1.915 1.23 3.71 1.9 5.479h4.78c.646 0 .914.825.392 1.205-1.293.94-2.525 1.833-3.674 2.664a115.52 115.52 0 0 1 1.915 5.256c.2.614-.503 1.125-1.026.746L10 21.334 5.06 24.87c-.522.38-1.225-.132-1.025-.746.612-1.84 1.262-3.566 1.915-5.256-1.149-.831-2.381-1.725-3.674-2.664-.522-.38-.254-1.206.392-1.206h4.78c.67-1.768 1.317-3.563 1.9-5.478l.018-.06c.1-.306.367-.46.634-.46Zm-6.3 7 3.5 2.5c-.407.949-.768 1.916-1.13 2.883A93.448 93.448 0 0 1 5.3 23.4L10 20l4.7 3.4c-.553-1.658-1.212-3.294-1.9-4.9l3.5-2.5h-4.4c-.254-.762-.555-1.475-.855-2.183-.385-.912-.767-1.818-1.045-2.817-.563 1.688-1.9 5-1.9 5H3.7Z" clip-rule="evenodd"/><path fill="#F23D3D" d="M7.2 18.5 3.7 16h4.4s1.337-3.312 1.9-5c.493 1.777 1.318 3.257 1.9 5h4.4l-3.5 2.5c.688 1.606 1.347 3.242 1.9 4.9L10 20l-4.7 3.4c.65-1.626 1.21-3.29 1.9-4.9Z" opacity=".5"/><path fill="#F23D3D" fill-rule="evenodd" d="M23.264 4.216a.49.49 0 0 1 .588.014c.159.121.249.334.168.563a457.497 457.497 0 0 0-1.32 3.59l3.098 2.362a.5.5 0 0 1-.315.898 182.463 182.463 0 0 1-3.907-.125c-.488 1.376-.97 2.756-1.445 4.14a.5.5 0 0 1-.95-.022c-.527-1.715-.883-2.878-1.155-3.77-.931-.026-2.148-.063-3.941-.117a.5.5 0 0 1-.273-.911c1.21-.824 2.413-1.653 3.612-2.487a181.63 181.63 0 0 1-1.153-3.736.5.5 0 0 1 .783-.54l3.096 2.362c1.04-.735 2.078-1.475 3.114-2.221ZM15.6 10.8l3.1.1.9 3 .9-2.7.2-.7h.7c.27 0 .58.02.92.042.419.028.884.058 1.38.058l-2.5-1.9L22.5 6c-.6.4-1.2.8-1.8 1.3l-.6.4-2.5-1.9c.252.567.424 1.094.567 1.532.085.257.159.483.233.668l.2.7-.6.5c-.4.25-.8.525-1.2.8-.4.275-.8.55-1.2.8Z" clip-rule="evenodd"/><path fill="#F23D3D" d="m18.7 10.9-3.1-.1c.4-.25.8-.525 1.2-.8.4-.275.8-.55 1.2-.8l.6-.5-.2-.7a11.766 11.766 0 0 1-.232-.668A15.533 15.533 0 0 0 17.6 5.8l2.5 1.9.6-.4c.6-.5 1.2-.9 1.8-1.3l-1.3 2.7 2.5 1.9c-.496 0-.961-.03-1.38-.058a14.893 14.893 0 0 0-.92-.042h-.7l-.2.7-.9 2.7-.9-3Z" opacity=".5"/></svg>