<svg xmlns="http://www.w3.org/2000/svg" width="28" height="28" fill="none"><path fill="#FF8E00" fill-rule="evenodd" d="M13.049 2.691c.15-.46.55-.691.951-.691.4 0 .801.23.951.691l.027.089c1.05 3.451 1.82 5.969 2.522 8.218h7.498c.969 0 1.372 1.24.588 1.809-2.161 1.57-4.209 3.054-6.096 4.42.671 2.056 1.445 4.392 2.466 7.461.3.921-.755 1.688-1.54 1.118 0 0-2.445-1.752-6.416-4.614-3.97 2.862-6.417 4.614-6.417 4.614-.784.57-1.838-.197-1.539-1.118 1.02-3.069 1.795-5.405 2.466-7.461a3884 3884 0 0 1-6.096-4.42c-.784-.57-.38-1.81.588-1.81L10.5 11c.702-2.25 1.472-4.768 2.522-8.22l.027-.088Zm3.715 9.308A1277.36 1277.36 0 0 1 14 3c-.913 3.002-1.83 6.002-2.764 8.998l-8.234-.001c2.227 1.618 4.455 3.232 6.685 4.846-.888 2.72-1.789 5.437-2.692 8.153l.006-.004c2.336-1.674 4.668-3.353 6.999-5.034 2.331 1.68 4.663 3.36 6.999 5.034l.006.004a1576.22 1576.22 0 0 1-2.692-8.153 4176.96 4176.96 0 0 0 6.685-4.846h-8.234Z" clip-rule="evenodd"/><path fill="#FF8E00" d="M14 3c.913 3.002 1.83 6.003 2.764 8.998h8.234a4176.96 4176.96 0 0 1-6.685 4.846c.888 2.72 1.789 5.437 2.692 8.153l-.006-.005A3199.883 3199.883 0 0 1 14 19.96a3113.59 3113.59 0 0 1-7 5.034l-.005.004c.903-2.716 1.804-5.433 2.692-8.153-2.23-1.614-4.458-3.229-6.685-4.847l8.234.001C12.17 9.003 13.087 6.002 14 3Z" opacity=".03"/><path fill="#000" fill-opacity=".8" fill-rule="evenodd" d="m17 17-2.5-7h-1L11 17h1l.714-2h2.572L16 17h1Zm-2.071-3L14 11.4l-.929 2.6h1.858Z" clip-rule="evenodd"/><path fill="#F23D3D" d="M11 18h6v2h-6z"/><path fill="#000" fill-opacity=".8" d="M11 18h3v2h-3z" opacity=".5"/></svg>