<svg xmlns="http://www.w3.org/2000/svg" width="28" height="28" fill="none"><path fill="#FF8E00" fill-rule="evenodd" d="M17.366 3.46c.1-.306.367-.46.634-.46s.534.154.634.46a780.851 780.851 0 0 0 1.7 5.54h4.998c.646 0 .914.826.392 1.205-1.44 1.047-2.806 2.037-4.064 2.947.448 1.37.963 2.928 1.644 4.974.2.615-.504 1.125-1.026.746 0 0-1.63-1.168-4.278-3.077-2.647 1.909-4.278 3.077-4.278 3.077-.522.38-1.225-.131-1.026-.746.68-2.046 1.197-3.603 1.644-4.974-1.258-.91-2.623-1.9-4.064-2.947-.522-.38-.254-1.206.392-1.206L15.667 9c.575-1.843 1.137-3.69 1.699-5.538ZM16.4 10h-4.7c1.1.8 2.2 1.6 3.2 2.3l.6.4-.2.7c-.363.998-.726 2.161-1.164 3.564L14 17.4c.407-.29.982-.716 1.688-1.238.508-.376 1.084-.801 1.712-1.262l.6-.4.6.4c.628.46 1.203.886 1.712 1.262.705.521 1.281.947 1.688 1.238l-.136-.436c-.438-1.403-.801-2.566-1.164-3.564l-.2-.7.6-.4c1-.7 2.1-1.5 3.2-2.3h-4.7l-.2-.7c-.25-.75-.475-1.5-.7-2.25-.225-.75-.45-1.5-.7-2.25-.25.75-.475 1.5-.7 2.25-.225.75-.45 1.5-.7 2.25l-.2.7Z" clip-rule="evenodd"/><path fill="#FF8E00" d="M6.5 18.8 4 17h3.1l.9-2.8.88 2.8h1.999l-.279.9-1.2.9 1.1 3.4L8 20.4l-2.6 1.8 1.1-3.4Z" opacity=".5"/><path fill="#FF8E00" fill-rule="evenodd" d="M9.595 16h2.75l-.871 2.59-.862.626 1.362 4.127a.5.5 0 0 1-.77.56L8 21.597l-3.205 2.304a.5.5 0 0 1-.769-.559l1.362-4.127-3.18-2.312A.5.5 0 0 1 2.5 16h3.904l1.12-3.655A.49.49 0 0 1 8 12c.2 0 .4.115.476.345L9.595 16ZM4 17l2.5 1.8-1.1 3.4L8 20.4l2.5 1.8-1.1-3.4 1.2-.9.279-.9H8.88L8 14.2 7.1 17H4Z" clip-rule="evenodd"/><path fill="#FF8E00" d="M11.7 10h4.7l.2-.7c.25-.75.474-1.5.7-2.25.224-.75.45-1.5.7-2.25.25.75.474 1.5.7 2.25.224.75.45 1.5.7 2.25l.2.7h4.7c-1.1.8-2.2 1.6-3.2 2.3l-.6.4.2.7c.362.998.725 2.161 1.163 3.564l.136.436c-.407-.29-.982-.716-1.688-1.238-.508-.376-1.084-.801-1.712-1.262l-.6-.4-.6.4c-.628.46-1.204.886-1.712 1.262-.705.522-1.281.947-1.688 1.238l.136-.436c.438-1.403.801-2.566 1.164-3.564l.2-.7-.6-.4c-1-.7-2.1-1.5-3.2-2.3Z" opacity=".5"/></svg>