<svg xmlns="http://www.w3.org/2000/svg" width="28" height="28" fill="none"><path fill="#000" fill-rule="evenodd" d="M7 22h17V5H7v17Zm9.364-10 1.293-1.293-2.121-2.121-4.95 4.95 4.95 4.95 2.12-2.122L16.294 15H21v-3h-4.636ZM20 14h-6.121l2.364 2.364-.707.707L12 13.535 15.536 10l.707.707L13.95 13H20v1Z" clip-rule="evenodd" opacity=".4"/><path fill="#000" fill-rule="evenodd" d="M24 5H7v17h17V5ZM4 5h2v17H4V5Zm0-1a1 1 0 0 0-1 1v17a1 1 0 0 0 1 1h20a1 1 0 0 0 1-1V5a1 1 0 0 0-1-1H4Zm12.243 6.707L15.536 10l-2.829 2.828-.707.708.707.707 2.829 2.828.707-.707L13.879 14H20v-1h-6.05l2.293-2.293Z" clip-rule="evenodd"/></svg>