<svg xmlns="http://www.w3.org/2000/svg" width="28" height="28" fill="none"><path fill="#000" fill-rule="evenodd" d="M14 2c-.4 0-.801.23-.951.691l-.027.089c-1.05 3.451-1.82 5.969-2.522 8.218H3.002c-.969 0-1.372 1.24-.588 1.809a3884 3884 0 0 0 6.096 4.42c-.671 2.056-1.445 4.392-2.466 7.461-.3.921.755 1.688 1.54 1.118 0 0 2.445-1.752 6.416-4.614v-1.233l-.585.422a3286.442 3286.442 0 0 1-5.97 4.294L7 24.993l-.006.004c1.02-3.066 1.794-5.402 2.466-7.46l.226-.693-.59-.428a3834.07 3834.07 0 0 1-6.095-4.418h8.234l.219-.701c.703-2.254 1.474-4.774 2.524-8.226L14 3l.021.07c1.05 3.452 1.82 5.972 2.524 8.226l.22.702 8.233-.001A3946.744 3946.744 0 0 1 19.48 16h1.705c1.4-1.014 2.872-2.082 4.402-3.193.784-.57.38-1.81-.588-1.81L17.5 11c-.702-2.25-1.472-4.768-2.522-8.22l-.027-.088A.982.982 0 0 0 14 2Z" clip-rule="evenodd"/><path fill="#000" fill-rule="evenodd" d="M20 17h-1v4h-4v1h4v4h1v-4h4v-1h-4v-4Z" clip-rule="evenodd"/></svg>