<svg xmlns="http://www.w3.org/2000/svg" width="20" height="20" fill="none"><path fill="#000" fill-rule="evenodd" d="m9.078 8.33.778.779 2.124-4.962-.756-.756L6.3 5.554l.759.759L8.157 5.8l1.416 1.417-.495 1.114Zm1.689-3.743L9.94 6.39l-.966-.967 1.793-.836Zm4.73 3.076L14.08 6.247 10.537 9.79l1.206 1.206c.46.453.755.732.887.839.211.17.426.273.645.312.223.038.447.019.672-.058.23-.078.424-.197.585-.358.205-.205.325-.44.36-.708.036-.268-.023-.54-.176-.82.222.084.447.101.674.051a1.16 1.16 0 0 0 .592-.321c.153-.153.255-.327.305-.522.051-.197.06-.387.024-.57a1.272 1.272 0 0 0-.225-.515 5.559 5.559 0 0 0-.59-.663Zm-2.11.708.819-.819.41.411c.338.337.537.545.6.624.105.133.152.265.143.394a.54.54 0 0 1-.174.357.532.532 0 0 1-.385.172.666.666 0 0 1-.413-.162 8.884 8.884 0 0 1-.532-.508l-.468-.469ZM11.85 9.91l.947-.948.577.578c.326.325.52.553.583.684a.618.618 0 0 1 .063.386.654.654 0 0 1-.194.349.618.618 0 0 1-.403.2.623.623 0 0 1-.399-.118c-.084-.055-.254-.211-.512-.47l-.662-.661ZM9 14.999h1.293L4.146 8.854l.708-.707L11 14.293V13h1v3H9v-1Z" clip-rule="evenodd"/></svg>