<svg xmlns="http://www.w3.org/2000/svg" width="20" height="20" fill="none"><path fill="#000" fill-rule="evenodd" d="M6.927 10.01h1.1L6.022 5h-1.07L3 10.01h1.073l.414-1.137H6.49l.437 1.138ZM5.475 6.17l.69 1.86H4.798l.677-1.86ZM10.995 5H8.99v5.01h1.706c.645-.004 1.052-.015 1.22-.033.269-.03.495-.109.677-.236.184-.13.33-.302.434-.516.107-.217.16-.439.16-.667 0-.29-.082-.541-.245-.755-.165-.214-.4-.366-.705-.455.217-.098.388-.245.513-.44a1.16 1.16 0 0 0 .192-.647c0-.216-.052-.411-.154-.584a1.274 1.274 0 0 0-.387-.42 1.272 1.272 0 0 0-.522-.206A5.562 5.562 0 0 0 10.994 5Zm-.992 1.993V5.834h.581c.476 0 .764.006.865.017.168.02.295.08.38.178.086.096.13.22.13.376 0 .162-.051.293-.151.393a.666.666 0 0 1-.407.178c-.096.011-.34.017-.735.017h-.663Zm0 2.173v-1.34h.817c.46 0 .759.025.895.072a.618.618 0 0 1 .318.23c.073.104.11.232.11.382 0 .178-.048.32-.144.428a.623.623 0 0 1-.366.198c-.098.02-.329.03-.693.03h-.937ZM15 13a2 2 0 1 0 0-4V8a3 3 0 1 1 0 6v-1Zm0 1h3-6.293l1.147 1.146-.707.708-2-2-.354-.354.354-.354 2-2 .707.708L11.707 13H15v1Zm-1-6h1v1h-1V8Z" clip-rule="evenodd"/></svg>