<svg xmlns="http://www.w3.org/2000/svg" width="20" height="20" fill="none"><path fill="#000" fill-rule="evenodd" d="M8.653 4.836 7.236 6.252l3.544 3.543 1.206-1.206c.452-.46.732-.755.838-.887.17-.211.273-.426.312-.645.039-.223.02-.447-.058-.672a1.487 1.487 0 0 0-.358-.585 1.207 1.207 0 0 0-.708-.36c-.267-.036-.54.023-.82.176.085-.222.101-.447.051-.674a1.16 1.16 0 0 0-.32-.592 1.125 1.125 0 0 0-.523-.305 1.273 1.273 0 0 0-.57-.024 1.272 1.272 0 0 0-.515.225 5.56 5.56 0 0 0-.662.59Zm.708 2.11-.82-.82.411-.41c.337-.337.545-.537.624-.6.134-.105.265-.152.394-.143a.539.539 0 0 1 .357.174.532.532 0 0 1 .172.385.666.666 0 0 1-.162.413c-.06.076-.229.253-.507.532l-.47.469Zm1.537 1.537-.948-.948.578-.577c.326-.326.554-.52.684-.583a.618.618 0 0 1 .387-.063.653.653 0 0 1 .348.194c.126.125.192.26.2.403a.623.623 0 0 1-.118.4c-.055.083-.211.254-.469.511l-.662.663ZM9.32 11.255l.778-.779-4.962-2.124-.756.756 2.163 4.924.759-.76-.512-1.097 1.416-1.416 1.114.496Zm-3.744-1.69 1.803.827-.967.966-.836-1.793ZM15 9h-2v1h1.293l-6.147 6.147.707.707L15 10.707V12h1V9h-1Z" clip-rule="evenodd"/></svg>