<svg xmlns="http://www.w3.org/2000/svg" width="20" height="20" fill="none"><path fill="#000" fill-rule="evenodd" d="m10.5 1.793.354.354 2 2-.707.707L11 3.707V6h-1V3.707L8.854 4.854l-.707-.707 2-2 .353-.354Zm5.646 7.06L17.293 10H15v1h2.293l-1.146 1.146.707.708 2-2 .353-.354-.353-.354-2-2-.707.708Zm-8 8 2 2 .354.354.354-.353 2-2-.707-.707L11 17.293V15h-1v2.293l-1.146-1.146-.707.707Zm-3.292-8L3.707 10H6v1H3.707l1.147 1.146-.707.708-2-2-.354-.354.354-.354 2-2 .707.708ZM8 8h2v2H8V8Zm0 3v2h2v-2H8Zm3 0v2h2v-2h-2Zm2-1V8h-2v2h2ZM7 7h7v7H7V7Z" clip-rule="evenodd" opacity=".8"/></svg>