<svg xmlns="http://www.w3.org/2000/svg" width="20" height="20" fill="none"><path fill="#000" fill-rule="evenodd" d="m5.875 14.854-.707-.707-1.146 1.17V4H3v11.293l-1.125-1.146-.707.707 2.354 2.353 2.353-2.353Z" clip-rule="evenodd"/><path fill="#000" fill-rule="evenodd" d="m13.854 2.147-.708.707L14.293 4H3v1h11.293l-1.147 1.147.707.707L16.207 4.5l-2.354-2.353Z" clip-rule="evenodd"/><path fill="#000" fill-rule="evenodd" d="M10 8H9v1.293L3.843 4.136l-.707.707L8.293 10H7v1h3V8Zm4.5 7.207 2.122 2.121.707-.707-2.122-2.12 2.122-2.122-.707-.707-2.122 2.121-2.121-2.121-.707.707 2.121 2.121-2.121 2.121.707.707 2.121-2.12Z" clip-rule="evenodd"/></svg>