<svg xmlns="http://www.w3.org/2000/svg" width="20" height="20" fill="none"><g fill="#000" opacity=".75"><path d="M13 5h-1v3h-2v1h7V8h-4V5ZM9 9H8v3H6v1h2v3h1V9Z"/></g><g fill="#000" opacity=".5"><path d="M13 5h4v3h-4V5Zm-1 2h-1v1h1V7Zm-5 4h1v1H7v-1Zm-3 2h4v3H4v-3Zm8-4h1v3h4v1h-4v3h-1v-3H9v-1h3V9Z"/></g><path fill="#000" d="M11 5.707 8.354 8.354l-.708-.708L9.293 6H5.5a.5.5 0 0 0-.5.5v3.793l1.646-1.646.708.707L4.707 12h-.414L1.646 9.354l.708-.707L4 10.293V6.5A1.5 1.5 0 0 1 5.5 5h3.793L7.646 3.354l.708-.708L11 5.293v.414Z"/><path fill="#000" d="M3 16v-3h1v3h13V5h-5V4h5a1 1 0 0 1 1 1v11a1 1 0 0 1-1 1H4a1 1 0 0 1-1-1Z"/></svg>