<svg width="0" height="0" style="position:absolute"><symbol id="btn-audio" viewBox="0 0 28 28"><path fill-rule="evenodd" d="M10.325 17a1 1 0 0 1 .624.22L15 20.46V7.54l-4.05 3.24a1 1 0 0 1-.625.22H6v6h4.325Zm0 1H5.5a.5.5 0 0 1-.5-.5v-7a.5.5 0 0 1 .5-.5h4.825l4.863-3.89A.5.5 0 0 1 16 6.5v15a.5.5 0 0 1-.812.39L10.325 18Zm7.912-7.925a.5.5 0 0 1 .688.162A7.099 7.099 0 0 1 20 14c0 1.378-.417 2.68-1.073 3.76a.5.5 0 1 1-.854-.52c.57-.94.927-2.063.927-3.24a6.1 6.1 0 0 0-.925-3.237.5.5 0 0 1 .162-.688Zm1.633-3.911a.5.5 0 0 0-.74.672C20.932 8.818 22 11.293 22 14c0 2.686-1.088 5.188-2.871 7.165a.5.5 0 0 0 .742.67C21.798 19.698 23 16.964 23 14c0-2.982-1.18-5.691-3.13-7.836Z" clip-rule="evenodd"/></symbol><symbol id="btn-big-colorschemas" viewBox="0 0 28 28"><path fill-rule="evenodd" d="M23 5H5v18h18V5ZM4 4v20h20V4H4Z" clip-rule="evenodd"/><path d="M5 5h9v9H5z" opacity=".2"/><path d="M5 14h9v9H5z" opacity=".4"/><path d="M14 14h9v9h-9z" opacity=".6"/></symbol><symbol id="btn-big-contents" viewBox="0 0 28 28"><path d="M18 8H4v1h14V8Zm-3 3H4v1h11v-1ZM4 14h14v1H4v-1Zm14 6H4v1h14v-1Zm5 0h1v1h-1v-1Zm1-3h-1v1h1v-1Zm-1-3h1v1h-1v-1Zm1-3h-1v1h1v-1Zm-1-3h1v1h-1V8Zm-8 9H4v1h11v-1Z"/></symbol><symbol id="btn-big-ic-review" viewBox="0 0 28 28"><path d="M5 4h16v3h1V4a1 1 0 0 0-1-1H5a1 1 0 0 0-1 1v20a1 1 0 0 0 1 1h16a1 1 0 0 0 1-1v-6h-1v6H5V4Z"/><path d="M18 8H7v1h11V8Zm-3 3H7v1h8v-1Zm-8 3h5v1H7v-1Zm3 3H7v1h3v-1Z"/><path fill-rule="evenodd" d="M22.5 7.793 25.707 11 17 19.707l-.75-.75L15.207 20h-3.414l2.75-2.75-.75-.75L22.5 7.793ZM15.207 16.5 17 18.293 22.293 13 20.5 11.207 15.207 16.5Zm9.086-5.5L23 12.293 21.207 10.5 22.5 9.207 24.293 11Z" clip-rule="evenodd"/></symbol><symbol id="btn-big-menu-comments" viewBox="0 0 28 28"><path d="M8 9h12v1H8V9Zm0 3h12v1H8v-1Zm6 3H8v1h6v-1Z"/><path fill-rule="evenodd" d="m6.5 21 3 3 3-3H23a2 2 0 0 0 2-2V7a2 2 0 0 0-2-2H5a2 2 0 0 0-2 2v12a2 2 0 0 0 2 2h1.5Zm3 1.586L6.914 20H5a1 1 0 0 1-1-1V7a1 1 0 0 1 1-1h18a1 1 0 0 1 1 1v12a1 1 0 0 1-1 1H12.086L9.5 22.586Z" clip-rule="evenodd"/></symbol><symbol id="btn-big-menu-navigation" viewBox="0 0 28 28"><path d="M18 8H5v1h13V8Zm3 4H8v1h13v-1Zm-10 4h13v1H11v-1Zm7 4H5v1h13v-1Z"/></symbol><symbol id="btn-big-text" viewBox="0 0 28 28"><path fill-rule="evenodd" d="M3 7h1v14H3v3h3v-1h16v1h3v-3h-1V7h1V4h-3v1H6V4H3v3zm2 0h1V6h16v1h1v14h-1v1H6v-1H5V7zm10 12h-2v-8h-3V9h8v2h-3v8zM4 5h1v1H4V5zm1 17H4v1h1v-1zm18 0h1v1h-1v-1zm1-17h-1v1h1V5z" clip-rule="evenodd"/></symbol><symbol id="btn-big-text-vertical" viewBox="0 0 28 28"><path d="M9 15v-2h8v-3h2v8h-2v-3H9Z"/><path fill-rule="evenodd" d="M4 3h3v1h14V3h3v3h-1v16h1v3h-3v-1H7v1H4v-3h1V6H4V3Zm2 1v1H5V4h1Zm0 2v16h1v1h14v-1h1V6h-1V5H7v1H6Zm17-1V4h-1v1h1ZM6 24v-1H5v1h1Zm17-1v1h-1v-1h1Z" clip-rule="evenodd"/></symbol><symbol id="btn-blankpage" viewBox="0 0 28 28"><path fill-rule="evenodd" d="M21 24H7V4h9v4a1 1 0 0 0 1 1h4v15Zm-.414-16L17 4.414V8h3.586ZM7 25h14a1 1 0 0 0 1-1V8.414a1 1 0 0 0-.293-.707l-4.414-4.414A1 1 0 0 0 16.586 3H7a1 1 0 0 0-1 1v20a1 1 0 0 0 1 1Z" clip-rule="evenodd"/></symbol><symbol id="btn-bookmarks" viewBox="0 0 28 28"><path fill-rule="evenodd" d="M14.5 19.5 21 25V5a1 1 0 0 0-1-1H9a1 1 0 0 0-1 1v20l6.5-5.5ZM9 22.844l5.5-4.654 5.5 4.654V5H9v17.844Z" clip-rule="evenodd"/></symbol><symbol id="btn-borders-all" viewBox="0 0 28 28"><path fill-rule="evenodd" d="M22 7h-7v7h7V7Zm0 8h-7v7h7v-7Zm-8-1V7H7v7h7Zm-7 1v7h7v-7H7Zm0-9H6v17h17V6H7Z" clip-rule="evenodd"/></symbol><symbol id="btn-borders-inner-only" viewBox="0 0 28 28"><path fill-rule="evenodd" d="M22 7H7v15h15V7ZM6 6v17h17V6H6Z" clip-rule="evenodd" opacity=".4"/><path fill-rule="evenodd" d="M15 6h-1v8H6v1h8v8h1v-8h8v-1h-8V6Z" clip-rule="evenodd"/></symbol><symbol id="btn-borders-none" viewBox="0 0 28 28"><path fill-rule="evenodd" d="M22 7h-7v7h7V7Zm0 8h-7v7h7v-7Zm-8-1V7H7v7h7Zm-7 1v7h7v-7H7Zm0-9H6v17h17V6H7Z" clip-rule="evenodd" opacity=".4"/></symbol><symbol id="btn-borders-outer-only" viewBox="0 0 28 28"><path fill-rule="evenodd" d="M22 7H7v15h15V7ZM6 6v17h17V6H6Z" clip-rule="evenodd"/><path fill-rule="evenodd" d="M15 7h-1v7H7v1h7v7h1v-7h7v-1h-7V7Z" clip-rule="evenodd" opacity=".4"/></symbol><symbol id="btn-borders-twin-all" viewBox="0 0 28 28"><path fill-rule="evenodd" d="M22 7H7v15h15V7ZM7 6H6v17h17V6H7Zm6 3H9v4h4V9ZM9 8H8v6h6V8H9Zm7 1h4v4h-4V9Zm-1-1h6v6h-6V8Zm-2 8H9v4h4v-4Zm-4-1H8v6h6v-6H9Zm7 1h4v4h-4v-4Zm-1-1h6v6h-6v-6Z" clip-rule="evenodd"/></symbol><symbol id="btn-borders-twin-none" viewBox="0 0 28 28"><path fill-rule="evenodd" d="M22 7H7v15h15V7ZM7 6H6v17h17V6H7Zm6 3H9v4h4V9ZM9 8H8v6h6V8H9Zm7 1h4v4h-4V9Zm-1-1h6v6h-6V8Zm-2 8H9v4h4v-4Zm-4-1H8v6h6v-6H9Zm7 1h4v4h-4v-4Zm-1-1h6v6h-6v-6Z" clip-rule="evenodd" opacity=".4"/></symbol><symbol id="btn-borders-twin-none-all" viewBox="0 0 28 28"><path fill-rule="evenodd" d="M22 7H7v15h15V7ZM6 6v17h17V6H6Z" clip-rule="evenodd" opacity=".4"/><path fill-rule="evenodd" d="M9 9h4v4H9V9ZM8 8h6v6H8V8Zm8 1h4v4h-4V9Zm-1-1h6v6h-6V8Zm-2 8H9v4h4v-4Zm-4-1H8v6h6v-6H9Zm7 1h4v4h-4v-4Zm-1-1h6v6h-6v-6Z" clip-rule="evenodd"/></symbol><symbol id="btn-borders-twin-none-inner" viewBox="0 0 28 28"><path fill-rule="evenodd" d="M22 7H7v15h15V7ZM7 6H6v17h17V6H7Zm6 3H9v4h4V9ZM9 8H8v6h6V8H9Zm7 1h4v4h-4V9Zm-1-1h6v6h-6V8Zm-2 8H9v4h4v-4Zm-4-1H8v6h6v-6H9Zm7 1h4v4h-4v-4Zm-1-1h6v6h-6v-6Z" clip-rule="evenodd" opacity=".4"/><path fill-rule="evenodd" d="M14 8.5V8h-1v5H8v1h6V8.5Zm2 0V8h-1v6h6v-1h-5V8.5ZM15 15h6v1h-5v5h-1v-6Zm-6.5 0H8v1h5v5h1v-6H8.5Z" clip-rule="evenodd"/></symbol><symbol id="btn-borders-twin-none-outer" viewBox="0 0 28 28"><path fill-rule="evenodd" d="M22 7H7v15h15V7ZM7 6H6v17h17V6H7Zm6 3H9v4h4V9ZM9 8H8v6h6V8H9Zm7 1h4v4h-4V9Zm-1-1h6v6h-6V8Zm-2 8H9v4h4v-4Zm-4-1H8v6h6v-6H9Zm7 1h4v4h-4v-4Zm-1-1h6v6h-6v-6Z" clip-rule="evenodd" opacity=".4"/><path fill-rule="evenodd" d="M15.5 8H15v1h5v5h1V8h-5.5Zm5.5 7.5V15h-1v5h-5v1h6v-5.5ZM9 15v5h5v1H8v-6h1Zm-.5-7H8v6h1V9h5V8H8.5Z" clip-rule="evenodd"/></symbol><symbol id="btn-borders-twin-outer-inner" viewBox="0 0 28 28"><path fill-rule="evenodd" d="M22 7H7v15h15V7ZM7 6H6v17h17V6H7Zm6 3H9v4h4V9ZM9 8H8v6h6V8H9Zm7 1h4v4h-4V9Zm-1-1h6v6h-6V8Zm-2 8H9v4h4v-4Zm-4-1H8v6h6v-6H9Zm7 1h4v4h-4v-4Zm-1-1h6v6h-6v-6Z" clip-rule="evenodd" opacity=".4"/><path fill-rule="evenodd" d="M7 7h15v15H7V7ZM6 6h17v17H6V6Zm8 2v6H8v-1h5V8h1Zm2 0v5h5v1h-6V8h1Zm-.5 7H15v6h1v-5h5v-1h-5.5ZM8 15h6v6h-1v-5H8v-1Z" clip-rule="evenodd"/></symbol><symbol id="btn-borders-twin-outer-none" viewBox="0 0 28 28"><path fill-rule="evenodd" d="M22 7H7v15h15V7ZM6 6v17h17V6H6Z" clip-rule="evenodd"/><path fill-rule="evenodd" d="M9 9h4v4H9V9ZM8 8h6v6H8V8Zm8 1h4v4h-4V9Zm-1-1h6v6h-6V8Zm-2 8H9v4h4v-4Zm-4-1H8v6h6v-6H9Zm7 1h4v4h-4v-4Zm-1-1h6v6h-6v-6Z" clip-rule="evenodd" opacity=".4"/></symbol><symbol id="btn-borders-twin-outer-outer" viewBox="0 0 28 28"><path fill-rule="evenodd" d="M9 9h4v4H9V9ZM8 8h6v6H8V8Zm8 1h4v4h-4V9Zm-1-1h6v6h-6V8Zm-2 8H9v4h4v-4Zm-4-1H8v6h6v-6H9Zm7 1h4v4h-4v-4Zm-1-1h6v6h-6v-6Z" clip-rule="evenodd" opacity=".4"/><path fill-rule="evenodd" d="M22 7H7v15h15V7ZM7 6H6v17h17V6H7Zm8 2h6v6h-1V9h-5V8Zm6 7.5V15h-1v5h-5v1h6v-5.5ZM9 15v5h5v1H8v-6h1Zm-.5-7H8v6h1V9h5V8H8.5Z" clip-rule="evenodd"/></symbol><symbol id="btn-caption" viewBox="0 0 28 28"><path fill-rule="evenodd" d="M6 24h16V4H6v20ZM6 3a1 1 0 0 0-1 1v20a1 1 0 0 0 1 1h16a1 1 0 0 0 1-1V4a1 1 0 0 0-1-1H6Zm3 17h7v1H9v-1Zm9 0h-1v1h1v-1ZM9 7h10v6.293l-2.5-2.5-4 4-1-1-2.5 2.5V7Zm0 10Zm.707 0H19v-2.293l-2.5-2.5-4 4-1-1L9.707 17ZM8 7a1 1 0 0 1 1-1h10a1 1 0 0 1 1 1v10a1 1 0 0 1-1 1H9a1 1 0 0 1-1-1V7Zm4 2.5a.5.5 0 1 1-1 0 .5.5 0 0 1 1 0Zm1 0a1.5 1.5 0 1 1-3 0 1.5 1.5 0 0 1 3 0Z" clip-rule="evenodd"/></symbol><symbol id="btn-checkbox" viewBox="0 0 28 28"><path fill-rule="evenodd" d="M5 5h18v18H5V5ZM4 4h20v20H4V4Zm8.354 15.354 9-9-.708-.708L12 18.293l-3.646-3.647-.708.708 4 4 .354.353.354-.353Z" clip-rule="evenodd"/></symbol><symbol id="btn-clear-style" viewBox="0 0 28 28"><path fill-rule="evenodd" d="M22.71 10.418c.595.594.595 1.57 0 2.164L20 15.292 13.707 9l2.754-2.754a1.464 1.464 0 0 1 2.078 0l4.172 4.172ZM13 9.708 19.293 16l-4.995 4.995H8.702l-2.413-2.413a1.537 1.537 0 0 1 0-2.164l6.71-6.71Zm1.702 12.297H8.298l-.145-.144-2.557-2.558a2.561 2.561 0 0 1 0-3.607L15.768 5.525a2.44 2.44 0 0 1 3.464 0l4.171 4.171c.99.99.99 2.617 0 3.607l-7.691 7.692H22v1.01h-7.298Z" clip-rule="evenodd"/></symbol><symbol id="btn-columns" viewBox="0 0 28 28"><path fill-rule="evenodd" d="M13 6H5v1h8V6Zm0 3H5v1h8V9Zm-8 3h8v1H5v-1Zm8 3H5v1h8v-1Zm-8 3h8v1H5v-1Zm8 3H5v1h8v-1Zm2-15h8v1h-8V6Zm8 3h-8v1h8V9Zm-8 3h8v1h-8v-1Zm8 3h-8v1h8v-1Zm-8 3h8v1h-8v-1Zm8 3h-8v1h8v-1Z" clip-rule="evenodd"/></symbol><symbol id="btn-combine" viewBox="0 0 28 28"><path d="M18 3h6a1 1 0 0 1 1 1v9a1 1 0 0 1-1 1h-6a1 1 0 0 1-1-1v-1h1v1h6V4h-6v3h-1V4a1 1 0 0 1 1-1Zm-5.113 2.998H4a1 1 0 0 0-1 1v15.006a1 1 0 0 0 1 1h8.875l-1.005-1H4.004V6.996h7.879l1.004-.998Z"/><path d="m13.707 9 2.146-2.146-.707-.708L11.793 9.5l3.353 3.354.707-.707L13.707 10H18V9h-4.293ZM24 26h-6a1 1 0 0 1-1-1v-3h1v3h6v-9h-6v1h-1v-1a1 1 0 0 1 1-1h6a1 1 0 0 1 1 1v9a1 1 0 0 1-1 1Z"/><path d="m15.854 16.858-2.147 2.146H18v1h-4.293l2.146 2.146-.707.708-3.353-3.354 3.353-3.354.707.708Z"/></symbol><symbol id="btn-combo-box" viewBox="0 0 28 28"><path fill-rule="evenodd" d="M5 6h12v6H5V6Zm0-1h20v8h-7v11H4V5h1Zm0 8h12v10H5V13Zm19-7v6h-6V6h6ZM14 16H8v1h6v-1Zm-6 3h6v1H8v-1ZM19.146 8.354l1.5 1.5.354.353.354-.353 1.5-1.5-.708-.708L21 8.793l-1.146-1.147-.708.708Z" clip-rule="evenodd"/></symbol><symbol id="btn-compare" viewBox="0 0 28 28"><path fill-rule="evenodd" d="M12 4h11v15h-5v1h5a1 1 0 0 0 1-1V4a1 1 0 0 0-1-1H12a1 1 0 0 0-1 1v4h1V4Zm9 12h-3v-1h3v1Zm0-3h-3v-1h3v1Zm0-3h-3V9h3v1Zm0-4h-7v1h7V6ZM5 10h11v15H5V10Zm-1 0a1 1 0 0 1 1-1h11a1 1 0 0 1 1 1v15a1 1 0 0 1-1 1H5a1 1 0 0 1-1-1V10Zm10 2H7v1h7v-1Zm-7 3h7v1H7v-1Zm7 3H7v1h7v-1Zm-7 3h7v1H7v-1Z" clip-rule="evenodd"/></symbol><symbol id="btn-complex-field" viewBox="0 0 28 28"><path d="M5 9h3v1H7v8h1v1H5v-1h1v-8H5V9zm14.354 3.646-.707.708 1.853 1.853 1.854-1.853-.707-.707-1.147 1.146-1.146-1.146z"/><path fill-rule="evenodd" d="M24 8v12H11V8h13zm-6 11V9h5v10h-5zm-1 0V9h-5v10h5z" clip-rule="evenodd"/><path fill-rule="evenodd" d="M2 6v16h24V6H2zm23 1H3v14h22V7z" clip-rule="evenodd"/></symbol><symbol id="btn-controls" viewBox="0 0 28 28"><path fill-rule="evenodd" d="M2 17a1 1 0 0 0 1 1h4v3a1 1 0 0 0 1 1h16a1 1 0 0 0 1-1V7a1 1 0 0 0-1-1H3a1 1 0 0 0-1 1v10ZM7 7H3v10h4V7Zm17 14H8V7h16v14ZM5 10a1 1 0 1 0 0-2 1 1 0 0 0 0 2Zm1 2a1 1 0 1 1-2 0 1 1 0 0 1 2 0Zm-1 4a1 1 0 1 0 0-2 1 1 0 0 0 0 2Z" clip-rule="evenodd"/><path fill-rule="evenodd" d="M22 9H10v4h12V9Zm0 6H10v4h12v-4Z" clip-rule="evenodd" opacity=".4"/></symbol><symbol id="btn-credit-card" viewBox="0 0 28 28"><path fill-rule="evenodd" d="M25 22V11H3v11h22Zm0-16v3H3V6h22ZM3 5H2v18h24V5H3Zm17 10h3v-2h-3v2Z" clip-rule="evenodd"/></symbol><symbol id="btn-cross-reference" viewBox="0 0 28 28"><path fill-rule="evenodd" d="M15 6H5v12h10V8h-5V7h5V6Zm1 12V8c.552 0 1.052.224 1.414.586.362.362.586.862.586 1.414v.293l-.646-.647-.707.708 1.853 1.853 1.854-1.853-.707-.708-.647.647V10a2.998 2.998 0 0 0-3-3V6a1 1 0 0 0-1-1H5a1 1 0 0 0-1 1v12a1 1 0 0 0 1 1h10a1 1 0 0 0 1-1Zm6-6h1v12H13v-4h-1v4a1 1 0 0 0 1 1h10a1 1 0 0 0 1-1V12a1 1 0 0 0-1-1h-1v1Zm-5 2h5v8l-2.5-2-2.5 2v-8Z" clip-rule="evenodd"/></symbol><symbol id="btn-dark-mode" viewBox="0 0 28 28"><path d="M8 7h12V6H8v1zm12 3H8V9h12v1z"/><path fill-rule="evenodd" d="M5 18.789V4a1 1 0 0 1 1-1h16a1 1 0 0 1 1 1v4.561l1.753-.996.494.87-22 12.5-.494-.87L5 18.79zM6 4h16v5.13L16.948 12H8v1h7.188l-3.52 2H8v1h1.908L6 18.22V4zm17 20V11.136L16.2 15H20v1h-5.56l-3.52 2H20v1H9.16L5 21.364V24a1 1 0 0 0 1 1h16a1 1 0 0 0 1-1zM8 22h12v-1H8v1z" clip-rule="evenodd"/></symbol><symbol id="btn-datetime" viewBox="0 0 28 28"><path fill-rule="evenodd" d="M6 4H5v1H4a1 1 0 0 0-1 1v11a1 1 0 0 0 1 1h7v-1H4V6h1v1h1V6h2v1h1V6h3v1h1V6h2v1h1V6h1v4h1V6a1 1 0 0 0-1-1h-1V4h-1v1h-2V4h-1v1H9V4H8v1H6V4ZM5 8h1v1H5V8Zm2 0h1v1H7V8Zm3 0H9v1h1V8Zm1 0h1v1h-1V8Zm3 0h-1v1h1V8Zm1 0h1v1h-1V8Zm-9 2H5v1h1v-1Zm1 0h1v1H7v-1Zm3 0H9v1h1v-1Zm1 0h1v1h-1v-1Zm3 0h-1v1h1v-1Zm1 0h1v1h-1v-1Zm-9 2H5v1h1v-1Zm1 0h1v1H7v-1Zm3 0H9v1h1v-1Zm1 0h1v1h-1v-1Zm-5 2H5v1h1v-1Zm1 0h1v1H7v-1Zm17 3.5a5.5 5.5 0 1 1-11 0 5.5 5.5 0 0 1 11 0Zm1 0a6.5 6.5 0 1 1-13 0 6.5 6.5 0 0 1 13 0Zm-6 .5h2v-1h-2v-4h-1v5h1Z" clip-rule="evenodd"/></symbol><symbol id="btn-day" viewBox="0 0 28 28"><path fill-rule="evenodd" d="M2 14h4.014a8.63 8.63 0 0 0 0 1H2v-1Zm6.853-5.854a8.734 8.734 0 0 0-.707.707L5.308 6.015l.707-.707 2.838 2.838ZM14.5 6a8.64 8.64 0 0 0-.5.014V2h1v4.014A8.63 8.63 0 0 0 14.5 6Zm6.354 2.853a8.549 8.549 0 0 0-.707-.707l2.838-2.838.707.707-2.838 2.838ZM23 14.5a8.63 8.63 0 0 0-.015-.5H27v1h-4.015a8.63 8.63 0 0 0 .015-.5Zm-2.854 6.354c.25-.222.486-.458.708-.707l2.838 2.838-.707.707-2.838-2.838ZM14.5 23c.168 0 .335-.005.5-.015V27h-1v-4.015c.165.01.332.015.5.015Zm-6.354-2.854c.222.25.458.486.707.708l-2.838 2.838-.707-.707 2.838-2.838ZM21 14.5a6.5 6.5 0 1 1-13 0 6.5 6.5 0 0 1 13 0Zm1 0a7.5 7.5 0 1 1-15 0 7.5 7.5 0 0 1 15 0Z" clip-rule="evenodd"/></symbol><symbol id="btn-dropcap" viewBox="0 0 28 28"><path fill-rule="evenodd" d="M14 6h9v1h-9V6Zm0 3h9v1h-9V9Zm9 3h-9v1h9v-1Zm0 3v1H5v-1h18Zm0 4v-1H5v1h18Zm0 2v1H5v-1h18Zm-12.532-8H12L9.207 6h-1.49L5 13h1.494l.576-1.59h2.789l.609 1.59ZM8.445 7.633l.962 2.598H7.503l.942-2.598Z" clip-rule="evenodd"/></symbol><symbol id="btn-dropdown" viewBox="0 0 28 28"><path fill-rule="evenodd" d="M23 6H5v6h18V6ZM4 6v18h20V5H4v1Zm1 7h18v10H5V13Zm15 3H8v1h12v-1ZM8 19h12v1H8v-1ZM18.146 8.354l1.5 1.5.354.353.354-.353 1.5-1.5-.708-.708L20 8.793l-1.146-1.147-.708.708Z" clip-rule="evenodd"/></symbol><symbol id="btn-editheader" viewBox="0 0 28 28"><path fill-rule="evenodd" d="M22 24V4H6v20h16ZM6 3h16c.5 0 1 .4 1 1v20c0 .6-.4 1-1 1H6c-.6 0-1-.4-1-1V4c0-.6.4-1 1-1Zm15 2H7v3h14V5Zm0 15H7v3h14v-3Z" clip-rule="evenodd"/></symbol><symbol id="btn-email" viewBox="0 0 28 28"><path d="M24 12.818c0 1.843-.382 3.323-1.145 4.438-.756 1.116-1.784 1.674-3.084 1.674-.747 0-1.355-.218-1.825-.655-.462-.436-.73-1.03-.806-1.783h-.05c-.36.809-.881 1.42-1.56 1.832-.68.404-1.473.606-2.38.606-1.242 0-2.202-.388-2.882-1.164-.68-.784-1.02-1.88-1.02-3.287 0-1.633.504-2.967 1.511-4.002 1.015-1.043 2.337-1.565 3.965-1.565 1.158 0 2.358.166 3.6.497l-.277 5.628v.364c0 .84.146 1.476.44 1.904.294.42.78.63 1.46.63.864 0 1.57-.468 2.115-1.406.553-.946.83-2.175.83-3.687 0-1.569-.331-2.943-.994-4.124-.663-1.18-1.611-2.086-2.845-2.717-1.225-.639-2.626-.958-4.203-.958-1.93 0-3.634.404-5.11 1.213a8.313 8.313 0 0 0-3.4 3.408c-.789 1.472-1.183 3.162-1.183 5.07 0 2.603.7 4.617 2.102 6.04 1.401 1.415 3.39 2.122 5.966 2.122.78 0 1.569-.073 2.366-.218.806-.146 1.78-.429 2.92-.849v1.2c-1.703.648-3.44.971-5.21.971-2.929 0-5.211-.809-6.848-2.426C4.818 19.95 4 17.694 4 14.806c0-2.07.453-3.93 1.36-5.579a9.623 9.623 0 0 1 3.863-3.856C10.893 4.457 12.777 4 14.875 4c1.804 0 3.398.36 4.783 1.08 1.393.72 2.462 1.75 3.21 3.092C23.621 9.506 24 11.055 24 12.818Zm-13.455 1.637c0 1.156.23 2.025.692 2.607.462.583 1.192.874 2.19.874 2.14 0 3.285-1.4 3.436-4.197l.202-3.53c-.663-.217-1.473-.327-2.43-.327-1.25 0-2.244.417-2.982 1.25-.739.824-1.108 1.932-1.108 3.323Z"/></symbol><symbol id="btn-eraser" viewBox="0 0 28 28"><path fill-rule="evenodd" d="M22.71 10.418c.595.594.595 1.57 0 2.164L20 15.293 13.707 9l2.754-2.754a1.464 1.464 0 0 1 2.078 0l4.172 4.172ZM13 9.708 19.293 16l-4.995 4.995H8.702l-2.413-2.413a1.537 1.537 0 0 1 0-2.164l6.71-6.71Zm1.702 12.297H8.298l-.145-.144-2.557-2.558a2.561 2.561 0 0 1 0-3.607l10.172-10.17a2.44 2.44 0 0 1 3.464 0l4.171 4.172c.99.99.99 2.616 0 3.607l-7.691 7.691H22v1.01h-7.298Z" clip-rule="evenodd"/></symbol><symbol id="btn-highlighter-tool" viewBox="0 0 28 28"><path fill-rule="evenodd" d="M12.785 4.04a.3.3 0 0 0-.41.11l-4.078 7.064a.5.5 0 0 0 .183.683l.556.322-2.095 5.22a.5.5 0 0 0 .214.62l.49.282-2.22 3.912a.5.5 0 0 0 .434.747h5.402a.5.5 0 0 0 .39-.186l1.19-1.473.49.284a.5.5 0 0 0 .644-.125l3.473-4.425.558.322a.5.5 0 0 0 .683-.183l4.078-7.064a.3.3 0 0 0-.11-.41l-.346-.2a.3.3 0 0 0-.41.11l-3.828 6.631-.176-.101a.204.204 0 0 0-.023-.016l-8.261-4.77a.202.202 0 0 0-.025-.012l-.175-.1L13.24 4.65a.3.3 0 0 0-.11-.41l-.346-.2Zm-2.874 8.684 6.663 3.846-3.118 3.972-5.426-3.133 1.881-4.685Z" clip-rule="evenodd"/></symbol><symbol id="btn-hyphenation" viewBox="0 0 28 28"><path fill-rule="evenodd" d="M16.227 4.645C15.763 4.215 15.053 4 14.096 4a5.44 5.44 0 0 0-1.48.198c-.468.132-.883.29-1.245.476l.374.923c.342-.166.703-.31 1.084-.432a3.91 3.91 0 0 1 1.201-.184c.542 0 .962.14 1.26.418.298.278.447.764.447 1.457v.491l-1.385.059c-1.299.039-2.265.273-2.9.703-.635.43-.952 1.045-.952 1.846 0 .532.107.971.322 1.318.22.347.518.605.894.776.38.171.815.257 1.303.257.464 0 .855-.05 1.172-.147.322-.102.606-.251.85-.447.088-.072.207-.146.335-.225.227-.142.48-.3.624-.487l.037 1.05h.886V6.702c0-.943-.232-1.629-.696-2.058ZM14.5 8.255l1.223-.05v.739c0 .79-.227 1.384-.681 1.78-.454.395-1.038.593-1.75.593-.46 0-.828-.11-1.107-.33-.278-.22-.417-.559-.417-1.018 0-.527.205-.935.615-1.223.41-.288 1.116-.452 2.117-.49ZM18 8v1.017L22 9V8h-4ZM8 14.5V12H7v11.031h1l.128-.948h.095c.22.341.532.632.938.871.41.235.932.352 1.567.352.679 0 1.267-.159 1.765-.476.498-.318.884-.786 1.157-1.407.274-.62.41-1.381.41-2.285 0-1.372-.3-2.405-.9-3.098-.596-.698-1.397-1.047-2.403-1.047-.644 0-1.174.124-1.589.373a2.726 2.726 0 0 0-.952.916L8 16.355c.004-.076.002-.192 0-.324-.004-.167-.008-.36 0-.531.013-.206.009-.437.004-.666A17.757 17.757 0 0 1 8 14.5Zm1.175 1.855c.342-.23.804-.344 1.385-.344.756 0 1.318.261 1.684.783.371.523.557 1.302.557 2.337 0 1.015-.188 1.797-.564 2.344-.371.546-.93.82-1.677.82-.89 0-1.502-.266-1.839-.798-.337-.538-.505-1.311-.505-2.322v-.066c0-.698.073-1.275.22-1.729.15-.459.398-.8.74-1.025Zm8.313 6.504c.552.298 1.19.447 1.912.447.454 0 .845-.037 1.172-.11.332-.073.632-.178.9-.315v-1.084c-.278.122-.588.23-.93.322a4.622 4.622 0 0 1-1.15.132c-.532 0-.976-.12-1.332-.359-.352-.244-.618-.596-.799-1.055-.176-.459-.263-1.013-.263-1.662 0-.679.09-1.25.27-1.714.186-.464.462-.816.828-1.055.371-.239.835-.359 1.392-.359.278 0 .576.04.893.118.323.078.606.166.85.263l.366-1.018a3.718 3.718 0 0 0-.923-.3 5.287 5.287 0 0 0-1.157-.125c-.727 0-1.377.15-1.948.447-.571.298-1.02.757-1.348 1.377-.322.615-.483 1.409-.483 2.38 0 .928.154 1.697.461 2.308.308.61.737 1.064 1.29 1.362Z" clip-rule="evenodd"/></symbol><symbol id="btn-ic-chat" viewBox="0 0 28 28"><path fill-rule="evenodd" d="M7 16h1v-1H6.667l-.267.2L4 17V7h16v3h1V7a1 1 0 0 0-1-1H4a1 1 0 0 0-1 1v12l1-.75L7 16Zm14 5H10a1 1 0 0 1-1-1v-8a1 1 0 0 1 1-1h14a1 1 0 0 1 1 1v12l-4-3Zm3 1-2.667-2H10v-8h14v10Zm-11-5a1 1 0 1 0 0-2 1 1 0 0 0 0 2Zm4 0a1 1 0 1 0 0-2 1 1 0 0 0 0 2Zm5-1a1 1 0 1 1-2 0 1 1 0 0 1 2 0Z" clip-rule="evenodd"/></symbol><symbol id="btn-ic-coedit" viewBox="0 0 28 28"><path fill-rule="evenodd" d="M10 3h12c.6 0 1 .4 1 1v5h-1V4H10V3Zm2 3h8v1h-8V6ZM8 16v-1h8v1H8Zm12-7h-7v1h7V9Zm-6 3h4v1h-4v-1Zm0 6H8v1h6v-1Zm-6 3h5v1H8v-1Zm14 3H6V9H5v15c0 .6.4 1 1 1h16c.6 0 1-.4 1-1v-6h-1v6Zm-5-1.9h-1.2l-.5-1.1 4.4-7.1 1.7 1.1-4.4 7.1Zm3.196-9.03 1.05-1.702 1.702 1.051-1.05 1.702-1.702-1.05Zm-7.696.13-.6 1h-1.2l-4-7.3 1.7-1 4.1 7.3ZM5.215 4.203l1.745-.977.978 1.745-1.745.977-.978-1.745Z" clip-rule="evenodd"/></symbol><symbol id="btn-ic-history" viewBox="0 0 28 28"><path fill-rule="evenodd" d="M14.493 23.095c4.75 0 8.602-3.848 8.602-8.595 0-4.747-3.851-8.595-8.601-8.595A8.586 8.586 0 0 0 7.883 9H11v1H6V5h1v3.654A9.492 9.492 0 0 1 14.493 5C19.743 5 24 9.253 24 14.5S19.744 24 14.493 24C9.412 24 5.26 20.014 5 15h.907a8.599 8.599 0 0 0 8.586 8.095ZM14 8h1v6h3v1h-4V8Z" clip-rule="evenodd"/></symbol><symbol id="btn-ic-protect" viewBox="0 0 28 28"><path fill-rule="evenodd" d="M21 12h-1V8.5C20 6 17.3 4 14 4S8 6 8 8.5V12H7c-1.1 0-2 .9-2 2v9c0 1.1.9 2 2 2h14c1.1 0 2-.9 2-2v-9c0-1.1-.9-2-2-2ZM9 8.5C9 6.6 11.3 5 14 5s5 1.6 5 3.5V12H9V8.5ZM22 23c0 .6-.4 1-1 1H7c-.6 0-1-.4-1-1v-9c0-.6.4-1 1-1h14c.6 0 1 .4 1 1v9Zm-9-4.268V22h2v-3.268A2 2 0 0 0 14 15a2 2 0 0 0-1 3.732Z" clip-rule="evenodd"/></symbol><symbol id="btn-ic-reviewview" viewBox="0 0 28 28"><path fill-rule="evenodd" d="M19.146 5.854 21.5 8.207l2.354-2.353-.708-.708L22 6.293V4.5A1.5 1.5 0 0 0 20.5 3H18v1h2.5a.5.5 0 0 1 .5.5v1.793l-1.146-1.147-.708.708ZM5 4h11v4h1V4a1 1 0 0 0-1-1H5a1 1 0 0 0-1 1v14a1 1 0 0 0 1 1h5v-1H5V4Zm2 2h7v1H7V6Zm16 4H12v14h11V10ZM12 9a1 1 0 0 0-1 1v14a1 1 0 0 0 1 1h11a1 1 0 0 0 1-1V10a1 1 0 0 0-1-1H12Zm9 12h-7v1h7v-1Zm-7-3h7v1h-7v-1Zm-4-9H7v1h3V9Zm-3 3h3v1H7v-1Zm3 3H7v1h3v-1Zm6.5 1.207 4.854-4.853-.707-.707-4.147 4.146-2.146-2.146-.707.707 2.853 2.853Zm-10 3.586 2.354 2.354-.708.707L7 21.707V23.5a.5.5 0 0 0 .5.5H10v1H7.5A1.5 1.5 0 0 1 6 23.5v-1.793l-1.146 1.147-.708-.707L6.5 19.793Z" clip-rule="evenodd"/></symbol><symbol id="btn-ic-sharing" viewBox="0 0 28 28"><path fill-rule="evenodd" d="M14 10c0-1.7-1.3-3-3-3s-3 1.3-3 3 1.3 3 3 3 3-1.3 3-3Zm-7 0c0-2.2 1.8-4 4-4s4 1.8 4 4-1.8 4-4 4-4-1.8-4-4Zm10 9c-.1-.4-.9-3-6-3s-5.9 2.6-6 3v2h12v-2ZM4 19s.6-4 7-4 7 4 7 4v3H4v-3Zm15-3a3 3 0 1 0 0-6 3 3 0 0 0 0 6Zm0 6v-5c4 0 5 3 5 3v2h-5Z" clip-rule="evenodd"/></symbol><symbol id="btn-ic-signature" viewBox="0 0 28 28"><path fill-rule="evenodd" d="M8.606 4.653a5.618 5.618 0 0 0-.639-.766c-.174-.166-.406-.347-.68-.381a.694.694 0 0 0-.475.11.789.789 0 0 0-.274.326c-.097.207-.127.462-.135.7-.03.96.301 2.707.76 4.643.106.447.22.907.34 1.375a23.493 23.493 0 0 1-1.252 2.58 39.845 39.845 0 0 1-2.437 3.802 41.822 41.822 0 0 1-1.18 1.56l-.016.02-.004.005-.001.001a.5.5 0 1 0 .775.633l.006-.008.018-.023.07-.086.256-.326c.219-.283.527-.69.888-1.192a40.84 40.84 0 0 0 2.498-3.9c.274-.492.54-1 .785-1.515.171.633.347 1.267.523 1.888a6.026 6.026 0 0 0-.412.676c-.688 1.308-1.086 3.155-.607 5.182.216.97.675 1.943 1.196 2.736.51.778 1.126 1.452 1.693 1.755.275.147.664.271 1.037.093.385-.184.537-.583.586-.961.1-.757-.126-2.018-.75-3.893a147.78 147.78 0 0 1-1.64-5.37c.11-.122.219-.227.325-.313.322-.261.53-.29.608-.276.053.02.125.076.209.254.09.192.15.432.22.714l.005.02c.034.136.072.284.117.42.043.131.104.286.198.42a.81.81 0 0 0 .502.345.904.904 0 0 0 .615-.114 1.01 1.01 0 0 0 .389-.381c.084-.138.147-.295.199-.445.074-.219.142-.484.207-.743l.067-.258c.093-.352.193-.688.328-.978.095-.205.2-.37.317-.496l.01.038c.023.088.043.176.066.274.01.047.021.096.034.148.035.15.077.32.135.474.055.146.144.338.304.483.19.173.445.249.72.184.233-.055.443-.203.63-.375a.5.5 0 0 0-.68-.735l-.053.048a3.51 3.51 0 0 1-.083-.307l-.028-.121a9.847 9.847 0 0 0-.078-.328 2.147 2.147 0 0 0-.174-.471c-.079-.145-.233-.358-.513-.43-.286-.072-.539.042-.718.167l-.007.005c-.37.27-.615.646-.79 1.02a6.9 6.9 0 0 0-.387 1.145l-.079.305c-.062.243-.114.45-.175.628a2.28 2.28 0 0 1-.034.095 7.649 7.649 0 0 1-.068-.26l-.014-.052c-.062-.253-.144-.58-.277-.863-.144-.309-.392-.658-.838-.792l-.011-.003-.012-.003c-.53-.133-1.069.125-1.49.467l-.005.003c-.232-.832-.461-1.678-.675-2.505.225-.588.413-1.175.547-1.75.364-1.557.358-3.12-.49-4.319l-.002-.003ZM3 18.945l.388.316L3 18.945ZM8.124 8.748l-.03.126c-.429-1.83-.7-3.337-.692-4.134.108.121.238.283.391.495.601.851.67 2.062.331 3.513Zm.263 10.982c-.398-1.678-.104-3.203.426-4.307.576 1.968 1.11 3.673 1.413 4.58.624 1.875.774 2.94.708 3.447a.774.774 0 0 1-.038.17.69.69 0 0 1-.123-.054c-.345-.184-.849-.691-1.328-1.422-.47-.716-.873-1.58-1.057-2.408l-.001-.006ZM26.03 7.317l-3.464-2-7.79 13.494-1.268 6.196 4.732-4.196 5.29-9.164.866.5-2.5 4.33.866.5 3-5.196-1.732-1 2-3.464Zm-1.366.366-1.5 2.598-1.732-1 1.5-2.598 1.732 1Zm-2 3.464-1.732-1-5 8.66 1.732 1 5-8.66ZM15.09 22.268l.51-2.498 1.397.806-1.907 1.692Z" clip-rule="evenodd"/></symbol><symbol id="btn-img-align" viewBox="0 0 28 28"><path fill-rule="evenodd" d="M14 4h-1v3H9a1 1 0 0 0-1 1v4a1 1 0 0 0 1 1h4v3H5a1 1 0 0 0-1 1v4a1 1 0 0 0 1 1h8v3h1v-3h8a1 1 0 0 0 1-1v-4a1 1 0 0 0-1-1h-8v-3h4a1 1 0 0 0 1-1V8a1 1 0 0 0-1-1h-4V4Zm0 17h8v-4H5v4h9Zm0-9H9V8h9v4h-4Z" clip-rule="evenodd"/></symbol><symbol id="btn-img-bkwd" viewBox="0 0 28 28"><path fill-rule="evenodd" d="M4 5a1 1 0 0 1 1-1h12a1 1 0 0 1 1 1v4H9v9H5a1 1 0 0 1-1-1V5Zm6 6a1 1 0 0 1 1-1h12a1 1 0 0 1 1 1v12a1 1 0 0 1-1 1H11a1 1 0 0 1-1-1V11Zm1 0h12v12H11V11Z" clip-rule="evenodd"/></symbol><symbol id="btn-img-frwd" viewBox="0 0 28 28"><path fill-rule="evenodd" d="M17 18a1 1 0 0 0 1-1V5a1 1 0 0 0-1-1H5a1 1 0 0 0-1 1v12a1 1 0 0 0 1 1h12Zm-6 1v4h12V11h-4v-1h4a1 1 0 0 1 1 1v12a1 1 0 0 1-1 1H11a1 1 0 0 1-1-1v-4h1Z" clip-rule="evenodd"/></symbol><symbol id="btn-img-group" viewBox="0 0 28 28"><path fill-rule="evenodd" d="M6 4H4v2h2V4Zm16 0h2v2h-2V4Zm0 18h2v2h-2v-2ZM4 22h2v2H4v-2Zm17-9h-8v8h8v-8Zm-8-1a1 1 0 0 0-1 1v8a1 1 0 0 0 1 1h8a1 1 0 0 0 1-1v-8a1 1 0 0 0-1-1h-8Zm2-5H7v8h4v1H7a1 1 0 0 1-1-1V7a1 1 0 0 1 1-1h8a1 1 0 0 1 1 1v4h-1V7Z" clip-rule="evenodd"/></symbol><symbol id="btn-img-wrap" viewBox="0 0 28 28"><path fill-rule="evenodd" d="M25 3H3v1h22V3ZM3 5h22v1H3V5Zm18 2h4v1h-4V7Zm4 2h-4v1h4V9Zm-4 2h4v1h-4v-1Zm4 2h-4v1h4v-1Zm-4 2h4v1h-4v-1Zm4 2h-4v1h4v-1Zm-4 2h4v1h-4v-1Zm4 2H3v1h22v-1Zm0 2H3v1h22v-1ZM7 19H3v1h4v-1Zm-4-2h4v1H3v-1Zm4-2H3v1h4v-1Zm-4-2h4v1H3v-1Zm4-2H3v1h4v-1ZM3 9h4v1H3V9Zm4-2H3v1h4V7Zm12.984 1.38s-.29 3.222-1.063 4.142c-.477.569-1.282.513-1.822.476-.115-.008-.218-.016-.303-.016.483.115 1.932.806 1.932 2.761 0 2.186-.87 4.257-1.74 4.257-.869 0-2.415-2.761-2.415-5.407 0-.219-.039-.345-.067-.438-.014-.045-.025-.082-.029-.118.009.198.06 1.821-.484 1.821-.553 0-.49-1.68-.483-1.83a.637.637 0 0 1-.072.184c-.055.111-.12.246-.12.38C13.317 17.24 11.77 20 10.9 20c-.773 0-1.739-2.07-1.739-4.372 0-1.769 1.186-2.408 1.699-2.685.054-.029.1-.054.137-.076-.29.115-1.353.345-1.932-.345-.677-.92-1.063-4.141-1.063-4.141l-.001-.06c-.008-.31-.029-1.206.87-1.206 2.996 0 4.735 4.487 4.735 5.062 0 0 0-.92.483-.92s.483.92.483.92c0-.575 1.74-5.177 4.638-5.177.847 0 .803.796.78 1.225-.004.06-.007.113-.007.156Z" clip-rule="evenodd"/></symbol><symbol id="btn-insertchart" viewBox="0 0 28 28"><path fill-rule="evenodd" d="M24 23h-4V6h4v17Zm1 0c0 .6-.4 1-1 1h-4c-.6 0-1-.4-1-1V6c0-.6.4-1 1-1h4c.6 0 1 .4 1 1v17Zm-13 0h4V12h-4v11Zm4 1c.6 0 1-.4 1-1V12c0-.6-.4-1-1-1h-4c-.6 0-1 .4-1 1v11c0 .6.4 1 1 1h4ZM4 23h4v-6H4v6Zm4 1c.6 0 1-.4 1-1v-6c0-.6-.4-1-1-1H4c-.6 0-1 .4-1 1v6c0 .6.4 1 1 1h4Z" clip-rule="evenodd"/></symbol><symbol id="btn-insertequation" viewBox="0 0 28 28"><path fill-rule="evenodd" d="M25 6H9.078L6.562 20.68 5.938 16H3v1h2.062l.942 7.066.989.018L9.922 7H25V6Zm-8.392 7.396a4.487 4.487 0 0 0-.795-1.118l-2.868.505v.387c.215-.014.405-.022.57-.022.515 0 .906.097 1.17.29.265.194.48.523.645.989.036.1.276 1.02.72 2.76-.18.401-.559 1.053-1.139 1.956-.58.902-1.038 1.49-1.375 1.761-.136.115-.247.172-.333.172-.1 0-.243-.082-.43-.247-.257-.23-.5-.344-.73-.344a.788.788 0 0 0-.58.237.801.801 0 0 0-.236.59c0 .265.085.477.257.634.237.208.498.312.785.312.408 0 .83-.18 1.267-.537.673-.559 1.569-1.809 2.686-3.75.472 2.128.784 3.33.934 3.61.237.451.555.677.956.677.272 0 .605-.158 1-.473a6.727 6.727 0 0 0 1.718-2.105l-.376-.194c-.28.53-.616.96-1.01 1.29-.2.164-.376.247-.526.247-.093 0-.186-.054-.28-.162-.092-.114-.207-.454-.343-1.02l-.88-3.696c.615-1.066 1.145-1.786 1.589-2.159.236-.2.44-.3.612-.3.115 0 .34.057.677.171.172.065.333.097.483.097.258 0 .487-.09.688-.269.107-.1.161-.286.161-.558a.774.774 0 0 0-.28-.602c-.178-.164-.422-.247-.73-.247a1.47 1.47 0 0 0-.57.108c-.271.114-.586.33-.944.644a5.81 5.81 0 0 0-.913.978l-.946 1.418c-.293-1.096-.505-1.773-.634-2.03Z" clip-rule="evenodd"/></symbol><symbol id="btn-inserthyperlink" viewBox="0 0 28 28"><path d="m14.866 7.635 2.97-2.97a3.2 3.2 0 0 1 4.526 0l.99.99a3.2 3.2 0 0 1 0 4.525l-2.97 2.97a3.2 3.2 0 0 1-3.308.763l-.766.765a4.202 4.202 0 0 0 4.78-.82l2.97-2.97a4.2 4.2 0 0 0 0-5.94l-.99-.99a4.2 4.2 0 0 0-5.939 0l-2.97 2.97a4.202 4.202 0 0 0-.82 4.78l.765-.765a3.2 3.2 0 0 1 .762-3.308Zm-9.899 9.899 2.97-2.97a3.2 3.2 0 0 1 3.308-.762l.765-.766a4.202 4.202 0 0 0-4.78.821l-2.97 2.97a4.2 4.2 0 0 0 0 5.94l.99.99a4.2 4.2 0 0 0 5.94 0l2.97-2.97a4.202 4.202 0 0 0 .82-4.781l-.766.765a3.2 3.2 0 0 1-.762 3.309l-2.97 2.97a3.2 3.2 0 0 1-4.525 0l-.99-.99a3.2 3.2 0 0 1 0-4.526Z"/><path d="m9.06 19.648 10.89-10.89-.708-.707-10.89 10.89.708.707Z"/></symbol><symbol id="btn-insertimage" viewBox="0 0 28 28"><path fill-rule="evenodd" d="M11 9a2 2 0 1 1-4 0 2 2 0 0 1 4 0Zm-1 0a1 1 0 1 1-2 0 1 1 0 0 1 2 0Z" clip-rule="evenodd"/><path fill-rule="evenodd" d="M5 4a1 1 0 0 0-1 1v18a1 1 0 0 0 1 1h18a1 1 0 0 0 1-1V5a1 1 0 0 0-1-1H5Zm18 1H5v14.293l3.5-3.5 2 2 6-6 6.5 6.5V5ZM5 23v-2.293l3.5-3.5 2 2 6-6 6.5 6.5V23H5Z" clip-rule="evenodd"/></symbol><symbol id="btn-insertshape" viewBox="0 0 28 28"><path fill-rule="evenodd" d="M17 5H5v12h3v1H4V4h14v4h-1V5Zm6 11.5a6.5 6.5 0 1 1-13 0 6.5 6.5 0 0 1 13 0Zm1 0a7.5 7.5 0 1 1-15 0 7.5 7.5 0 0 1 15 0Z" clip-rule="evenodd"/></symbol><symbol id="btn-inserttable" viewBox="0 0 28 28"><path fill-rule="evenodd" d="M4 6a1 1 0 0 0-1 1v14a1 1 0 0 0 1 1h20a1 1 0 0 0 1-1V7a1 1 0 0 0-1-1H4Zm20 11v-3h-6v3h6Zm-7 0h-6v-3h6v3Zm1-4h6v-3h-6v3Zm-1-3v3h-6v-3h6Zm0 8v3h-6v-3h6Zm1 3h6v-3h-6v3Zm-8-4v-3H4v3h6Zm0-4v-3H4v3h6Zm-6 5h6v3H4v-3Z" clip-rule="evenodd"/></symbol><symbol id="btn-line-numbering" viewBox="0 0 28 28"><path fill-rule="evenodd" d="M23 5H10v18h13V5ZM10 4a1 1 0 0 0-1 1v18a1 1 0 0 0 1 1h13a1 1 0 0 0 1-1V5a1 1 0 0 0-1-1H10Zm2 3h9v1h-9V7Zm0 6h9v1h-9v-1Zm0 6h6v1h-6v-1Zm9-3h-9v1h9v-1Zm0-6h-9v1h9v-1ZM7 15v1H4v-1l2-2v-1H4v-1h2l1 1v1l-2 2h2Zm-2 6h1v1H4v1h2l1-1v-1l-.5-.5.5-.5v-1l-1-1H4v1h2v1H5v1ZM6 9H5V5H4V4h2v5Z" clip-rule="evenodd"/></symbol><symbol id="btn-more" viewBox="0 0 28 28"><path fill-rule="evenodd" d="M9 13.5a1.5 1.5 0 1 1-3 0 1.5 1.5 0 0 1 3 0Zm6 0a1.5 1.5 0 1 1-3 0 1.5 1.5 0 0 1 3 0Zm4.5 1.5a1.5 1.5 0 1 0 0-3 1.5 1.5 0 0 0 0 3Z" clip-rule="evenodd"/></symbol><symbol id="btn-next-field" viewBox="0 0 28 28"><path fill-rule="evenodd" d="M22 7H5v11h6v1H5a1 1 0 0 1-1-1V7a1 1 0 0 1 1-1h17a1 1 0 0 1 1 1v6h-1V7Zm-4.207 8.207L20.586 18H13v2h7.586l-2.793 2.793 1.414 1.414L24.414 19l-5.207-5.207-1.414 1.414Z" clip-rule="evenodd"/></symbol><symbol id="btn-night" viewBox="0 0 28 28"><path fill-rule="evenodd" d="M17 9c0 6.627-5.372 12-12 12h-.142A9.968 9.968 0 0 0 12 24c5.523 0 10-4.477 10-10 0-3.98-2.325-7.418-5.693-9.028C16.757 6.232 17 7.588 17 9Zm-1 0c0 6.075-4.925 11-11 11-.414 0-.822-.023-1.224-.067-.438-.049-.763.427-.493.777A10.982 10.982 0 0 0 12 25c6.075 0 11-4.925 11-11 0-4.845-3.131-8.958-7.48-10.425-.419-.141-.763.32-.575.719A10.956 10.956 0 0 1 16 9Z" clip-rule="evenodd"/></symbol><symbol id="btn-notes" viewBox="0 0 28 28"><path fill-rule="evenodd" d="M22 8a1.99 1.99 0 0 0 1-.268V12h1V6h-1a1 1 0 0 1-1 1v1ZM6.41 16l2.09-5.576L10.591 16H6.41Zm-.376 1L4.47 21.175l-.937-.35 4.5-12h.937l4.5 12-.937.35L10.966 17H6.034ZM15 10h3a2 2 0 0 1 0 4h-3v-4Zm-1 4V9h4a3 3 0 0 1 1.924 5.302A3.5 3.5 0 0 1 18.5 21H14v-7Zm1 1v5h3.5a2.5 2.5 0 0 0 .359-4.975L18.68 15H15Z" clip-rule="evenodd"/></symbol><symbol id="btn-pagebreak" viewBox="0 0 28 28"><path fill-rule="evenodd" d="M22 3v9H6V3H5v9c0 .6.4 1 1 1h16c.6 0 1-.4 1-1V3h-1Zm-2 2H8v1h12V5ZM8 8h8v1H8V8Zm15 8h1v-1h-1v1Zm-2 0h1v-1h-1v1Zm-2 0h1v-1h-1v1Zm-2 0h1v-1h-1v1Zm-2 0h1v-1h-1v1Zm-2 0h1v-1h-1v1Zm-2 0h1v-1h-1v1Zm-2 0h1v-1H9v1Zm-2 0h1v-1H7v1Zm-2 0h1v-1H5v1Zm-2 0h1v-1H3v1Zm5 7v-1h12v1H8Zm14-4H6v6H5v-6c0-.6.4-1 1-1h16c.6 0 1 .4 1 1v6h-1v-6Z" clip-rule="evenodd"/></symbol><symbol id="btn-pagemargins" viewBox="0 0 28 28"><path fill-rule="evenodd" d="M21.988 3.99V7H20V4h-1v3H9V4H8v3H6.013V3.99h15.975ZM19 8H9v12h10V8Zm0 13v3h1v-3h1.988v3.01H6.011V21H8v3h1v-3h10Zm1-1V8h1.988v12H20ZM6.012 8H8v12H6.013V8Zm15.976-5H6.011A.997.997 0 0 0 5 3.99v20.02c0 .55.45.99 1.013.99h15.975A.997.997 0 0 0 23 24.01V3.99c0-.55-.45-.99-1.012-.99Z" clip-rule="evenodd"/></symbol><symbol id="btn-pageorient" viewBox="0 0 28 28"><path fill-rule="evenodd" d="M4 19V4h6v4a1 1 0 0 0 1 1h4v2h1V8.414a1 1 0 0 0-.293-.707l-4.414-4.414A1 1 0 0 0 10.586 3H4a1 1 0 0 0-1 1v15a1 1 0 0 0 1 1h3v-1H4Zm7-14v-.586L14.586 8H11V5Zm-2 8v11h15v-6h-4a1 1 0 0 1-1-1v-4H9Zm11 .414L23.586 17H20v-3.586ZM9 12a1 1 0 0 0-1 1v11a1 1 0 0 0 1 1h15a1 1 0 0 0 1-1v-6.586a1 1 0 0 0-.293-.707l-4.414-4.414a1 1 0 0 0-.707-.293H9Z" clip-rule="evenodd"/></symbol><symbol id="btn-pagesize" viewBox="0 0 28 28"><path fill-rule="evenodd" d="M10 3H9v3h1V5h12v1h1V3h-1v1H10V3ZM6 7H5v1h1v16H5v1h3v-1H7V8h1V7H6Zm4 1v16h12V13h-4a1 1 0 0 1-1-1V8h-7Zm8 .414L21.586 12H18V8.414ZM10 7a1 1 0 0 0-1 1v16a1 1 0 0 0 1 1h12a1 1 0 0 0 1-1V12.414a1 1 0 0 0-.293-.707l-4.414-4.414A1 1 0 0 0 17.586 7H10Z" clip-rule="evenodd"/></symbol><symbol id="btn-paragraph-borders-all" viewBox="0 0 28 28"><path fill-rule="evenodd" d="M7 7h15v7H7V7Zm-1 8V6h17v17H6v-8Zm16 0v7H7v-7h15Z" clip-rule="evenodd"/></symbol><symbol id="btn-paragraph-borders-bottom" viewBox="0 0 28 28"><path fill-rule="evenodd" d="M7 7h15v7H7V7Zm-1 8V6h17v17H6v-8Zm16 0v7H7v-7h15Z" clip-rule="evenodd" opacity=".4"/><path d="M6 22h17v1H6z"/></symbol><symbol id="btn-paragraph-borders-inner" viewBox="0 0 28 28"><path fill-rule="evenodd" d="M22 7H7v15h15V7zM6 6v17h17V6H6z" clip-rule="evenodd" opacity=".4"/><path d="M6 14h17v1H6z"/></symbol><symbol id="btn-paragraph-borders-left" viewBox="0 0 28 28"><path fill-rule="evenodd" d="M7 7h15v7H7V7Zm-1 8V6h17v17H6v-8Zm16 0v7H7v-7h15Z" clip-rule="evenodd" opacity=".4"/><path d="M6 23V6h1v17z"/></symbol><symbol id="btn-paragraph-borders-none" viewBox="0 0 28 28"><path fill-rule="evenodd" d="M7 7h15v7H7V7Zm-1 8V6h17v17H6v-8Zm16 0v7H7v-7h15Z" clip-rule="evenodd" opacity=".4"/></symbol><symbol id="btn-paragraph-borders-outer" viewBox="0 0 28 28"><path d="M7 14h15v1H7z" opacity=".4"/><path fill-rule="evenodd" d="M22 7H7v15h15V7ZM6 6v17h17V6H6Z" clip-rule="evenodd"/></symbol><symbol id="btn-paragraph-borders-right" viewBox="0 0 28 28"><path fill-rule="evenodd" d="M7 7h15v7H7V7Zm-1 8V6h17v17H6v-8Zm16 0v7H7v-7h15Z" clip-rule="evenodd" opacity=".4"/><path d="M22 23V6h1v17z"/></symbol><symbol id="btn-paragraph-borders-top" viewBox="0 0 28 28"><path fill-rule="evenodd" d="M7 7h15v7H7V7Zm-1 8V6h17v17H6v-8Zm16 0v7H7v-7h15Z" clip-rule="evenodd" opacity=".4"/><path d="M6 6h17v1H6z"/></symbol><symbol id="btn-pen-tool" viewBox="0 0 28 28"><path fill-rule="evenodd" d="M16.087 3.05a.1.1 0 0 0-.137.037l-4.45 7.706v.001l-2.225 7.778a.199.199 0 0 0 .092.227l.068.04 3.925 2.266.068.04c.08.045.18.03.242-.035l5.624-5.816-.054-.031.055.031 4.45-7.707a.1.1 0 0 0-.037-.137l-.693-.4a.1.1 0 0 0-.137.037l-3.95 6.841-6.062-3.5 3.95-6.841a.1.1 0 0 0-.036-.137l-.693-.4Zm2.341 11.744-6.062-3.5-1.957 6.952 2.977 1.72 5.042-5.172Zm-8.763 4.179s-1.134 3.964-.268 4.464c.866.5 3.732-2.464 3.732-2.464l-3.464-2Z" clip-rule="evenodd"/></symbol><symbol id="btn-phone" viewBox="0 0 28 28"><path d="M20.157 15.742c-.4-.395-.876-.609-1.37-.609-.493 0-.964.21-1.364.605l-.107.102a74.46 74.46 0 0 0-1.183 1.187 5.115 5.115 0 0 0-.222-.111 5.387 5.387 0 0 1-.507-.272c-1.187-.746-2.28-1.742-3.338-3.04-.507-.622-.863-1.177-1.112-1.733.347-.333.685-.68 1.018-1.013l.258-.258c.84-.844.836-1.933-.004-2.782l-.76-.76-.33-.33-.35-.35c-.254-.254-.512-.516-.774-.774C9.612 5.21 9.136 5 8.642 5c-.493 0-.964.209-1.364.604-.191.187-.378.378-.565.565-.267.271-.542.551-.822.813-.525.498-.818 1.13-.876 1.871-.089 1.165.236 2.218.529 3.005.662 1.778 1.671 3.462 3.085 5.146a19.202 19.202 0 0 0 6.317 4.943c1.338.649 2.485.982 3.606 1.044.084.005.164.009.244.009.951 0 1.734-.333 2.325-.996.254-.28.52-.542.81-.822.142-.142.293-.284.44-.43.835-.845.84-1.934.008-2.77-.742-.769-1.493-1.52-2.223-2.24Zm1.466 4.245c-.137.142-.284.28-.426.417-.285.28-.583.565-.858.876-.427.476-.965.676-1.712.636-.973-.054-1.991-.352-3.196-.938a18.093 18.093 0 0 1-5.966-4.667C8.127 14.72 7.18 13.142 6.562 11.48c-.378-1.018-.52-1.804-.467-2.551.036-.485.21-.858.547-1.178.289-.275.569-.56.845-.835.182-.183.369-.374.55-.552.139-.133.357-.297.619-.297s.48.16.622.297c.258.254.516.512.765.765l.356.355c.11.112.222.223.333.33.249.248.507.502.756.755.426.431.43.849.004 1.28l-.258.262c-.36.365-.733.738-1.107 1.098-.19.187-.382.502-.19.955.288.698.71 1.37 1.32 2.12 1.133 1.392 2.311 2.463 3.6 3.272.2.124.405.226.605.324.116.058.227.111.333.169a.85.85 0 0 0 .414.111c.222 0 .427-.093.604-.28.418-.431.85-.858 1.272-1.276l.107-.102c.137-.138.355-.298.613-.298s.48.165.618.298c.725.72 1.476 1.467 2.227 2.222.396.414.396.84-.026 1.263Z"/></symbol><symbol id="btn-previous-field" viewBox="0 0 28 28"><path fill-rule="evenodd" d="M23 7H6v6H5V7a1 1 0 0 1 1-1h17a1 1 0 0 1 1 1v11a1 1 0 0 1-1 1h-6v-1h6V7Zm-12.793 8.207L7.414 18H15v2H7.414l2.793 2.793-1.414 1.414-4.5-4.5L3.586 19l.707-.707 4.5-4.5 1.414 1.414Z" clip-rule="evenodd"/></symbol><symbol id="btn-radio-button" viewBox="0 0 28 28"><path fill-rule="evenodd" d="M24 14c0 5.523-4.477 10-10 10S4 19.523 4 14 8.477 4 14 4s10 4.477 10 10Zm1 0c0 6.075-4.925 11-11 11S3 20.075 3 14 7.925 3 14 3s11 4.925 11 11Zm-11 4a4 4 0 1 0 0-8 4 4 0 0 0 0 8Z" clip-rule="evenodd"/></symbol><symbol id="btn-rem-comment" viewBox="0 0 28 28"><path fill-rule="evenodd" d="M11 6a1 1 0 0 1 1-1h5a1 1 0 0 1 1 1v1h3.5a.5.5 0 0 1 0 1H21v15a1 1 0 0 1-1 1H9a1 1 0 0 1-1-1V8h-.5a.5.5 0 0 1 0-1H11V6Zm6 0v1h-5V6h5ZM9 8h11v15H9V8Zm3 2h-1v11h1V10Zm2 0h1v11h-1V10Zm4 0h-1v11h1V10Z" clip-rule="evenodd"/></symbol><symbol id="btn-resolve-all" viewBox="0 0 28 28"><path fill-rule="evenodd" d="M9.5 22.586 6.914 20H5a1 1 0 0 1-1-1V7a1 1 0 0 1 1-1h18a1 1 0 0 1 1 1v12a1 1 0 0 1-1 1H12.086L9.5 22.586ZM6.5 21l3 3 3-3H23a2 2 0 0 0 2-2V7a2 2 0 0 0-2-2H5a2 2 0 0 0-2 2v12a2 2 0 0 0 2 2h1.5Zm3.5-7.314L12.686 17 18 9.686 17.314 9l-4.628 6-2-2-.686.686Z" clip-rule="evenodd"/></symbol><symbol id="btn-restrict-editing" viewBox="0 0 28 28"><path fill-rule="evenodd" d="M14 24H7V4h8v5a1 1 0 0 0 1 1h5v3h1V9.414a1 1 0 0 0-.293-.707l-5.414-5.414A1 1 0 0 0 15.586 3H7a1 1 0 0 0-1 1v20a1 1 0 0 0 1 1h7v-1Zm2-19.586L20.586 9H16V4.414Z" clip-rule="evenodd"/><path fill-rule="evenodd" d="M22 18v1h-4v-1a2 2 0 1 1 4 0Zm-5 1v-1a3 3 0 1 1 6 0v1a1 1 0 0 1 1 1v5a1 1 0 0 1-1 1h-6a1 1 0 0 1-1-1v-5a1 1 0 0 1 1-1Zm6 1h-6v5h6v-5Z" clip-rule="evenodd"/></symbol><symbol id="btn-review-deny" viewBox="0 0 28 28"><path fill-rule="evenodd" d="M4 17h9v1H4c-.6 0-1-.4-1-1V6c0-.6.4-1 1-1h17c.6 0 1 .4 1 1v6h-1V6H4v11Zm3-8h11v1H7V9Zm4 3H7v1h4v-1Zm3.3.034 4.7 4.7 4.7-4.7 1.266 1.266-4.7 4.7 4.7 4.7-1.266 1.265-4.7-4.7-4.7 4.7-1.266-1.265 4.7-4.7-4.7-4.7 1.266-1.266Z" clip-rule="evenodd"/></symbol><symbol id="btn-review-next" viewBox="0 0 28 28"><path fill-rule="evenodd" d="M5 7v11h6v1H5c-.6 0-1-.4-1-1V7c0-.6.4-1 1-1h17c.6 0 1 .4 1 1v6h-1V7H5Zm3 3h11v1H8v-1Zm8 3H8v1h8v-1Zm1.793 2.207L20.586 18H13v2h7.586l-2.793 2.793 1.414 1.414L24.414 19l-5.207-5.207-1.414 1.414Z" clip-rule="evenodd"/></symbol><symbol id="btn-review-prev" viewBox="0 0 28 28"><path fill-rule="evenodd" d="M23 7v11h-6v1h6c.6 0 1-.4 1-1V7c0-.6-.4-1-1-1H6c-.6 0-1 .4-1 1v6h1V7h17Zm-3 3H9v1h11v-1Zm-8 3h8v1h-8v-1Zm-1.793 2.207L7.414 18H15v2H7.414l2.793 2.793-1.414 1.414-4.5-4.5L3.586 19l.707-.707 4.5-4.5 1.414 1.414Z" clip-rule="evenodd"/></symbol><symbol id="btn-review-save" viewBox="0 0 28 28"><path fill-rule="evenodd" d="M5 17h5v1H5c-.6 0-1-.4-1-1V6c0-.6.4-1 1-1h17c.6 0 1 .4 1 1v2h-1V6H5v11Zm3-8h11v1H8V9Zm8 3H8v1h8v-1Zm-5 5.2 4.7 5.8L25 10.2 23.8 9l-8.1 10.5-3.5-3.5-1.2 1.2Z" clip-rule="evenodd"/></symbol><symbol id="btn-save-form" viewBox="0 0 28 28"><path fill-rule="evenodd" d="M15 6h-1V4H7v6H6V4a1 1 0 0 1 1-1h7.586a1 1 0 0 1 .707.293L18 6h-1.414L15 4.414V6ZM6 17v3a1 1 0 0 0 1 1h3v-1H7v-3H6ZM3 7h2v1H4v5H3V7Zm0 6v1h3.836l-1.293 1.293.707.707 2.5-2.5-2.5-2.5-.707.707L6.836 13H3Zm9-4.969V23.97h12v-9.75h-5c-.552 0-1-.462-1-1.031V8.031h-6Zm7 .427 4.586 4.73H19v-4.73ZM12 7c-.552 0-1 .462-1 1.031V23.97c0 .57.448 1.031 1 1.031h12c.552 0 1-.462 1-1.031V13.615c0-.274-.105-.536-.293-.73l-5.414-5.583A.985.985 0 0 0 18.586 7H12Zm10 10v-1h-8v1h8Zm-1 4v-1h-6v1h6Zm-6-2h-1v3h8v-3h-7Z" clip-rule="evenodd"/></symbol><symbol id="btn-select" viewBox="0 0 28 28"><path d="m16.561 17.24 2.752 5.045-4.072 2.036-2.286-5.028-.262-.577-.5.39L8.5 21.977V4.208L20.793 16.5h-4.635l.403.74z" opacity=".8"/></symbol><symbol id="btn-sheet-view" viewBox="0 0 28 28"><path fill-rule="evenodd" d="M3.091 14c1.897 4.133 6.071 7 10.913 7 4.841 0 9.015-2.867 10.912-7-1.897-4.133-6.07-7-10.912-7A12.002 12.002 0 0 0 3.09 14Zm22.916 0c-1.959-4.698-6.595-8-12.003-8S3.959 9.302 2 14c1.96 4.698 6.596 8 12.004 8 5.408 0 10.044-3.302 12.003-8Z" clip-rule="evenodd"/><path d="M17.004 14a3 3 0 1 1-6 0 3 3 0 0 1 6 0Z"/><path fill-rule="evenodd" d="M14.004 21a7 7 0 1 0 0-14 7 7 0 0 0 0 14Zm0 1a8 8 0 1 0 0-16 8 8 0 0 0 0 16Z" clip-rule="evenodd"/></symbol><symbol id="btn-smart-art" viewBox="0 0 28 28"><path fill-rule="evenodd" d="M9.823 12.5 4.19 19H13v-3a1 1 0 0 1 1-1h6.427l1.833-2.5L17.493 6H4.19l5.633 6.5ZM2 5h16l5.5 7.5-1.833 2.5H24a1 1 0 0 1 1 1v7a1 1 0 0 1-1 1H14a1 1 0 0 1-1-1v-3H2l6.5-7.5L2 5Zm12 11v4h1v-1h1v1h1v-1h6v-1h-6v-1h6l1-1H14Zm9 2v-1l1-1v7H14v-3h9v-2Zm-7-1h-1v1h1v-1Zm0 4h-1v1h1v-1Zm7 0v1h-6v-1h6Z" clip-rule="evenodd"/></symbol><symbol id="btn-submit-form" viewBox="0 0 28 28"><path fill-rule="evenodd" d="M20 24H6V4h9v4a1 1 0 0 0 1 1h4v3h1V8.414a1 1 0 0 0-.293-.707l-4.414-4.414A1 1 0 0 0 15.586 3H6a1 1 0 0 0-1 1v20a1 1 0 0 0 1 1h14a1 1 0 0 0 1-1v-2h-1v2Zm-.414-16L16 4.414V8h3.586ZM11 19v-4h6v-3l7 5-7 5v-3h-6Z" clip-rule="evenodd"/></symbol><symbol id="btn-symbol" viewBox="0 0 28 28"><path d="M24 14c0-5.5-4.5-10-10-10S4 8.5 4 14c0 3.3 1.6 6.2 4 8H4v2h8v-2h-.8c-3.3-1.2-5.7-4.3-5.7-8 0-4.7 3.8-8.5 8.5-8.5s8.5 3.8 8.5 8.5c0 3.7-2.4 6.8-5.7 8H16v2h8v-2h-4c2.4-1.7 4-4.7 4-8Z"/></symbol><symbol id="btn-text-field" viewBox="0 0 28 28"><path fill-rule="evenodd" d="M3 7h22v14H3V7ZM2 6h24v16H2V6Zm4 3H5v1h1v8H5v1h3v-1H7v-8h1V9H6Z" clip-rule="evenodd"/></symbol><symbol id="btn-text-fixed-field" viewBox="0 0 28 28"><path fill-rule="evenodd" d="M4 5H3v1h1V5Zm0 16V7H2V4h3v2h18V4h3v3h-2v14h2v3h-3v-2H5v2H2v-3h2Zm20 1v1h1v-1h-1Zm-1-1V7H5v14h18ZM3 22h1v1H3v-1ZM24 6h1V5h-1v1ZM8 9H7v1h1v8H7v1h3v-1H9v-8h1V9H8Z" clip-rule="evenodd"/></symbol><symbol id="btn-textart" viewBox="0 0 28 28"><path fill-rule="evenodd" d="M10 18h1V5.994h4V5H6v1l4-.006V18Zm10.139-1.688.22 1.512H21V11.47c0-1.155-.26-2.004-.782-2.55-.516-.544-1.298-.816-2.347-.816-1.025 0-2.062.246-3.111.738l.325.756c.95-.493 1.866-.739 2.75-.739.821 0 1.416.232 1.785.695.37.463.554 1.148.554 2.056v.633l-1.82.053c-1.47.03-2.595.302-3.374.817-.774.516-1.16 1.24-1.16 2.171 0 .85.26 1.515.782 1.995.521.48 1.25.721 2.188.721.691 0 1.29-.126 1.793-.378.51-.258 1.005-.694 1.485-1.31h.07Zm-.888.027c-.586.58-1.389.87-2.408.87-.668 0-1.187-.164-1.556-.492-.363-.334-.545-.8-.545-1.398 0-.75.284-1.3.853-1.652.574-.357 1.532-.568 2.874-.633l1.67-.07v.94c0 1.037-.296 1.849-.888 2.435ZM7.424 24.265C8.186 23.045 10.207 21 14 21c3.793 0 5.814 2.046 6.576 3.265l.848-.53C20.519 22.288 18.207 20 14 20c-4.207 0-6.52 2.288-7.424 3.735l.848.53Z" clip-rule="evenodd"/></symbol><symbol id="btn-update" viewBox="0 0 28 28"><path fill-rule="evenodd" d="M13.507 23.095c-4.75 0-8.602-3.848-8.602-8.595 0-4.747 3.851-8.595 8.602-8.595A8.585 8.585 0 0 1 20.117 9H17v1h5V5h-1v3.654A9.492 9.492 0 0 0 13.507 5C8.257 5 4 9.253 4 14.5S8.256 24 13.507 24c5.082 0 9.233-3.986 9.493-9h-.907a8.6 8.6 0 0 1-8.586 8.095Z" clip-rule="evenodd"/></symbol><symbol id="btn-video" viewBox="0 0 28 28"><path fill-rule="evenodd" d="M3 7a1 1 0 0 1 1-1h20a1 1 0 0 1 1 1v14a1 1 0 0 1-1 1H4a1 1 0 0 1-1-1V7Zm3 0v2H4V7h2Zm0 5v-2H4v2h2Zm0 1v2H4v-2h2Zm0 5v-2H4v2h2Zm0 1v2H4v-2h2ZM24 9V7h-2v2h2Zm-2 4h2v2h-2v-2Zm2-1v-2h-2v2h2Zm0 4v2h-2v-2h2Zm0 5v-2h-2v2h2ZM21 7v14H7V7h14Zm-10 3v8l7-4-7-4Z" clip-rule="evenodd"/></symbol><symbol id="btn-watermark" viewBox="0 0 28 28"><path fill-rule="evenodd" d="M21 24H7V4h9v4a1 1 0 0 0 1 1h4v15Zm-.414-16L17 4.414V8h3.586ZM7 25h14a1 1 0 0 0 1-1V8.414a1 1 0 0 0-.293-.707l-4.414-4.414A1 1 0 0 0 16.586 3H7a1 1 0 0 0-1 1v20a1 1 0 0 0 1 1Z" clip-rule="evenodd"/><path d="M16.413 16.782h-4.834L9.92 21H9l4.784-12h.53L19 21h-.936l-1.651-4.218Zm-4.533-.752h4.256l-1.62-4.308a20.983 20.983 0 0 1-.488-1.406c-.146.523-.306.997-.48 1.422L11.88 16.03Z" opacity=".4"/></symbol><symbol id="btn-zip-code" viewBox="0 0 28 28"><path fill-rule="evenodd" d="m14 5.098 10 4.546V23H4V9.644l10-4.546ZM25 9 14 4 3 9v15h22V9Zm-13 4H7v1h3.775L7 19v1h5v-1H8.224l3.775-5H12v-1Zm7 0h-3v7h1v-3h2a2 2 0 1 0 0-4Zm-2 3v-2h2a1 1 0 1 1 0 2h-2Zm-4-3h1v7h-1v-7Z" clip-rule="evenodd"/></symbol></svg>