<svg xmlns="http://www.w3.org/2000/svg" width="20" height="20" fill="none"><path fill="#000" fill-rule="evenodd" d="M6 4h8v2H6V4ZM5 6V4a1 1 0 0 1 1-1h8a1 1 0 0 1 1 1v2h2a1 1 0 0 1 1 1v3.671A4.5 4.5 0 0 1 11.671 17H6a1 1 0 0 1-1-1v-2H3a1 1 0 0 1-1-1V7a1 1 0 0 1 1-1h2Zm12 1v2.758A4.479 4.479 0 0 0 14.5 9a4.481 4.481 0 0 0-2.829 1H6a1 1 0 0 0-1 1v2H3V7h14ZM6 11h4.758A4.478 4.478 0 0 0 10 13.5c0 .925.28 1.785.758 2.5H6v-5ZM4 8h1v1H4V8Zm10.5 9a3.5 3.5 0 1 0 0-7 3.5 3.5 0 0 0 0 7Zm2.048-5.497.794.882-3.046 4.089-.335-.372-.003.004-2.008-2.23.743-.669 1.523 1.297 2.332-3Z" clip-rule="evenodd"/></svg>