<svg xmlns="http://www.w3.org/2000/svg" width="20" height="20" fill="none"><path fill="#000" fill-rule="evenodd" d="M6 15H4V3h5v2a1 1 0 0 0 1 1h2v2h1V5.414a1 1 0 0 0-.293-.707l-2.414-2.414A1 1 0 0 0 9.586 2H4a1 1 0 0 0-1 1v12a1 1 0 0 0 1 1h2v-1Zm5.586-10L10 3.414V5h1.586ZM10 10h5v1h-5v-1Zm-1 1v-1a1 1 0 0 1 1-1h5a1 1 0 0 1 1 1v1h1a1 1 0 0 1 1 1v4a1 1 0 0 1-1 1h-1v1a1 1 0 0 1-1 1h-5a1 1 0 0 1-1-1v-1H8a1 1 0 0 1-1-1v-4a1 1 0 0 1 1-1h1Zm8 5h-1a1 1 0 0 0-1-1h-5a1 1 0 0 0-1 1H8v-4h9v4Zm-2 2v-2h-5v2h5Zm-5-5H9v1h1v-1Z" clip-rule="evenodd"/></svg>