<svg xmlns="http://www.w3.org/2000/svg" width="40" height="40" fill="none"><path fill="#000" fill-rule="evenodd" d="M36 4H4v1h32V4ZM4 7h32v1H4V7Zm5 3H4v1h5v-1Zm-5 3h5v1H4v-1Zm6 3H4v1h6v-1Zm-6 3h7v1H4v-1Zm7 3H4v1h7v-1Zm-7 3h7v1H4v-1Zm8 3H4v1h8v-1Zm-8 3h32v1H4v-1Zm0 3h32v1H4v-1Zm13-24h6v1h-6v-1Zm4 3h-2v1h2v-1Zm-3 15h4v1h-4v-1Zm10 0h8v1h-8v-1Zm8-3h-7v1h7v-1Zm-7-3h7v1h-7v-1Zm7-3h-7v1h7v-1Zm-6-3h6v1h-6v-1Zm6-3h-5v1h5v-1Zm-5-3h5v1h-5v-1Zm-2.024 2.018s-.434 4.708-1.594 6.053c-.716.83-1.924.75-2.733.694a7.276 7.276 0 0 0-.456-.022c.725.169 2.9 1.177 2.9 4.036 0 3.195-1.305 6.221-2.61 6.221-1.304 0-3.623-4.035-3.623-7.903 0-.32-.058-.504-.101-.64-.02-.065-.038-.12-.043-.172.013.29.09 2.662-.726 2.662-.83 0-.735-2.456-.725-2.675a.915.915 0 0 1-.108.268c-.082.163-.181.36-.181.557 0 3.868-2.32 7.903-3.624 7.903-1.16 0-2.609-3.027-2.609-6.39 0-2.585 1.78-3.52 2.548-3.924.081-.042.15-.079.206-.11-.435.167-2.029.504-2.899-.505-1.014-1.345-1.594-6.053-1.594-6.053 0-.024 0-.053-.002-.087-.01-.453-.042-1.763 1.306-1.763 4.494 0 7.102 6.558 7.102 7.398 0 0 0-1.345.725-1.345s.725 1.345.725 1.345c0-.84 2.609-7.566 6.957-7.566 1.27 0 1.204 1.163 1.169 1.79a4.29 4.29 0 0 0-.01.228Z" clip-rule="evenodd"/></svg>