<svg xmlns="http://www.w3.org/2000/svg" width="40" height="40" fill="none"><path fill="#000" fill-rule="evenodd" d="M4 4h32v1H4V4Zm32 3H4v1h32V7ZM4 10h32v1H4v-1Zm32 3H4v1h32v-1ZM4 16h32v1H4v-1Zm32 3H4v1h32v-1ZM4 22h32v1H4v-1Zm32 3H4v1h32v-1ZM4 28h32v1H4v-1Zm32 3H4v1h32v-1Zm0 3H4v1h32v-1Z" clip-rule="evenodd" opacity=".4"/><path fill="#000" d="M27.382 18.07c1.16-1.344 1.594-6.052 1.594-6.052 0-.505.29-2.018-1.16-2.018-4.347 0-6.956 6.726-6.956 7.566 0 0 0-1.345-.725-1.345s-.725 1.345-.725 1.345c0-.84-2.608-7.398-7.101-7.398-1.45 0-1.305 1.513-1.305 1.85 0 0 .58 4.708 1.594 6.053.87 1.009 2.464.672 2.9.504-.58.337-2.755 1.177-2.755 4.036 0 3.362 1.45 6.389 2.61 6.389 1.304 0 3.623-4.035 3.623-7.903 0-.336.29-.672.29-.84 0 0-.145 2.69.724 2.69.87 0 .725-2.69.725-2.69 0 .168.145.336.145.84 0 3.868 2.319 7.903 3.623 7.903 1.305 0 2.61-3.026 2.61-6.221 0-2.859-2.175-3.867-2.9-4.036.725 0 2.32.337 3.189-.672Z"/></svg>