<svg xmlns="http://www.w3.org/2000/svg" width="20" height="20" fill="none"><path fill="#000" fill-rule="evenodd" d="M4 4h10v3H4V4ZM3 7V3h12v6h1a1 1 0 0 1 1 1v7a1 1 0 0 1-1 1H9a1 1 0 0 1-1-1v-1H3V7Zm11 1v1H9a1 1 0 0 0-1 1v1H4V8h10ZM4 12h4v3H4v-3Zm12-2H9v7h7v-7Zm-5.724 1.947 3.106 1.553-3.106 1.553.448.894 4-2v-.894l-4-2-.448.894Z" clip-rule="evenodd"/><path fill="#000" d="M4 12h4v3H4z" opacity=".6"/><path fill="#000" fill-rule="evenodd" d="M14 8H4v3h4v-1a1 1 0 0 1 1-1h5V8Z" clip-rule="evenodd" opacity=".2"/></svg>