<svg xmlns="http://www.w3.org/2000/svg" width="20" height="20" fill="none"><path fill="#000" fill-rule="evenodd" d="M7 4v9.293l1.146-1.147.708.708-2 2-.354.353-.354-.353-2-2 .708-.708L6 13.293V4h1Zm6.927 5.01h1.1L13.023 4h-1.07L10 9.01h1.073l.414-1.137h2.003l.437 1.138Zm-1.452-3.84.69 1.86h-1.367l.677-1.86Zm.528 4.83H11v5.01h1.706c.645-.004 1.051-.015 1.22-.033.269-.03.494-.109.677-.236.184-.13.329-.302.434-.516.107-.217.16-.439.16-.667 0-.29-.082-.541-.246-.755-.164-.215-.399-.366-.704-.455.217-.098.387-.245.513-.44a1.16 1.16 0 0 0 .191-.647c0-.216-.051-.411-.154-.584a1.274 1.274 0 0 0-.386-.42 1.272 1.272 0 0 0-.523-.206 5.557 5.557 0 0 0-.885-.051Zm-.991 1.993v-1.159h.58c.477 0 .765.006.866.017.168.02.295.08.379.178.087.095.13.22.13.376 0 .162-.05.293-.15.393a.667.667 0 0 1-.407.178c-.096.011-.34.017-.735.017h-.663Zm0 2.173v-1.34h.817c.46 0 .758.025.895.072a.619.619 0 0 1 .318.23c.073.104.11.232.11.382 0 .178-.048.32-.144.428a.623.623 0 0 1-.366.198c-.098.02-.33.03-.694.03h-.936Z" clip-rule="evenodd"/></svg>