<svg xmlns="http://www.w3.org/2000/svg" width="20" height="20" fill="none"><path fill="#000" fill-rule="evenodd" d="M14 5h3v3h-3V5Zm4 0v12h-5V4h5v1Zm-4 7h3V9h-3v3Zm3 1h-3v3h3v-3ZM9.854 8.142l2.353 2.353-2.353 2.354-.708-.707 1.147-1.147H8v-1h2.293L9.146 8.85l.708-.707ZM6 16v-3H3v3h3Zm-4-3v4h5V4H2v9Zm1-4h3v3H3V9Zm3-1H3V5h3v3ZM5 6H4v1h1V6Zm-1 4h1v1H4v-1Zm1 4H4v1h1v-1Zm10-4h1v1h-1v-1Zm1-4h-1v1h1V6Z" clip-rule="evenodd"/><path fill="#000" fill-rule="evenodd" d="M3 5h3v3H3V5Zm0 8h3v3H3v-3Zm14-8h-3v3h3V5Z" clip-rule="evenodd" opacity=".4"/></svg>