<svg xmlns="http://www.w3.org/2000/svg" width="80" height="100" fill="none"><g clip-path="url(#clip0_2964_22039)"><path fill="#646464" d="M75 19v73.667A2.333 2.333 0 0 1 72.667 95H7.333A2.333 2.333 0 0 1 5 92.667V7.333A2.333 2.333 0 0 1 7.333 5H61l14 14Z"/><path fill="#fff" fill-rule="evenodd" d="M31 33H21v2h10v-2Zm0 5H21v2h10v-2Zm-10 5h10v2H21v-2Zm10 5H21v2h10v-2Zm-10 5h10v2H21v-2Zm10 5H21v2h10v-2Zm-10 5h10v2H21v-2Zm24-30H35v2h10v-2Zm0 5H35v2h10v-2Zm-10 5h10v2H35v-2Zm10 5H35v2h10v-2Zm-10 5h10v2H35v-2Zm10 5H35v2h10v-2Zm-10 5h10v2H35v-2Zm14-30h10v2H49v-2Zm0 5h10v2H49v-2Zm10 5H49v2h10v-2Zm-10 5h10v2H49v-2Zm10 5H49v2h10v-2Zm-10 5h10v2H49v-2Zm10 5H49v2h10v-2Z" clip-rule="evenodd"/><path fill="#000" d="M75 19H63.333A2.333 2.333 0 0 1 61 16.667V5l14 14Z" opacity=".2"/><path fill="#fff" d="M33.684 79.822c-.348 0-.657.069-.926.205-.266.133-.49.326-.674.58-.18.254-.316.561-.41.92-.094.36-.14.764-.14 1.213 0 .606.073 1.123.222 1.553.152.426.387.752.703.978.316.223.725.335 1.225.335.347 0 .695-.04 1.043-.118.351-.078.732-.19 1.142-.334v1.524a5.503 5.503 0 0 1-1.119.334c-.367.07-.78.105-1.236.105-.883 0-1.61-.181-2.18-.545a3.284 3.284 0 0 1-1.26-1.535c-.273-.66-.41-1.43-.41-2.309 0-.648.088-1.242.264-1.78.175-.54.433-1.007.773-1.401.34-.395.76-.7 1.26-.914.5-.215 1.074-.322 1.723-.322.425 0 .851.054 1.277.164.43.105.84.252 1.23.44l-.586 1.476a9.714 9.714 0 0 0-.966-.399 2.884 2.884 0 0 0-.955-.17Zm9.07 4.8c0 .507-.123.948-.37 1.323-.245.375-.605.664-1.077.868-.47.203-1.04.304-1.711.304a6.022 6.022 0 0 1-1.688-.228 5.096 5.096 0 0 1-.738-.287v-1.688c.406.18.828.342 1.265.486a4.13 4.13 0 0 0 1.301.217c.297 0 .536-.039.715-.117a.817.817 0 0 0 .399-.322.893.893 0 0 0 .123-.469.772.772 0 0 0-.217-.55 2.267 2.267 0 0 0-.598-.428c-.25-.133-.533-.276-.85-.428a9.757 9.757 0 0 1-.65-.34 3.802 3.802 0 0 1-.668-.498 2.402 2.402 0 0 1-.521-.71c-.133-.28-.2-.616-.2-1.007 0-.512.118-.95.352-1.313.234-.363.569-.64 1.002-.832.438-.195.953-.292 1.547-.292.445 0 .87.052 1.271.158.407.101.83.25 1.272.445l-.586 1.412a9.72 9.72 0 0 0-1.06-.369 3.442 3.442 0 0 0-.956-.135c-.226 0-.42.037-.58.112a.782.782 0 0 0-.486.755c0 .204.058.376.176.516.12.137.3.27.539.398.242.13.543.28.902.452.438.207.81.423 1.12.65.312.223.552.486.72.791.168.3.252.676.252 1.125Zm8.273-6.188L48.115 87h-1.98l-2.907-8.566h1.834l1.612 5.097a26.306 26.306 0 0 1 .322 1.236c.067.262.111.48.135.651.023-.172.064-.389.123-.65.062-.262.123-.51.181-.745.063-.238.108-.402.135-.492l1.623-5.097h1.834Z"/></g><defs><clipPath id="clip0_2964_22039"><path fill="#fff" d="M0 0h80v100H0z"/></clipPath></defs></svg>