<svg xmlns="http://www.w3.org/2000/svg" width="80" height="100" fill="none"><g clip-path="url(#clip0_2964_22035)"><path fill="#214479" d="M75 19v73.667A2.333 2.333 0 0 1 72.667 95H7.333A2.333 2.333 0 0 1 5 92.667V7.333A2.333 2.333 0 0 1 7.333 5H61l14 14Z"/><path fill="#000" d="M75 19H63.333A2.333 2.333 0 0 1 61 16.667V5l14 14Z" opacity=".2"/><path fill="#fff" d="M31.492 82.635c0 .965-.185 1.771-.556 2.42a3.5 3.5 0 0 1-1.6 1.459c-.7.324-1.541.486-2.525.486h-2.426v-8.566h2.69c.898 0 1.677.16 2.337.48.66.317 1.172.787 1.535 1.412.364.621.545 1.39.545 2.309Zm-1.887.047c0-.633-.093-1.153-.28-1.559a1.852 1.852 0 0 0-.821-.908c-.36-.196-.805-.293-1.336-.293h-.967V85.5h.78c.886 0 1.544-.236 1.974-.709.434-.473.65-1.176.65-2.11Zm11.438.023c0 .66-.082 1.262-.246 1.805a3.81 3.81 0 0 1-.75 1.394c-.332.39-.754.692-1.266.903-.511.207-1.117.31-1.816.31-.7 0-1.305-.103-1.817-.31a3.309 3.309 0 0 1-1.271-.903 3.851 3.851 0 0 1-.744-1.4 6.247 6.247 0 0 1-.246-1.81c0-.887.144-1.659.433-2.315a3.31 3.31 0 0 1 1.348-1.535c.605-.363 1.375-.545 2.309-.545.93 0 1.693.181 2.29.545a3.286 3.286 0 0 1 1.336 1.535c.294.66.44 1.435.44 2.326Zm-6.252 0c0 .598.074 1.113.223 1.547.152.43.388.762.709.996.32.23.734.346 1.242.346.515 0 .933-.115 1.254-.346.32-.234.553-.566.697-.996.149-.434.223-.95.223-1.547 0-.898-.168-1.605-.504-2.121-.336-.516-.889-.773-1.658-.773-.512 0-.93.117-1.254.351-.32.23-.557.563-.71.996-.148.43-.222.945-.222 1.547ZM46.123 87h-1.816v-7.055H41.98v-1.511h6.47v1.511h-2.327V87Zm10.57 0H54.62l-1.992-3.24L50.635 87H48.69l2.841-4.418-2.66-4.148h2.004l1.846 3.082 1.81-3.082h1.957l-2.69 4.248L56.694 87ZM51.8 36l-4.56 20.647L42.172 36h-4.344L32.76 56.647 28.2 36H24l6.154 26h4.633L40 40.665 45.213 62h4.633L56 36h-4.2Z"/><path fill="#fff" fill-rule="evenodd" d="M12 10a2 2 0 0 0-2 2v9a2 2 0 0 0 2 2h9a2 2 0 0 0 2-2v-9a2 2 0 0 0-2-2h-9Zm5.213 10v-5.962H19.4v-1.147h-5.8v1.147h2.153V20h1.46Z" clip-rule="evenodd"/></g><defs><clipPath id="clip0_2964_22035"><path fill="#fff" d="M0 0h80v100H0z"/></clipPath></defs></svg>