<svg xmlns="http://www.w3.org/2000/svg" width="80" height="100" fill="none"><g clip-path="url(#clip0_2964_22030)"><path fill="#DD9426" d="M75 19v73.667A2.333 2.333 0 0 1 72.667 95H7.333A2.333 2.333 0 0 1 5 92.667V7.333A2.333 2.333 0 0 1 7.333 5H61l14 14Z"/><path fill="#fff" fill-rule="evenodd" d="m64.617 38.876.257.134a.223.223 0 0 1 .125.169.204.204 0 0 1-.231.222h-.294l-.086-.016c-.213-.04-.432-.082-.652-.082-4.481-.418-8.643.827-11.381 3.957-.116.107-.214.116-.33 0-2.16-2.454-5.21-3.548-8.767-3.877a13 13 0 0 0-3.681.16h-.053a.231.231 0 0 1-.208-.33.222.222 0 0 1 .065-.079h.072a13.275 13.275 0 0 1 12.715.213 13.339 13.339 0 0 1 12.449-.47ZM48.26 48.478a23.119 23.119 0 0 1 11.42 1.62.339.339 0 0 1 .134.222.356.356 0 0 1-.347.347h-.489c-.542-.053-1.084-.053-1.636-.053-7.7 0-14.618 2.827-18.815 8.563l-.196.275a.329.329 0 0 1-.266.125.337.337 0 0 1-.223-.08c-4.126-3.877-9.612-5.336-15.774-5.336-2.256.001-4.5.33-6.66.979h-.071a.347.347 0 0 1-.338-.347.365.365 0 0 1 .124-.267h.045a23.12 23.12 0 0 1 22.31-1.947 23.12 23.12 0 0 1 10.782-4.1Z" clip-rule="evenodd"/><path fill="#000" d="M75 19H63.333A2.333 2.333 0 0 1 61 16.667V5l14 14Z" opacity=".2"/><path fill="#fff" d="M35.87 82.705c0 .66-.083 1.262-.247 1.805a3.808 3.808 0 0 1-.75 1.394c-.332.39-.754.692-1.266.903-.511.207-1.117.31-1.816.31-.7 0-1.305-.103-1.816-.31a3.31 3.31 0 0 1-1.272-.903 3.851 3.851 0 0 1-.744-1.4 6.244 6.244 0 0 1-.246-1.81c0-.887.144-1.659.433-2.315a3.31 3.31 0 0 1 1.348-1.535c.606-.363 1.375-.545 2.309-.545.93 0 1.693.181 2.29.545a3.287 3.287 0 0 1 1.337 1.535c.293.66.44 1.435.44 2.326Zm-6.253 0c0 .598.074 1.113.223 1.547.152.43.389.762.709.996.32.23.734.346 1.242.346.516 0 .934-.115 1.254-.346.32-.234.553-.566.697-.996.149-.434.223-.95.223-1.547 0-.898-.168-1.605-.504-2.121-.336-.516-.889-.773-1.658-.773-.512 0-.93.117-1.254.351-.32.23-.557.563-.71.996-.148.43-.222.945-.222 1.547Zm15.135-.07c0 .965-.186 1.771-.557 2.42-.367.644-.9 1.13-1.6 1.459-.698.324-1.54.486-2.525.486h-2.425v-8.566h2.689c.898 0 1.678.16 2.338.48.66.317 1.172.787 1.535 1.412.363.621.545 1.39.545 2.309Zm-1.887.047c0-.633-.093-1.153-.281-1.559a1.852 1.852 0 0 0-.82-.908c-.36-.196-.805-.293-1.336-.293h-.967V85.5h.78c.886 0 1.544-.236 1.974-.709.433-.473.65-1.176.65-2.11Zm6.399-4.248c1.105 0 1.912.238 2.42.714.507.473.761 1.125.761 1.958 0 .375-.056.734-.17 1.078-.113.34-.298.642-.556.908-.254.265-.594.476-1.02.633-.426.152-.951.228-1.576.228h-.78V87h-1.816v-8.566h2.737Zm-.094 1.488h-.826v2.543h.597c.34 0 .635-.045.885-.135.25-.09.444-.23.58-.422.137-.191.205-.437.205-.738 0-.422-.117-.734-.351-.938-.235-.207-.598-.31-1.09-.31Z"/></g><defs><clipPath id="clip0_2964_22030"><path fill="#fff" d="M0 0h80v100H0z"/></clipPath></defs></svg>