<svg xmlns="http://www.w3.org/2000/svg" width="80" height="100" fill="none"><g clip-path="url(#clip0_2964_22033)"><path fill="#237453" d="M75 19v73.667A2.333 2.333 0 0 1 72.667 95H7.333A2.333 2.333 0 0 1 5 92.667V7.333A2.333 2.333 0 0 1 7.333 5H61l14 14Z"/><path fill="#fff" fill-rule="evenodd" d="m64.617 37.876.257.134a.222.222 0 0 1 .125.169.204.204 0 0 1-.231.222h-.294l-.086-.016a3.538 3.538 0 0 0-.652-.082c-4.481-.418-8.643.827-11.381 3.957-.116.107-.214.116-.33 0-2.16-2.454-5.21-3.548-8.767-3.877a13.003 13.003 0 0 0-3.681.16h-.053a.231.231 0 0 1-.208-.33.222.222 0 0 1 .065-.079h.072a13.275 13.275 0 0 1 12.715.213 13.338 13.338 0 0 1 12.449-.47ZM48.26 47.478a23.12 23.12 0 0 1 11.42 1.62.34.34 0 0 1 .134.222.355.355 0 0 1-.347.347h-.489c-.542-.053-1.084-.053-1.636-.053-7.7 0-14.618 2.827-18.815 8.563l-.196.275a.329.329 0 0 1-.266.125.339.339 0 0 1-.223-.08c-4.126-3.877-9.612-5.336-15.774-5.336-2.256 0-4.5.33-6.66.978h-.071a.347.347 0 0 1-.213-.613h.044a23.119 23.119 0 0 1 22.31-1.947 23.119 23.119 0 0 1 10.782-4.1Z" clip-rule="evenodd"/><path fill="#000" d="M75 19H63.333A2.333 2.333 0 0 1 61 16.667V5l14 14Z" opacity=".2"/><path fill="#fff" d="M37.299 82.705c0 .66-.082 1.262-.246 1.805a3.808 3.808 0 0 1-.75 1.394c-.332.39-.754.692-1.266.903-.512.207-1.117.31-1.816.31-.7 0-1.305-.103-1.817-.31a3.31 3.31 0 0 1-1.271-.903 3.851 3.851 0 0 1-.744-1.4 6.244 6.244 0 0 1-.246-1.81c0-.887.144-1.659.433-2.315a3.31 3.31 0 0 1 1.348-1.535c.605-.363 1.375-.545 2.308-.545.93 0 1.694.181 2.291.545a3.286 3.286 0 0 1 1.336 1.535c.293.66.44 1.435.44 2.326Zm-6.252 0c0 .598.074 1.113.223 1.547.152.43.388.762.709.996.32.23.734.346 1.242.346.515 0 .933-.115 1.254-.346.32-.234.552-.566.697-.996.148-.434.223-.95.223-1.547 0-.898-.168-1.605-.504-2.121-.336-.516-.889-.773-1.659-.773-.511 0-.93.117-1.253.351-.32.23-.557.563-.71.996-.148.43-.222.945-.222 1.547ZM42.379 87h-1.816v-7.055h-2.327v-1.511h6.47v1.511h-2.327V87Zm8.701-2.379c0 .508-.123.95-.37 1.324-.245.375-.605.664-1.077.868-.469.203-1.04.304-1.711.304a6.023 6.023 0 0 1-1.688-.228 5.096 5.096 0 0 1-.738-.287v-1.688c.406.18.828.342 1.266.486a4.13 4.13 0 0 0 1.3.217c.297 0 .536-.039.715-.117a.817.817 0 0 0 .399-.322.893.893 0 0 0 .123-.469.771.771 0 0 0-.217-.55 2.264 2.264 0 0 0-.598-.428c-.25-.133-.533-.276-.85-.428a9.733 9.733 0 0 1-.65-.34 3.798 3.798 0 0 1-.668-.498 2.402 2.402 0 0 1-.521-.71c-.133-.28-.2-.616-.2-1.007 0-.512.118-.95.352-1.313.235-.363.569-.64 1.002-.832.438-.195.953-.292 1.547-.292.445 0 .87.052 1.272.158.406.101.83.25 1.271.445l-.586 1.412a9.712 9.712 0 0 0-1.06-.369 3.442 3.442 0 0 0-.956-.135c-.226 0-.42.037-.58.112a.782.782 0 0 0-.486.755c0 .204.059.376.176.516.121.137.3.27.539.398.242.13.543.28.902.452.438.207.81.423 1.12.65.312.223.552.486.72.791.168.3.252.676.252 1.125Z"/><path fill="#fff" fill-rule="evenodd" d="M12 10a2 2 0 0 0-2 2v9a2 2 0 0 0 2 2h9a2 2 0 0 0 2-2v-9a2 2 0 0 0-2-2h-9Zm5.213 10v-5.962H19.4v-1.147h-5.8v1.147h2.153V20h1.46Z" clip-rule="evenodd"/></g><defs><clipPath id="clip0_2964_22033"><path fill="#fff" d="M0 0h80v100H0z"/></clipPath></defs></svg>