<svg xmlns="http://www.w3.org/2000/svg" width="80" height="100" fill="none"><g clip-path="url(#clip0_2964_22052)"><path fill="#DD682B" d="M75 19v73.667A2.333 2.333 0 0 1 72.667 95H7.333A2.333 2.333 0 0 1 5 92.667V7.333A2.333 2.333 0 0 1 7.333 5H61l14 14Z"/><path fill="#fff" fill-rule="evenodd" d="M41 46V34a12 12 0 0 1 12 12H41Zm6.485 10.485A12 12 0 1 1 39 36v12h12a12 12 0 0 1-3.515 8.485Z" clip-rule="evenodd"/><path fill="#000" d="M75 19H63.333A2.333 2.333 0 0 1 61 16.667V5l14 14Z" opacity=".2"/><path fill="#fff" d="M28.973 78.434c1.105 0 1.912.238 2.42.714.507.473.761 1.125.761 1.958 0 .375-.056.734-.17 1.078-.113.34-.299.642-.556.908-.254.265-.594.476-1.02.633-.426.152-.951.228-1.576.228h-.78V87h-1.816v-8.566h2.737Zm-.094 1.488h-.826v2.543h.597c.34 0 .635-.045.885-.135.25-.09.444-.23.58-.422.137-.191.205-.437.205-.738 0-.422-.117-.734-.351-.938-.235-.207-.598-.31-1.09-.31Zm7.629-1.488c1.105 0 1.912.238 2.42.714.508.473.762 1.125.762 1.958 0 .375-.057.734-.17 1.078-.114.34-.3.642-.557.908-.254.265-.594.476-1.02.633-.425.152-.95.228-1.576.228h-.78V87h-1.816v-8.566h2.737Zm-.094 1.488h-.826v2.543h.597c.34 0 .635-.045.885-.135.25-.09.444-.23.58-.422.137-.191.206-.437.206-.738 0-.422-.118-.734-.352-.938-.234-.207-.598-.31-1.09-.31Zm9.95 4.7c0 .507-.124.948-.37 1.323s-.605.664-1.078.868c-.469.203-1.039.304-1.71.304a6.023 6.023 0 0 1-1.688-.228 5.096 5.096 0 0 1-.739-.287v-1.688c.406.18.828.342 1.266.486a4.13 4.13 0 0 0 1.3.217c.298 0 .536-.039.715-.117a.817.817 0 0 0 .399-.322.893.893 0 0 0 .123-.469.771.771 0 0 0-.217-.55 2.264 2.264 0 0 0-.597-.428c-.25-.133-.534-.276-.85-.428a9.757 9.757 0 0 1-.65-.34 3.798 3.798 0 0 1-.668-.498 2.402 2.402 0 0 1-.522-.71c-.133-.28-.2-.616-.2-1.007 0-.512.118-.95.352-1.313.235-.363.569-.64 1.002-.832.438-.195.953-.292 1.547-.292.446 0 .87.052 1.272.158.406.101.83.25 1.271.445l-.586 1.412a9.712 9.712 0 0 0-1.06-.369 3.442 3.442 0 0 0-.955-.135c-.227 0-.42.037-.58.112a.782.782 0 0 0-.487.755c0 .204.059.376.176.516.121.137.3.27.54.398.241.13.542.28.902.452.437.207.81.423 1.119.65.312.223.552.486.72.791.168.3.252.676.252 1.125ZM54.841 87h-2.074l-1.993-3.24L48.783 87h-1.945l2.842-4.418-2.66-4.148h2.003l1.846 3.082 1.81-3.082h1.958l-2.69 4.248L54.842 87Z"/></g><defs><clipPath id="clip0_2964_22052"><path fill="#fff" d="M0 0h80v100H0z"/></clipPath></defs></svg>