<svg xmlns="http://www.w3.org/2000/svg" width="80" height="100" fill="none"><g clip-path="url(#clip0_2964_22058)"><path fill="#635E9B" d="M75 19v73.667A2.333 2.333 0 0 1 72.667 95H7.333A2.333 2.333 0 0 1 5 92.667V7.333A2.333 2.333 0 0 1 7.333 5H61l14 14Z"/><path fill="#fff" fill-rule="evenodd" d="M21 33h12v12H21V33Zm14 0h24v2H35v-2Zm24 5H35v2h24v-2Zm-24 5h24v2H35v-2Zm24 5H21v2h38v-2Zm-38 5h38v2H21v-2Zm38 5H21v2h38v-2Zm-38 5h38v2H21v-2Z" clip-rule="evenodd"/><path fill="#000" d="M75 19H63.333A2.333 2.333 0 0 1 61 16.667V5l14 14Z" opacity=".2"/><path fill="#fff" d="M32.846 78.434c.777 0 1.418.093 1.922.28.507.188.884.472 1.13.85.246.38.37.858.37 1.436 0 .39-.075.732-.223 1.025a2.336 2.336 0 0 1-.586.744 3.46 3.46 0 0 1-.785.499L37.194 87h-2.016l-2.045-3.287h-.967V87H30.35v-8.566h2.496Zm-.13 1.488h-.55v2.314h.586c.601 0 1.031-.1 1.289-.299.262-.203.393-.5.393-.89 0-.406-.141-.695-.422-.867-.278-.172-.71-.258-1.295-.258ZM41.577 87H39.76v-7.055h-2.326v-1.511h6.468v1.511h-2.326V87Zm5.432 0H45.22v-8.566h4.91v1.488h-3.123v2.209h2.906v1.482h-2.906V87Z"/></g><defs><clipPath id="clip0_2964_22058"><path fill="#fff" d="M0 0h80v100H0z"/></clipPath></defs></svg>