<svg xmlns="http://www.w3.org/2000/svg" width="28" height="28" fill="none"><path fill="#000" fill-rule="evenodd" d="M19.146 5.854 21.5 8.207l2.354-2.353-.708-.708L22 6.293V4.5A1.5 1.5 0 0 0 20.5 3H18v1h2.5a.5.5 0 0 1 .5.5v1.793l-1.146-1.147-.708.708ZM5 4h11v4h1V4a1 1 0 0 0-1-1H5a1 1 0 0 0-1 1v14a1 1 0 0 0 1 1h5v-1H5V4Zm2 2h7v1H7V6Zm16 4H12v14h11V10ZM12 9a1 1 0 0 0-1 1v14a1 1 0 0 0 1 1h11a1 1 0 0 0 1-1V10a1 1 0 0 0-1-1H12Zm9 12h-7v1h7v-1Zm-7-3h7v1h-7v-1Zm-4-9H7v1h3V9Zm-3 3h3v1H7v-1Zm3 3H7v1h3v-1Zm6.5 1.207 4.854-4.853-.707-.707-4.147 4.146-2.146-2.146-.707.707 2.853 2.853Zm-10 3.586 2.354 2.354-.708.707L7 21.707V23.5a.5.5 0 0 0 .5.5H10v1H7.5A1.5 1.5 0 0 1 6 23.5v-1.793l-1.146 1.147-.708-.707L6.5 19.793Z" clip-rule="evenodd"/></svg>