<svg xmlns="http://www.w3.org/2000/svg" width="28" height="28" fill="none"><path fill="#000" d="M5 4h16v3h1V4a1 1 0 0 0-1-1H5a1 1 0 0 0-1 1v20a1 1 0 0 0 1 1h16a1 1 0 0 0 1-1v-6h-1v6H5V4Z"/><path fill="#000" d="M18 8H7v1h11V8Zm-3 3H7v1h8v-1Zm-8 3h5v1H7v-1Zm3 3H7v1h3v-1Z"/><path fill="#000" fill-rule="evenodd" d="M22.5 7.793 25.707 11 17 19.707l-.75-.75L15.207 20h-3.414l2.75-2.75-.75-.75L22.5 7.793ZM15.207 16.5 17 18.293 22.293 13 20.5 11.207 15.207 16.5Zm9.086-5.5L23 12.293 21.207 10.5 22.5 9.207 24.293 11Z" clip-rule="evenodd"/></svg>