<svg xmlns="http://www.w3.org/2000/svg" width="28" height="28" fill="none"><path fill="#000" d="M20.157 15.742c-.4-.395-.876-.609-1.37-.609-.493 0-.964.21-1.364.605l-.107.102a74.46 74.46 0 0 0-1.183 1.187 5.115 5.115 0 0 0-.222-.111 5.387 5.387 0 0 1-.507-.272c-1.187-.746-2.28-1.742-3.338-3.04-.507-.622-.863-1.177-1.112-1.733.347-.333.685-.68 1.018-1.013l.258-.258c.84-.844.836-1.933-.004-2.782l-.76-.76-.33-.33-.35-.35c-.254-.254-.512-.516-.774-.774C9.612 5.21 9.136 5 8.642 5c-.493 0-.964.209-1.364.604-.191.187-.378.378-.565.565-.267.271-.542.551-.822.813-.525.498-.818 1.13-.876 1.871-.089 1.165.236 2.218.529 3.005.662 1.778 1.671 3.462 3.085 5.146a19.202 19.202 0 0 0 6.317 4.943c1.338.649 2.485.982 3.606 1.044.084.005.164.009.244.009.951 0 1.734-.333 2.325-.996.254-.28.52-.542.81-.822.142-.142.293-.284.44-.43.835-.845.84-1.934.008-2.77-.742-.769-1.493-1.52-2.223-2.24Zm1.466 4.245c-.137.142-.284.28-.426.417-.285.28-.583.565-.858.876-.427.476-.965.676-1.712.636-.973-.054-1.991-.352-3.196-.938a18.093 18.093 0 0 1-5.966-4.667C8.127 14.72 7.18 13.142 6.562 11.48c-.378-1.018-.52-1.804-.467-2.551.036-.485.21-.858.547-1.178.289-.275.569-.56.845-.835.182-.183.369-.374.55-.552.139-.133.357-.297.619-.297s.48.16.622.297c.258.254.516.512.765.765l.356.355c.11.112.222.223.333.33.249.248.507.502.756.755.426.431.43.849.004 1.28l-.258.262c-.36.365-.733.738-1.107 1.098-.19.187-.382.502-.19.955.288.698.71 1.37 1.32 2.12 1.133 1.392 2.311 2.463 3.6 3.272.2.124.405.226.605.324.116.058.227.111.333.169a.85.85 0 0 0 .414.111c.222 0 .427-.093.604-.28.418-.431.85-.858 1.272-1.276l.107-.102c.137-.138.355-.298.613-.298s.48.165.618.298c.725.72 1.476 1.467 2.227 2.222.396.414.396.84-.026 1.263Z"/></svg>