<svg xmlns="http://www.w3.org/2000/svg" width="28" height="28" fill="none"><path fill="#000" fill-rule="evenodd" d="M16.227 4.645C15.763 4.215 15.053 4 14.096 4a5.44 5.44 0 0 0-1.48.198c-.468.132-.883.29-1.245.476l.374.923c.342-.166.703-.31 1.084-.432a3.91 3.91 0 0 1 1.201-.184c.542 0 .962.14 1.26.418.298.278.447.764.447 1.457v.491l-1.385.059c-1.299.039-2.265.273-2.9.703-.635.43-.952 1.045-.952 1.846 0 .532.107.971.322 1.318.22.347.518.605.894.776.38.171.815.257 1.303.257.464 0 .855-.05 1.172-.147.322-.102.606-.251.85-.447.088-.072.207-.146.335-.225.227-.142.48-.3.624-.487l.037 1.05h.886V6.702c0-.943-.232-1.629-.696-2.058ZM14.5 8.255l1.223-.05v.739c0 .79-.227 1.384-.681 1.78-.454.395-1.038.593-1.75.593-.46 0-.828-.11-1.107-.33-.278-.22-.417-.559-.417-1.018 0-.527.205-.935.615-1.223.41-.288 1.116-.452 2.117-.49ZM18 8v1.017L22 9V8h-4ZM8 14.5V12H7v11.031h1l.128-.948h.095c.22.341.532.632.938.871.41.235.932.352 1.567.352.679 0 1.267-.159 1.765-.476.498-.318.884-.786 1.157-1.407.274-.62.41-1.381.41-2.285 0-1.372-.3-2.405-.9-3.098-.596-.698-1.397-1.047-2.403-1.047-.644 0-1.174.124-1.589.373a2.726 2.726 0 0 0-.952.916L8 16.355c.004-.076.002-.192 0-.324-.004-.167-.008-.36 0-.531.013-.206.009-.437.004-.666A17.757 17.757 0 0 1 8 14.5Zm1.175 1.855c.342-.23.804-.344 1.385-.344.756 0 1.318.261 1.684.783.371.523.557 1.302.557 2.337 0 1.015-.188 1.797-.564 2.344-.371.546-.93.82-1.677.82-.89 0-1.502-.266-1.839-.798-.337-.538-.505-1.311-.505-2.322v-.066c0-.698.073-1.275.22-1.729.15-.459.398-.8.74-1.025Zm8.313 6.504c.552.298 1.19.447 1.912.447.454 0 .845-.037 1.172-.11.332-.073.632-.178.9-.315v-1.084c-.278.122-.588.23-.93.322a4.622 4.622 0 0 1-1.15.132c-.532 0-.976-.12-1.332-.359-.352-.244-.618-.596-.799-1.055-.176-.459-.263-1.013-.263-1.662 0-.679.09-1.25.27-1.714.186-.464.462-.816.828-1.055.371-.239.835-.359 1.392-.359.278 0 .576.04.893.118.323.078.606.166.85.263l.366-1.018a3.718 3.718 0 0 0-.923-.3 5.287 5.287 0 0 0-1.157-.125c-.727 0-1.377.15-1.948.447-.571.298-1.02.757-1.348 1.377-.322.615-.483 1.409-.483 2.38 0 .928.154 1.697.461 2.308.308.61.737 1.064 1.29 1.362Z" clip-rule="evenodd"/></svg>