<svg xmlns="http://www.w3.org/2000/svg" width="28" height="28" fill="none"><path fill="#000" d="M18 3h6a1 1 0 0 1 1 1v9a1 1 0 0 1-1 1h-6a1 1 0 0 1-1-1v-1h1v1h6V4h-6v3h-1V4a1 1 0 0 1 1-1Zm-5.113 2.998H4a1 1 0 0 0-1 1v15.006a1 1 0 0 0 1 1h8.875l-1.005-1H4.004V6.996h7.879l1.004-.998Z"/><path fill="#000" d="m13.707 9 2.146-2.146-.707-.708L11.793 9.5l3.353 3.354.707-.707L13.707 10H18V9h-4.293ZM24 26h-6a1 1 0 0 1-1-1v-3h1v3h6v-9h-6v1h-1v-1a1 1 0 0 1 1-1h6a1 1 0 0 1 1 1v9a1 1 0 0 1-1 1Z"/><path fill="#000" d="m15.854 16.858-2.147 2.146H18v1h-4.293l2.146 2.146-.707.708-3.353-3.354 3.353-3.354.707.708Z"/></svg>