<svg xmlns="http://www.w3.org/2000/svg" width="28" height="28" fill="none"><path fill="#000" d="M11.996 19v-.51c0-1.04.157-1.891.47-2.551.321-.66.91-1.367 1.764-2.12l1.156-1.004c.61-.516 1.045-1.028 1.307-1.536.263-.508.394-1.091.394-1.752 0-1.075-.356-1.93-1.067-2.564-.702-.635-1.629-.952-2.78-.952-.668 0-1.295.076-1.879.228a9.612 9.612 0 0 0-1.891.711L9 5.935c.931-.407 1.71-.678 2.336-.813a9.345 9.345 0 0 1 1.955-.203c1.549 0 2.768.419 3.656 1.257.889.83 1.333 1.972 1.333 3.428 0 .575-.076 1.079-.228 1.51a4.493 4.493 0 0 1-.648 1.206c-.27.364-.6.72-.99 1.067-.39.338-.82.706-1.295 1.104-.541.457-.96.876-1.257 1.257-.287.372-.499.766-.635 1.18-.126.415-.19 1.033-.19 1.854V19h-1.04Zm-.419 3.756c0-.83.339-1.244 1.016-1.244.694 0 1.04.414 1.04 1.244 0 .83-.346 1.244-1.04 1.244-.677 0-1.016-.415-1.016-1.244Z"/></svg>