<svg xmlns="http://www.w3.org/2000/svg" width="28" height="28" fill="none"><path fill="#000" d="M3 7h20v5h1V7a1 1 0 0 0-1-1H3a1 1 0 0 0-1 1v13a1 1 0 0 0 1 1h4a1 1 0 0 0 1-1v-1h10v-1H3V7z"/><path fill="#000" fill-rule="evenodd" d="M20 15.5v.5a1 1 0 0 0-1 1v4a1 1 0 0 0 1 1h5a1 1 0 0 0 1-1v-4a1 1 0 0 0-1-1v-.5a2.5 2.5 0 0 0-5 0zm4 .5v-.5a1.5 1.5 0 0 0-3 0v.5h3zm-4 1h5v4h-5v-4z" clip-rule="evenodd"/><path fill="#000" fill-rule="evenodd" d="M10 7H9v3H3v1h6v3H3v1h6v3h1v-3h6v3h1v-3h2v-1h-2v-3h6v-1h-6V7h-1v3h-6V7zm6 7v-3h-6v3h6z" clip-rule="evenodd" opacity=".4"/></svg>