<svg xmlns="http://www.w3.org/2000/svg" width="28" height="28" fill="none"><g fill="#000" opacity=".4"><path d="M4 7h20v2H4V7Z"/><path fill-rule="evenodd" d="M4 10h5v3h7v-3h1v3h7v1h-7v3h1v1h-1v3h-1v-3H9v3H4V10Zm5 7h7v-3H9v3Z" clip-rule="evenodd"/></g><path fill="#000" fill-rule="evenodd" d="M3 7a1 1 0 0 1 1-1h20a1 1 0 0 1 1 1v8h-1v-5H9v11h9v1H4a1 1 0 0 1-1-1V7Zm14 0h7v2h-7V7Zm-1 0H9v2h7V7ZM8 7H4v2h4V7Zm-4 3v3h4v-3H4Zm0 4v3h4v-3H4Zm0 4v3h4v-3H4Zm18-2h1v2.293l1.621-1.621.707.707L23.708 19H26v1h-2.293l1.621 1.621-.707.707L23 20.708V23h-1v-2.293l-1.621 1.621-.707-.707L21.292 20H19v-1h2.293l-1.621-1.621.707-.707L22 18.292V16Z" clip-rule="evenodd"/></svg>