<svg xmlns="http://www.w3.org/2000/svg" width="28" height="28" fill="none"><path fill="#000" fill-rule="evenodd" d="M6 3h2v1H6v2H5V4a1 1 0 0 1 1-1Zm14 1v2h-1V4h-2V3h2a1 1 0 0 1 1 1ZM5 18v2a1 1 0 0 0 1 1h2v-1H6v-2H5ZM15 3h-5v1h5V3Zm4 7V8h1v2h-1ZM5 8v3h1V8H5Zm0 8v-3h1v3H5Zm8-5a1 1 0 0 0-1 1v2h-2a1 1 0 0 0-1 1v6a1 1 0 0 0 1 1h2v2a1 1 0 0 0 1 1h8a1 1 0 0 0 1-1v-2h2a1 1 0 0 0 1-1v-6a1 1 0 0 0-1-1h-2v-2a1 1 0 0 0-1-1h-8Zm0 7a1 1 0 0 0-1 1v2h-2v-6h14v6h-2v-2a1 1 0 0 0-1-1h-8Zm8-4v-2h-8v2h8Zm-10 2h1v1h-1v-1Zm2 8v-5h8v5h-8Zm7-3v-1h-6v1h6Zm-6 2v-1h6v1h-6Z" clip-rule="evenodd"/></svg>