<svg xmlns="http://www.w3.org/2000/svg" width="28" height="28" fill="none"><g fill="#000" opacity=".4"><path d="M8 7V5H7v2h1Z"/><path fill-rule="evenodd" d="M8 8v2h3v1H8v2h3v1H8v2h3v1H3V8h1v2h3V8h1Zm-4 3v2h3v-2H4Zm0 5v-2h3v2H4Z" clip-rule="evenodd"/><path d="M11 10V8h1v2h-1Zm4 0V8h1v2h-1Zm-3-3h-1V5h1v2Zm9 7h-1v-2h1v2Z"/><path fill-rule="evenodd" d="M12 15v9h13v-9h-1v2h-3v-2h-1v2h-3v-2h-1v2h-3v-2h-1Zm1 5v-2h3v2h-3Zm0 1v2h3v-2h-3Zm4 0v2h3v-2h-3Zm4 0v2h3v-2h-3Zm3-1v-2h-3v2h3Zm-4 0h-3v-2h3v2Z" clip-rule="evenodd"/><path d="M16 14h1v-2h-1v2Z"/></g><path fill="#000" fill-rule="evenodd" d="M3 8V4h13v4H3Zm1-3h11v2H4V5Zm8 10v-4h13v4H12Zm1-3h11v2H13v-2Z" clip-rule="evenodd"/></svg>