<svg xmlns="http://www.w3.org/2000/svg" width="28" height="28" fill="none"><path fill="#000" fill-rule="evenodd" d="M6 4h16v20H6V4ZM5 4a1 1 0 0 1 1-1h16a1 1 0 0 1 1 1v20a1 1 0 0 1-1 1H6a1 1 0 0 1-1-1V4Zm3 3h12v2H8V7ZM7 7a1 1 0 0 1 1-1h12a1 1 0 0 1 1 1v2a1 1 0 0 1-1 1H8a1 1 0 0 1-1-1V7Zm3 6H8v1h2v-1Zm-2-1a1 1 0 0 0-1 1v1a1 1 0 0 0 1 1h2a1 1 0 0 0 1-1v-1a1 1 0 0 0-1-1H8Zm5 1h2v1h-2v-1Zm-1 0a1 1 0 0 1 1-1h2a1 1 0 0 1 1 1v1a1 1 0 0 1-1 1h-2a1 1 0 0 1-1-1v-1Zm8 0h-2v1h2v-1Zm-2-1a1 1 0 0 0-1 1v1a1 1 0 0 0 1 1h2a1 1 0 0 0 1-1v-1a1 1 0 0 0-1-1h-2ZM8 17h2v1H8v-1Zm-1 0a1 1 0 0 1 1-1h2a1 1 0 0 1 1 1v1a1 1 0 0 1-1 1H8a1 1 0 0 1-1-1v-1Zm8 0h-2v1h2v-1Zm-2-1a1 1 0 0 0-1 1v1a1 1 0 0 0 1 1h2a1 1 0 0 0 1-1v-1a1 1 0 0 0-1-1h-2Zm5 1h2v5h-2v-5Zm-1 0a1 1 0 0 1 1-1h2a1 1 0 0 1 1 1v5a1 1 0 0 1-1 1h-2a1 1 0 0 1-1-1v-5Zm-2 4h-2v1h2v-1Zm-2-1a1 1 0 0 0-1 1v1a1 1 0 0 0 1 1h2a1 1 0 0 0 1-1v-1a1 1 0 0 0-1-1h-2Zm-5 1h2v1H8v-1Zm-1 0a1 1 0 0 1 1-1h2a1 1 0 0 1 1 1v1a1 1 0 0 1-1 1H8a1 1 0 0 1-1-1v-1Z" clip-rule="evenodd"/></svg>