<svg xmlns="http://www.w3.org/2000/svg" width="28" height="28" fill="none"><path fill="#000" fill-rule="evenodd" d="M16.5 16h-4a2.5 2.5 0 0 0 0 5h.5v1h-.5a3.5 3.5 0 1 1 0-7h4a3.5 3.5 0 1 1 0 7H16v-1h.5a2.5 2.5 0 0 0 0-5Zm5 8h-4a2.5 2.5 0 0 1 0-5h.5v-1h-.5a3.5 3.5 0 1 0 0 7h4a3.5 3.5 0 1 0 0-7H21v1h.5a2.5 2.5 0 0 1 0 5Z" clip-rule="evenodd"/><path fill="#000" fill-rule="evenodd" d="M13 24H6V4h8v5a1 1 0 0 0 1 1h5v6h1V9.414a1 1 0 0 0-.293-.707l-5.414-5.414A1 1 0 0 0 14.586 3H6a1 1 0 0 0-1 1v20a1 1 0 0 0 1 1h7v-1Zm2-19.586L19.586 9H15V4.414Z" clip-rule="evenodd"/></svg>