<svg xmlns="http://www.w3.org/2000/svg" width="28" height="28" fill="none"><path fill="#000" fill-rule="evenodd" d="M20 2h-6v1h6V2Zm-8 2H5v1h7V4Zm0 10H2v1h10v-1Zm2-10h6v1h-6V4ZM2 2h10v1H2V2Zm10 4H5v1h7V6Zm2 0h6v1h-6V6Zm-2 2H5v1h7V8Zm2 0h6v1h-6V8Zm-2 2H5v1h7v-1Zm2 0h6v1h-6v-1Zm-2 6H5v1h7v-1Zm2 0h6v1h-6v-1Zm6-2h-6v1h6v-1ZM5 18h7v1H5v-1Zm15 0h-6v1h6v-1ZM5 20h7v1H5v-1Zm15 0h-6v1h6v-1Z" clip-rule="evenodd" opacity=".4"/><path fill="#000" fill-rule="evenodd" d="M26 2h-4v1h4V2Zm0 2h-4v1h4V4Zm-4 2h4v1h-4V6Zm4 2h-4v1h4V8Zm-4 2h4v1h-4v-1Zm4 6h-4v1h4v-1Zm-4-2h4v1h-4v-1ZM12 24H2v1h10v-1Zm2 0h6v1h-6v-1Zm12 0h-4v1h4v-1Zm-4-6h4v1h-4v-1Zm4 2h-4v1h4v-1Z" clip-rule="evenodd"/></svg>