<svg xmlns="http://www.w3.org/2000/svg" width="28" height="28" fill="none"><path fill="#000" fill-rule="evenodd" d="M10 3H2v1h8V3Zm0 2H2v1h8V5Zm0 2H2v1h8V7ZM2 9h8v1H2V9Zm8 2H2v1h8v-1Zm-8 4h8v1H2v-1Zm8 2H2v1h8v-1Zm-8 2h8v1H2v-1Zm8 2H2v1h8v-1Zm-8 2h8v1H2v-1Z" clip-rule="evenodd"/><path fill="#000" fill-rule="evenodd" d="M12 3h7v1h-7V3Zm7 2h-7v1h7V5Zm6 0h-4v1h4V5Zm0-2h-4v1h4V3ZM12 7h7v1h-7V7Zm13 0h-4v1h4V7ZM12 9h7v1h-7V9Zm13 0h-4v1h4V9Zm-13 2h7v1h-7v-1Zm13 0h-4v1h4v-1Zm-13 4h7v1h-7v-1Zm13 0h-4v1h4v-1Zm-13 2h7v1h-7v-1Zm13 0h-4v1h4v-1Zm-13 2h7v1h-7v-1Zm13 0h-4v1h4v-1Zm-13 2h7v1h-7v-1Zm13 0h-4v1h4v-1Zm-13 2h7v1h-7v-1Zm13 0h-4v1h4v-1Z" clip-rule="evenodd" opacity=".4"/></svg>