<svg xmlns="http://www.w3.org/2000/svg" width="28" height="28" fill="none"><path fill="#000" fill-rule="evenodd" d="M18 13a1 1 0 0 1 1 1h-2a1 1 0 0 1 1-1Zm-2 1a2 2 0 1 1 4 0 1 1 0 0 1 1 1v3a1 1 0 0 1-1 1h-4a1 1 0 0 1-1-1v-3a1 1 0 0 1 1-1Zm4 1h-4v3h4v-3Z" clip-rule="evenodd"/><path fill="#000" fill-rule="evenodd" d="M11 9h6v2h1V8H4a1 1 0 0 0-1 1v8h11v-1h-3v-3h4v-1h-4V9ZM4 9h6v3H4V9Zm0 7v-3h6v3H4Z" clip-rule="evenodd"/><path fill="#000" fill-rule="evenodd" d="M24 9h-6v2h-1V8h7a1 1 0 0 1 1 1v11a1 1 0 0 1-1 1H4a1 1 0 0 1-1-1v-4h11v1h-3v3h13v-3h-2v-1h2v-3h-3v-1h3V9Zm-14 8H4v3h6v-3Z" clip-rule="evenodd" opacity=".4"/></svg>