<svg xmlns="http://www.w3.org/2000/svg" width="20" height="20" fill="none"><path fill="#000" d="M13 10a.5.5 0 0 0 1 0h-1Zm-2 0a.5.5 0 0 0 1 0h-1Zm-2 0a.5.5 0 0 0 1 0H9Zm-1.5 1.5-.354.354A.5.5 0 0 0 8 11.5h-.5Zm-3.306-.568.449-.22-.45.22Zm1.594-1.144-.353.354.353-.354ZM13 8v2h1V8h-1Zm1 0V4.5h-1V8h1Zm-3-3v5h1V5h-1Zm1 0V3.5h-1V5h1ZM9 3.5V6h1V3.5H9ZM9 6v4h1V6H9Zm-2-.5v6h1v-6H7Zm.854 5.646L6.142 9.435l-.707.707 1.711 1.712.708-.708ZM11 4.5V5h1v-.5h-1ZM10 6v-.5H9V6h1Zm3 1.5V8h1v-.5h-1Zm-9.256 3.651c.635 1.3 1.513 2.985 2.609 4.35C7.435 16.848 8.823 18 10.5 18v-1c-1.202 0-2.333-.836-3.368-2.125-1.02-1.271-1.857-2.87-2.49-4.163l-.898.44ZM10.5 18c1.368 0 2.442-.294 3.265-.874.825-.582 1.343-1.413 1.67-2.387.325-.967.467-2.097.53-3.31.063-1.216.047-2.552.039-3.931l-1 .006c.008 1.393.024 2.693-.037 3.873-.061 1.18-.198 2.204-.48 3.044-.28.833-.693 1.461-1.299 1.888-.607.428-1.46.691-2.688.691v1Zm4-12A1.5 1.5 0 0 0 13 7.5h1a.5.5 0 0 1 .5-.5V6ZM10 5.5A1.5 1.5 0 0 0 8.5 4v1a.5.5 0 0 1 .5.5h1ZM5.092 9c-1.097 0-1.833 1.158-1.348 2.151l.899-.439a.5.5 0 0 1 .45-.712V9Zm1.05.435A1.484 1.484 0 0 0 5.092 9v1c.129 0 .252.051.343.142l.707-.707ZM10.5 2A1.5 1.5 0 0 0 9 3.5h1a.5.5 0 0 1 .5-.5V2ZM12 3.5A1.5 1.5 0 0 0 10.5 2v1a.5.5 0 0 1 .5.5h1Zm.5-.5A1.5 1.5 0 0 0 11 4.5h1a.5.5 0 0 1 .5-.5V3ZM14 4.5A1.5 1.5 0 0 0 12.5 3v1a.5.5 0 0 1 .5.5h1Zm-6 1a.5.5 0 0 1 .5-.5V4A1.5 1.5 0 0 0 7 5.5h1ZM14.5 7c.275 0 .502.224.504.504l1-.006A1.506 1.506 0 0 0 14.5 6v1Z" opacity=".8"/></svg>