<svg xmlns="http://www.w3.org/2000/svg" width="20" height="20" fill="none"><path fill="#000" fill-rule="evenodd" d="M9 10v5H4v-5h5Zm0-1V4H4v5h5Zm1-6v13H3V3h7Z" clip-rule="evenodd" opacity=".4"/><mask id="path-2-inside-1_534_12046" fill="#fff"><path fill-rule="evenodd" d="M15 3V2h-1v1h-3v1h3v5h-3v1h3v5h-3v1h3v1h1v-1h2v-1h-2v-5h2V9h-2V4h2V3h-2Z" clip-rule="evenodd"/></mask><path fill="#000" fill-rule="evenodd" d="M15 3V2h-1v1h-3v1h3v5h-3v1h3v5h-3v1h3v1h1v-1h2v-1h-2v-5h2V9h-2V4h2V3h-2Z" clip-rule="evenodd"/><path fill="#000" d="M15 2h1V1h-1v1Zm0 1h-1v1h1V3Zm-1-1V1h-1v1h1Zm0 1v1h1V3h-1Zm-3 0V2h-1v1h1Zm0 1h-1v1h1V4Zm3 0h1V3h-1v1Zm0 5v1h1V9h-1Zm-3 0V8h-1v1h1Zm0 1h-1v1h1v-1Zm3 0h1V9h-1v1Zm0 5v1h1v-1h-1Zm-3 0v-1h-1v1h1Zm0 1h-1v1h1v-1Zm3 0h1v-1h-1v1Zm0 1h-1v1h1v-1Zm1 0v1h1v-1h-1Zm0-1v-1h-1v1h1Zm2 0v1h1v-1h-1Zm0-1h1v-1h-1v1Zm-2 0h-1v1h1v-1Zm0-5V9h-1v1h1Zm2 0v1h1v-1h-1Zm0-1h1V8h-1v1Zm-2 0h-1v1h1V9Zm0-5V3h-1v1h1Zm2 0v1h1V4h-1Zm0-1h1V2h-1v1Zm-3-1v1h2V2h-2Zm0 1h1V1h-1v2Zm1 0V2h-2v1h2Zm-4 1h3V2h-3v2Zm1 0V3h-2v1h2Zm2-1h-3v2h3V3Zm1 6V4h-2v5h2Zm-4 1h3V8h-3v2Zm1 0V9h-2v1h2Zm2-1h-3v2h3V9Zm1 6v-5h-2v5h2Zm-1-1h-3v2h3v-2Zm-4 1v1h2v-1h-2Zm1 2h3v-2h-3v2Zm4 0v-1h-2v1h2Zm0-1h-1v2h1v-2Zm-1 0v1h2v-1h-2Zm1 1h2v-2h-2v2Zm3-1v-1h-2v1h2Zm-1-2h-2v2h2v-2Zm-3-4v5h2v-5h-2Zm3-1h-2v2h2V9Zm-1 0v1h2V9h-2Zm-1 1h2V8h-2v2Zm-1-6v5h2V4h-2Zm3-1h-2v2h2V3Zm-1 0v1h2V3h-2Zm-1 1h2V2h-2v2Z" mask="url(#path-2-inside-1_534_12046)"/></svg>