<svg xmlns="http://www.w3.org/2000/svg" width="20" height="20" fill="none"><path fill="#000" fill-rule="evenodd" d="M18 2H2v1h16V2ZM2 4h16v1H2V4Zm16 2H2v1h16V6ZM2 8h16v1H2V8Zm16 2H2v1h16v-1ZM2 12h16v1H2v-1Zm16 2H2v1h16v-1Zm0 2H2v1h16v-1Z" clip-rule="evenodd" opacity=".4"/><path fill="#000" d="M14.101 8.673c.644-.78.886-3.505.886-3.505 0-.292.16-1.168-.644-1.168-2.416 0-3.865 3.894-3.865 4.38 0 0 0-.778-.403-.778s-.403.779-.403.779c0-.487-1.449-4.284-3.945-4.284-.805 0-.725.876-.725 1.071 0 0 .322 2.726.886 3.505.483.584 1.369.389 1.61.292-.322.194-1.53.681-1.53 2.336 0 1.947.806 3.699 1.45 3.699.725 0 2.013-2.336 2.013-4.575 0-.195.16-.39.16-.487 0 0-.08 1.558.404 1.558.483 0 .402-1.558.402-1.558 0 .097.08.195.08.487 0 2.239 1.289 4.575 2.014 4.575.724 0 1.45-1.752 1.45-3.602 0-1.655-1.209-2.239-1.611-2.336.402 0 1.288.195 1.771-.39Z"/></svg>