<svg xmlns="http://www.w3.org/2000/svg" width="28" height="28" fill="none"><path fill="#000" fill-rule="evenodd" d="M16.087 3.05a.1.1 0 0 0-.137.037l-4.45 7.706v.001l-2.225 7.778a.199.199 0 0 0 .092.227l.068.04 3.925 2.266.068.04c.08.045.18.03.242-.035l5.624-5.816-.054-.031.055.031 4.45-7.707a.1.1 0 0 0-.037-.137l-.693-.4a.1.1 0 0 0-.137.037l-3.95 6.841-6.062-3.5 3.95-6.841a.1.1 0 0 0-.036-.137l-.693-.4Zm2.341 11.744-6.062-3.5-1.957 6.952 2.977 1.72 5.042-5.172Zm-8.763 4.179s-1.134 3.964-.268 4.464c.866.5 3.732-2.464 3.732-2.464l-3.464-2Z" clip-rule="evenodd"/></svg>