<svg xmlns="http://www.w3.org/2000/svg" width="80" height="100" fill="none"><g clip-path="url(#clip0_2964_22056)"><path fill="#214479" d="M75 19v73.667A2.333 2.333 0 0 1 72.667 95H7.333A2.333 2.333 0 0 1 5 92.667V7.333A2.333 2.333 0 0 1 7.333 5H61l14 14Z"/><path fill="#000" d="M75 19H63.333A2.333 2.333 0 0 1 61 16.667V5l14 14Z" opacity=".2"/><path fill="#fff" d="M31.14 82.635c0 .965-.185 1.771-.556 2.42-.367.644-.9 1.13-1.6 1.459-.699.324-1.54.486-2.525.486h-2.426v-8.566h2.69c.898 0 1.677.16 2.338.48.66.317 1.171.787 1.535 1.412.363.621.545 1.39.545 2.309Zm-1.886.047c0-.633-.094-1.153-.281-1.559a1.852 1.852 0 0 0-.82-.908c-.36-.196-.805-.293-1.337-.293h-.966V85.5h.779c.887 0 1.545-.236 1.974-.709.434-.473.65-1.176.65-2.11Zm11.437.023c0 .66-.082 1.262-.246 1.805a3.81 3.81 0 0 1-.75 1.394c-.332.39-.754.692-1.265.903-.512.207-1.117.31-1.817.31-.699 0-1.304-.103-1.816-.31a3.309 3.309 0 0 1-1.272-.903 3.853 3.853 0 0 1-.744-1.4 6.247 6.247 0 0 1-.246-1.81c0-.887.145-1.659.434-2.315a3.31 3.31 0 0 1 1.347-1.535c.606-.363 1.375-.545 2.309-.545.93 0 1.693.181 2.291.545a3.286 3.286 0 0 1 1.336 1.535c.293.66.44 1.435.44 2.326Zm-6.252 0c0 .598.075 1.113.223 1.547.153.43.389.762.71.996.32.23.733.346 1.241.346.516 0 .934-.115 1.254-.346.32-.234.553-.566.698-.996.148-.434.222-.95.222-1.547 0-.898-.168-1.605-.504-2.121-.336-.516-.889-.773-1.658-.773-.512 0-.93.117-1.254.351-.32.23-.556.563-.709.996-.148.43-.222.945-.222 1.547Zm11.666-2.883c-.347 0-.656.069-.925.205-.266.133-.49.326-.674.58-.18.254-.316.561-.41.92-.094.36-.14.764-.14 1.213 0 .606.073 1.123.222 1.553.152.426.387.752.703.978.316.223.724.335 1.224.335.348 0 .696-.04 1.043-.118a9.97 9.97 0 0 0 1.143-.334v1.524a5.503 5.503 0 0 1-1.12.334c-.366.07-.778.105-1.236.105-.882 0-1.609-.181-2.18-.545a3.284 3.284 0 0 1-1.259-1.535c-.273-.66-.41-1.43-.41-2.309 0-.648.088-1.242.264-1.78.175-.54.433-1.007.773-1.401.34-.395.76-.7 1.26-.914.5-.215 1.074-.322 1.722-.322.426 0 .852.054 1.278.164.43.105.84.252 1.23.44l-.586 1.476a9.704 9.704 0 0 0-.967-.399 2.883 2.883 0 0 0-.955-.17ZM57.045 87H54.97l-1.992-3.24L50.985 87H49.04l2.842-4.418-2.66-4.148h2.004l1.845 3.082 1.81-3.082h1.958l-2.69 4.248L57.045 87ZM51.8 36l-4.56 20.647L42.172 36h-4.344L32.76 56.647 28.2 36H24l6.154 26h4.633L40 40.665 45.213 62h4.633L56 36h-4.2Z"/></g><defs><clipPath id="clip0_2964_22056"><path fill="#fff" d="M0 0h80v100H0z"/></clipPath></defs></svg>