<svg xmlns="http://www.w3.org/2000/svg" width="80" height="100" fill="none"><g clip-path="url(#clip0_2964_22051)"><path fill="#5892B6" d="M75 19v73.667A2.333 2.333 0 0 1 72.667 95H7.333A2.333 2.333 0 0 1 5 92.667V7.333A2.333 2.333 0 0 1 7.333 5H61l14 14Z"/><path fill="#000" d="M75 19H63.333A2.333 2.333 0 0 1 61 16.667V5l14 14Z" opacity=".2"/><path fill="#fff" d="M30.314 87h-4.933v-8.566h4.933v1.488h-3.117v1.88h2.9v1.489h-2.9V85.5h3.117V87Zm4.53-8.566c1.105 0 1.912.238 2.42.714.508.473.761 1.125.761 1.958 0 .375-.056.734-.17 1.078-.113.34-.298.642-.556.908-.254.265-.594.476-1.02.633-.426.152-.95.228-1.576.228h-.78V87h-1.816v-8.566h2.737Zm-.094 1.488h-.826v2.543h.598c.34 0 .634-.045.884-.135.25-.09.444-.23.58-.422.137-.191.205-.437.205-.738 0-.422-.117-.734-.351-.938-.235-.207-.598-.31-1.09-.31Zm11.865-1.488v5.543c0 .59-.13 1.123-.392 1.6-.258.472-.65.847-1.178 1.124-.523.278-1.184.416-1.98.416-1.133 0-1.997-.289-2.59-.867-.594-.578-.891-1.344-.891-2.297v-5.52h1.81v5.245c0 .707.145 1.203.434 1.488.29.285.717.428 1.283.428.399 0 .721-.069.967-.205.25-.137.434-.348.55-.633.118-.285.177-.649.177-1.09v-5.232h1.81Zm2.098 0h2.666c1.14 0 2.004.16 2.59.48.586.32.879.883.879 1.688 0 .324-.053.617-.158.879-.102.261-.25.476-.446.644a1.474 1.474 0 0 1-.715.328v.059c.285.058.543.16.774.304.23.141.414.348.55.621.141.27.212.63.212 1.079 0 .52-.127.965-.381 1.336-.254.37-.618.656-1.09.855-.469.195-1.028.293-1.676.293h-3.205v-8.566Zm1.816 3.392h1.055c.527 0 .893-.082 1.096-.246.203-.168.304-.414.304-.738 0-.328-.12-.563-.363-.703-.238-.145-.617-.217-1.137-.217h-.955v1.904Zm0 1.442V85.5h1.184c.547 0 .928-.106 1.142-.316.215-.211.323-.495.323-.85 0-.211-.047-.397-.14-.557-.095-.16-.253-.285-.475-.375-.22-.09-.522-.134-.909-.134H50.53Z"/><path fill="#fff" fill-rule="evenodd" d="M39 60V37.5s-5.625-3.857-15-4.5v21.214s10.625.643 15 5.786Zm17-5.786V33c-9.375.643-15 4.5-15 4.5V60c4.375-5.143 15-5.786 15-5.786Zm1.1 3.079V37H59v22.195S50.767 57.927 40 63c-10.767-5.073-19-3.805-19-3.805V37h1.9v20.293s9.5 0 17.1 5.263c7.6-5.263 17.1-5.263 17.1-5.263Z" clip-rule="evenodd"/></g><defs><clipPath id="clip0_2964_22051"><path fill="#fff" d="M0 0h80v100H0z"/></clipPath></defs></svg>