<svg xmlns="http://www.w3.org/2000/svg" width="80" height="100" fill="none"><g clip-path="url(#clip0_2964_22049)"><path fill="#B07408" d="M75 19v73.667A2.333 2.333 0 0 1 72.667 95H7.333A2.333 2.333 0 0 1 5 92.667V7.333A2.333 2.333 0 0 1 7.333 5H61l14 14Z"/><path fill="#000" d="M75 19H63.333A2.333 2.333 0 0 1 61 16.667V5l14 14Z" opacity=".2"/><path fill="#fff" d="M32.107 87H30.32v-8.566h4.91v1.488h-3.123v2.209h2.907v1.482h-2.907V87Zm4.8-8.566h2.665c1.14 0 2.004.16 2.59.48.586.32.879.883.879 1.688 0 .324-.053.617-.158.879-.102.261-.25.476-.446.644a1.474 1.474 0 0 1-.714.328v.059c.285.058.543.16.773.304.23.141.414.348.55.621.142.27.212.63.212 1.079 0 .52-.127.965-.381 1.336-.254.37-.617.656-1.09.855-.469.195-1.027.293-1.676.293h-3.205v-8.566Zm1.816 3.392h1.054c.528 0 .893-.082 1.096-.246.203-.168.305-.414.305-.738 0-.328-.121-.563-.363-.703-.239-.145-.618-.217-1.137-.217h-.955v1.904Zm0 1.442V85.5h1.183c.547 0 .928-.106 1.143-.316.215-.211.322-.495.322-.85 0-.211-.047-.397-.14-.557-.094-.16-.253-.285-.475-.375-.219-.09-.522-.134-.908-.134h-1.125ZM50.359 87h-5.988v-1.26l2.15-2.174c.434-.445.782-.816 1.044-1.113.265-.3.457-.574.574-.82.12-.246.181-.51.181-.791 0-.34-.095-.594-.287-.762-.187-.172-.44-.258-.756-.258-.332 0-.654.076-.967.229-.312.152-.638.369-.978.65l-.984-1.166c.246-.21.505-.41.779-.597.277-.188.598-.338.96-.452.368-.117.807-.175 1.32-.175.562 0 1.044.101 1.447.304.406.203.718.48.937.832.219.348.328.742.328 1.184 0 .472-.094.904-.281 1.295-.188.39-.461.777-.82 1.16-.356.383-.786.807-1.29 1.271l-1.101 1.037v.083h3.732V87Z"/><path fill="#fff" fill-rule="evenodd" d="M39 60V37.5s-5.625-3.857-15-4.5v21.214s10.625.643 15 5.786Zm17-5.786V33c-9.375.643-15 4.5-15 4.5V60c4.375-5.143 15-5.786 15-5.786Zm1.1 3.079V37H59v22.195S50.767 57.927 40 63c-10.767-5.073-19-3.805-19-3.805V37h1.9v20.293s9.5 0 17.1 5.263c7.6-5.263 17.1-5.263 17.1-5.263Z" clip-rule="evenodd"/></g><defs><clipPath id="clip0_2964_22049"><path fill="#fff" d="M0 0h80v100H0z"/></clipPath></defs></svg>