<svg xmlns="http://www.w3.org/2000/svg" width="80" height="100" fill="none"><g clip-path="url(#clip0_2964_22047)"><path fill="#BA4C3F" d="M75 19v73.667A2.333 2.333 0 0 1 72.667 95H7.333A2.333 2.333 0 0 1 5 92.667V7.333A2.333 2.333 0 0 1 7.333 5H61l14 14Z"/><path fill="#000" d="M75 19H63.333A2.333 2.333 0 0 1 61 16.667V5l14 14Z" opacity=".2"/><path fill="#fff" d="M32.313 78.434c1.105 0 1.912.238 2.42.714.507.473.761 1.125.761 1.958 0 .375-.056.734-.17 1.078-.113.34-.299.642-.556.908-.254.265-.594.476-1.02.633-.426.152-.951.228-1.576.228h-.78V87h-1.816v-8.566h2.736Zm-.094 1.488h-.826v2.543h.597c.34 0 .635-.045.885-.135.25-.09.443-.23.58-.422.137-.191.205-.437.205-.738 0-.422-.117-.734-.351-.938-.235-.207-.598-.31-1.09-.31Zm12 2.713c0 .965-.186 1.771-.557 2.42-.367.644-.9 1.13-1.6 1.459-.699.324-1.54.486-2.525.486h-2.426v-8.566h2.69c.898 0 1.677.16 2.338.48.66.317 1.171.787 1.535 1.412.363.621.545 1.39.545 2.309Zm-1.887.047c0-.633-.094-1.153-.281-1.559a1.852 1.852 0 0 0-.82-.908c-.36-.196-.805-.293-1.337-.293h-.966V85.5h.779c.887 0 1.545-.236 1.975-.709.433-.473.65-1.176.65-2.11ZM47.782 87h-1.788v-8.566h4.91v1.488h-3.123v2.209h2.907v1.482H47.78V87ZM34.029 52.262c1.02-2.014 2.208-4.29 3.15-6.56l.375-.897c-1.227-4.649-1.97-8.38-1.291-10.791.138-.325.376-.597.68-.778a1.681 1.681 0 0 1 1.011-.23h.568c1.072 0 1.575 1.34 1.634 1.867a8.357 8.357 0 0 1-.31 2.36 5.805 5.805 0 0 0-.362-2.405c-.458-.962-.884-1.539-1.265-1.603a1.17 1.17 0 0 0-.44.898c-.105.676-.154 1.36-.148 2.045.042 2.043.357 4.072.936 6.034.117-.347.22-.642.31-.988.13-.487.962-3.725.962-3.725s-.213 4.309-.503 5.617c-.065.275-.136.551-.207.827a18.958 18.958 0 0 0 4.758 7.386c.857.72 1.79 1.343 2.783 1.86a37.536 37.536 0 0 1 5.585-.417c2.117 0 3.673.34 4.3.955.273.29.431.668.445 1.065a3.77 3.77 0 0 1-.09.64c0-.114 0-.64-1.679-1.205-1.337-.423-3.874-.41-6.85-.096 3.48 1.693 6.87 2.565 7.941 2.026a2.24 2.24 0 0 0 .581-.557c-.076.364-.187.72-.33 1.064a1.64 1.64 0 0 1-.832.564c-1.698.455-6.108-.59-9.956-2.77a81.168 81.168 0 0 0-12.802 3.008c-3.745 6.47-6.515 9.438-8.787 8.31l-.833-.418a.96.96 0 0 1-.316-1.045c.264-1.282 1.891-3.206 5.165-5.168.355-.211 1.936-1.032 1.936-1.032s-1.155 1.116-1.426 1.334c-2.583 2.122-4.52 4.79-4.488 5.828v.09c2.215-.314 5.533-4.796 9.807-13.093h-.012Zm1.368.686c-.716 1.334-1.414 2.565-2.06 3.712a54.918 54.918 0 0 1 11.041-3.103c-.49-.34-.962-.693-1.414-1.07a18.79 18.79 0 0 1-4.687-6.015 51.758 51.758 0 0 1-2.918 6.476"/></g><defs><clipPath id="clip0_2964_22047"><path fill="#fff" d="M0 0h80v100H0z"/></clipPath></defs></svg>