<svg xmlns="http://www.w3.org/2000/svg" width="80" height="100" fill="none"><g clip-path="url(#clip0_2964_22057)"><path fill="#D871D6" d="M75 19v73.667A2.333 2.333 0 0 1 72.667 95H7.333A2.333 2.333 0 0 1 5 92.667V7.333A2.333 2.333 0 0 1 7.333 5H61l14 14Z"/><path fill="#000" d="M75 19H63.333A2.333 2.333 0 0 1 61 16.667V5l14 14Z" opacity=".2"/><path fill="#fff" d="M30.818 78.434c1.106 0 1.912.238 2.42.714.508.473.762 1.125.762 1.958 0 .375-.057.734-.17 1.078-.113.34-.299.642-.557.908-.254.265-.593.476-1.02.633-.425.152-.95.228-1.575.228h-.78V87h-1.816v-8.566h2.736Zm-.093 1.488h-.827v2.543h.598c.34 0 .635-.045.885-.135.25-.09.443-.23.58-.422.137-.191.205-.437.205-.738 0-.422-.117-.734-.351-.938-.235-.207-.598-.31-1.09-.31ZM43.217 87h-2.309l-3.726-6.48h-.053c.016.27.03.54.04.814.013.273.024.547.036.82l.035.815V87h-1.623v-8.566h2.291l3.72 6.416h.042c-.008-.266-.018-.53-.03-.791l-.035-.786-.023-.785v-4.054h1.635V87Zm5.414-4.81h3.398v4.44c-.449.15-.916.268-1.4.358a9.49 9.49 0 0 1-1.647.13c-.851 0-1.574-.169-2.167-.505-.594-.336-1.045-.832-1.354-1.488-.309-.656-.463-1.463-.463-2.42 0-.898.172-1.676.516-2.332a3.635 3.635 0 0 1 1.517-1.523c.668-.36 1.483-.54 2.444-.54.453 0 .9.05 1.341.147a6.57 6.57 0 0 1 1.202.38l-.604 1.454a4.622 4.622 0 0 0-.896-.334 4.068 4.068 0 0 0-1.055-.135c-.528 0-.986.121-1.377.364a2.441 2.441 0 0 0-.902 1.02c-.211.433-.317.944-.317 1.534 0 .559.076 1.055.229 1.489.152.43.392.767.72 1.013.328.242.756.364 1.284.364.257 0 .474-.012.65-.036.18-.027.348-.054.504-.082v-1.787H48.63V82.19Z"/><mask id="path-4-inside-1_2964_22057" fill="#fff"><path fill-rule="evenodd" d="M25.368 44.412a4.206 4.206 0 1 0 0-8.412 4.206 4.206 0 0 0 0 8.412Zm18.735-5.353L58.633 62H21.162l10.323-16.824 4.303 7.012 8.315-13.13Z" clip-rule="evenodd"/></mask><path fill="#fff" fill-rule="evenodd" d="M25.368 44.412a4.206 4.206 0 1 0 0-8.412 4.206 4.206 0 0 0 0 8.412Zm18.735-5.353L58.633 62H21.162l10.323-16.824 4.303 7.012 8.315-13.13Z" clip-rule="evenodd"/><path fill="#fff" d="M58.633 62v2h3.633l-1.944-3.07-1.69 1.07Zm-14.53-22.941 1.69-1.07-1.69-2.668-1.69 2.668 1.69 1.07ZM21.162 62l-1.705-1.046L17.588 64h3.574v-2Zm10.323-16.824 1.705-1.046-1.705-2.778-1.704 2.778 1.704 1.046Zm4.303 7.012-1.705 1.046 1.678 2.734 1.716-2.71-1.69-1.07Zm-8.214-11.982a2.206 2.206 0 0 1-2.206 2.206v4a6.206 6.206 0 0 0 6.206-6.206h-4ZM25.368 38c1.218 0 2.206.988 2.206 2.206h4A6.206 6.206 0 0 0 25.368 34v4Zm-2.206 2.206c0-1.218.988-2.206 2.206-2.206v-4a6.206 6.206 0 0 0-6.206 6.206h4Zm2.206 2.206a2.206 2.206 0 0 1-2.206-2.206h-4a6.206 6.206 0 0 0 6.206 6.206v-4ZM60.322 60.93l-14.53-22.941-3.379 2.14 14.53 22.941 3.38-2.14ZM21.162 64h37.47v-4h-37.47v4Zm8.619-19.87L19.457 60.954l3.41 2.092L33.19 46.222l-3.41-2.092Zm7.712 7.012L33.19 44.13l-3.41 2.092 4.303 7.012 3.41-2.092Zm4.92-13.153-8.315 13.129 3.38 2.14 8.315-13.13-3.38-2.14Z" mask="url(#path-4-inside-1_2964_22057)"/></g><defs><clipPath id="clip0_2964_22057"><path fill="#fff" d="M0 0h80v100H0z"/></clipPath></defs></svg>