<svg xmlns="http://www.w3.org/2000/svg" width="80" height="100" fill="none"><g clip-path="url(#clip0_2964_22037)"><path fill="#DD682B" d="M75 19v73.667A2.333 2.333 0 0 1 72.667 95H7.333A2.333 2.333 0 0 1 5 92.667V7.333A2.333 2.333 0 0 1 7.333 5H61l14 14Z"/><path fill="#fff" fill-rule="evenodd" d="M41 46V34a12 12 0 0 1 12 12H41Zm6.485 10.485A12 12 0 1 1 39 36v12h12a12 12 0 0 1-3.515 8.485Z" clip-rule="evenodd"/><path fill="#000" d="M75 19H63.333A2.333 2.333 0 0 1 61 16.667V5l14 14Z" opacity=".2"/><path fill="#fff" d="M27.795 78.434c1.105 0 1.912.238 2.42.714.508.473.762 1.125.762 1.958 0 .375-.057.734-.17 1.078-.114.34-.3.642-.557.908-.254.265-.594.476-1.02.633-.425.152-.95.228-1.576.228h-.779V87h-1.816v-8.566h2.736Zm-.094 1.488h-.826v2.543h.598c.34 0 .634-.045.884-.135.25-.09.444-.23.58-.422.137-.191.206-.437.206-.738 0-.422-.118-.734-.352-.938-.234-.207-.598-.31-1.09-.31Zm12.668 2.783c0 .66-.082 1.262-.246 1.805a3.808 3.808 0 0 1-.75 1.394c-.332.39-.754.692-1.266.903-.511.207-1.117.31-1.816.31-.7 0-1.305-.103-1.816-.31a3.31 3.31 0 0 1-1.272-.903 3.851 3.851 0 0 1-.744-1.4 6.244 6.244 0 0 1-.246-1.81c0-.887.144-1.659.434-2.315a3.31 3.31 0 0 1 1.347-1.535c.606-.363 1.375-.545 2.309-.545.93 0 1.693.181 2.29.545a3.287 3.287 0 0 1 1.337 1.535c.293.66.44 1.435.44 2.326Zm-6.252 0c0 .598.074 1.113.223 1.547.152.43.388.762.709.996.32.23.734.346 1.242.346.516 0 .934-.115 1.254-.346.32-.234.553-.566.697-.996.149-.434.223-.95.223-1.547 0-.898-.168-1.605-.504-2.121-.336-.516-.889-.773-1.658-.773-.512 0-.93.117-1.254.351-.32.23-.557.563-.71.996-.148.43-.222.945-.222 1.547ZM45.45 87h-1.816v-7.055h-2.326v-1.511h6.468v1.511H45.45V87Zm10.57 0h-2.074l-1.992-3.24L49.961 87h-1.945l2.841-4.418-2.66-4.148h2.004l1.846 3.082 1.81-3.082h1.958l-2.69 4.248L56.02 87Z"/><path fill="#fff" fill-rule="evenodd" d="M12 10a2 2 0 0 0-2 2v9a2 2 0 0 0 2 2h9a2 2 0 0 0 2-2v-9a2 2 0 0 0-2-2h-9Zm5.213 10v-5.962H19.4v-1.147h-5.8v1.147h2.153V20h1.46Z" clip-rule="evenodd"/></g><defs><clipPath id="clip0_2964_22037"><path fill="#fff" d="M0 0h80v100H0z"/></clipPath></defs></svg>