<svg xmlns="http://www.w3.org/2000/svg" width="80" height="100" fill="none"><g clip-path="url(#clip0_2964_22034)"><path fill="#DD682B" d="M75 19v73.667A2.333 2.333 0 0 1 72.667 95H7.333A2.333 2.333 0 0 1 5 92.667V7.333A2.333 2.333 0 0 1 7.333 5H61l14 14Z"/><path fill="#fff" fill-rule="evenodd" d="M42 47V35a12 12 0 0 1 12 12H42Zm6.485 10.485A12 12 0 1 1 40 37v12h12a12 12 0 0 1-3.515 8.485Z" clip-rule="evenodd"/><path fill="#000" d="M75 19H63.333A2.333 2.333 0 0 1 61 16.667V5l14 14Z" opacity=".2"/><path fill="#fff" d="M27.145 78.434c1.105 0 1.912.238 2.42.714.507.473.761 1.125.761 1.958 0 .375-.056.734-.17 1.078-.113.34-.299.642-.556.908-.254.265-.594.476-1.02.633-.426.152-.951.228-1.576.228h-.78V87h-1.816v-8.566h2.736Zm-.094 1.488h-.826v2.543h.597c.34 0 .635-.045.885-.135.25-.09.443-.23.58-.422.137-.191.205-.437.205-.738 0-.422-.117-.734-.351-.938-.235-.207-.598-.31-1.09-.31Zm7.629-1.488c1.105 0 1.912.238 2.42.714.507.473.761 1.125.761 1.958 0 .375-.056.734-.17 1.078-.113.34-.298.642-.556.908-.254.265-.594.476-1.02.633-.425.152-.95.228-1.576.228h-.78V87h-1.816v-8.566h2.737Zm-.094 1.488h-.826v2.543h.597c.34 0 .635-.045.885-.135.25-.09.444-.23.58-.422.137-.191.205-.437.205-.738 0-.422-.117-.734-.351-.938-.235-.207-.598-.31-1.09-.31ZM42.783 87h-1.816v-7.055H38.64v-1.511h6.468v1.511h-2.326V87Zm7.272 0-2.063-6.72h-.052l.035.726c.02.32.037.662.052 1.025.016.363.024.692.024.985V87h-1.623v-8.566H48.9l2.028 6.55h.035l2.15-6.55h2.473V87h-1.693v-4.055c0-.27.004-.58.011-.931.012-.352.026-.686.041-1.002l.035-.721h-.052L51.718 87h-1.663Z"/><path fill="#fff" fill-rule="evenodd" d="M12 10a2 2 0 0 0-2 2v9a2 2 0 0 0 2 2h9a2 2 0 0 0 2-2v-9a2 2 0 0 0-2-2h-9Zm2.664 2.89h-1.91V20h1.46v-2.021l-.145-3.302L15.992 20h.996l1.923-5.323-.145 3.302V20h1.465v-7.11h-1.915l-1.826 5.22-1.826-5.22Z" clip-rule="evenodd"/></g><defs><clipPath id="clip0_2964_22034"><path fill="#fff" d="M0 0h80v100H0z"/></clipPath></defs></svg>