<svg xmlns="http://www.w3.org/2000/svg" width="80" height="100" fill="none"><g clip-path="url(#clip0_2964_22038)"><path fill="#DD682B" d="M75 19v73.667A2.333 2.333 0 0 1 72.667 95H7.333A2.333 2.333 0 0 1 5 92.667V7.333A2.333 2.333 0 0 1 7.333 5H61l14 14Z"/><path fill="#fff" fill-rule="evenodd" d="M41 46V34a12 12 0 0 1 12 12H41Zm6.485 10.485A12 12 0 1 1 39 36v12h12a12 12 0 0 1-3.515 8.485Z" clip-rule="evenodd"/><path fill="#000" d="M75 19H63.333A2.333 2.333 0 0 1 61 16.667V5l14 14Z" opacity=".2"/><path fill="#fff" d="M28.803 78.434c1.105 0 1.912.238 2.42.714.508.473.761 1.125.761 1.958 0 .375-.056.734-.17 1.078-.113.34-.298.642-.556.908-.254.265-.594.476-1.02.633-.425.152-.95.228-1.576.228h-.78V87h-1.816v-8.566h2.737Zm-.094 1.488h-.826v2.543h.598c.34 0 .634-.045.884-.135.25-.09.444-.23.58-.422.137-.191.205-.437.205-.738 0-.422-.117-.734-.351-.938-.235-.207-.598-.31-1.09-.31Zm7.629-1.488c1.105 0 1.912.238 2.42.714.508.473.761 1.125.761 1.958 0 .375-.056.734-.17 1.078-.113.34-.298.642-.556.908-.254.265-.594.476-1.02.633-.425.152-.95.228-1.576.228h-.779V87h-1.816v-8.566h2.736Zm-.094 1.488h-.826v2.543h.598c.34 0 .634-.045.884-.135.25-.09.444-.23.58-.422.137-.191.206-.437.206-.738 0-.422-.118-.734-.352-.938-.234-.207-.598-.31-1.09-.31ZM44.441 87h-1.816v-7.055h-2.326v-1.511h6.469v1.511H44.44V87Zm10.57 0h-2.074l-1.992-3.24L48.953 87h-1.945l2.842-4.418-2.66-4.148h2.003l1.846 3.082 1.81-3.082h1.958l-2.69 4.248L55.012 87Z"/></g><defs><clipPath id="clip0_2964_22038"><path fill="#fff" d="M0 0h80v100H0z"/></clipPath></defs></svg>