<svg xmlns="http://www.w3.org/2000/svg" width="80" height="100" fill="none"><g clip-path="url(#clip0_2964_22045)"><path fill="#1F7244" d="M75 19v73.667A2.333 2.333 0 0 1 72.667 95H7.333A2.333 2.333 0 0 1 5 92.667V7.333A2.333 2.333 0 0 1 7.333 5H61l14 14Z"/><path fill="#000" d="M75 19H63.333A2.333 2.333 0 0 1 61 16.667V5l14 14Z" opacity=".2"/><path fill="#fff" d="M33.303 87h-2.074l-1.993-3.24L27.244 87H25.3l2.842-4.418-2.66-4.148h2.003l1.846 3.082 1.81-3.082h1.958l-2.69 4.248L33.303 87Zm1.078 0v-8.566h1.816V85.5h3.475V87H34.38Zm11.842-2.379c0 .508-.123.95-.37 1.324-.246.375-.605.664-1.078.868-.468.203-1.039.304-1.71.304a6.023 6.023 0 0 1-1.688-.228 5.088 5.088 0 0 1-.738-.287v-1.688c.406.18.828.342 1.265.486a4.13 4.13 0 0 0 1.301.217c.297 0 .535-.039.715-.117a.818.818 0 0 0 .398-.322.893.893 0 0 0 .123-.469.772.772 0 0 0-.216-.55 2.264 2.264 0 0 0-.598-.428c-.25-.133-.533-.276-.85-.428a9.732 9.732 0 0 1-.65-.34 3.798 3.798 0 0 1-.668-.498 2.4 2.4 0 0 1-.522-.71c-.132-.28-.199-.616-.199-1.007 0-.512.117-.95.352-1.313.234-.363.568-.64 1.002-.832.437-.195.953-.292 1.547-.292.445 0 .869.052 1.271.158.406.101.83.25 1.272.445l-.586 1.412a9.712 9.712 0 0 0-1.06-.369 3.442 3.442 0 0 0-.956-.135c-.227 0-.42.037-.58.112a.782.782 0 0 0-.486.755c0 .204.058.376.175.516.121.137.301.27.54.398.242.13.543.28.902.452.437.207.81.423 1.119.65.313.223.553.486.72.791.169.3.253.676.253 1.125ZM54.7 87h-2.074l-1.992-3.24L48.643 87h-1.946l2.842-4.418-2.66-4.148h2.004l1.845 3.082 1.811-3.082h1.957l-2.69 4.248L54.702 87ZM41.491 48.717 49.638 36h-3.983L39.5 45.605 33.345 36h-3.983l8.147 12.717L29 62h3.983L39.5 51.83 46.017 62H50l-8.509-13.283Z"/></g><defs><clipPath id="clip0_2964_22045"><path fill="#fff" d="M0 0h80v100H0z"/></clipPath></defs></svg>