<svg xmlns="http://www.w3.org/2000/svg" width="28" height="28" fill="none"><path fill="#000" fill-rule="evenodd" d="M25 3H3v1h22V3ZM3 5h22v1H3V5Zm18 2h4v1h-4V7Zm4 2h-4v1h4V9Zm-4 2h4v1h-4v-1Zm4 2h-4v1h4v-1Zm-4 2h4v1h-4v-1Zm4 2h-4v1h4v-1Zm-4 2h4v1h-4v-1Zm4 2H3v1h22v-1Zm0 2H3v1h22v-1ZM7 19H3v1h4v-1Zm-4-2h4v1H3v-1Zm4-2H3v1h4v-1Zm-4-2h4v1H3v-1Zm4-2H3v1h4v-1ZM3 9h4v1H3V9Zm4-2H3v1h4V7Zm12.984 1.38s-.29 3.222-1.063 4.142c-.477.569-1.282.513-1.822.476-.115-.008-.218-.016-.303-.016.483.115 1.932.806 1.932 2.761 0 2.186-.87 4.257-1.74 4.257-.869 0-2.415-2.761-2.415-5.407 0-.219-.039-.345-.067-.438-.014-.045-.025-.082-.029-.118.009.198.06 1.821-.484 1.821-.553 0-.49-1.68-.483-1.83a.637.637 0 0 1-.072.184c-.055.111-.12.246-.12.38C13.317 17.24 11.77 20 10.9 20c-.773 0-1.739-2.07-1.739-4.372 0-1.769 1.186-2.408 1.699-2.685.054-.029.1-.054.137-.076-.29.115-1.353.345-1.932-.345-.677-.92-1.063-4.141-1.063-4.141l-.001-.06c-.008-.31-.029-1.206.87-1.206 2.996 0 4.735 4.487 4.735 5.062 0 0 0-.92.483-.92s.483.92.483.92c0-.575 1.74-5.177 4.638-5.177.847 0 .803.796.78 1.225-.004.06-.007.113-.007.156Z" clip-rule="evenodd"/></svg>