<svg xmlns="http://www.w3.org/2000/svg" width="28" height="28" fill="none"><path fill="#000" fill-rule="evenodd" d="M15 6h-1V4H7v6H6V4a1 1 0 0 1 1-1h7.586a1 1 0 0 1 .707.293L18 6h-1.414L15 4.414V6ZM6 17v3a1 1 0 0 0 1 1h3v-1H7v-3H6ZM3 7h2v1H4v5H3V7Zm0 6v1h3.836l-1.293 1.293.707.707 2.5-2.5-2.5-2.5-.707.707L6.836 13H3Zm9-4.969V23.97h12v-9.75h-5c-.552 0-1-.462-1-1.031V8.031h-6Zm7 .427 4.586 4.73H19v-4.73ZM12 7c-.552 0-1 .462-1 1.031V23.97c0 .57.448 1.031 1 1.031h12c.552 0 1-.462 1-1.031V13.615c0-.274-.105-.536-.293-.73l-5.414-5.583A.985.985 0 0 0 18.586 7H12Zm10 10v-1h-8v1h8Zm-1 4v-1h-6v1h6Zm-6-2h-1v3h8v-3h-7Z" clip-rule="evenodd"/></svg>