<svg xmlns="http://www.w3.org/2000/svg" width="28" height="28" fill="none"><path fill="#000" fill-rule="evenodd" d="M6 24h16V4H6v20ZM6 3a1 1 0 0 0-1 1v20a1 1 0 0 0 1 1h16a1 1 0 0 0 1-1V4a1 1 0 0 0-1-1H6Zm3 17h7v1H9v-1Zm9 0h-1v1h1v-1ZM9 7h10v6.293l-2.5-2.5-4 4-1-1-2.5 2.5V7Zm0 10Zm.707 0H19v-2.293l-2.5-2.5-4 4-1-1L9.707 17ZM8 7a1 1 0 0 1 1-1h10a1 1 0 0 1 1 1v10a1 1 0 0 1-1 1H9a1 1 0 0 1-1-1V7Zm4 2.5a.5.5 0 1 1-1 0 .5.5 0 0 1 1 0Zm1 0a1.5 1.5 0 1 1-3 0 1.5 1.5 0 0 1 3 0Z" clip-rule="evenodd"/></svg>