<svg xmlns="http://www.w3.org/2000/svg" width="28" height="28" fill="none"><path fill="#000" fill-rule="evenodd" d="M21 24H7V4h9v4a1 1 0 0 0 1 1h4v15Zm-.414-16L17 4.414V8h3.586ZM7 25h14a1 1 0 0 0 1-1V8.414a1 1 0 0 0-.293-.707l-4.414-4.414A1 1 0 0 0 16.586 3H7a1 1 0 0 0-1 1v20a1 1 0 0 0 1 1Z" clip-rule="evenodd"/><path fill="#000" d="M16.413 16.782h-4.834L9.92 21H9l4.784-12h.53L19 21h-.936l-1.651-4.218Zm-4.533-.752h4.256l-1.62-4.308a20.983 20.983 0 0 1-.488-1.406c-.146.523-.306.997-.48 1.422L11.88 16.03Z" opacity=".4"/></svg>