<svg xmlns="http://www.w3.org/2000/svg" width="28" height="28" fill="none"><path fill="#000" d="M24 12.818c0 1.843-.382 3.323-1.145 4.438-.756 1.116-1.784 1.674-3.084 1.674-.747 0-1.355-.218-1.825-.655-.462-.436-.73-1.03-.806-1.783h-.05c-.36.809-.881 1.42-1.56 1.832-.68.404-1.473.606-2.38.606-1.242 0-2.202-.388-2.882-1.164-.68-.784-1.02-1.88-1.02-3.287 0-1.633.504-2.967 1.511-4.002 1.015-1.043 2.337-1.565 3.965-1.565 1.158 0 2.358.166 3.6.497l-.277 5.628v.364c0 .84.146 1.476.44 1.904.294.42.78.63 1.46.63.864 0 1.57-.468 2.115-1.406.553-.946.83-2.175.83-3.687 0-1.569-.331-2.943-.994-4.124-.663-1.18-1.611-2.086-2.845-2.717-1.225-.639-2.626-.958-4.203-.958-1.93 0-3.634.404-5.11 1.213a8.313 8.313 0 0 0-3.4 3.408c-.789 1.472-1.183 3.162-1.183 5.07 0 2.603.7 4.617 2.102 6.04 1.401 1.415 3.39 2.122 5.966 2.122.78 0 1.569-.073 2.366-.218.806-.146 1.78-.429 2.92-.849v1.2c-1.703.648-3.44.971-5.21.971-2.929 0-5.211-.809-6.848-2.426C4.818 19.95 4 17.694 4 14.806c0-2.07.453-3.93 1.36-5.579a9.623 9.623 0 0 1 3.863-3.856C10.893 4.457 12.777 4 14.875 4c1.804 0 3.398.36 4.783 1.08 1.393.72 2.462 1.75 3.21 3.092C23.621 9.506 24 11.055 24 12.818Zm-13.455 1.637c0 1.156.23 2.025.692 2.607.462.583 1.192.874 2.19.874 2.14 0 3.285-1.4 3.436-4.197l.202-3.53c-.663-.217-1.473-.327-2.43-.327-1.25 0-2.244.417-2.982 1.25-.739.824-1.108 1.932-1.108 3.323Z"/></svg>