<svg xmlns="http://www.w3.org/2000/svg" width="28" height="28" fill="none"><path fill="#000" fill-rule="evenodd" d="M14 24H7V4h8v5a1 1 0 0 0 1 1h5v3h1V9.414a1 1 0 0 0-.293-.707l-5.414-5.414A1 1 0 0 0 15.586 3H7a1 1 0 0 0-1 1v20a1 1 0 0 0 1 1h7v-1Zm2-19.586L20.586 9H16V4.414Z" clip-rule="evenodd"/><path fill="#000" fill-rule="evenodd" d="M22 18v1h-4v-1a2 2 0 1 1 4 0Zm-5 1v-1a3 3 0 1 1 6 0v1a1 1 0 0 1 1 1v5a1 1 0 0 1-1 1h-6a1 1 0 0 1-1-1v-5a1 1 0 0 1 1-1Zm6 1h-6v5h6v-5Z" clip-rule="evenodd"/></svg>