<svg xmlns="http://www.w3.org/2000/svg" width="20" height="20" fill="none"><path fill="#000" fill-rule="evenodd" d="M10 2c2.21 0 4 1.343 4 3v2a2 2 0 0 1 2 2v6a2 2 0 0 1-2 2H6a2 2 0 0 1-2-2V9a2 2 0 0 1 2-2V5c0-1.657 1.79-3 4-3ZM7 5v2h6V5c0-.443-.237-.92-.772-1.321C11.694 3.278 10.91 3 10 3c-.91 0-1.694.278-2.228.679C7.237 4.079 7 4.557 7 5Zm6 3h1a1 1 0 0 1 1 1v6a1 1 0 0 1-1 1H6a1 1 0 0 1-1-1V9a1 1 0 0 1 1-1h7Zm-1 3a2 2 0 0 1-1 1.732V15H9v-2.268A2 2 0 0 1 10 9a2 2 0 0 1 2 2Z" clip-rule="evenodd"/></svg>