<svg xmlns="http://www.w3.org/2000/svg" width="20" height="20" fill="none"><path fill="#000" fill-rule="evenodd" d="M18 2H2v1h16V2ZM2 4h16v1H2V4Zm16 2H2v1h16V6ZM2 8h16v1H2V8Zm16 2H2v1h16v-1ZM2 12h16v1H2v-1Zm16 2H2v1h16v-1Zm0 2H2v1h16v-1Z" clip-rule="evenodd" opacity=".4"/><path fill="#000" fill-rule="evenodd" d="m5 5 .001.118.001.05s.041.349.12.832h3.476a5.983 5.983 0 0 0-.842-1H5Zm7.294 0a6.36 6.36 0 0 0-.785 1h3.378c.069-.483.1-.832.1-.832 0-.036.002-.08.005-.132L14.994 5h-2.7Zm2.15 3c.107-.302.196-.651.27-1h-3.758a7.66 7.66 0 0 0-.396 1h3.884ZM5.576 8a9.673 9.673 0 0 1-.266-1h3.868c.192.389.33.742.41 1H5.576Zm8.048 1H7.437l-.053.029c-.27.147-.762.417-1.089.971h3.283a.214.214 0 0 0 .014-.053L9.59 10h.81l-.002-.045a.3.3 0 0 0 .008.045h3.158c-.39-.614-.977-.876-1.234-.938.07 0 .157.006.253.013.297.02.693.049 1.041-.075Zm-6.23 0H6.368c.38.13.8.066 1.026 0Zm3.036-1c-.05-.198-.15-.398-.355-.398-.204 0-.305.2-.354.398h.709Zm-4.462 3.3c0-.104.005-.204.015-.3h3.42a7.305 7.305 0 0 1-.164 1H6.002a7.269 7.269 0 0 1-.034-.7Zm4.027.196c-.182 0-.284-.22-.34-.496h.68c-.057.275-.159.496-.34.496Zm.675.504a7.295 7.295 0 0 1-.165-1h3.41c.016.125.025.258.025.398a7.3 7.3 0 0 1-.025.602H10.67Zm3.092 1h-2.785c.141.372.303.71.472 1h1.993c.127-.29.236-.63.32-1Zm-4.83 0H6.17c.09.372.204.711.333 1H8.46c.169-.29.33-.628.472-1Z" clip-rule="evenodd"/></svg>