<svg xmlns="http://www.w3.org/2000/svg" width="20" height="20" fill="none"><path fill="#000" fill-rule="evenodd" d="M2 2h16v1H2V2Zm0 14h16v1H2v-1ZM14.987 5.168s-.242 2.726-.886 3.505c-.398.48-1.069.433-1.518.402-.096-.007-.182-.013-.253-.013.402.097 1.61.681 1.61 2.336 0 1.85-.725 3.602-1.45 3.602-.724 0-2.012-2.336-2.012-4.575 0-.185-.033-.292-.056-.37-.012-.039-.021-.07-.024-.1.007.167.05 1.54-.403 1.54-.462 0-.41-1.421-.403-1.548-.004.04-.03.093-.06.155-.046.095-.101.209-.101.323C9.43 12.664 8.143 15 7.418 15c-.644 0-1.45-1.752-1.45-3.7 0-1.496.989-2.037 1.416-2.271.045-.025.084-.046.114-.064-.241.097-1.127.292-1.61-.292-.564-.78-.886-3.505-.886-3.505v-.05c-.007-.262-.024-1.02.725-1.02 2.496 0 3.945 3.796 3.945 4.283 0 0 0-.78.403-.78s.403.78.403.78c0-.487 1.45-4.381 3.865-4.381.706 0 .669.673.65 1.036a2.615 2.615 0 0 0-.006.132Z" clip-rule="evenodd"/></svg>