<svg xmlns="http://www.w3.org/2000/svg" width="20" height="20" fill="none"><g opacity=".4"><mask id="mask0_6414_82869" width="8" height="8" x="10" y="2" maskUnits="userSpaceOnUse" style="mask-type:alpha"><path fill="#C4C4C4" fill-rule="evenodd" d="M18 10a8 8 0 0 0-8-8v3h1v4h3v1h4Z" clip-rule="evenodd" opacity=".4"/></mask><g mask="url(#mask0_6414_82869)"><path fill="#000" d="M8 2h11v11H8z"/></g></g><path fill="#000" fill-rule="evenodd" d="M10 3a7 7 0 0 1 7 7h-3v1h2.93A7.001 7.001 0 0 1 3 10a7.002 7.002 0 0 1 6-6.93V5h1V3Zm8 7a8 8 0 1 1-16 0 8 8 0 0 1 16 0Zm-9 0V6h1v4h3v1H9v-1Z" clip-rule="evenodd"/></svg>