<svg xmlns="http://www.w3.org/2000/svg" width="20" height="20" fill="none"><path fill="#000" d="M4.607 13.61 6.304 4H18v1H7.15L5.04 17.083l-.99-.018-.67-5.136H2v-1h2.257l.35 2.682Z"/><path fill="#000" d="M12.352 9.742a3.265 3.265 0 0 0-.579-.812l-2.085.367v.281c.156-.01.294-.015.414-.015.375 0 .658.07.851.21.193.141.35.38.469.72.026.072.2.741.523 2.007-.13.292-.406.766-.828 1.422-.422.656-.755 1.083-1 1.281-.099.084-.18.125-.242.125-.073 0-.177-.06-.313-.18-.187-.166-.364-.25-.53-.25a.573.573 0 0 0-.423.172.583.583 0 0 0-.171.43c0 .193.062.346.187.461a.845.845 0 0 0 .57.227c.297 0 .604-.13.922-.391.49-.406 1.14-1.315 1.953-2.727.344 1.547.57 2.422.68 2.625.172.328.404.493.695.493.198 0 .44-.115.727-.344a4.892 4.892 0 0 0 1.25-1.531l-.274-.141a3.062 3.062 0 0 1-.734.937c-.146.12-.273.18-.383.18-.068 0-.135-.039-.203-.117-.068-.083-.15-.33-.25-.742l-.64-2.688c.447-.776.833-1.3 1.156-1.57.172-.146.32-.219.445-.219.083 0 .248.042.492.125.125.047.242.07.352.07a.73.73 0 0 0 .5-.195c.078-.073.117-.208.117-.406a.563.563 0 0 0-.203-.438c-.13-.12-.307-.18-.531-.18-.151 0-.29.027-.414.079-.198.083-.428.24-.688.469-.26.224-.482.46-.664.71l-.688 1.032c-.213-.797-.367-1.29-.46-1.477Z"/></svg>