<svg xmlns="http://www.w3.org/2000/svg" width="20" height="20" fill="none"><path fill="#000" fill-rule="evenodd" d="m9.646 8.354-2-2-3.439 3.439a1 1 0 0 0 0 1.414l2.586 2.586a1 1 0 0 0 1.414 0l4.586-4.586a1 1 0 0 0 0-1.414l-2.586-2.586a1 1 0 0 0-1.414 0l-.44.44 2 2-.707.707ZM3.5 9.086l3.44-3.44-2.294-2.292.707-.708L7.646 4.94l.44-.439a2 2 0 0 1 2.828 0L13.5 7.086a2 2 0 0 1 0 2.828L8.914 14.5a2 2 0 0 1-2.828 0L3.5 11.914a2 2 0 0 1 0-2.828ZM16 13.5a1.5 1.5 0 1 1-3 0c0-.828 1.5-2.5 1.5-2.5s1.5 1.672 1.5 2.5Z" clip-rule="evenodd"/></svg>