<svg xmlns="http://www.w3.org/2000/svg" width="20" height="20" fill="none"><path fill="#000" fill-rule="evenodd" d="M10 12c.291 0 .576-.031.85-.09a3.992 3.992 0 0 0-.85-1.556c-.39.443-.685.972-.85 1.556.274.059.558.09.85.09Zm-1.794-.424c.209-.706.57-1.346 1.044-1.884a4.015 4.015 0 0 0-3.1-.602 4.01 4.01 0 0 0 2.056 2.486ZM10 9a4.978 4.978 0 0 0-3-1c-.342 0-.676.034-.999.1L6 8a4 4 0 1 1 7.999.1A5.024 5.024 0 0 0 13 8a4.978 4.978 0 0 0-3 1Zm4.983-.591a5 5 0 1 0-9.967 0A5.001 5.001 0 1 0 10 17a5 5 0 1 0 4.983-8.592Zm-1.133.681a4.016 4.016 0 0 0-3.1.602 4.992 4.992 0 0 1 1.044 1.884A4.01 4.01 0 0 0 13.85 9.09Zm.944.334a4 4 0 1 1-4.044 6.884 4.98 4.98 0 0 0 1.233-3.717 5.013 5.013 0 0 0 2.811-3.167ZM10 15.646a3.985 3.985 0 0 0 .999-2.746A5.019 5.019 0 0 1 9 12.9v.1c0 1.014.378 1.94 1 2.646Zm-.75.662a4.98 4.98 0 0 1-1.234-3.717 5.013 5.013 0 0 1-2.81-3.167 4 4 0 1 0 4.044 6.884Z" clip-rule="evenodd"/></svg>